<svg width="25" height="23" viewBox="0 0 25 23" fill="none" xmlns="http://www.w3.org/2000/svg">
<path d="M14.44 4.54443C12.63 4.54443 11.01 5.42443 10 6.77443C8.99 5.42443 7.37 4.54443 5.56 4.54443C2.49 4.54443 0 7.04443 0 10.1344C0 11.3244 0.19 12.4244 0.52 13.4444C2.1 18.4444 6.97 21.4344 9.38 22.2544C9.72 22.3744 10.28 22.3744 10.62 22.2544C13.03 21.4344 17.9 18.4444 19.48 13.4444C19.81 12.4244 20 11.3244 20 10.1344C20 7.04443 17.51 4.54443 14.44 4.54443Z" fill="url(#heart-grad)"/>
<defs>
<linearGradient id="heart-grad" x1="10" y1="4.54443" x2="12.3582" y2="24.3056" gradientUnits="userSpaceOnUse">
<stop offset="0.108405" stop-color="#FF0000"/>
<stop offset="1" stop-color="#7F0303"/>
</linearGradient>
</defs>
</svg>
