<svg width="16" height="16" viewBox="0 0 16 16" fill="none" xmlns="http://www.w3.org/2000/svg">
<g clip-path="url(#clip0_80_1793)">
<path d="M12.3238 6.39493C11.795 6.50993 11.3388 6.80493 11.125 7.31368C10.9963 7.62243 10.8163 8.41993 10.3225 8.21368C10.0863 8.11618 10.09 7.77743 10.1175 7.56618C10.1763 7.13243 10.3713 6.73618 10.505 6.32368C10.6425 5.89618 10.7613 5.46618 10.8463 5.02368C11.1313 3.55868 11.0525 1.87118 10.0163 0.69993C9.84126 0.499931 9.40001 0.0374305 9.10876 0.0274305C8.92876 0.0224305 9.10626 0.234931 9.15626 0.306181C9.25751 0.45243 9.34251 0.61118 9.40751 0.77743C10.1738 2.73243 8.28501 4.22118 7.04376 5.37993C6.44876 5.93618 5.97376 6.52618 5.54626 7.21493C5.50376 7.28118 5.41001 7.50368 5.28876 7.45743C5.14501 7.40243 5.13001 7.07368 5.08501 6.95118C5.00001 6.71618 4.86876 6.45993 4.70001 6.27618C4.37376 5.91868 3.91751 5.67743 3.42376 5.70993C3.40501 5.71118 3.35126 5.71993 3.28501 5.73493C3.18126 5.75743 2.90376 5.79368 2.97876 5.96118C3.01751 6.04743 3.13126 6.03993 3.21251 6.06368C4.25501 6.38368 4.23126 7.47618 4.06251 8.35368C3.75751 9.95118 2.91251 11.4612 3.51251 13.1037C4.22001 15.0399 6.43501 16.2487 8.44501 15.9162C8.99376 15.8262 9.62626 15.6487 10.1188 15.3837C10.6425 15.1012 11.2163 14.7149 11.625 14.2799C12.1513 13.7212 12.4863 13.0049 12.585 12.2462C12.7013 11.3687 12.4213 10.5412 12.1663 9.71243C11.8588 8.71243 11.505 7.07993 12.7825 6.59118C12.845 6.56618 12.97 6.54743 13.0138 6.48118C13.1763 6.23868 12.3963 6.37993 12.3238 6.39493Z" fill="#ED6C30"/>
<path d="M8.51621 13.2589C8.78121 13.4814 9.15246 13.3726 9.40246 13.1826C9.53621 13.0814 9.65121 12.9514 9.72621 12.8001C9.75746 12.7351 9.79371 12.6526 9.79371 12.5789C9.79371 12.4801 9.73496 12.3826 9.75996 12.2814C9.96996 12.2401 10.23 12.8439 10.2562 12.9839C10.4662 14.0876 9.42621 14.9976 8.42246 15.1739C6.72871 15.4701 5.75496 13.9864 5.94996 12.6689C6.07121 11.8489 6.62121 11.2851 7.18121 10.7226C7.64496 10.2564 8.07496 9.85636 8.22496 9.25011C8.25121 9.14261 8.24496 8.97761 8.21371 8.87136C8.18746 8.78011 8.13746 8.69636 8.13496 8.59761C8.12746 8.39011 8.32871 8.66136 8.37496 8.71386C8.93246 9.34261 9.09121 10.2714 8.94246 11.0839C8.84621 11.6089 8.47121 11.9839 8.33996 12.4864C8.26371 12.7726 8.27121 13.0514 8.51621 13.2589Z" fill="#FCC21B"/>
</g>
<defs>
<clipPath id="clip0_80_1793">
<rect width="16" height="16" fill="white"/>
</clipPath>
</defs>
</svg>
