<svg width="97" height="86" viewBox="0 0 97 86" fill="none" xmlns="http://www.w3.org/2000/svg">
<path d="M82.3666 25.1848H13.9258C9.64504 25.1848 6.1748 28.6551 6.1748 32.9358V53.5596C6.1748 56.1826 7.50139 58.6276 9.70035 60.0575L44.8733 82.9295C47.4977 84.636 50.891 84.5964 53.4748 82.8291L86.7426 60.0735C88.8546 58.6288 90.1176 56.2348 90.1176 53.676V32.9358C90.1176 28.655 86.6473 25.1848 82.3666 25.1848Z" fill="url(#paint0_linear_91_5439)"/>
<path d="M9.45786 25.4999L43.5863 2.83607C46.1759 1.11641 49.5423 1.11019 52.1382 2.82027L86.5425 25.4846C91.121 28.5006 91.2064 35.1868 86.7066 38.3189L52.3029 62.2656C49.6327 64.1242 46.086 64.1175 43.4229 62.2489L9.29375 38.3017C4.82597 35.1668 4.91119 28.5192 9.45786 25.4999Z" fill="#F54C4C"/>
<path d="M51.2836 45.0284C49.797 46.0284 48.2241 46.7526 46.565 47.2009C44.9125 47.6448 43.3212 47.8027 41.7911 47.6746C40.2609 47.5377 38.9393 47.1047 37.8263 46.3755C36.9496 45.8169 36.337 45.174 35.9885 44.447C35.6401 43.7199 35.5464 42.9817 35.7074 42.2325C35.8683 41.4743 36.2813 40.7826 36.9464 40.1572L36.8048 40.0655C35.5154 40.6212 34.1192 40.8438 32.616 40.7332C31.1128 40.6137 29.8047 40.1894 28.6918 39.4603C27.6194 38.775 26.9617 37.9622 26.7187 37.0218C26.4757 36.0814 26.6314 35.1087 27.1858 34.1037C27.7334 33.0944 28.6706 32.1435 29.9972 31.2512C31.3105 30.3678 32.7232 29.738 34.2355 29.3617C35.7476 28.9766 37.2186 28.8552 38.6482 28.9974C40.0845 29.1352 41.3355 29.5489 42.4012 30.2386C43.5208 30.9633 44.1789 31.8248 44.3755 32.8231C44.5721 33.8126 44.2717 34.7313 43.4745 35.5791L43.6161 35.6708C44.551 35.22 45.5846 34.9387 46.7169 34.8269C47.8492 34.7063 48.9695 34.7539 50.078 34.9697C51.193 35.1811 52.1856 35.5684 53.0557 36.1315C54.1753 36.8562 54.8503 37.7242 55.0805 38.7355C55.304 39.7424 55.0954 40.7952 54.4546 41.8939C53.8205 42.9881 52.7635 44.033 51.2836 45.0284ZM48.3901 43.1557C49.1567 42.64 49.6918 42.1065 49.9954 41.555C50.2923 40.9993 50.3546 40.4589 50.1823 39.9338C50.01 39.4087 49.6101 38.9388 48.9828 38.5239C48.3152 38.1006 47.5617 37.8374 46.7226 37.7342C45.8833 37.6221 45.032 37.6651 44.1687 37.863C43.312 38.0564 42.5204 38.3975 41.7937 38.8863C41.0604 39.3795 40.5521 39.9128 40.2688 40.4862C39.9856 41.0595 39.9336 41.6242 40.1128 42.1802C40.292 42.7273 40.7155 43.2125 41.3831 43.6359C42.0105 44.0507 42.7236 44.3099 43.5225 44.4135C44.3147 44.5126 45.129 44.459 45.9655 44.2524C46.8086 44.0414 47.6168 43.6758 48.3901 43.1557ZM38.9508 37.0463C39.5775 36.6248 40.0026 36.1696 40.2263 35.6809C40.4567 35.1877 40.4825 34.6985 40.3038 34.2133C40.1252 33.7281 39.7391 33.289 39.1454 32.896C38.5452 32.5163 37.8859 32.2743 37.1674 32.1701C36.4422 32.0614 35.7149 32.0922 34.9854 32.2624C34.2492 32.4282 33.5645 32.7241 32.9311 33.1501C32.2845 33.5851 31.8393 34.0493 31.5956 34.5426C31.3517 35.0271 31.3191 35.5075 31.4977 35.9838C31.6762 36.4513 32.0655 36.8749 32.6657 37.2546C33.2593 37.6476 33.9221 37.9006 34.6541 38.0136C35.386 38.1177 36.1268 38.0913 36.8764 37.9342C37.6261 37.7682 38.3175 37.4723 38.9508 37.0463ZM61.428 37.8309L58.7166 36.076L58.7747 26.7296C58.76 25.8226 58.7095 25.042 58.6232 24.3878C58.537 23.7337 58.3542 23.1667 58.075 22.6868C57.7958 22.2069 57.3696 21.7815 56.7963 21.4104C56.142 20.987 55.4356 20.7233 54.6769 20.6194C53.9114 20.5111 53.1439 20.5467 52.3743 20.726C51.6047 20.9054 50.8932 21.2149 50.2399 21.6543C49.5666 22.1072 49.1182 22.5957 48.8949 23.1199C48.6648 23.6396 48.666 24.1596 48.8986 24.6797C49.1379 25.1953 49.6116 25.6823 50.3198 26.1407L46.79 28.515C45.4748 27.6638 44.6282 26.7243 44.2503 25.6966C43.8723 24.6689 43.9369 23.6328 44.444 22.5884C44.9578 21.5395 45.8914 20.56 47.2446 19.6497C48.6179 18.726 50.0842 18.0824 51.6435 17.719C53.2028 17.3556 54.721 17.2736 56.1981 17.4729C57.6819 17.6678 59.0038 18.1406 60.1639 18.8915C60.9396 19.3935 61.5551 19.9854 62.0104 20.6673C62.4657 21.3492 62.7787 22.2336 62.9493 23.3207C63.1265 24.4033 63.1993 25.8098 63.1677 27.5403L63.2699 32.2655L63.4115 32.3571L72.3311 26.3573L75.4674 28.3873L61.428 37.8309Z" fill="white"/>
<defs>
<linearGradient id="paint0_linear_91_5439" x1="5.78886" y1="54.8667" x2="90.5035" y2="54.8667" gradientUnits="userSpaceOnUse">
<stop offset="0.49037" stop-color="#E40101"/>
<stop offset="0.528239" stop-color="#9E0405"/>
</linearGradient>
</defs>
</svg>
