<svg width="97" height="86" viewBox="0 0 97 86" fill="none" xmlns="http://www.w3.org/2000/svg">
<path d="M82.367 25.1848H13.9263C9.64553 25.1848 6.17529 28.6551 6.17529 32.9358V53.5596C6.17529 56.1826 7.50188 58.6276 9.70084 60.0575L44.8738 82.9295C47.4981 84.636 50.8914 84.5964 53.4752 82.8291L86.743 60.0735C88.8551 58.6288 90.118 56.2348 90.118 53.676V32.9358C90.118 28.655 86.6478 25.1848 82.367 25.1848Z" fill="url(#paint0_linear_91_5874)"/>
<path d="M9.45785 25.4999L43.5863 2.83607C46.1758 1.11642 49.5423 1.1102 52.1382 2.82027L86.5425 25.4846C91.1209 28.5006 91.2064 35.1868 86.7065 38.3189L52.3029 62.2656C49.6327 64.1242 46.086 64.1175 43.4229 62.2489L9.29375 38.3017C4.82597 35.1668 4.91119 28.5192 9.45785 25.4999Z" fill="#F54C4C"/>
<path d="M39.5061 47.5026L36.5216 45.5709L31.3204 30.7352L33.7803 29.0806L38.0295 31.8308L36.5296 32.8397L40.0584 42.8447L40.2202 42.9495L52.3497 34.7906L55.4354 36.7877L39.5061 47.5026ZM53.1202 43.4194L48.3652 40.3418L47.0697 39.4505L32.4404 29.9819L35.9402 27.6277L56.6601 41.0383L53.1202 43.4194ZM69.9698 32.6063C68.3232 33.7139 66.4883 34.3917 64.4653 34.6397C62.4422 34.8789 60.3147 34.6942 58.0829 34.0855C55.851 33.4681 53.6053 32.4281 51.3458 30.9657C49.093 29.4988 47.4874 28.0417 46.529 26.5943C45.5706 25.1381 45.2598 23.7447 45.5968 22.4142C45.9404 21.0792 46.9322 19.8601 48.5721 18.757C50.212 17.6539 52.0401 16.9762 54.0564 16.7238C56.0727 16.4714 58.1901 16.6496 60.4085 17.2583C62.6335 17.8626 64.8724 18.8937 67.1252 20.3518C69.3914 21.8185 71.0105 23.2844 71.9824 24.7494C72.9543 26.2055 73.2718 27.6032 72.9349 28.9426C72.6047 30.2775 71.6164 31.4987 69.9698 32.6063ZM66.8031 30.5567C68.083 29.6958 68.4556 28.6039 67.9208 27.2811C67.386 25.9495 65.8741 24.4782 63.3853 22.8674C61.7396 21.8022 60.187 21.0216 58.7273 20.5257C57.2677 20.0297 55.9447 19.8069 54.7581 19.8572C53.5649 19.9032 52.5449 20.2109 51.6983 20.7804C50.425 21.6369 50.0591 22.7287 50.6006 24.0559C51.1354 25.3787 52.6338 26.8412 55.0957 28.4434C56.7415 29.5174 58.2942 30.3068 59.7539 30.8116C61.2203 31.312 62.5501 31.5392 63.7434 31.4932C64.9299 31.4429 65.9498 31.1307 66.8031 30.5567Z" fill="white"/>
<defs>
<linearGradient id="paint0_linear_91_5874" x1="5.78935" y1="54.8667" x2="90.504" y2="54.8667" gradientUnits="userSpaceOnUse">
<stop offset="0.49037" stop-color="#E40101"/>
<stop offset="0.528239" stop-color="#9E0405"/>
</linearGradient>
</defs>
</svg>
