<svg width="97" height="86" viewBox="0 0 97 86" fill="none" xmlns="http://www.w3.org/2000/svg">
<path d="M82.3665 25.1848H13.9258C9.64504 25.1848 6.1748 28.6551 6.1748 32.9358V53.5596C6.1748 56.1826 7.50139 58.6276 9.70035 60.0575L44.8733 82.9295C47.4977 84.636 50.8909 84.5964 53.4747 82.8291L86.7425 60.0735C88.8546 58.6288 90.1175 56.2348 90.1175 53.676V32.9358C90.1175 28.655 86.6473 25.1848 82.3665 25.1848Z" fill="url(#paint0_linear_91_5774)"/>
<path d="M9.45785 25.4999L43.5863 2.83607C46.1758 1.11642 49.5423 1.1102 52.1382 2.82027L86.5425 25.4846C91.1209 28.5006 91.2064 35.1868 86.7065 38.3189L52.3029 62.2656C49.6327 64.1242 46.086 64.1175 43.4229 62.2489L9.29375 38.3017C4.82597 35.1668 4.91119 28.5192 9.45785 25.4999Z" fill="#F54C4C"/>
<path d="M51.3536 44.9816C49.9136 45.9502 48.3841 46.6496 46.7651 47.0799C45.1527 47.5057 43.578 47.648 42.041 47.5067C40.5041 47.3654 39.1322 46.9306 37.9254 46.2023L41.6852 43.6733C42.2784 44.0132 42.9507 44.2064 43.7022 44.2528C44.4469 44.2949 45.2106 44.2041 45.9932 43.9803C46.7759 43.7565 47.5105 43.4137 48.1971 42.9519C48.9305 42.4586 49.4523 41.9384 49.7626 41.3914C50.0662 40.84 50.1453 40.3061 49.9999 39.7896C49.8545 39.2732 49.475 38.8207 48.8613 38.4323C48.2407 38.0219 47.5276 37.7715 46.7221 37.6813C45.9166 37.5911 45.0689 37.6672 44.1792 37.9096C43.2961 38.1475 42.4212 38.5579 41.5546 39.1409L39.7446 40.3583L36.8511 38.4856L38.6611 37.2681C39.3744 36.7883 39.8729 36.2883 40.1567 35.768C40.4471 35.2433 40.5197 34.7316 40.3744 34.2328C40.2224 33.7297 39.843 33.2861 39.236 32.9021C38.6559 32.5178 38.0167 32.2756 37.3184 32.1756C36.62 32.0668 35.9094 32.0952 35.1866 32.2609C34.4705 32.4221 33.7924 32.7179 33.1524 33.1484C32.5258 33.5699 32.0605 34.0343 31.7565 34.5414C31.4525 35.0486 31.3496 35.5495 31.4479 36.0443C31.5394 36.5346 31.8652 36.9743 32.4253 37.3632L28.8554 39.7644C27.722 38.9956 27.0335 38.1145 26.79 37.121C26.5464 36.1186 26.7117 35.0994 27.286 34.0633C27.8535 33.0227 28.8006 32.0563 30.1272 31.164C31.4938 30.2447 32.9401 29.6146 34.4661 29.2737C35.9919 28.9238 37.4666 28.8444 38.89 29.0354C40.3133 29.2263 41.5511 29.6623 42.6033 30.3433C43.7768 31.094 44.4148 31.9557 44.5173 32.9283C44.6265 33.8965 44.2491 34.8313 43.3853 35.7328L43.5472 35.8376C45.1895 35 46.8324 34.6071 48.4758 34.6589C50.1192 34.7019 51.585 35.1447 52.8733 35.9873C54.0334 36.7382 54.7455 37.6302 55.0095 38.6633C55.2734 39.6876 55.095 40.7512 54.4744 41.8542C53.8604 42.9526 52.8202 43.9951 51.3536 44.9816ZM69.376 32.8588C68.3893 33.5136 67.2607 34.0458 65.9901 34.4553C64.7129 34.8604 63.3164 35.0653 61.8009 35.0699C60.2786 35.0701 58.6568 34.8034 56.9353 34.2699C55.207 33.7321 53.3953 32.8454 51.4999 31.6099C49.726 30.4618 48.3311 29.3125 47.315 28.1621C46.2989 27.0118 45.6619 25.8912 45.4041 24.8005C45.1396 23.7054 45.2477 22.6623 45.7285 21.6713C46.216 20.6757 47.073 19.7654 48.2996 18.9403C49.5862 18.0749 50.9825 17.474 52.4884 17.1376C54.0009 16.7968 55.509 16.7082 57.0126 16.8719C58.5095 17.0312 59.8877 17.4217 61.1472 18.0433L57.4974 20.4984C56.5148 20.1088 55.4975 19.9563 54.4454 20.0409C53.3932 20.1166 52.4271 20.4504 51.5472 21.0423C50.1272 21.9974 49.6578 23.1366 50.139 24.4599C50.6268 25.7787 51.9566 27.1453 54.1285 28.5598L54.2685 28.4657C54.0016 27.8618 53.9157 27.2474 54.0108 26.6227C54.1058 25.9979 54.3654 25.3916 54.7893 24.8037C55.2133 24.207 55.7919 23.662 56.5252 23.1687C57.7251 22.3616 59.0918 21.8251 60.6251 21.5593C62.1651 21.289 63.7243 21.2951 65.3028 21.5776C66.8744 21.8558 68.3112 22.4205 69.613 23.2719C70.9821 24.1492 71.8996 25.1478 72.3655 26.2677C72.8247 27.3832 72.8113 28.5139 72.3252 29.6599C71.8391 30.8059 70.856 31.8722 69.376 32.8588ZM66.3209 30.9078C67.0475 30.4191 67.5187 29.8662 67.7346 29.2492C67.9504 28.6322 67.9215 28.0151 67.6478 27.398C67.3741 26.7809 66.8562 26.2302 66.0941 25.7457C65.3588 25.261 64.5277 24.9343 63.6008 24.7655C62.6805 24.5922 61.7617 24.5826 60.8444 24.7368C59.927 24.891 59.105 25.2124 58.3783 25.7012C57.8384 26.0644 57.4396 26.4706 57.182 26.9198C56.9245 27.3691 56.8078 27.8303 56.8322 28.3036C56.8497 28.7725 57.0013 29.2314 57.2869 29.6802C57.5725 30.1202 57.9851 30.5192 58.5248 30.8773C59.2531 31.3399 60.0841 31.6578 61.0178 31.831C61.9515 32.0041 62.8871 32.0158 63.8246 31.8658C64.7621 31.7159 65.5942 31.3966 66.3209 30.9078Z" fill="white"/>
<defs>
<linearGradient id="paint0_linear_91_5774" x1="5.78886" y1="54.8667" x2="90.5035" y2="54.8667" gradientUnits="userSpaceOnUse">
<stop offset="0.49037" stop-color="#E40101"/>
<stop offset="0.528239" stop-color="#9E0405"/>
</linearGradient>
</defs>
</svg>
