<svg width="97" height="86" viewBox="0 0 97 86" fill="none" xmlns="http://www.w3.org/2000/svg">
<path d="M82.3665 25.1846H13.9258C9.64504 25.1846 6.1748 28.6548 6.1748 32.9356V53.5593C6.1748 56.1823 7.50139 58.6274 9.70035 60.0573L44.8733 82.9293C47.4977 84.6358 50.8909 84.5962 53.4747 82.8288L86.7425 60.0733C88.8546 58.6286 90.1175 56.2346 90.1175 53.6757V32.9356C90.1175 28.6548 86.6473 25.1846 82.3665 25.1846Z" fill="url(#paint0_linear_91_5699)"/>
<path d="M9.45785 25.4999L43.5863 2.83607C46.1758 1.11642 49.5423 1.1102 52.1382 2.82027L86.5425 25.4846C91.1209 28.5006 91.2064 35.1868 86.7065 38.3189L52.3029 62.2656C49.6327 64.1242 46.086 64.1175 43.4229 62.2489L9.29375 38.3017C4.82597 35.1668 4.91119 28.5192 9.45785 25.4999Z" fill="#F54C4C"/>
<path d="M51.3536 44.9816C49.9136 45.9502 48.3841 46.6496 46.7651 47.0799C45.1527 47.5057 43.578 47.648 42.041 47.5067C40.5041 47.3654 39.1322 46.9306 37.9254 46.2023L41.6852 43.6733C42.2784 44.0132 42.9507 44.2064 43.7022 44.2528C44.4469 44.2949 45.2106 44.2041 45.9932 43.9803C46.7759 43.7565 47.5105 43.4137 48.1971 42.9519C48.9305 42.4586 49.4523 41.9384 49.7626 41.3914C50.0662 40.84 50.1453 40.3061 49.9999 39.7896C49.8545 39.2732 49.475 38.8207 48.8613 38.4323C48.2407 38.0219 47.5276 37.7715 46.7221 37.6813C45.9166 37.5911 45.0689 37.6672 44.1792 37.9096C43.2961 38.1475 42.4212 38.5579 41.5546 39.1409L39.7446 40.3583L36.8511 38.4856L38.6611 37.2681C39.3744 36.7883 39.8729 36.2883 40.1567 35.768C40.4471 35.2433 40.5197 34.7316 40.3744 34.2328C40.2224 33.7297 39.843 33.2861 39.236 32.9021C38.6559 32.5178 38.0167 32.2756 37.3184 32.1756C36.62 32.0668 35.9094 32.0952 35.1866 32.2609C34.4705 32.4221 33.7924 32.7179 33.1524 33.1484C32.5258 33.5699 32.0605 34.0343 31.7565 34.5414C31.4525 35.0486 31.3496 35.5495 31.4479 36.0443C31.5394 36.5346 31.8652 36.9743 32.4253 37.3632L28.8554 39.7644C27.722 38.9956 27.0335 38.1145 26.79 37.121C26.5464 36.1186 26.7117 35.0994 27.286 34.0633C27.8535 33.0227 28.8006 32.0563 30.1272 31.164C31.4938 30.2447 32.9401 29.6146 34.4661 29.2737C35.9919 28.9238 37.4666 28.8444 38.89 29.0354C40.3133 29.2263 41.5511 29.6623 42.6033 30.3433C43.7768 31.094 44.4148 31.9557 44.5173 32.9283C44.6265 33.8965 44.2491 34.8313 43.3853 35.7328L43.5472 35.8376C45.1895 35 46.8324 34.6071 48.4758 34.6589C50.1192 34.7019 51.585 35.1447 52.8733 35.9873C54.0334 36.7382 54.7455 37.6302 55.0095 38.6633C55.2734 39.6876 55.095 40.7512 54.4744 41.8542C53.8604 42.9526 52.8202 43.9951 51.3536 44.9816ZM69.226 32.9597C67.7861 33.9283 66.2565 34.6277 64.6375 35.058C63.0251 35.4838 61.4504 35.6261 59.9135 35.4848C58.3765 35.3436 57.0046 34.9088 55.7978 34.1804L59.5576 31.6514C60.1508 31.9913 60.8231 32.1845 61.5746 32.2309C62.3193 32.273 63.083 32.1822 63.8657 31.9584C64.6483 31.7347 65.3829 31.3918 66.0696 30.93C66.8029 30.4367 67.3247 29.9166 67.635 29.3695C67.9386 28.8181 68.0177 28.2842 67.8723 27.7677C67.7269 27.2513 67.3474 26.7989 66.7337 26.4105C66.1131 26 65.4 25.7496 64.5945 25.6594C63.789 25.5692 62.9413 25.6453 62.0516 25.8877C61.1685 26.1256 60.2936 26.5361 59.427 27.119L57.6171 28.3364L54.7236 26.4637L56.5335 25.2462C57.2468 24.7664 57.7453 24.2664 58.0291 23.7462C58.3195 23.2214 58.3921 22.7097 58.2469 22.2109C58.0949 21.7078 57.7154 21.2642 57.1084 20.8802C56.5283 20.4959 55.8891 20.2538 55.1908 20.1537C54.4924 20.0449 53.7818 20.0733 53.059 20.239C52.3429 20.4002 51.6648 20.6961 51.0249 21.1265C50.3982 21.548 49.9329 22.0124 49.6289 22.5195C49.3249 23.0267 49.2221 23.5276 49.3203 24.0224C49.4118 24.5128 49.7376 24.9524 50.2977 25.3413L46.7278 27.7425C45.5944 26.9737 44.9059 26.0926 44.6624 25.0991C44.4188 24.0968 44.5842 23.0775 45.1584 22.0414C45.7259 21.0009 46.673 20.0344 47.9996 19.1421C49.3662 18.2228 50.8125 17.5927 52.3385 17.2518C53.8644 16.902 55.339 16.8225 56.7624 17.0135C58.1858 17.2044 59.4235 17.6404 60.4757 18.3214C61.6492 19.0721 62.2872 19.9338 62.3897 20.9064C62.4989 21.8746 62.1216 22.8094 61.2578 23.7109L61.4196 23.8157C63.0619 22.9781 64.7048 22.5852 66.3482 22.637C67.9916 22.68 69.4574 23.1228 70.7458 23.9655C71.9059 24.7163 72.6179 25.6083 72.8819 26.6415C73.1458 27.6657 72.9674 28.7294 72.3468 29.8323C71.7329 30.9307 70.6926 31.9732 69.226 32.9597Z" fill="white"/>
<defs>
<linearGradient id="paint0_linear_91_5699" x1="5.78886" y1="54.8665" x2="90.5035" y2="54.8665" gradientUnits="userSpaceOnUse">
<stop offset="0.49037" stop-color="#E40101"/>
<stop offset="0.528239" stop-color="#9E0405"/>
</linearGradient>
</defs>
</svg>
