<svg width="97" height="86" viewBox="0 0 97 86" fill="none" xmlns="http://www.w3.org/2000/svg">
<path d="M82.3666 25.1846H13.9258C9.64504 25.1846 6.1748 28.6548 6.1748 32.9356V53.5593C6.1748 56.1823 7.50139 58.6274 9.70035 60.0573L44.8733 82.9293C47.4977 84.6358 50.891 84.5962 53.4748 82.8288L86.7426 60.0733C88.8546 58.6286 90.1176 56.2346 90.1176 53.6757V32.9356C90.1176 28.6548 86.6473 25.1846 82.3666 25.1846Z" fill="url(#paint0_linear_91_5399)"/>
<path d="M9.45786 25.4999L43.5863 2.83607C46.1759 1.11641 49.5423 1.11019 52.1382 2.82027L86.5425 25.4846C91.121 28.5006 91.2064 35.1868 86.7066 38.3189L52.3029 62.2656C49.6327 64.1242 46.086 64.1175 43.4229 62.2489L9.29375 38.3017C4.82597 35.1668 4.91119 28.5192 9.45786 25.4999Z" fill="#F54C4C"/>
<path d="M43.7206 49.742L41.0092 47.9871L41.0673 38.6407C41.0526 37.7337 41.0021 36.9531 40.9158 36.299C40.8295 35.6448 40.6468 35.0778 40.3676 34.5979C40.0884 34.1181 39.6622 33.6926 39.0889 33.3215C38.4346 32.8981 37.7281 32.6344 36.9694 32.5305C36.204 32.4222 35.4364 32.4578 34.6668 32.6372C33.8972 32.8166 33.1858 33.126 32.5325 33.5654C31.8592 34.0183 31.4108 34.5069 31.1874 35.031C30.9573 35.5508 30.9586 36.0707 31.1912 36.5908C31.4305 37.1065 31.9042 37.5934 32.6124 38.0518L29.0826 40.4262C27.7673 39.5749 26.9208 38.6354 26.5428 37.6077C26.1649 36.58 26.2295 35.544 26.7366 34.4996C27.2504 33.4507 28.1839 32.4711 29.5372 31.5608C30.9105 30.6371 32.3768 29.9935 33.9361 29.6301C35.4954 29.2668 37.0136 29.1847 38.4907 29.3841C39.9745 29.5789 41.2964 30.0517 42.4565 30.8026C43.2321 31.3046 43.8476 31.8966 44.303 32.5784C44.7583 33.2603 45.0713 34.1448 45.2418 35.2318C45.4191 36.3144 45.4919 37.721 45.4603 39.4515L45.5624 44.1766L45.7041 44.2683L54.6237 38.2685L57.76 40.2984L43.7206 49.742ZM48.3504 19.28L69.0702 32.6906L65.3604 35.186L48.2928 24.1393L48.1728 24.2201L46.4788 29.4456L43.039 27.2193L44.8205 21.6544L48.3504 19.28Z" fill="white"/>
<defs>
<linearGradient id="paint0_linear_91_5399" x1="5.78886" y1="54.8665" x2="90.5035" y2="54.8665" gradientUnits="userSpaceOnUse">
<stop offset="0.49037" stop-color="#E40101"/>
<stop offset="0.528239" stop-color="#9E0405"/>
</linearGradient>
</defs>
</svg>
