<svg width="97" height="86" viewBox="0 0 97 86" fill="none" xmlns="http://www.w3.org/2000/svg">
<path d="M82.3665 25.1848H13.9258C9.64504 25.1848 6.1748 28.6551 6.1748 32.9358V53.5596C6.1748 56.1826 7.50139 58.6276 9.70035 60.0575L44.8733 82.9295C47.4977 84.636 50.8909 84.5964 53.4747 82.8291L86.7425 60.0735C88.8546 58.6288 90.1175 56.2348 90.1175 53.676V32.9358C90.1175 28.655 86.6473 25.1848 82.3665 25.1848Z" fill="url(#paint0_linear_91_5779)"/>
<path d="M9.45785 25.4999L43.5863 2.83607C46.1758 1.11642 49.5423 1.1102 52.1382 2.82027L86.5425 25.4846C91.1209 28.5006 91.2064 35.1868 86.7065 38.3189L52.3029 62.2656C49.6327 64.1242 46.086 64.1175 43.4229 62.2489L9.29375 38.3017C4.82597 35.1668 4.91119 28.5192 9.45785 25.4999Z" fill="#F54C4C"/>
<path d="M44.4706 49.2375L35.7383 32.09L35.5967 31.9984L25.4871 38.7986L22.3508 36.7687L36.3002 27.3856L39.5073 29.4613L48.3204 46.648L44.4706 49.2375ZM67.1211 34.3756C66.1344 35.0304 65.0058 35.5625 63.7352 35.9721C62.458 36.3772 61.0615 36.582 59.546 36.5866C58.0237 36.5868 56.4018 36.3202 54.6804 35.7867C52.9521 35.2489 51.1404 34.3622 49.245 33.1266C47.4711 31.9785 46.0762 30.8293 45.0601 29.6789C44.044 28.5285 43.407 27.408 43.1492 26.3172C42.8847 25.2221 42.9928 24.1791 43.4736 23.188C43.961 22.1925 44.8181 21.2822 46.0447 20.4571C47.3313 19.5916 48.7276 18.9907 50.2334 18.6544C51.746 18.3135 53.2541 18.2249 54.7577 18.3886C56.2546 18.548 57.6328 18.9384 58.8923 19.5601L55.2425 22.0152C54.2599 21.6256 53.2426 21.4731 52.1905 21.5576C51.1383 21.6333 50.1722 21.9671 49.2923 22.559C47.8723 23.5141 47.4029 24.6533 47.8841 25.9766C48.3719 27.2954 49.7017 28.6621 51.8736 30.0766L52.0136 29.9824C51.7467 29.3785 51.6608 28.7642 51.7559 28.1394C51.8509 27.5146 52.1105 26.9083 52.5344 26.3204C52.9583 25.7237 53.537 25.1787 54.2703 24.6855C55.4702 23.8783 56.8369 23.3419 58.3702 23.076C59.9102 22.8058 61.4694 22.8119 63.0479 23.0944C64.6195 23.3725 66.0563 23.9373 67.3581 24.7887C68.7272 25.666 69.6447 26.6646 70.1106 27.7844C70.5698 28.8999 70.5564 30.0307 70.0703 31.1767C69.5842 32.3226 68.6011 33.3889 67.1211 34.3756ZM64.0659 32.4246C64.7926 31.9358 65.2638 31.3829 65.4797 30.7659C65.6955 30.1489 65.6666 29.5319 65.3929 28.9148C65.1192 28.2977 64.6013 27.7469 63.8392 27.2625C63.1039 26.7778 62.2728 26.4511 61.3459 26.2823C60.4256 26.109 59.5068 26.0994 58.5894 26.2536C57.6721 26.4077 56.8501 26.7292 56.1234 27.2179C55.5835 27.5812 55.1847 27.9874 54.9271 28.4366C54.6696 28.8858 54.5529 29.3471 54.5773 29.8203C54.5948 30.2892 54.7464 30.7481 55.032 31.1969C55.3176 31.6369 55.7302 32.036 56.2699 32.394C56.9982 32.8567 57.8292 33.1746 58.7629 33.3477C59.6966 33.5209 60.6322 33.5325 61.5697 33.3826C62.5072 33.2327 63.3393 32.9134 64.0659 32.4246Z" fill="white"/>
<defs>
<linearGradient id="paint0_linear_91_5779" x1="5.78886" y1="54.8667" x2="90.5035" y2="54.8667" gradientUnits="userSpaceOnUse">
<stop offset="0.49037" stop-color="#E40101"/>
<stop offset="0.528239" stop-color="#9E0405"/>
</linearGradient>
</defs>
</svg>
