<svg width="97" height="86" viewBox="0 0 97 86" fill="none" xmlns="http://www.w3.org/2000/svg">
<path d="M82.3665 25.1848H13.9258C9.64504 25.1848 6.1748 28.6551 6.1748 32.9358V53.5596C6.1748 56.1826 7.50139 58.6276 9.70035 60.0575L44.8733 82.9295C47.4977 84.636 50.8909 84.5964 53.4747 82.8291L86.7425 60.0735C88.8546 58.6288 90.1175 56.2348 90.1175 53.676V32.9358C90.1175 28.655 86.6473 25.1848 82.3665 25.1848Z" fill="url(#paint0_linear_91_5864)"/>
<path d="M9.45785 25.4999L43.5863 2.83607C46.1758 1.11642 49.5423 1.1102 52.1382 2.82027L86.5425 25.4846C91.1209 28.5006 91.2064 35.1868 86.7065 38.3189L52.3029 62.2656C49.6327 64.1242 46.086 64.1175 43.4229 62.2489L9.29375 38.3017C4.82597 35.1668 4.91119 28.5192 9.45785 25.4999Z" fill="#F54C4C"/>
<path d="M29.8272 31.3658C30.8139 30.711 31.9426 30.1832 33.2132 29.7826C34.4837 29.3731 35.8767 29.166 37.3923 29.1615C38.9011 29.1525 40.5162 29.4148 42.2377 29.9483C43.9592 30.4817 45.7642 31.3596 47.6527 32.582C49.44 33.7299 50.8451 34.8857 51.868 36.0493C52.8908 37.2041 53.5345 38.329 53.799 39.4241C54.0636 40.5192 53.9554 41.5623 53.4747 42.5533C52.9939 43.5444 52.1369 44.4547 50.9036 45.2843C49.6103 46.1542 48.2074 46.7596 46.6948 47.1004C45.1889 47.4368 43.6842 47.5231 42.1806 47.3594C40.677 47.1957 39.2819 46.7899 37.9953 46.142L41.6451 43.6869C42.6546 44.0939 43.6888 44.2618 44.7478 44.1904C45.8066 44.1103 46.776 43.7742 47.656 43.1823C49.0759 42.2272 49.5453 41.088 49.0642 39.7647C48.5831 38.4414 47.233 37.0617 45.014 35.6255L44.874 35.7196C45.1408 36.3235 45.2301 36.94 45.1418 37.5692C45.0468 38.194 44.7839 38.8025 44.3532 39.3949C43.9293 39.9828 43.3506 40.5233 42.6173 41.0166C41.4174 41.8237 40.0474 42.3624 38.5074 42.6327C36.974 42.8985 35.4215 42.8924 33.8498 42.6142C32.2848 42.3316 30.8481 41.7713 29.5397 40.9332C28.1908 40.0601 27.2867 39.0703 26.8276 37.9636C26.3684 36.8481 26.3819 35.7174 26.868 34.5714C27.3474 33.4211 28.3338 32.3525 29.8272 31.3658ZM32.8723 33.3235C32.1524 33.8078 31.6811 34.3607 31.4586 34.9821C31.236 35.5948 31.2616 36.2096 31.5353 36.8267C31.8089 37.435 32.3167 37.9792 33.0586 38.4594C33.8005 38.9307 34.6315 39.2531 35.5518 39.4263C36.4787 39.5951 37.3975 39.6047 38.3082 39.455C39.2256 39.3009 40.0476 38.9794 40.7743 38.4907C41.3142 38.1274 41.713 37.7212 41.9706 37.272C42.2281 36.8228 42.3447 36.3615 42.3204 35.8883C42.2961 35.4062 42.1411 34.9451 41.8555 34.5051C41.5766 34.0606 41.1675 33.6682 40.628 33.3278C39.9198 32.8695 39.0989 32.5581 38.1653 32.3938C37.2383 32.225 36.3061 32.2156 35.3686 32.3655C34.4377 32.5109 33.6056 32.8302 32.8723 33.3235ZM47.6171 19.3994C48.6038 18.7446 49.7325 18.2168 51.0031 17.8162C52.2736 17.4067 53.6667 17.1996 55.1822 17.1951C56.691 17.1861 58.3061 17.4484 60.0276 17.9819C61.7491 18.5154 63.5541 19.3933 65.4426 20.6156C67.2299 21.7636 68.635 22.9194 69.6579 24.083C70.6807 25.2377 71.3244 26.3626 71.589 27.4577C71.8535 28.5528 71.7454 29.5959 71.2646 30.5869C70.7838 31.578 69.9268 32.4883 68.6935 33.3179C67.4002 34.1878 65.9973 34.7932 64.4848 35.134C62.9789 35.4704 61.4741 35.5567 59.9705 35.3931C58.4669 35.2294 57.0718 34.8235 55.7852 34.1756L59.435 31.7205C60.4445 32.1275 61.4788 32.2954 62.5377 32.2241C63.5966 32.1439 64.566 31.8078 65.4459 31.2159C66.8659 30.2608 67.3353 29.1216 66.8541 27.7983C66.373 26.4751 65.0229 25.0953 62.8039 23.6591L62.6639 23.7532C62.9308 24.3571 63.0201 24.9736 62.9317 25.6028C62.8367 26.2276 62.5738 26.8361 62.1432 27.4285C61.7192 28.0164 61.1405 28.5569 60.4072 29.0502C59.2073 29.8573 57.8373 30.3961 56.2973 30.6663C54.764 30.9322 53.2115 30.926 51.6398 30.6478C50.0747 30.3652 48.638 29.8049 47.3296 28.9668C45.9807 28.0938 45.0767 27.1039 44.6176 25.9972C44.1584 24.8818 44.1718 23.751 44.6579 22.605C45.1373 21.4547 46.1237 20.3861 47.6171 19.3994ZM50.6623 21.3571C49.9423 21.8414 49.471 22.3943 49.2485 23.0158C49.026 23.6284 49.0515 24.2433 49.3252 24.8604C49.5989 25.4686 50.1066 26.0128 50.8485 26.493C51.5904 26.9644 52.4214 27.2867 53.3417 27.46C54.2686 27.6288 55.1875 27.6383 56.0982 27.4887C57.0155 27.3345 57.8375 27.013 58.5642 26.5243C59.1042 26.1611 59.5029 25.7548 59.7605 25.3056C60.018 24.8564 60.1347 24.3952 60.1104 23.9219C60.086 23.4398 59.931 22.9787 59.6455 22.5387C59.3666 22.0943 58.9574 21.7018 58.4179 21.3614C57.7097 20.9031 56.8888 20.5917 55.9552 20.4274C55.0282 20.2586 54.096 20.2492 53.1585 20.3991C52.2276 20.5445 51.3956 20.8638 50.6623 21.3571Z" fill="white"/>
<defs>
<linearGradient id="paint0_linear_91_5864" x1="5.78886" y1="54.8667" x2="90.5035" y2="54.8667" gradientUnits="userSpaceOnUse">
<stop offset="0.49037" stop-color="#E40101"/>
<stop offset="0.528239" stop-color="#9E0405"/>
</linearGradient>
</defs>
</svg>
