<svg width="97" height="86" viewBox="0 0 97 86" fill="none" xmlns="http://www.w3.org/2000/svg">
<path d="M82.3665 25.1848H13.9258C9.64504 25.1848 6.1748 28.6551 6.1748 32.9358V53.5596C6.1748 56.1826 7.50139 58.6276 9.70035 60.0575L44.8733 82.9295C47.4977 84.636 50.8909 84.5964 53.4747 82.8291L86.7425 60.0735C88.8546 58.6288 90.1175 56.2348 90.1175 53.676V32.9358C90.1175 28.655 86.6473 25.1848 82.3665 25.1848Z" fill="url(#paint0_linear_91_5734)"/>
<path d="M9.45785 25.4999L43.5863 2.83607C46.1758 1.11642 49.5423 1.1102 52.1382 2.82027L86.5425 25.4846C91.1209 28.5006 91.2064 35.1868 86.7065 38.3189L52.3029 62.2656C49.6327 64.1242 46.086 64.1175 43.4229 62.2489L9.29375 38.3017C4.82597 35.1668 4.91119 28.5192 9.45785 25.4999Z" fill="#F54C4C"/>
<path d="M51.1236 45.1363C49.7903 46.0331 48.3441 46.6721 46.7849 47.0532C45.2191 47.4299 43.681 47.5387 42.1707 47.3794C40.6671 47.2157 39.322 46.7763 38.1354 46.0611L41.7352 43.6396C42.6517 44.1448 43.7097 44.3501 44.9093 44.2554C46.1021 44.1563 47.1618 43.7952 48.0884 43.1719C48.8151 42.6831 49.2931 42.139 49.5225 41.5396C49.7519 40.9401 49.7298 40.3363 49.4562 39.7281C49.1825 39.1198 48.658 38.5691 47.8824 38.0759C47.1067 37.5651 46.2486 37.2253 45.3083 37.0566C44.3679 36.8879 43.4358 36.8873 42.5118 37.0548C41.5811 37.2179 40.7391 37.5528 39.9858 38.0596C39.3658 38.4677 38.8771 38.9478 38.5199 39.4996C38.1626 40.0515 38.0029 40.5685 38.0407 41.0505L34.1344 42.9436L24.5207 35.3091L36.4002 27.3183L39.5365 29.3482L30.7269 35.274L35.6305 39.2265L35.7505 39.1458C35.6786 38.5977 35.8409 37.9945 36.2374 37.336C36.6272 36.6732 37.2354 36.0638 38.0621 35.5078C39.302 34.6737 40.7054 34.1215 42.2722 33.8509C43.8323 33.576 45.4083 33.5842 47.0002 33.8754C48.5922 34.1667 50.0525 34.7423 51.3812 35.6023C52.7504 36.4885 53.6578 37.4894 54.1036 38.605C54.5493 39.7117 54.5257 40.8359 54.0329 41.9775C53.54 43.1103 52.5702 44.1632 51.1236 45.1363ZM56.8561 35.8322L53.8715 33.9005L48.6704 19.0648L51.1303 17.4102L55.3794 20.1604L53.8795 21.1693L57.4083 31.1743L57.5702 31.279L69.6997 23.1201L72.7854 25.1173L56.8561 35.8322ZM70.4701 31.7489L65.7151 28.6713L64.4197 27.7801L49.7903 18.3115L53.2902 15.9573L74.01 29.3679L70.4701 31.7489Z" fill="white"/>
<defs>
<linearGradient id="paint0_linear_91_5734" x1="5.78886" y1="54.8667" x2="90.5035" y2="54.8667" gradientUnits="userSpaceOnUse">
<stop offset="0.49037" stop-color="#E40101"/>
<stop offset="0.528239" stop-color="#9E0405"/>
</linearGradient>
</defs>
</svg>
