<svg width="97" height="86" viewBox="0 0 97 86" fill="none" xmlns="http://www.w3.org/2000/svg">
<path d="M82.3665 25.1846H13.9258C9.64504 25.1846 6.1748 28.6548 6.1748 32.9356V53.5593C6.1748 56.1823 7.50139 58.6274 9.70035 60.0573L44.8733 82.9293C47.4977 84.6358 50.8909 84.5962 53.4747 82.8288L86.7425 60.0733C88.8546 58.6286 90.1175 56.2346 90.1175 53.6757V32.9356C90.1175 28.6548 86.6473 25.1846 82.3665 25.1846Z" fill="url(#paint0_linear_91_5819)"/>
<path d="M9.45785 25.4999L43.5863 2.83607C46.1758 1.11642 49.5423 1.1102 52.1382 2.82027L86.5425 25.4846C91.1209 28.5006 91.2064 35.1868 86.7065 38.3189L52.3029 62.2656C49.6327 64.1242 46.086 64.1175 43.4229 62.2489L9.29375 38.3017C4.82597 35.1668 4.91119 28.5192 9.45785 25.4999Z" fill="#F54C4C"/>
<path d="M31.3304 30.7285L52.0502 44.1391L48.3404 46.6345L31.2729 35.5878L31.1529 35.6685L29.4589 40.8941L26.0191 38.6678L27.8006 33.1029L31.3304 30.7285ZM64.3437 36.2438C62.8571 37.2438 61.2842 37.9679 59.6251 38.4163C57.9726 38.8601 56.3813 39.018 54.8512 38.89C53.321 38.7531 51.9994 38.32 50.8864 37.5909C50.0097 37.0322 49.3971 36.3894 49.0487 35.6623C48.7002 34.9353 48.6065 34.1971 48.7675 33.4478C48.9285 32.6897 49.3415 31.9979 50.0065 31.3725L49.8649 31.2809C48.5755 31.8366 47.1793 32.0591 45.6762 31.9485C44.1729 31.8291 42.8648 31.4048 41.7519 30.6756C40.6796 29.9904 40.0219 29.1776 39.7788 28.2372C39.5358 27.2968 39.6915 26.3241 40.2459 25.3191C40.7936 24.3097 41.7307 23.3589 43.0573 22.4665C44.3706 21.5832 45.7834 20.9533 47.2956 20.5771C48.8078 20.192 50.2787 20.0706 51.7083 20.2128C53.1447 20.3505 54.3956 20.7643 55.4613 21.454C56.5809 22.1787 57.2391 23.0402 57.4357 24.0385C57.6322 25.028 57.3319 25.9466 56.5346 26.7945L56.6763 26.8861C57.6111 26.4354 58.6447 26.1541 59.7771 26.0423C60.9093 25.9216 62.0297 25.9692 63.1381 26.1851C64.2532 26.3965 65.2457 26.7837 66.1158 27.3469C67.2354 28.0715 67.9104 28.9395 68.1406 29.9508C68.3641 30.9578 68.1555 32.0106 67.5147 33.1093C66.8807 34.2035 65.8236 35.2483 64.3437 36.2438ZM61.4502 34.371C62.2168 33.8553 62.752 33.3218 63.0556 32.7704C63.3524 32.2146 63.4147 31.6742 63.2424 31.1492C63.0701 30.6241 62.6703 30.1541 62.0429 29.7393C61.3753 29.316 60.6219 29.0527 59.7827 28.9495C58.9434 28.8375 58.0921 28.8804 57.2288 29.0783C56.3721 29.2718 55.5805 29.6129 54.8539 30.1016C54.1205 30.5949 53.6123 31.1282 53.329 31.7016C53.0457 32.2749 52.9937 32.8396 53.173 33.3955C53.3522 33.9427 53.7756 34.4279 54.4432 34.8512C55.0706 35.2661 55.7837 35.5253 56.5827 35.6288C57.3749 35.728 58.1892 35.6743 59.0256 35.4678C59.8687 35.2568 60.6769 34.8912 61.4502 34.371ZM52.0109 28.2616C52.6376 27.8401 53.0627 27.385 53.2864 26.8962C53.5168 26.403 53.5426 25.9138 53.364 25.4286C53.1853 24.9434 52.7992 24.5043 52.2056 24.1113C51.6054 23.7317 50.946 23.4897 50.2275 23.3854C49.5023 23.2768 48.775 23.3076 48.0455 23.4778C47.3093 23.6436 46.6246 23.9395 45.9913 24.3655C45.3446 24.8004 44.8994 25.2646 44.6557 25.758C44.4118 26.2424 44.3792 26.7229 44.5578 27.1992C44.7363 27.6667 45.1256 28.0903 45.7258 28.4699C46.3194 28.8629 46.9822 29.1159 47.7142 29.2289C48.4461 29.3331 49.1869 29.3066 49.9366 29.1495C50.6862 28.9836 51.3776 28.6876 52.0109 28.2616Z" fill="white"/>
<defs>
<linearGradient id="paint0_linear_91_5819" x1="5.78886" y1="54.8665" x2="90.5035" y2="54.8665" gradientUnits="userSpaceOnUse">
<stop offset="0.49037" stop-color="#E40101"/>
<stop offset="0.528239" stop-color="#9E0405"/>
</linearGradient>
</defs>
</svg>
