<svg width="97" height="84" viewBox="0 0 97 84" fill="none" xmlns="http://www.w3.org/2000/svg">
<path d="M82.367 24.5947H13.9263C9.64553 24.5947 6.17529 28.065 6.17529 32.3457V52.1519C6.17529 54.8046 7.53185 57.273 9.77115 58.6951L44.9459 81.0323C47.5367 82.6776 50.8543 82.6392 53.4064 80.9345L86.6724 58.7132C88.8253 57.2751 90.118 54.857 90.118 52.2679V32.3457C90.118 28.065 86.6478 24.5947 82.367 24.5947Z" fill="url(#paint0_linear_90_3534)"/>
<path d="M9.75405 24.7104L43.6565 2.72411C46.2133 1.06595 49.5046 1.05993 52.0675 2.70871L86.244 24.6954C90.916 27.7011 91.0022 34.5013 86.4078 37.6243L52.2319 60.8551C49.5933 62.6487 46.1252 62.6422 43.4933 60.8387L9.59018 37.6075C5.0278 34.4812 5.11372 27.7197 9.75405 24.7104Z" fill="#F54C4C"/>
<path d="M31.4063 29.961L52.2692 43.1478L48.5323 45.6025L31.3469 34.7401L31.226 34.8195L29.5185 39.9592L26.0549 37.7699L27.8507 32.2966L31.4063 29.961ZM64.491 35.4871C63.148 36.3693 61.6914 36.9979 60.1211 37.3729C58.5439 37.7436 56.9949 37.8507 55.474 37.6943C53.9597 37.5335 52.6052 37.1015 51.4104 36.3982L55.0365 34.0163C55.9593 34.513 57.0248 34.7147 58.2329 34.6215C59.4342 34.5239 60.5016 34.1685 61.4349 33.5554C62.1669 33.0746 62.6484 32.5394 62.8797 31.9499C63.1109 31.3603 63.0888 30.7664 62.8134 30.1682C62.538 29.5701 62.0098 29.0285 61.2289 28.5435C60.4478 28.0412 59.5838 27.7071 58.6368 27.5413C57.6899 27.3756 56.7511 27.3751 55.8205 27.5399C54.8832 27.7005 54.0351 28.03 53.2763 28.5284C52.6517 28.9299 52.1595 29.4021 51.7995 29.9449C51.4396 30.4877 51.2786 30.9962 51.3165 31.4702L47.382 33.3326L37.7023 25.8252L49.6684 17.9648L52.8264 19.9608L43.9525 25.79L48.8897 29.6767L49.0106 29.5973C48.9383 29.0582 49.102 28.4649 49.5015 27.8173C49.8943 27.1654 50.507 26.5659 51.3396 26.019C52.5886 25.1985 54.0021 24.6552 55.5802 24.3889C57.1514 24.1184 58.7386 24.1262 60.3417 24.4124C61.9448 24.6987 63.4154 25.2646 64.7532 26.1103C66.1319 26.9817 67.0455 27.9659 67.4941 29.0631C67.9427 30.1515 67.9186 31.2572 67.4219 32.3801C66.9251 33.4942 65.9482 34.5299 64.491 35.4871Z" fill="white"/>
<defs>
<linearGradient id="paint0_linear_90_3534" x1="5.78935" y1="53.5812" x2="90.504" y2="53.5812" gradientUnits="userSpaceOnUse">
<stop offset="0.49037" stop-color="#E50101"/>
<stop offset="0.528239" stop-color="#9F0505"/>
</linearGradient>
</defs>
</svg>
