<svg width="97" height="86" viewBox="0 0 97 86" fill="none" xmlns="http://www.w3.org/2000/svg">
<path d="M82.3665 25.1848H13.9258C9.64504 25.1848 6.1748 28.6551 6.1748 32.9358V53.5596C6.1748 56.1826 7.50139 58.6276 9.70035 60.0575L44.8733 82.9295C47.4977 84.636 50.8909 84.5964 53.4747 82.8291L86.7425 60.0735C88.8546 58.6288 90.1175 56.2348 90.1175 53.676V32.9358C90.1175 28.655 86.6473 25.1848 82.3665 25.1848Z" fill="url(#paint0_linear_91_5704)"/>
<path d="M9.45785 25.4999L43.5863 2.83607C46.1758 1.11642 49.5423 1.1102 52.1382 2.82027L86.5425 25.4846C91.1209 28.5006 91.2064 35.1868 86.7065 38.3189L52.3029 62.2656C49.6327 64.1242 46.086 64.1175 43.4229 62.2489L9.29375 38.3017C4.82597 35.1668 4.91119 28.5192 9.45785 25.4999Z" fill="#F54C4C"/>
<path d="M44.4706 49.2375L35.7383 32.09L35.5967 31.9984L25.4871 38.7986L22.3508 36.7687L36.3002 27.3856L39.5073 29.4613L48.3204 46.648L44.4706 49.2375ZM66.9436 34.495C65.5036 35.4635 63.9741 36.163 62.3551 36.5933C60.7427 37.0191 59.168 37.1614 57.6311 37.0201C56.0941 36.8788 54.7222 36.444 53.5154 35.7157L57.2752 33.1866C57.8684 33.5266 58.5407 33.7197 59.2922 33.7662C60.0369 33.8083 60.8006 33.7174 61.5833 33.4937C62.3659 33.2699 63.1005 32.9271 63.7872 32.4652C64.5205 31.972 65.0423 31.4518 65.3526 30.9048C65.6562 30.3534 65.7353 29.8195 65.5899 29.303C65.4445 28.7866 65.065 28.3341 64.4513 27.9457C63.8307 27.5353 63.1176 27.2849 62.3121 27.1947C61.5066 27.1045 60.6589 27.1806 59.7692 27.423C58.8861 27.6609 58.0112 28.0713 57.1446 28.6543L55.3347 29.8717L52.4412 27.9989L54.2511 26.7815C54.9644 26.3017 55.4629 25.8017 55.7467 25.2814C56.0371 24.7567 56.1097 24.2449 55.9644 23.7462C55.8125 23.2431 55.433 22.7995 54.826 22.4154C54.2459 22.0312 53.6067 21.789 52.9084 21.689C52.21 21.5801 51.4994 21.6085 50.7766 21.7743C50.0605 21.9355 49.3824 22.2313 48.7424 22.6618C48.1158 23.0833 47.6505 23.5476 47.3465 24.0548C47.0425 24.562 46.9397 25.0629 47.0379 25.5576C47.1294 26.048 47.4552 26.4877 48.0153 26.8765L44.4454 29.2778C43.312 28.509 42.6235 27.6279 42.38 26.6344C42.1364 25.632 42.3018 24.6128 42.876 23.5766C43.4435 22.5361 44.3906 21.5697 45.7172 20.6774C47.0838 19.7581 48.5301 19.128 50.0561 18.787C51.582 18.4372 53.0566 18.3578 54.48 18.5487C55.9034 18.7397 57.1411 19.1757 58.1933 19.8567C59.3668 20.6074 60.0048 21.4691 60.1073 22.4417C60.2165 23.4098 59.8392 24.3447 58.9753 25.2462L59.1372 25.351C60.7795 24.5134 62.4224 24.1205 64.0658 24.1723C65.7092 24.2153 67.175 24.6581 68.4634 25.5007C69.6235 26.2516 70.3355 27.1436 70.5995 28.1767C70.8634 29.201 70.685 30.2646 70.0644 31.3675C69.4505 32.466 68.4102 33.5085 66.9436 34.495Z" fill="white"/>
<defs>
<linearGradient id="paint0_linear_91_5704" x1="5.78886" y1="54.8667" x2="90.5035" y2="54.8667" gradientUnits="userSpaceOnUse">
<stop offset="0.49037" stop-color="#E40101"/>
<stop offset="0.528239" stop-color="#9E0405"/>
</linearGradient>
</defs>
</svg>
