<svg width="97" height="86" viewBox="0 0 97 86" fill="none" xmlns="http://www.w3.org/2000/svg">
<path d="M82.3666 25.1846H13.9258C9.64504 25.1846 6.1748 28.6548 6.1748 32.9356V53.5593C6.1748 56.1823 7.50139 58.6274 9.70035 60.0573L44.8733 82.9293C47.4977 84.6358 50.891 84.5962 53.4748 82.8288L86.7426 60.0733C88.8546 58.6286 90.1176 56.2346 90.1176 53.6757V32.9356C90.1176 28.6548 86.6473 25.1846 82.3666 25.1846Z" fill="url(#paint0_linear_91_5444)"/>
<path d="M9.45786 25.4999L43.5863 2.83607C46.1759 1.11641 49.5423 1.11019 52.1382 2.82027L86.5425 25.4846C91.121 28.5006 91.2064 35.1868 86.7066 38.3189L52.3029 62.2656C49.6327 64.1242 46.086 64.1175 43.4229 62.2489L9.29375 38.3017C4.82597 35.1668 4.91119 28.5192 9.45786 25.4999Z" fill="#F54C4C"/>
<path d="M51.6848 44.9056C50.0383 46.0132 48.2034 46.691 46.1804 46.939C44.1573 47.1782 42.0298 46.9935 39.798 46.3849C37.5661 45.7674 35.3204 44.7275 33.0609 43.2651C30.8081 41.7982 29.2025 40.341 28.2441 38.8936C27.2857 37.4374 26.9749 36.044 27.3119 34.7135C27.6555 33.3785 28.6472 32.1595 30.2872 31.0564C31.9271 29.9533 33.7552 29.2755 35.7715 29.0231C37.7878 28.7708 39.9052 28.9489 42.1236 29.5577C44.3486 30.1619 46.5875 31.1931 48.8403 32.6511C51.1065 34.1179 52.7256 35.5838 53.6975 37.0487C54.6694 38.5048 54.9869 39.9026 54.65 41.2419C54.3198 42.5768 53.3314 43.7981 51.6848 44.9056ZM48.5182 42.8561C49.7981 41.9951 50.1707 40.9032 49.6359 39.5804C49.1011 38.2488 47.5892 36.7775 45.1004 35.1667C43.4547 34.1015 41.9021 33.321 40.4424 32.825C38.9828 32.329 37.6598 32.1062 36.4732 32.1566C35.2799 32.2025 34.26 32.5102 33.4134 33.0797C32.1401 33.9362 31.7742 35.028 32.3157 36.3552C32.8505 37.678 34.3489 39.1405 36.8108 40.7427C38.4566 41.8167 40.0093 42.6062 41.469 43.111C42.9354 43.6113 44.2652 43.8385 45.4585 43.7925C46.645 43.7422 47.6649 43.4301 48.5182 42.8561ZM69.666 32.6638C68.226 33.6323 66.6965 34.3318 65.0775 34.7621C63.4651 35.1879 61.8904 35.3301 60.3535 35.1889C58.8165 35.0476 57.4446 34.6128 56.2378 33.8845L59.9976 31.3554C60.5908 31.6953 61.2631 31.8885 62.0146 31.935C62.7593 31.9771 63.523 31.8862 64.3057 31.6625C65.0883 31.4387 65.8229 31.0959 66.5096 30.634C67.2429 30.1408 67.7647 29.6206 68.075 29.0736C68.3786 28.5222 68.4577 27.9882 68.3123 27.4718C68.1669 26.9553 67.7874 26.5029 67.1737 26.1145C66.5531 25.704 65.84 25.4537 65.0345 25.3635C64.229 25.2733 63.3813 25.3493 62.4916 25.5918C61.6085 25.8297 60.7336 26.2401 59.867 26.8231L58.057 28.0405L55.1636 26.1677L56.9735 24.9503C57.6868 24.4705 58.1853 23.9705 58.4691 23.4502C58.7595 22.9255 58.8321 22.4137 58.6868 21.915C58.5348 21.4119 58.1554 20.9683 57.5484 20.5842C56.9683 20.2 56.3291 19.9578 55.6308 19.8578C54.9324 19.7489 54.2218 19.7773 53.499 19.943C52.7829 20.1043 52.1048 20.4001 51.4648 20.8306C50.8382 21.2521 50.3729 21.7164 50.0689 22.2236C49.7649 22.7307 49.662 23.2317 49.7603 23.7264C49.8518 24.2168 50.1776 24.6564 50.7377 25.0453L47.1678 27.4466C46.0344 26.6778 45.3459 25.7966 45.1024 24.8032C44.8588 23.8008 45.0241 22.7816 45.5984 21.7454C46.1659 20.7049 47.113 19.7385 48.4396 18.8461C49.8062 17.9269 51.2525 17.2968 52.7785 16.9558C54.3043 16.606 55.779 16.5266 57.2024 16.7175C58.6257 16.9085 59.8635 17.3445 60.9157 18.0255C62.0892 18.7762 62.7272 19.6379 62.8297 20.6105C62.9389 21.5786 62.5615 22.5135 61.6977 23.415L61.8596 23.5198C63.5019 22.6821 65.1448 22.2892 66.7882 22.3411C68.4316 22.3841 69.8974 22.8269 71.1858 23.6695C72.3458 24.4204 73.0579 25.3124 73.3219 26.3455C73.5858 27.3698 73.4074 28.4334 72.7868 29.5363C72.1729 30.6348 71.1326 31.6772 69.666 32.6638Z" fill="white"/>
<defs>
<linearGradient id="paint0_linear_91_5444" x1="5.78886" y1="54.8665" x2="90.5035" y2="54.8665" gradientUnits="userSpaceOnUse">
<stop offset="0.49037" stop-color="#E40101"/>
<stop offset="0.528239" stop-color="#9E0405"/>
</linearGradient>
</defs>
</svg>
