<svg width="97" height="86" viewBox="0 0 97 86" fill="none" xmlns="http://www.w3.org/2000/svg">
<path d="M82.3665 25.1848H13.9258C9.64504 25.1848 6.1748 28.6551 6.1748 32.9358V53.5596C6.1748 56.1826 7.50139 58.6276 9.70035 60.0575L44.8733 82.9295C47.4977 84.636 50.8909 84.5964 53.4747 82.8291L86.7425 60.0735C88.8546 58.6288 90.1175 56.2348 90.1175 53.676V32.9358C90.1175 28.655 86.6473 25.1848 82.3665 25.1848Z" fill="url(#paint0_linear_91_5789)"/>
<path d="M9.45785 25.4999L43.5863 2.83607C46.1758 1.11642 49.5423 1.1102 52.1382 2.82027L86.5425 25.4846C91.1209 28.5006 91.2064 35.1868 86.7065 38.3189L52.3029 62.2656C49.6327 64.1242 46.086 64.1175 43.4229 62.2489L9.29375 38.3017C4.82597 35.1668 4.91119 28.5192 9.45785 25.4999Z" fill="#F54C4C"/>
<path d="M29.8272 31.3658C30.8139 30.711 31.9426 30.1832 33.2132 29.7826C34.4837 29.3731 35.8767 29.166 37.3923 29.1615C38.9011 29.1525 40.5162 29.4148 42.2377 29.9483C43.9592 30.4817 45.7642 31.3596 47.6527 32.582C49.44 33.7299 50.8451 34.8857 51.868 36.0493C52.8908 37.2041 53.5345 38.329 53.799 39.4241C54.0636 40.5192 53.9554 41.5623 53.4747 42.5533C52.9939 43.5444 52.1369 44.4547 50.9036 45.2843C49.6103 46.1542 48.2074 46.7596 46.6948 47.1004C45.1889 47.4368 43.6842 47.5231 42.1806 47.3594C40.677 47.1957 39.2819 46.7899 37.9953 46.142L41.6451 43.6869C42.6546 44.0939 43.6888 44.2618 44.7478 44.1904C45.8066 44.1103 46.776 43.7742 47.656 43.1823C49.0759 42.2272 49.5453 41.088 49.0642 39.7647C48.5831 38.4414 47.233 37.0617 45.014 35.6255L44.874 35.7196C45.1408 36.3235 45.2301 36.94 45.1418 37.5692C45.0468 38.194 44.7839 38.8025 44.3532 39.3949C43.9293 39.9828 43.3506 40.5233 42.6173 41.0166C41.4174 41.8237 40.0474 42.3624 38.5074 42.6327C36.974 42.8985 35.4215 42.8924 33.8498 42.6142C32.2848 42.3316 30.8481 41.7713 29.5397 40.9332C28.1908 40.0601 27.2867 39.0703 26.8276 37.9636C26.3684 36.8481 26.3819 35.7174 26.868 34.5714C27.3474 33.4211 28.3338 32.3525 29.8272 31.3658ZM32.8723 33.3235C32.1524 33.8078 31.6811 34.3607 31.4586 34.9821C31.236 35.5948 31.2616 36.2096 31.5353 36.8267C31.8089 37.435 32.3167 37.9792 33.0586 38.4594C33.8005 38.9307 34.6315 39.2531 35.5518 39.4263C36.4787 39.5951 37.3975 39.6047 38.3082 39.455C39.2256 39.3009 40.0476 38.9794 40.7743 38.4907C41.3142 38.1274 41.713 37.7212 41.9706 37.272C42.2281 36.8228 42.3447 36.3615 42.3204 35.8883C42.2961 35.4062 42.1411 34.9451 41.8555 34.5051C41.5766 34.0606 41.1675 33.6682 40.628 33.3278C39.9198 32.8695 39.0989 32.5581 38.1653 32.3938C37.2383 32.225 36.3061 32.2156 35.3686 32.3655C34.4377 32.5109 33.6056 32.8302 32.8723 33.3235ZM69.2935 32.9143C68.3068 33.5691 67.1782 34.1013 65.9076 34.5108C64.6304 34.9159 63.234 35.1208 61.7184 35.1253C60.1961 35.1255 58.5743 34.8589 56.8528 34.3254C55.1246 33.7876 53.3128 32.9009 51.4174 31.6654C49.6435 30.5173 48.2486 29.368 47.2325 28.2176C46.2164 27.0672 45.5794 25.9467 45.3217 24.856C45.0571 23.7609 45.1652 22.7178 45.646 21.7267C46.1335 20.7312 46.9905 19.8209 48.2171 18.9958C49.5037 18.1304 50.9 17.5295 52.4059 17.1931C53.9184 16.8522 55.4265 16.7637 56.9301 16.9274C58.427 17.0867 59.8052 17.4772 61.0647 18.0988L57.4149 20.5539C56.4323 20.1643 55.415 20.0118 54.3629 20.0964C53.3107 20.172 52.3447 20.5058 51.4647 21.0978C50.0447 22.0529 49.5753 23.1921 50.0565 24.5154C50.5443 25.8341 51.8741 27.2008 54.046 28.6153L54.186 28.5212C53.9191 27.9173 53.8332 27.3029 53.9283 26.6782C54.0233 26.0534 54.2829 25.447 54.7069 24.8592C55.1308 24.2625 55.7094 23.7175 56.4427 23.2242C57.6426 22.4171 59.0093 21.8806 60.5426 21.6148C62.0826 21.3445 63.6418 21.3506 65.2203 21.6331C66.7919 21.9113 68.2287 22.476 69.5305 23.3274C70.8996 24.2047 71.8171 25.2033 72.2831 26.3232C72.7422 27.4387 72.7288 28.5694 72.2427 29.7154C71.7566 30.8614 70.7735 31.9277 69.2935 32.9143ZM66.2384 30.9633C66.965 30.4746 67.4362 29.9217 67.6521 29.3047C67.8679 28.6877 67.839 28.0706 67.5653 27.4535C67.2916 26.8364 66.7737 26.2857 66.0116 25.8012C65.2763 25.3165 64.4452 24.9898 63.5183 24.821C62.598 24.6477 61.6792 24.6381 60.7619 24.7923C59.8445 24.9464 59.0225 25.2679 58.2958 25.7567C57.7559 26.1199 57.3571 26.5261 57.0995 26.9753C56.842 27.4245 56.7254 27.8858 56.7497 28.3591C56.7672 28.828 56.9188 29.2868 57.2045 29.7357C57.49 30.1757 57.9026 30.5747 58.4423 30.9328C59.1706 31.3954 60.0016 31.7133 60.9353 31.8864C61.869 32.0596 62.8046 32.0712 63.7421 31.9213C64.6796 31.7714 65.5117 31.4521 66.2384 30.9633Z" fill="white"/>
<defs>
<linearGradient id="paint0_linear_91_5789" x1="5.78886" y1="54.8667" x2="90.5035" y2="54.8667" gradientUnits="userSpaceOnUse">
<stop offset="0.49037" stop-color="#E40101"/>
<stop offset="0.528239" stop-color="#9E0405"/>
</linearGradient>
</defs>
</svg>
