<svg width="97" height="86" viewBox="0 0 97 86" fill="none" xmlns="http://www.w3.org/2000/svg">
<path d="M82.3666 25.1848H13.9258C9.64504 25.1848 6.1748 28.6551 6.1748 32.9358V53.5596C6.1748 56.1826 7.50139 58.6276 9.70035 60.0575L44.8733 82.9295C47.4977 84.636 50.891 84.5964 53.4748 82.8291L86.7426 60.0735C88.8546 58.6288 90.1176 56.2348 90.1176 53.676V32.9358C90.1176 28.655 86.6473 25.1848 82.3666 25.1848Z" fill="url(#paint0_linear_91_5614)"/>
<path d="M9.45786 25.4999L43.5863 2.83607C46.1759 1.11641 49.5423 1.11019 52.1382 2.82027L86.5425 25.4846C91.121 28.5006 91.2064 35.1868 86.7066 38.3189L52.3029 62.2656C49.6327 64.1242 46.086 64.1175 43.4229 62.2489L9.29375 38.3017C4.82597 35.1668 4.91119 28.5192 9.45786 25.4999Z" fill="#F54C4C"/>
<path d="M51.2836 45.0284C49.797 46.0284 48.2241 46.7526 46.565 47.2009C44.9125 47.6448 43.3212 47.8027 41.7911 47.6746C40.2609 47.5377 38.9393 47.1047 37.8263 46.3755C36.9496 45.8169 36.337 45.174 35.9885 44.447C35.6401 43.7199 35.5464 42.9817 35.7074 42.2325C35.8683 41.4743 36.2813 40.7826 36.9464 40.1572L36.8048 40.0655C35.5154 40.6212 34.1192 40.8438 32.616 40.7332C31.1128 40.6137 29.8047 40.1894 28.6918 39.4603C27.6194 38.775 26.9617 37.9622 26.7187 37.0218C26.4757 36.0814 26.6314 35.1087 27.1858 34.1037C27.7334 33.0944 28.6706 32.1435 29.9972 31.2512C31.3105 30.3678 32.7232 29.738 34.2355 29.3617C35.7476 28.9766 37.2186 28.8552 38.6482 28.9974C40.0845 29.1352 41.3355 29.5489 42.4012 30.2386C43.5208 30.9633 44.1789 31.8248 44.3755 32.8231C44.5721 33.8126 44.2717 34.7313 43.4745 35.5791L43.6161 35.6708C44.551 35.22 45.5846 34.9387 46.7169 34.8269C47.8492 34.7063 48.9695 34.7539 50.078 34.9697C51.193 35.1811 52.1856 35.5684 53.0557 36.1315C54.1753 36.8562 54.8503 37.7242 55.0805 38.7355C55.304 39.7424 55.0954 40.7952 54.4546 41.8939C53.8205 42.9881 52.7635 44.033 51.2836 45.0284ZM48.3901 43.1557C49.1567 42.64 49.6918 42.1065 49.9954 41.555C50.2923 40.9993 50.3546 40.4589 50.1823 39.9338C50.01 39.4087 49.6101 38.9388 48.9828 38.5239C48.3152 38.1006 47.5617 37.8374 46.7226 37.7342C45.8833 37.6221 45.032 37.6651 44.1687 37.863C43.312 38.0564 42.5204 38.3975 41.7937 38.8863C41.0604 39.3795 40.5521 39.9128 40.2688 40.4862C39.9856 41.0595 39.9336 41.6242 40.1128 42.1802C40.292 42.7273 40.7155 43.2125 41.3831 43.6359C42.0105 44.0507 42.7236 44.3099 43.5225 44.4135C44.3147 44.5126 45.129 44.459 45.9655 44.2524C46.8086 44.0414 47.6168 43.6758 48.3901 43.1557ZM38.9508 37.0463C39.5775 36.6248 40.0026 36.1696 40.2263 35.6809C40.4567 35.1877 40.4825 34.6985 40.3038 34.2133C40.1252 33.7281 39.7391 33.289 39.1454 32.896C38.5452 32.5163 37.8859 32.2743 37.1674 32.1701C36.4422 32.0614 35.7149 32.0922 34.9854 32.2624C34.2492 32.4282 33.5645 32.7241 32.9311 33.1501C32.2845 33.5851 31.8393 34.0493 31.5956 34.5426C31.3517 35.0271 31.3191 35.5075 31.4977 35.9838C31.6762 36.4513 32.0655 36.8749 32.6657 37.2546C33.2593 37.6476 33.9221 37.9006 34.6541 38.0136C35.386 38.1177 36.1268 38.0913 36.8764 37.9342C37.6261 37.7682 38.3175 37.4723 38.9508 37.0463ZM47.5346 19.4546C48.5213 18.7998 49.65 18.2721 50.9206 17.8714C52.1911 17.4619 53.5842 17.2549 55.0997 17.2503C56.6085 17.2414 58.2236 17.5037 59.9451 18.0371C61.6666 18.5706 63.4716 19.4485 65.3601 20.6708C67.1474 21.8188 68.5525 22.9746 69.5754 24.1382C70.5983 25.293 71.2419 26.4179 71.5065 27.513C71.771 28.6081 71.6629 29.6511 71.1821 30.6422C70.7013 31.6333 69.8443 32.5436 68.611 33.3731C67.3177 34.2431 65.9148 34.8484 64.4023 35.1893C62.8964 35.5257 61.3916 35.612 59.888 35.4483C58.3844 35.2846 56.9893 34.8788 55.7027 34.2308L59.3525 31.7758C60.3621 32.1828 61.3963 32.3506 62.4552 32.2793C63.5141 32.1991 64.4835 31.8631 65.3634 31.2712C66.7834 30.3161 67.2528 29.1769 66.7716 27.8536C66.2905 26.5303 64.9404 25.1506 62.7214 23.7143L62.5814 23.8085C62.8483 24.4124 62.9376 25.0289 62.8492 25.658C62.7542 26.2828 62.4913 26.8914 62.0607 27.4838C61.6367 28.0716 61.0581 28.6122 60.3247 29.1054C59.1248 29.9126 57.7548 30.4513 56.2148 30.7216C54.6815 30.9874 53.129 30.9812 51.5573 30.7031C49.9923 30.4205 48.5555 29.8601 47.2471 29.0221C45.8982 28.149 44.9942 27.1591 44.5351 26.0525C44.0759 24.937 44.0893 23.8063 44.5754 22.6603C45.0548 21.5099 46.0412 20.4414 47.5346 19.4546ZM50.5798 21.4123C49.8598 21.8966 49.3885 22.4495 49.166 23.071C48.9435 23.6836 48.969 24.2985 49.2427 24.9156C49.5164 25.5238 50.0241 26.0681 50.7661 26.5483C51.5079 27.0196 52.339 27.3419 53.2592 27.5152C54.1862 27.684 55.105 27.6936 56.0157 27.5439C56.933 27.3898 57.755 27.0683 58.4817 26.5795C59.0217 26.2163 59.4204 25.8101 59.678 25.3609C59.9356 24.9117 60.0522 24.4504 60.0279 23.9771C60.0035 23.495 59.8485 23.034 59.563 22.594C59.2841 22.1495 58.8749 21.7571 58.3354 21.4167C57.6272 20.9583 56.8063 20.647 55.8727 20.4827C54.9458 20.3139 54.0135 20.3044 53.076 20.4543C52.1451 20.5997 51.3131 20.9191 50.5798 21.4123Z" fill="white"/>
<defs>
<linearGradient id="paint0_linear_91_5614" x1="5.78886" y1="54.8667" x2="90.5035" y2="54.8667" gradientUnits="userSpaceOnUse">
<stop offset="0.49037" stop-color="#E40101"/>
<stop offset="0.528239" stop-color="#9E0405"/>
</linearGradient>
</defs>
</svg>
