<svg width="97" height="86" viewBox="0 0 97 86" fill="none" xmlns="http://www.w3.org/2000/svg">
<path d="M82.3666 25.1848H13.9258C9.64504 25.1848 6.1748 28.6551 6.1748 32.9358V53.5596C6.1748 56.1826 7.50139 58.6276 9.70035 60.0575L44.8733 82.9295C47.4977 84.636 50.891 84.5964 53.4748 82.8291L86.7426 60.0735C88.8546 58.6288 90.1176 56.2348 90.1176 53.676V32.9358C90.1176 28.655 86.6473 25.1848 82.3666 25.1848Z" fill="url(#paint0_linear_91_5584)"/>
<path d="M9.45786 25.4999L43.5863 2.83607C46.1759 1.11641 49.5423 1.11019 52.1382 2.82027L86.5425 25.4846C91.121 28.5006 91.2064 35.1868 86.7066 38.3189L52.3029 62.2656C49.6327 64.1242 46.086 64.1175 43.4229 62.2489L9.29375 38.3017C4.82597 35.1668 4.91119 28.5192 9.45786 25.4999Z" fill="#F54C4C"/>
<path d="M39.5061 47.5024L36.5216 45.5707L31.3204 30.735L33.7803 29.0804L38.0295 31.8306L36.5296 32.8395L40.0584 42.8444L40.2202 42.9492L52.3497 34.7903L55.4355 36.7875L39.5061 47.5024ZM53.1202 43.4191L48.3652 40.3415L47.0697 39.4502L32.4404 29.9817L35.9402 27.6275L56.6601 41.038L53.1202 43.4191ZM69.5685 32.7291C68.0819 33.7291 66.509 34.4532 64.8499 34.9016C63.1974 35.3454 61.6061 35.5033 60.076 35.3753C58.5458 35.2384 57.2242 34.8053 56.1112 34.0762C55.2345 33.5176 54.6219 32.8747 54.2735 32.1476C53.925 31.4206 53.8313 30.6824 53.9923 29.9331C54.1532 29.175 54.5663 28.4832 55.2313 27.8578L55.0897 27.7662C53.8003 28.3219 52.4041 28.5444 50.9009 28.4338C49.3977 28.3144 48.0896 27.8901 46.9767 27.1609C45.9043 26.4757 45.2466 25.6629 45.0036 24.7225C44.7606 23.7821 44.9163 22.8094 45.4707 21.8044C46.0183 20.795 46.9555 19.8442 48.2821 18.9518C49.5954 18.0685 51.0081 17.4387 52.5204 17.0624C54.0325 16.6773 55.5035 16.5559 56.9331 16.6981C58.3694 16.8358 59.6204 17.2496 60.6861 17.9393C61.8057 18.664 62.4638 19.5255 62.6605 20.5238C62.857 21.5133 62.5566 22.4319 61.7594 23.2798L61.9011 23.3715C62.8359 22.9207 63.8695 22.6394 65.0019 22.5276C66.1341 22.4069 67.2545 22.4545 68.3629 22.6704C69.4779 22.8818 70.4705 23.269 71.3406 23.8322C72.4602 24.5568 73.1352 25.4248 73.3654 26.4361C73.5889 27.4431 73.3803 28.4959 72.7395 29.5946C72.1054 30.6888 71.0484 31.7336 69.5685 32.7291ZM66.675 30.8563C67.4416 30.3407 67.9767 29.8071 68.2803 29.2557C68.5772 28.6999 68.6395 28.1595 68.4672 27.6345C68.2949 27.1094 67.895 26.6394 67.2677 26.2246C66.6001 25.8013 65.8466 25.538 65.0075 25.4348C64.1682 25.3228 63.3169 25.3657 62.4536 25.5636C61.5969 25.7571 60.8053 26.0982 60.0786 26.587C59.3453 27.0802 58.837 27.6135 58.5538 28.1869C58.2705 28.7602 58.2185 29.3249 58.3977 29.8809C58.5769 30.428 59.0004 30.9132 59.668 31.3365C60.2954 31.7514 61.0085 32.0106 61.8074 32.1141C62.5996 32.2133 63.414 32.1596 64.2504 31.9531C65.0935 31.7421 65.9017 31.3765 66.675 30.8563ZM57.2357 24.7469C57.8624 24.3254 58.2875 23.8703 58.5112 23.3816C58.7416 22.8883 58.7674 22.3991 58.5888 21.9139C58.4101 21.4288 58.024 20.9897 57.4303 20.5967C56.8301 20.217 56.1708 19.975 55.4523 19.8707C54.7271 19.7621 53.9998 19.7929 53.2703 19.9631C52.5341 20.1289 51.8494 20.4248 51.2161 20.8508C50.5694 21.2858 50.1242 21.7499 49.8805 22.2433C49.6366 22.7278 49.604 23.2082 49.7826 23.6845C49.9611 24.152 50.3504 24.5756 50.9506 24.9552C51.5442 25.3482 52.207 25.6013 52.939 25.7142C53.6709 25.8184 54.4117 25.7919 55.1614 25.6348C55.911 25.4689 56.6024 25.1729 57.2357 24.7469Z" fill="white"/>
<defs>
<linearGradient id="paint0_linear_91_5584" x1="5.78886" y1="54.8667" x2="90.5035" y2="54.8667" gradientUnits="userSpaceOnUse">
<stop offset="0.49037" stop-color="#E40101"/>
<stop offset="0.528239" stop-color="#9E0405"/>
</linearGradient>
</defs>
</svg>
