<svg width="97" height="86" viewBox="0 0 97 86" fill="none" xmlns="http://www.w3.org/2000/svg">
<path d="M82.3666 25.1846H13.9258C9.64504 25.1846 6.1748 28.6548 6.1748 32.9356V53.5593C6.1748 56.1823 7.50139 58.6274 9.70035 60.0573L44.8733 82.9293C47.4977 84.6358 50.891 84.5962 53.4748 82.8288L86.7426 60.0733C88.8546 58.6286 90.1176 56.2346 90.1176 53.6757V32.9356C90.1176 28.6548 86.6473 25.1846 82.3666 25.1846Z" fill="url(#paint0_linear_91_5594)"/>
<path d="M9.45786 25.4999L43.5863 2.83607C46.1759 1.11641 49.5423 1.11019 52.1382 2.82027L86.5425 25.4846C91.121 28.5006 91.2064 35.1868 86.7066 38.3189L52.3029 62.2656C49.6327 64.1242 46.086 64.1175 43.4229 62.2489L9.29375 38.3017C4.82597 35.1668 4.91119 28.5192 9.45786 25.4999Z" fill="#F54C4C"/>
<path d="M51.6848 44.9056C50.0383 46.0132 48.2034 46.691 46.1804 46.939C44.1573 47.1782 42.0298 46.9935 39.798 46.3849C37.5661 45.7674 35.3204 44.7275 33.0609 43.2651C30.8081 41.7982 29.2025 40.341 28.2441 38.8936C27.2857 37.4374 26.9749 36.044 27.3119 34.7135C27.6555 33.3785 28.6472 32.1595 30.2872 31.0564C31.9271 29.9533 33.7552 29.2755 35.7715 29.0231C37.7878 28.7708 39.9052 28.9489 42.1236 29.5577C44.3486 30.1619 46.5875 31.1931 48.8403 32.6511C51.1065 34.1179 52.7256 35.5838 53.6975 37.0487C54.6694 38.5048 54.9869 39.9026 54.65 41.2419C54.3198 42.5768 53.3314 43.7981 51.6848 44.9056ZM48.5182 42.8561C49.7981 41.9951 50.1707 40.9032 49.6359 39.5804C49.1011 38.2488 47.5892 36.7775 45.1004 35.1667C43.4547 34.1015 41.9021 33.321 40.4424 32.825C38.9828 32.329 37.6598 32.1062 36.4732 32.1566C35.2799 32.2025 34.26 32.5102 33.4134 33.0797C32.1401 33.9362 31.7742 35.028 32.3157 36.3552C32.8505 37.678 34.3489 39.1405 36.8108 40.7427C38.4566 41.8167 40.0093 42.6062 41.469 43.111C42.9354 43.6113 44.2652 43.8385 45.4585 43.7925C46.645 43.7422 47.6649 43.4301 48.5182 42.8561ZM48.1396 19.0479C49.1263 18.3931 50.255 17.8654 51.5256 17.4647C52.7961 17.0552 54.1891 16.8482 55.7047 16.8436C57.2135 16.8347 58.8286 17.097 60.5501 17.6304C62.2716 18.1639 64.0766 19.0418 65.9651 20.2641C67.7524 21.4121 69.1575 22.5679 70.1804 23.7315C71.2032 24.8863 71.8469 26.0112 72.1114 27.1063C72.376 28.2014 72.2678 29.2444 71.7871 30.2355C71.3063 31.2266 70.4493 32.1369 69.216 32.9664C67.9227 33.8364 66.5198 34.4418 65.0072 34.7826C63.5013 35.119 61.9966 35.2053 60.493 35.0416C58.9894 34.8779 57.5943 34.4721 56.3077 33.8241L59.9575 31.3691C60.967 31.7761 62.0013 31.9439 63.0602 31.8726C64.119 31.7924 65.0884 31.4564 65.9684 30.8645C67.3883 29.9094 67.8577 28.7702 67.3766 27.4469C66.8955 26.1236 65.5454 24.7439 63.3264 23.3076L63.1864 23.4018C63.4533 24.0057 63.5425 24.6222 63.4542 25.2514C63.3592 25.8761 63.0963 26.4847 62.6657 27.0771C62.2417 27.6649 61.663 28.2055 60.9297 28.6987C59.7298 29.5059 58.3598 30.0446 56.8198 30.3149C55.2864 30.5807 53.7339 30.5745 52.1622 30.2964C50.5972 30.0138 49.1605 29.4534 47.8521 28.6154C46.5032 27.7423 45.5991 26.7524 45.14 25.6458C44.6809 24.5303 44.6943 23.3996 45.1804 22.2536C45.6598 21.1032 46.6462 20.0347 48.1396 19.0479ZM51.1847 21.0056C50.4648 21.4899 49.9935 22.0428 49.771 22.6643C49.5484 23.2769 49.574 23.8918 49.8477 24.5089C50.1213 25.1172 50.6291 25.6614 51.371 26.1416C52.1129 26.6129 52.9439 26.9352 53.8642 27.1085C54.7911 27.2773 55.7099 27.2869 56.6207 27.1372C57.538 26.9831 58.36 26.6616 59.0867 26.1728C59.6266 25.8096 60.0254 25.4034 60.283 24.9542C60.5405 24.505 60.6572 24.0437 60.6328 23.5704C60.6085 23.0883 60.4535 22.6273 60.1679 22.1873C59.8891 21.7428 59.4799 21.3504 58.9404 21.01C58.2322 20.5516 57.4113 20.2403 56.4777 20.076C55.5507 19.9072 54.6185 19.8977 53.681 20.0476C52.7501 20.1931 51.918 20.5124 51.1847 21.0056Z" fill="white"/>
<defs>
<linearGradient id="paint0_linear_91_5594" x1="5.78886" y1="54.8665" x2="90.5035" y2="54.8665" gradientUnits="userSpaceOnUse">
<stop offset="0.49037" stop-color="#E40101"/>
<stop offset="0.528239" stop-color="#9E0405"/>
</linearGradient>
</defs>
</svg>
