<svg width="97" height="86" viewBox="0 0 97 86" fill="none" xmlns="http://www.w3.org/2000/svg">
<path d="M82.367 25.1848H13.9263C9.64553 25.1848 6.17529 28.6551 6.17529 32.9358V53.5596C6.17529 56.1826 7.50188 58.6276 9.70084 60.0575L44.8738 82.9295C47.4981 84.636 50.8914 84.5964 53.4752 82.8291L86.743 60.0735C88.8551 58.6288 90.118 56.2348 90.118 53.676V32.9358C90.118 28.655 86.6478 25.1848 82.367 25.1848Z" fill="url(#paint0_linear_91_5879)"/>
<path d="M9.45785 25.4999L43.5863 2.83607C46.1758 1.11642 49.5423 1.1102 52.1382 2.82027L86.5425 25.4846C91.1209 28.5006 91.2064 35.1868 86.7065 38.3189L52.3029 62.2656C49.6327 64.1242 46.086 64.1175 43.4229 62.2489L9.29375 38.3017C4.82597 35.1668 4.91119 28.5192 9.45785 25.4999Z" fill="#F54C4C"/>
<path d="M51.2836 45.0287C49.797 46.0286 48.2241 46.7528 46.565 47.2011C44.9125 47.645 43.3212 47.8029 41.7911 47.6749C40.2609 47.538 38.9393 47.1049 37.8263 46.3758C36.9496 45.8171 36.337 45.1743 35.9885 44.4472C35.6401 43.7202 35.5464 42.982 35.7074 42.2327C35.8683 41.4746 36.2813 40.7828 36.9464 40.1574L36.8048 40.0657C35.5154 40.6215 34.1192 40.844 32.616 40.7334C31.1128 40.614 29.8047 40.1897 28.6918 39.4605C27.6194 38.7753 26.9617 37.9624 26.7187 37.022C26.4757 36.0816 26.6314 35.109 27.1858 34.104C27.7334 33.0946 28.6706 32.1438 29.9972 31.2514C31.3105 30.368 32.7232 29.7382 34.2355 29.362C35.7476 28.9769 37.2186 28.8554 38.6482 28.9977C40.0845 29.1354 41.3355 29.5491 42.4012 30.2389C43.5208 30.9635 44.1789 31.825 44.3755 32.8234C44.5721 33.8129 44.2717 34.7315 43.4745 35.5794L43.6161 35.671C44.551 35.2202 45.5846 34.9389 46.7169 34.8271C47.8492 34.7065 48.9695 34.7541 50.078 34.97C51.193 35.1814 52.1856 35.5686 53.0557 36.1318C54.1753 36.8564 54.8503 37.7244 55.0805 38.7357C55.304 39.7427 55.0954 40.7955 54.4546 41.8942C53.8205 42.9884 52.7635 44.0332 51.2836 45.0287ZM48.3901 43.1559C49.1567 42.6402 49.6918 42.1067 49.9954 41.5553C50.2923 40.9995 50.3546 40.4591 50.1823 39.934C50.01 39.409 49.6101 38.939 48.9828 38.5242C48.3151 38.1009 47.5617 37.8376 46.7226 37.7344C45.8833 37.6224 45.032 37.6653 44.1687 37.8632C43.312 38.0567 42.5204 38.3978 41.7937 38.8865C41.0604 39.3798 40.5521 39.9131 40.2688 40.4864C39.9856 41.0598 39.9336 41.6245 40.1128 42.1804C40.292 42.7276 40.7155 43.2128 41.3831 43.6361C42.0105 44.051 42.7236 44.3101 43.5225 44.4137C44.3147 44.5129 45.129 44.4592 45.9655 44.2527C46.8086 44.0417 47.6168 43.6761 48.3901 43.1559ZM38.9508 37.0465C39.5775 36.625 40.0026 36.1699 40.2263 35.6811C40.4567 35.1879 40.4825 34.6987 40.3038 34.2135C40.1252 33.7283 39.7391 33.2892 39.1454 32.8962C38.5452 32.5166 37.8859 32.2746 37.1674 32.1703C36.4422 32.0617 35.7149 32.0925 34.9854 32.2627C34.2492 32.4285 33.5645 32.7244 32.9311 33.1504C32.2845 33.5853 31.8393 34.0495 31.5956 34.5428C31.3517 35.0273 31.3191 35.5078 31.4977 35.9841C31.6762 36.4516 32.0655 36.8751 32.6657 37.2548C33.2593 37.6478 33.9221 37.9008 34.6541 38.0138C35.386 38.118 36.1268 38.0915 36.8764 37.9344C37.6261 37.7685 38.3175 37.4725 38.9508 37.0465ZM69.3923 32.9947C67.7457 34.1023 65.9109 34.7801 63.8878 35.0281C61.8647 35.2673 59.7372 35.0826 57.5054 34.474C55.2735 33.8565 53.0278 32.8166 50.7684 31.3542C48.5155 29.8873 46.9099 28.4301 45.9516 26.9828C44.9931 25.5265 44.6824 24.1331 45.0193 22.8026C45.3629 21.4676 46.3547 20.2486 47.9946 19.1455C49.6345 18.0424 51.4627 17.3646 53.479 17.1122C55.4952 16.8599 57.6126 17.038 59.831 17.6468C62.0561 18.251 64.295 19.2822 66.5477 20.7402C68.8139 22.207 70.433 23.6729 71.405 25.1378C72.3768 26.5939 72.6943 27.9917 72.3575 29.331C72.0273 30.6659 71.0389 31.8872 69.3923 32.9947ZM66.2256 30.9452C67.5056 30.0842 67.8782 28.9923 67.3434 27.6695C66.8085 26.3379 65.2967 24.8666 62.8079 23.2558C61.1621 22.1906 59.6095 21.4101 58.1499 20.9141C56.6903 20.4181 55.3672 20.1953 54.1807 20.2457C52.9874 20.2916 51.9674 20.5993 51.1208 21.1688C49.8475 22.0253 49.4816 23.1171 50.0232 24.4443C50.558 25.7671 52.0563 27.2296 54.5182 28.8318C56.164 29.9059 57.7167 30.6953 59.1764 31.2001C60.6428 31.7004 61.9726 31.9276 63.1659 31.8816C64.3524 31.8313 65.3723 31.5192 66.2256 30.9452Z" fill="white"/>
<defs>
<linearGradient id="paint0_linear_91_5879" x1="5.78935" y1="54.8667" x2="90.504" y2="54.8667" gradientUnits="userSpaceOnUse">
<stop offset="0.49037" stop-color="#E40101"/>
<stop offset="0.528239" stop-color="#9E0405"/>
</linearGradient>
</defs>
</svg>
