<svg width="97" height="86" viewBox="0 0 97 86" fill="none" xmlns="http://www.w3.org/2000/svg">
<path d="M82.3665 25.1848H13.9258C9.64504 25.1848 6.1748 28.6551 6.1748 32.9358V53.5596C6.1748 56.1826 7.50139 58.6276 9.70035 60.0575L44.8733 82.9295C47.4977 84.636 50.8909 84.5964 53.4747 82.8291L86.7425 60.0735C88.8546 58.6288 90.1175 56.2348 90.1175 53.676V32.9358C90.1175 28.655 86.6473 25.1848 82.3665 25.1848Z" fill="url(#paint0_linear_91_5839)"/>
<path d="M9.45785 25.4999L43.5863 2.83607C46.1758 1.11642 49.5423 1.1102 52.1382 2.82027L86.5425 25.4846C91.1209 28.5006 91.2064 35.1868 86.7065 38.3189L52.3029 62.2656C49.6327 64.1242 46.086 64.1175 43.4229 62.2489L9.29375 38.3017C4.82597 35.1668 4.91119 28.5192 9.45785 25.4999Z" fill="#F54C4C"/>
<path d="M29.8272 31.3658C30.8139 30.711 31.9426 30.1832 33.2132 29.7826C34.4837 29.3731 35.8767 29.166 37.3923 29.1615C38.9011 29.1525 40.5162 29.4148 42.2377 29.9483C43.9592 30.4817 45.7642 31.3596 47.6527 32.582C49.44 33.7299 50.8451 34.8857 51.868 36.0493C52.8908 37.2041 53.5345 38.329 53.799 39.4241C54.0636 40.5192 53.9554 41.5623 53.4747 42.5533C52.9939 43.5444 52.1369 44.4547 50.9036 45.2843C49.6103 46.1542 48.2074 46.7596 46.6948 47.1004C45.1889 47.4368 43.6842 47.5231 42.1806 47.3594C40.677 47.1957 39.2819 46.7899 37.9953 46.142L41.6451 43.6869C42.6546 44.0939 43.6888 44.2618 44.7478 44.1904C45.8066 44.1103 46.776 43.7742 47.656 43.1823C49.0759 42.2272 49.5453 41.088 49.0642 39.7647C48.5831 38.4414 47.233 37.0617 45.014 35.6255L44.874 35.7196C45.1408 36.3235 45.2301 36.94 45.1418 37.5692C45.0468 38.194 44.7839 38.8025 44.3532 39.3949C43.9293 39.9828 43.3506 40.5233 42.6173 41.0166C41.4174 41.8237 40.0474 42.3624 38.5074 42.6327C36.974 42.8985 35.4215 42.8924 33.8498 42.6142C32.2848 42.3316 30.8481 41.7713 29.5397 40.9332C28.1908 40.0601 27.2867 39.0703 26.8276 37.9636C26.3684 36.8481 26.3819 35.7174 26.868 34.5714C27.3474 33.4211 28.3338 32.3525 29.8272 31.3658ZM32.8723 33.3235C32.1524 33.8078 31.6811 34.3607 31.4586 34.9821C31.236 35.5948 31.2616 36.2096 31.5353 36.8267C31.8089 37.435 32.3167 37.9792 33.0586 38.4594C33.8005 38.9307 34.6315 39.2531 35.5518 39.4263C36.4787 39.5951 37.3975 39.6047 38.3082 39.455C39.2256 39.3009 40.0476 38.9794 40.7743 38.4907C41.3142 38.1274 41.713 37.7212 41.9706 37.272C42.2281 36.8228 42.3447 36.3615 42.3204 35.8883C42.2961 35.4062 42.1411 34.9451 41.8555 34.5051C41.5766 34.0606 41.1675 33.6682 40.628 33.3278C39.9198 32.8695 39.0989 32.5581 38.1653 32.3938C37.2383 32.225 36.3061 32.2156 35.3686 32.3655C34.4377 32.5109 33.6056 32.8302 32.8723 33.3235ZM69.0735 33.0623C67.5869 34.0623 66.014 34.7864 64.3549 35.2348C62.7024 35.6786 61.1111 35.8365 59.581 35.7085C58.0508 35.5716 56.7292 35.1385 55.6162 34.4094C54.7395 33.8507 54.1269 33.2079 53.7785 32.4808C53.43 31.7538 53.3363 31.0156 53.4973 30.2663C53.6583 29.5082 54.0713 28.8164 54.7363 28.191L54.5947 28.0994C53.3054 28.6551 51.9091 28.8776 50.406 28.767C48.9027 28.6476 47.5946 28.2233 46.4817 27.4941C45.4094 26.8089 44.7517 25.9961 44.5086 25.0557C44.2656 24.1153 44.4213 23.1426 44.9757 22.1376C45.5234 21.1282 46.4605 20.1774 47.7871 19.285C49.1004 18.4017 50.5132 17.7718 52.0254 17.3956C53.5376 17.0105 55.0085 16.8891 56.4381 17.0313C57.8745 17.169 59.1255 17.5828 60.1911 18.2725C61.3107 18.9972 61.9689 19.8587 62.1655 20.857C62.362 21.8465 62.0617 22.7651 61.2644 23.613L61.4061 23.7046C62.3409 23.2539 63.3745 22.9726 64.5069 22.8608C65.6391 22.7401 66.7595 22.7877 67.8679 23.0036C68.983 23.215 69.9755 23.6022 70.8456 24.1654C71.9652 24.89 72.6402 25.758 72.8704 26.7693C73.0939 27.7763 72.8853 28.8291 72.2446 29.9278C71.6105 31.022 70.5534 32.0668 69.0735 33.0623ZM66.18 31.1895C66.9466 30.6738 67.4818 30.1403 67.7854 29.5889C68.0822 29.0331 68.1445 28.4927 67.9722 27.9677C67.7999 27.4426 67.4001 26.9726 66.7727 26.5578C66.1051 26.1345 65.3517 25.8712 64.5125 25.768C63.6732 25.656 62.8219 25.6989 61.9586 25.8968C61.1019 26.0903 60.3103 26.4314 59.5837 26.9201C58.8504 27.4134 58.3421 27.9467 58.0588 28.5201C57.7755 29.0934 57.7235 29.6581 57.9028 30.214C58.082 30.7612 58.5054 31.2464 59.173 31.6697C59.8004 32.0846 60.5135 32.3438 61.3125 32.4473C62.1047 32.5465 62.919 32.4928 63.7554 32.2863C64.5985 32.0753 65.4067 31.7097 66.18 31.1895ZM56.7408 25.0801C57.3674 24.6586 57.7926 24.2035 58.0162 23.7147C58.2466 23.2215 58.2724 22.7323 58.0938 22.2471C57.9151 21.7619 57.529 21.3228 56.9354 20.9298C56.3352 20.5502 55.6758 20.3082 54.9574 20.2039C54.2321 20.0953 53.5048 20.1261 52.7753 20.2963C52.0391 20.4621 51.3544 20.758 50.7211 21.184C50.0744 21.6189 49.6292 22.0831 49.3855 22.5765C49.1416 23.0609 49.109 23.5414 49.2876 24.0177C49.4661 24.4852 49.8554 24.9088 50.4556 25.2884C51.0493 25.6814 51.712 25.9344 52.444 26.0474C53.1759 26.1516 53.9167 26.1251 54.6664 25.968C55.416 25.8021 56.1074 25.5061 56.7408 25.0801Z" fill="white"/>
<defs>
<linearGradient id="paint0_linear_91_5839" x1="5.78886" y1="54.8667" x2="90.5035" y2="54.8667" gradientUnits="userSpaceOnUse">
<stop offset="0.49037" stop-color="#E40101"/>
<stop offset="0.528239" stop-color="#9E0405"/>
</linearGradient>
</defs>
</svg>
