<svg width="97" height="86" viewBox="0 0 97 86" fill="none" xmlns="http://www.w3.org/2000/svg">
<path d="M82.367 25.1846H13.9263C9.64553 25.1846 6.17529 28.6548 6.17529 32.9356V53.5593C6.17529 56.1823 7.50188 58.6274 9.70084 60.0573L44.8738 82.9293C47.4981 84.6358 50.8914 84.5962 53.4752 82.8288L86.743 60.0733C88.8551 58.6286 90.118 56.2346 90.118 53.6757V32.9356C90.118 28.6548 86.6478 25.1846 82.367 25.1846Z" fill="url(#paint0_linear_91_5869)"/>
<path d="M9.45785 25.4999L43.5863 2.83607C46.1758 1.11642 49.5423 1.1102 52.1382 2.82027L86.5425 25.4846C91.1209 28.5006 91.2064 35.1868 86.7065 38.3189L52.3029 62.2656C49.6327 64.1242 46.086 64.1175 43.4229 62.2489L9.29375 38.3017C4.82597 35.1668 4.91119 28.5192 9.45785 25.4999Z" fill="#F54C4C"/>
<path d="M43.7206 49.742L41.0092 47.9871L41.0673 38.6407C41.0526 37.7337 41.0021 36.9531 40.9158 36.299C40.8295 35.6448 40.6468 35.0778 40.3676 34.5979C40.0884 34.1181 39.6622 33.6926 39.0889 33.3215C38.4346 32.8981 37.7281 32.6344 36.9694 32.5305C36.204 32.4222 35.4364 32.4578 34.6668 32.6372C33.8972 32.8166 33.1858 33.126 32.5325 33.5654C31.8592 34.0183 31.4108 34.5069 31.1874 35.031C30.9573 35.5508 30.9586 36.0707 31.1912 36.5908C31.4305 37.1065 31.9042 37.5934 32.6124 38.0518L29.0826 40.4262C27.7673 39.5749 26.9208 38.6354 26.5428 37.6077C26.1649 36.58 26.2295 35.544 26.7366 34.4996C27.2504 33.4507 28.1839 32.4711 29.5372 31.5608C30.9105 30.6371 32.3768 29.9935 33.9361 29.6301C35.4954 29.2668 37.0136 29.1847 38.4907 29.3841C39.9745 29.5789 41.2964 30.0517 42.4565 30.8026C43.2321 31.3046 43.8476 31.8966 44.303 32.5784C44.7583 33.2603 45.0713 34.1448 45.2418 35.2318C45.4191 36.3144 45.4919 37.721 45.4603 39.4515L45.5624 44.1766L45.7041 44.2683L54.6237 38.2685L57.76 40.2984L43.7206 49.742ZM68.7048 33.4572C67.0582 34.5648 65.2234 35.2426 63.2003 35.4906C61.1772 35.7297 59.0498 35.545 56.8179 34.9364C54.5861 34.319 52.3404 33.279 50.0809 31.8166C47.8281 30.3497 46.2225 28.8926 45.2641 27.4452C44.3057 25.9889 43.9949 24.5956 44.3318 23.265C44.6754 21.93 45.6672 20.711 47.3071 19.6079C48.9471 18.5048 50.7752 17.827 52.7915 17.5747C54.8078 17.3223 56.9251 17.5005 59.1435 18.1092C61.3686 18.7134 63.6075 19.7446 65.8602 21.2026C68.1265 22.6694 69.7455 24.1353 70.7175 25.6002C71.6893 27.0564 72.0069 28.4541 71.67 29.7935C71.3398 31.1284 70.3514 32.3496 68.7048 33.4572ZM65.5382 31.4076C66.8181 30.5467 67.1907 29.4548 66.6559 28.132C66.121 26.8003 64.6092 25.3291 62.1204 23.7182C60.4747 22.6531 58.922 21.8725 57.4624 21.3765C56.0028 20.8806 54.6797 20.6578 53.4932 20.7081C52.2999 20.754 51.28 21.0618 50.4333 21.6313C49.16 22.4877 48.7942 23.5796 49.3357 24.9067C49.8705 26.2295 51.3688 27.692 53.8307 29.2943C55.4765 30.3683 57.0293 31.1577 58.489 31.6625C59.9553 32.1628 61.2851 32.39 62.4784 32.3441C63.6649 32.2937 64.6849 31.9816 65.5382 31.4076Z" fill="white"/>
<defs>
<linearGradient id="paint0_linear_91_5869" x1="5.78935" y1="54.8665" x2="90.504" y2="54.8665" gradientUnits="userSpaceOnUse">
<stop offset="0.49037" stop-color="#E40101"/>
<stop offset="0.528239" stop-color="#9E0405"/>
</linearGradient>
</defs>
</svg>
