<svg width="97" height="86" viewBox="0 0 97 86" fill="none" xmlns="http://www.w3.org/2000/svg">
<path d="M82.3665 25.1848H13.9258C9.64504 25.1848 6.1748 28.6551 6.1748 32.9358V53.5596C6.1748 56.1826 7.50139 58.6276 9.70035 60.0575L44.8733 82.9295C47.4977 84.636 50.8909 84.5964 53.4747 82.8291L86.7425 60.0735C88.8546 58.6288 90.1175 56.2348 90.1175 53.676V32.9358C90.1175 28.655 86.6473 25.1848 82.3665 25.1848Z" fill="url(#paint0_linear_91_5834)"/>
<path d="M9.45785 25.4999L43.5863 2.83607C46.1758 1.11642 49.5423 1.1102 52.1382 2.82027L86.5425 25.4846C91.1209 28.5006 91.2064 35.1868 86.7065 38.3189L52.3029 62.2656C49.6327 64.1242 46.086 64.1175 43.4229 62.2489L9.29375 38.3017C4.82597 35.1668 4.91119 28.5192 9.45785 25.4999Z" fill="#F54C4C"/>
<path d="M51.1236 45.1363C49.7903 46.0331 48.3441 46.6721 46.7849 47.0532C45.2191 47.4299 43.681 47.5387 42.1707 47.3794C40.6671 47.2157 39.322 46.7763 38.1354 46.0611L41.7352 43.6396C42.6517 44.1448 43.7097 44.3501 44.9093 44.2554C46.1021 44.1563 47.1618 43.7952 48.0884 43.1719C48.8151 42.6831 49.2931 42.139 49.5225 41.5396C49.7519 40.9401 49.7298 40.3363 49.4562 39.7281C49.1825 39.1198 48.658 38.5691 47.8824 38.0759C47.1067 37.5651 46.2486 37.2253 45.3083 37.0566C44.3679 36.8879 43.4358 36.8873 42.5118 37.0548C41.5811 37.2179 40.7391 37.5528 39.9858 38.0596C39.3658 38.4677 38.8771 38.9478 38.5199 39.4996C38.1626 40.0515 38.0029 40.5685 38.0407 41.0505L34.1344 42.9436L24.5207 35.3091L36.4002 27.3183L39.5365 29.3482L30.7269 35.274L35.6305 39.2265L35.7505 39.1458C35.6786 38.5977 35.8409 37.9945 36.2374 37.336C36.6272 36.6732 37.2354 36.0638 38.0621 35.5078C39.302 34.6737 40.7054 34.1215 42.2722 33.8509C43.8323 33.576 45.4083 33.5842 47.0002 33.8754C48.5922 34.1667 50.0525 34.7423 51.3812 35.6023C52.7504 36.4885 53.6578 37.4894 54.1036 38.605C54.5493 39.7117 54.5257 40.8359 54.0329 41.9775C53.54 43.1103 52.5702 44.1632 51.1236 45.1363ZM68.6335 33.3582C67.1469 34.3582 65.574 35.0824 63.9149 35.5307C62.2624 35.9746 60.6711 36.1325 59.141 36.0044C57.6108 35.8675 56.2892 35.4345 55.1763 34.7054C54.2995 34.1467 53.6869 33.5038 53.3385 32.7768C52.99 32.0497 52.8963 31.3115 53.0573 30.5623C53.2183 29.8042 53.6313 29.1124 54.2964 28.487L54.1547 28.3953C52.8654 28.951 51.4691 29.1736 49.966 29.063C48.4628 28.9435 47.1547 28.5192 46.0417 27.7901C44.9694 27.1048 44.3117 26.292 44.0686 25.3516C43.8256 24.4112 43.9813 23.4385 44.5357 22.4335C45.0834 21.4242 46.0205 20.4733 47.3471 19.581C48.6604 18.6976 50.0732 18.0678 51.5854 17.6915C53.0976 17.3064 54.5685 17.185 55.9982 17.3272C57.4345 17.465 58.6855 17.8787 59.7511 18.5684C60.8708 19.2931 61.5289 20.1546 61.7255 21.1529C61.922 22.1424 61.6217 23.0611 60.8244 23.9089L60.9661 24.0006C61.9009 23.5498 62.9345 23.2685 64.0669 23.1567C65.1991 23.0361 66.3195 23.0837 67.4279 23.2995C68.543 23.5109 69.5356 23.8982 70.4056 24.4613C71.5253 25.186 72.2002 26.054 72.4305 27.0653C72.654 28.0722 72.4453 29.125 71.8046 30.2237C71.1705 31.3179 70.1135 32.3628 68.6335 33.3582ZM65.74 31.4855C66.5067 30.9698 67.0418 30.4363 67.3454 29.8849C67.6422 29.3291 67.7045 28.7887 67.5322 28.2636C67.3599 27.7385 66.9601 27.2686 66.3327 26.8538C65.6651 26.4304 64.9117 26.1672 64.0725 26.064C63.2333 25.9519 62.382 25.9949 61.5186 26.1928C60.662 26.3862 59.8703 26.7273 59.1437 27.2161C58.4104 27.7094 57.9021 28.2427 57.6188 28.816C57.3355 29.3894 57.2835 29.954 57.4628 30.51C57.642 31.0571 58.0654 31.5424 58.7331 31.9657C59.3604 32.3805 60.0735 32.6397 60.8725 32.7433C61.6647 32.8425 62.479 32.7888 63.3154 32.5822C64.1585 32.3712 64.9667 32.0056 65.74 31.4855ZM56.3008 25.3761C56.9274 24.9546 57.3526 24.4994 57.5762 24.0107C57.8066 23.5175 57.8324 23.0283 57.6538 22.5431C57.4751 22.0579 57.089 21.6188 56.4954 21.2258C55.8952 20.8461 55.2358 20.6042 54.5174 20.4999C53.7921 20.3913 53.0648 20.422 52.3354 20.5922C51.5992 20.758 50.9144 21.0539 50.2811 21.4799C49.6345 21.9149 49.1893 22.3791 48.9455 22.8724C48.7017 23.3569 48.669 23.8373 48.8476 24.3137C49.0261 24.7811 49.4155 25.2047 50.0157 25.5844C50.6093 25.9774 51.2721 26.2304 52.004 26.3434C52.7359 26.4475 53.4767 26.4211 54.2264 26.264C54.976 26.098 55.6675 25.8021 56.3008 25.3761Z" fill="white"/>
<defs>
<linearGradient id="paint0_linear_91_5834" x1="5.78886" y1="54.8667" x2="90.5035" y2="54.8667" gradientUnits="userSpaceOnUse">
<stop offset="0.49037" stop-color="#E40101"/>
<stop offset="0.528239" stop-color="#9E0405"/>
</linearGradient>
</defs>
</svg>
