<svg width="97" height="86" viewBox="0 0 97 86" fill="none" xmlns="http://www.w3.org/2000/svg">
<path d="M82.3666 25.1848H13.9258C9.64504 25.1848 6.1748 28.6551 6.1748 32.9358V53.5596C6.1748 56.1826 7.50139 58.6276 9.70035 60.0575L44.8733 82.9295C47.4977 84.636 50.891 84.5964 53.4748 82.8291L86.7426 60.0735C88.8546 58.6288 90.1176 56.2348 90.1176 53.676V32.9358C90.1176 28.655 86.6473 25.1848 82.3666 25.1848Z" fill="url(#paint0_linear_91_5604)"/>
<path d="M9.45786 25.4999L43.5863 2.83607C46.1759 1.11641 49.5423 1.11019 52.1382 2.82027L86.5425 25.4846C91.121 28.5006 91.2064 35.1868 86.7066 38.3189L52.3029 62.2656C49.6327 64.1242 46.086 64.1175 43.4229 62.2489L9.29375 38.3017C4.82597 35.1668 4.91119 28.5192 9.45786 25.4999Z" fill="#F54C4C"/>
<path d="M51.5036 44.8805C50.5169 45.5353 49.3882 46.0674 48.1177 46.4769C46.8404 46.8821 45.444 47.0869 43.9285 47.0915C42.4062 47.0917 40.7843 46.8251 39.0629 46.2916C37.3346 45.7537 35.5228 44.8671 33.6275 43.6315C31.8536 42.4834 30.4586 41.3342 29.4425 40.1838C28.4264 39.0334 27.7895 37.9128 27.5317 36.8221C27.2672 35.727 27.3753 34.6839 27.8561 33.6929C28.3435 32.6973 29.2006 31.787 30.4272 30.962C31.7138 30.0965 33.11 29.4956 34.6159 29.1592C36.1285 28.8184 37.6366 28.7298 39.1402 28.8935C40.6371 29.0528 42.0153 29.4433 43.2748 30.065L39.625 32.52C38.6424 32.1305 37.6251 31.978 36.573 32.0625C35.5208 32.1382 34.5547 32.472 33.6748 33.0639C32.2548 34.019 31.7854 35.1582 32.2666 36.4815C32.7544 37.8003 34.0842 39.1669 36.2561 40.5815L36.3961 40.4873C36.1292 39.8834 36.0433 39.2691 36.1384 38.6443C36.2334 38.0195 36.4929 37.4132 36.9169 36.8253C37.3408 36.2286 37.9194 35.6836 38.6527 35.1904C39.8527 34.3832 41.2193 33.8467 42.7527 33.5809C44.2927 33.3106 45.8519 33.3167 47.4303 33.5993C49.002 33.8774 50.4388 34.4422 51.7406 35.2935C53.1097 36.1709 54.0272 37.1695 54.4931 38.2893C54.9523 39.4048 54.9389 40.5355 54.4527 41.6815C53.9666 42.8275 52.9836 43.8938 51.5036 44.8805ZM48.4484 42.9295C49.1751 42.4407 49.6463 41.8878 49.8621 41.2708C50.078 40.6538 50.0491 40.0368 49.7753 39.4197C49.5016 38.8026 48.9837 38.2518 48.2217 37.7674C47.4864 37.2827 46.6553 36.9559 45.7284 36.7871C44.8081 36.6139 43.8893 36.6043 42.9719 36.7584C42.0546 36.9126 41.2326 37.234 40.5059 37.7228C39.9659 38.086 39.5672 38.4923 39.3096 38.9415C39.0521 39.3907 38.9354 39.8519 38.9597 40.3252C38.9773 40.7941 39.1289 41.253 39.4145 41.7018C39.7001 42.1418 40.1127 42.5408 40.6523 42.8989C41.3807 43.3615 42.2117 43.6794 43.1454 43.8526C44.0791 44.0258 45.0147 44.0374 45.9522 43.8875C46.8897 43.7376 47.7218 43.4182 48.4484 42.9295ZM47.6171 19.3991C48.6038 18.7443 49.7325 18.2166 51.0031 17.8159C52.2736 17.4064 53.6667 17.1994 55.1822 17.1948C56.691 17.1859 58.3061 17.4482 60.0276 17.9816C61.7491 18.5151 63.5541 19.393 65.4426 20.6153C67.2299 21.7633 68.635 22.9191 69.6579 24.0827C70.6808 25.2375 71.3244 26.3624 71.589 27.4575C71.8535 28.5526 71.7454 29.5956 71.2646 30.5867C70.7838 31.5778 69.9268 32.4881 68.6935 33.3176C67.4002 34.1876 65.9973 34.793 64.4848 35.1338C62.9789 35.4702 61.4741 35.5565 59.9705 35.3928C58.4669 35.2291 57.0718 34.8233 55.7852 34.1753L59.435 31.7203C60.4445 32.1273 61.4788 32.2951 62.5377 32.2238C63.5966 32.1436 64.566 31.8076 65.4459 31.2157C66.8659 30.2606 67.3353 29.1214 66.8541 27.7981C66.373 26.4748 65.0229 25.0951 62.8039 23.6588L62.6639 23.753C62.9308 24.3569 63.0201 24.9734 62.9317 25.6026C62.8367 26.2273 62.5738 26.8359 62.1432 27.4283C61.7192 28.0161 61.1405 28.5567 60.4072 29.0499C59.2073 29.8571 57.8373 30.3958 56.2973 30.6661C54.764 30.9319 53.2115 30.9257 51.6398 30.6476C50.0747 30.365 48.638 29.8046 47.3296 28.9666C45.9807 28.0935 45.0767 27.1036 44.6176 25.997C44.1584 24.8815 44.1718 23.7508 44.6579 22.6048C45.1373 21.4544 46.1237 20.3859 47.6171 19.3991ZM50.6623 21.3568C49.9423 21.8411 49.471 22.394 49.2485 23.0155C49.026 23.6281 49.0515 24.243 49.3252 24.8601C49.5989 25.4684 50.1066 26.0126 50.8486 26.4928C51.5904 26.9641 52.4214 27.2864 53.3417 27.4597C54.2687 27.6285 55.1875 27.6381 56.0982 27.4884C57.0155 27.3343 57.8375 27.0128 58.5642 26.524C59.1042 26.1608 59.5029 25.7546 59.7605 25.3054C60.018 24.8562 60.1347 24.3949 60.1104 23.9216C60.086 23.4395 59.931 22.9785 59.6455 22.5385C59.3666 22.094 58.9574 21.7016 58.4179 21.3612C57.7097 20.9028 56.8888 20.5915 55.9552 20.4272C55.0283 20.2584 54.096 20.2489 53.1585 20.3988C52.2276 20.5443 51.3956 20.8636 50.6623 21.3568Z" fill="white"/>
<defs>
<linearGradient id="paint0_linear_91_5604" x1="5.78886" y1="54.8667" x2="90.5035" y2="54.8667" gradientUnits="userSpaceOnUse">
<stop offset="0.49037" stop-color="#E40101"/>
<stop offset="0.528239" stop-color="#9E0405"/>
</linearGradient>
</defs>
</svg>
