<svg width="97" height="84" viewBox="0 0 97 84" fill="none" xmlns="http://www.w3.org/2000/svg">
<path d="M82.3665 24.5947H13.9258C9.64504 24.5947 6.1748 28.065 6.1748 32.3457V52.1519C6.1748 54.8046 7.53136 57.273 9.77066 58.6951L44.9454 81.0323C47.5362 82.6776 50.8538 82.6392 53.4059 80.9345L86.6719 58.7132C88.8248 57.2751 90.1175 54.857 90.1175 52.2679V32.3457C90.1175 28.065 86.6473 24.5947 82.3665 24.5947Z" fill="url(#paint0_linear_56_1883)"/>
<path d="M9.75405 24.7104L43.6565 2.72411C46.2133 1.06595 49.5046 1.05993 52.0675 2.70871L86.244 24.6954C90.916 27.7011 91.0022 34.5013 86.4078 37.6243L52.2319 60.8551C49.5933 62.6487 46.1252 62.6422 43.4933 60.8387L9.59018 37.6075C5.0278 34.4812 5.11372 27.7197 9.75405 24.7104Z" fill="#BFBFBF"/>
<path d="M31.4063 29.961L52.2692 43.1478L48.5323 45.6025L31.3469 34.7401L31.226 34.8195L29.5185 39.9592L26.0549 37.7699L27.8507 32.2966L31.4063 29.961ZM43.0476 21.9463C44.0415 21.3022 45.1783 20.783 46.458 20.3888C47.7377 19.9859 49.1407 19.7821 50.6669 19.7774C52.1864 19.7684 53.813 20.0262 55.5465 20.5506C57.28 21.0751 59.0976 21.9383 60.9992 23.1402C62.7988 24.269 64.2135 25.4056 65.2434 26.5499C66.2731 27.6855 66.9211 28.7918 67.1871 29.8688C67.4532 30.9457 67.344 31.9716 66.8596 32.9464C66.3751 33.9212 65.5117 34.8166 64.2694 35.6326C62.9667 36.4884 61.5537 37.0839 60.0303 37.4194C58.5136 37.7504 56.9982 37.8355 55.4839 37.6747C53.9697 37.5139 52.5648 37.1149 51.2693 36.4778L54.9457 34.0628C55.9623 34.4629 57.0038 34.6279 58.0703 34.5576C59.1367 34.4786 60.113 34.148 60.9994 33.5657C62.4297 32.6262 62.9028 31.5057 62.4186 30.2043C61.9344 28.9029 60.5752 27.5461 58.3408 26.1339L58.1998 26.2265C58.4684 26.8204 58.5582 27.4267 58.469 28.0455C58.3731 28.66 58.1082 29.2585 57.6743 29.8412C57.2472 30.4194 56.6643 30.9511 55.9256 31.4363C54.7169 32.2303 53.3371 32.7603 51.786 33.0264C50.2417 33.288 48.6782 33.2821 47.0955 33.0087C45.5194 32.731 44.0727 32.18 42.7552 31.356C41.397 30.4975 40.4868 29.524 40.0248 28.4357C39.5627 27.3387 39.5766 26.2266 40.0664 25.0994C40.5495 23.968 41.5432 22.9169 43.0476 21.9463ZM46.1137 23.8713C45.3885 24.3477 44.9138 24.8915 44.6895 25.5028C44.4652 26.1054 44.4907 26.7101 44.7662 27.317C45.0416 27.9152 45.5528 28.4503 46.2998 28.9225C47.0468 29.386 47.8837 29.7029 48.8104 29.8732C49.7439 30.0391 50.6692 30.0484 51.5864 29.9011C52.5103 29.7494 53.3383 29.4331 54.0702 28.9523C54.6141 28.595 55.0158 28.1955 55.2754 27.7536C55.5349 27.3118 55.6525 26.8581 55.6281 26.3927C55.6037 25.9185 55.4478 25.4651 55.1603 25.0324C54.8796 24.5953 54.4676 24.2094 53.9244 23.8746C53.2113 23.4239 52.3847 23.1178 51.4445 22.9563C50.511 22.7904 49.5722 22.7813 48.628 22.9288C47.6905 23.0719 46.8524 23.3861 46.1137 23.8713Z" fill="#9A9A9A"/>
<defs>
<linearGradient id="paint0_linear_56_1883" x1="5.78886" y1="53.5812" x2="90.5035" y2="53.5812" gradientUnits="userSpaceOnUse">
<stop offset="0.49037" stop-color="#848484"/>
<stop offset="0.528239" stop-color="#686868"/>
</linearGradient>
</defs>
</svg>
