<svg width="97" height="84" viewBox="0 0 97 84" fill="none" xmlns="http://www.w3.org/2000/svg">
<path d="M82.3665 24.5947H13.9258C9.64504 24.5947 6.1748 28.065 6.1748 32.3457V52.1519C6.1748 54.8046 7.53136 57.273 9.77066 58.6951L44.9454 81.0323C47.5362 82.6776 50.8538 82.6392 53.4059 80.9345L86.6719 58.7132C88.8248 57.2751 90.1175 54.857 90.1175 52.2679V32.3457C90.1175 28.065 86.6473 24.5947 82.3665 24.5947Z" fill="url(#paint0_linear_90_3438)"/>
<path d="M9.75405 24.7104L43.6565 2.72411C46.2133 1.06595 49.5046 1.05993 52.0675 2.70871L86.244 24.6954C90.916 27.7011 91.0022 34.5013 86.4078 37.6243L52.2319 60.8551C49.5933 62.6487 46.1252 62.6422 43.4933 60.8387L9.59018 37.6075C5.0278 34.4812 5.11372 27.7197 9.75405 24.7104Z" fill="#B64EDF"/>
<path d="M31.4063 29.961L52.2692 43.1478L48.5323 45.6025L31.3469 34.7401L31.226 34.8195L29.5185 39.9592L26.0549 37.7699L27.8507 32.2966L31.4063 29.961ZM64.8738 35.2356C63.8799 35.8798 62.7431 36.4033 61.4634 36.8062C60.177 37.2048 58.7706 37.4065 57.2443 37.4111C55.7112 37.4115 54.0779 37.1495 52.3444 36.625C50.6041 36.0963 48.7797 35.2244 46.8712 34.0095C45.0851 32.8806 43.6806 31.7504 42.6576 30.6192C41.6346 29.4879 40.9935 28.3859 40.7342 27.3132C40.4681 26.2362 40.5773 25.2103 41.0618 24.2355C41.553 23.2563 42.4163 22.3609 43.6519 21.5493C44.9479 20.698 46.3542 20.1068 47.8709 19.7758C49.3943 19.4404 50.9131 19.3531 52.4273 19.5139C53.9348 19.6704 55.3227 20.0543 56.591 20.6655L52.9145 23.0805C51.9251 22.6975 50.9006 22.5476 49.841 22.6309C48.7813 22.7055 47.8083 23.0339 46.9219 23.6162C45.4916 24.5557 45.0186 25.6762 45.5027 26.9776C45.9936 28.2746 47.3325 29.6185 49.5194 31.0094L49.6604 30.9168C49.3918 30.3229 49.3055 29.7187 49.4014 29.1042C49.4973 28.4897 49.7588 27.8934 50.186 27.3152C50.6131 26.7282 51.196 26.1922 51.9346 25.7069C53.1433 24.913 54.5198 24.3852 56.0641 24.1235C57.6151 23.8575 59.1854 23.8633 60.7749 24.141C62.3577 24.4144 63.8045 24.9696 65.1153 25.8068C66.4938 26.6695 67.4176 27.6515 67.8865 28.7528C68.3486 29.8499 68.3347 30.962 67.8448 32.0891C67.3549 33.2163 66.3646 34.2651 64.8738 35.2356ZM61.7975 33.3172C62.5295 32.8364 63.0042 32.2926 63.2218 31.6857C63.4393 31.0789 63.4104 30.472 63.1349 29.8651C62.8594 29.2582 62.338 28.7166 61.5707 28.2403C60.8303 27.7637 59.9935 27.4424 59.06 27.2765C58.1332 27.1062 57.2079 27.0969 56.284 27.2486C55.3601 27.4003 54.5321 27.7166 53.8002 28.1974C53.2563 28.5547 52.8546 28.9543 52.595 29.3961C52.3355 29.838 52.2179 30.2916 52.2423 30.7571C52.2598 31.2182 52.4124 31.6695 52.6999 32.1109C52.9873 32.5436 53.4028 32.936 53.9461 33.2881C54.6795 33.743 55.5163 34.0556 56.4566 34.2258C57.3969 34.396 58.3391 34.4073 59.2833 34.2597C60.2275 34.1122 61.0656 33.798 61.7975 33.3172Z" fill="white"/>
<defs>
<linearGradient id="paint0_linear_90_3438" x1="5.78886" y1="53.5812" x2="90.5035" y2="53.5812" gradientUnits="userSpaceOnUse">
<stop offset="0.49037" stop-color="#9724CD"/>
<stop offset="0.528239" stop-color="#7E17B0"/>
</linearGradient>
</defs>
</svg>
