<svg width="97" height="86" viewBox="0 0 97 86" fill="none" xmlns="http://www.w3.org/2000/svg">
<path d="M82.3666 25.1846H13.9258C9.64504 25.1846 6.1748 28.6548 6.1748 32.9356V53.5593C6.1748 56.1823 7.50139 58.6274 9.70035 60.0573L44.8733 82.9293C47.4977 84.6358 50.891 84.5962 53.4748 82.8288L86.7426 60.0733C88.8546 58.6286 90.1176 56.2346 90.1176 53.6757V32.9356C90.1176 28.6548 86.6473 25.1846 82.3666 25.1846Z" fill="url(#paint0_linear_91_4948)"/>
<path d="M9.45786 25.4999L43.5863 2.83607C46.1759 1.11641 49.5423 1.11019 52.1382 2.82027L86.5425 25.4846C91.121 28.5006 91.2064 35.1868 86.7066 38.3189L52.3029 62.2656C49.6327 64.1242 46.086 64.1175 43.4229 62.2489L9.29375 38.3017C4.82597 35.1668 4.91119 28.5192 9.45786 25.4999Z" fill="#B64EDF"/>
<path d="M43.7206 49.742L41.0092 47.9871L41.0673 38.6407C41.0526 37.7337 41.0021 36.9531 40.9158 36.299C40.8295 35.6448 40.6468 35.0778 40.3676 34.5979C40.0884 34.1181 39.6622 33.6926 39.0889 33.3215C38.4346 32.8981 37.7281 32.6344 36.9694 32.5305C36.204 32.4222 35.4364 32.4578 34.6668 32.6372C33.8972 32.8166 33.1858 33.126 32.5325 33.5654C31.8592 34.0183 31.4108 34.5069 31.1874 35.031C30.9573 35.5508 30.9586 36.0707 31.1912 36.5908C31.4305 37.1065 31.9042 37.5934 32.6124 38.0518L29.0826 40.4262C27.7673 39.5749 26.9208 38.6354 26.5428 37.6077C26.1649 36.58 26.2295 35.544 26.7366 34.4996C27.2504 33.4507 28.1839 32.4711 29.5372 31.5608C30.9105 30.6371 32.3768 29.9935 33.9361 29.6301C35.4954 29.2668 37.0136 29.1847 38.4907 29.3841C39.9745 29.5789 41.2964 30.0517 42.4565 30.8026C43.2321 31.3046 43.8476 31.8966 44.303 32.5784C44.7583 33.2603 45.0713 34.1448 45.2418 35.2318C45.4191 36.3144 45.4919 37.721 45.4603 39.4515L45.5624 44.1766L45.7041 44.2683L54.6237 38.2685L57.76 40.2984L43.7206 49.742ZM68.3735 33.5331C66.9336 34.5017 65.4041 35.2011 63.785 35.6314C62.1726 36.0572 60.598 36.1995 59.061 36.0582C57.5241 35.917 56.1522 35.4822 54.9453 34.7539L58.7052 32.2248C59.2983 32.5647 59.9706 32.7579 60.7221 32.8043C61.4669 32.8464 62.2306 32.7556 63.0132 32.5318C63.7958 32.3081 64.5305 31.9652 65.2171 31.5034C65.9504 31.0101 66.4722 30.49 66.7826 29.9429C67.0862 29.3915 67.1653 28.8576 67.0199 28.3412C66.8745 27.8247 66.4949 27.3723 65.8812 26.9839C65.2606 26.5734 64.5476 26.3231 63.7421 26.2328C62.9365 26.1426 62.0889 26.2187 61.1991 26.4611C60.316 26.699 59.4412 27.1095 58.5745 27.6924L56.7646 28.9099L53.8711 27.0371L55.681 25.8197C56.3943 25.3398 56.8929 24.8398 57.1766 24.3196C57.467 23.7948 57.5396 23.2831 57.3944 22.7843C57.2424 22.2812 56.8629 21.8376 56.256 21.4536C55.6759 21.0693 55.0366 20.8272 54.3383 20.7272C53.6399 20.6183 52.9293 20.6467 52.2065 20.8124C51.4904 20.9736 50.8124 21.2695 50.1724 21.7C49.5458 22.1215 49.0804 22.5858 48.7764 23.0929C48.4725 23.6001 48.3696 24.1011 48.4679 24.5958C48.5594 25.0862 48.8852 25.5258 49.4452 25.9147L45.8754 28.3159C44.7419 27.5472 44.0535 26.666 43.81 25.6725C43.5664 24.6702 43.7317 23.6509 44.306 22.6148C44.8735 21.5743 45.8205 20.6079 47.1471 19.7155C48.5138 18.7963 49.96 18.1662 51.486 17.8252C53.0119 17.4754 54.4865 17.3959 55.9099 17.5869C57.3333 17.7778 58.5711 18.2138 59.6233 18.8948C60.7968 19.6456 61.4348 20.5072 61.5373 21.4799C61.6464 22.448 61.2691 23.3828 60.4053 24.2843L60.5672 24.3891C62.2094 23.5515 63.8523 23.1586 65.4958 23.2104C67.1391 23.2534 68.605 23.6962 69.8933 24.5389C71.0534 25.2897 71.7654 26.1817 72.0294 27.2149C72.2933 28.2392 72.115 29.3028 71.4944 30.4057C70.8804 31.5041 69.8401 32.5466 68.3735 33.5331Z" fill="white"/>
<defs>
<linearGradient id="paint0_linear_91_4948" x1="5.78886" y1="54.8665" x2="90.5035" y2="54.8665" gradientUnits="userSpaceOnUse">
<stop offset="0.49037" stop-color="#9722CC"/>
<stop offset="0.528239" stop-color="#7F17B0"/>
</linearGradient>
</defs>
</svg>
