<svg width="97" height="86" viewBox="0 0 97 86" fill="none" xmlns="http://www.w3.org/2000/svg">
<path d="M82.367 25.1848H13.9263C9.64553 25.1848 6.17529 28.6551 6.17529 32.9358V53.5596C6.17529 56.1826 7.50188 58.6276 9.70084 60.0575L44.8738 82.9295C47.4981 84.636 50.8914 84.5964 53.4752 82.8291L86.743 60.0735C88.8551 58.6288 90.118 56.2348 90.118 53.676V32.9358C90.118 28.655 86.6478 25.1848 82.367 25.1848Z" fill="url(#paint0_linear_91_5263)"/>
<path d="M9.45785 25.4999L43.5863 2.83607C46.1758 1.11642 49.5423 1.1102 52.1382 2.82027L86.5425 25.4846C91.1209 28.5006 91.2064 35.1868 86.7065 38.3189L52.3029 62.2656C49.6327 64.1242 46.086 64.1175 43.4229 62.2489L9.29375 38.3017C4.82597 35.1668 4.91119 28.5192 9.45785 25.4999Z" fill="#B64EDF"/>
<path d="M29.8272 31.3658C30.8139 30.711 31.9426 30.1832 33.2132 29.7826C34.4837 29.3731 35.8767 29.166 37.3923 29.1615C38.9011 29.1525 40.5162 29.4148 42.2377 29.9483C43.9592 30.4817 45.7642 31.3596 47.6527 32.582C49.44 33.7299 50.8451 34.8857 51.868 36.0493C52.8908 37.2041 53.5345 38.329 53.799 39.4241C54.0636 40.5192 53.9554 41.5623 53.4747 42.5533C52.9939 43.5444 52.1369 44.4547 50.9036 45.2843C49.6103 46.1542 48.2074 46.7596 46.6948 47.1004C45.1889 47.4368 43.6842 47.5231 42.1806 47.3594C40.677 47.1957 39.2819 46.7899 37.9953 46.142L41.6451 43.6869C42.6546 44.0939 43.6888 44.2618 44.7478 44.1904C45.8066 44.1103 46.776 43.7742 47.656 43.1823C49.0759 42.2272 49.5453 41.088 49.0642 39.7647C48.5831 38.4414 47.233 37.0617 45.014 35.6255L44.874 35.7196C45.1408 36.3235 45.2301 36.94 45.1418 37.5692C45.0468 38.194 44.7839 38.8025 44.3532 39.3949C43.9293 39.9828 43.3506 40.5233 42.6173 41.0166C41.4174 41.8237 40.0474 42.3624 38.5074 42.6327C36.974 42.8985 35.4215 42.8924 33.8498 42.6142C32.2848 42.3316 30.8481 41.7713 29.5397 40.9332C28.1908 40.0601 27.2867 39.0703 26.8276 37.9636C26.3684 36.8481 26.3819 35.7174 26.868 34.5714C27.3474 33.4211 28.3338 32.3525 29.8272 31.3658ZM32.8723 33.3235C32.1524 33.8078 31.6811 34.3607 31.4586 34.9821C31.236 35.5948 31.2616 36.2096 31.5353 36.8267C31.8089 37.435 32.3167 37.9792 33.0586 38.4594C33.8005 38.9307 34.6315 39.2531 35.5518 39.4263C36.4787 39.5951 37.3975 39.6047 38.3082 39.455C39.2256 39.3009 40.0476 38.9794 40.7743 38.4907C41.3142 38.1274 41.713 37.7212 41.9706 37.272C42.2281 36.8228 42.3447 36.3615 42.3204 35.8883C42.2961 35.4062 42.1411 34.9451 41.8555 34.5051C41.5766 34.0606 41.1675 33.6682 40.628 33.3278C39.9198 32.8695 39.0989 32.5581 38.1653 32.3938C37.2383 32.225 36.3061 32.2156 35.3686 32.3655C34.4377 32.5109 33.6056 32.8302 32.8723 33.3235ZM68.9135 33.1699C67.5802 34.0667 66.134 34.7057 64.5749 35.0868C63.009 35.4635 61.4709 35.5723 59.9606 35.4131C58.457 35.2494 57.1119 34.8099 55.9253 34.0947L59.5251 31.6733C60.4416 32.1785 61.4997 32.3837 62.6992 32.289C63.892 32.1899 64.9517 31.8288 65.8784 31.2055C66.605 30.7167 67.083 30.1726 67.3124 29.5732C67.5418 28.9738 67.5197 28.3699 67.2461 27.7617C66.9725 27.1534 66.4479 26.6027 65.6723 26.1095C64.8966 25.5987 64.0386 25.2589 63.0982 25.0902C62.1579 24.9215 61.2257 24.9209 60.3018 25.0884C59.3711 25.2515 58.5291 25.5865 57.7758 26.0932C57.1557 26.5013 56.6671 26.9814 56.3098 27.5332C55.9526 28.0851 55.7928 28.6021 55.8306 29.0841L51.9243 30.9772L42.3106 23.3427L54.1901 15.3519L57.3264 17.3819L48.5168 23.3077L53.4204 27.2601L53.5404 27.1794C53.4685 26.6313 53.6308 26.0281 54.0273 25.3697C54.4171 24.7069 55.0254 24.0974 55.852 23.5414C57.0919 22.7074 58.4953 22.1551 60.0622 21.8845C61.6222 21.6096 63.1982 21.6178 64.7902 21.9091C66.3821 22.2003 67.8424 22.7759 69.1711 23.6359C70.5403 24.5221 71.4478 25.523 71.8935 26.6386C72.3392 27.7453 72.3157 28.8695 71.8228 30.0112C71.3299 31.1439 70.3601 32.1968 68.9135 33.1699Z" fill="white"/>
<defs>
<linearGradient id="paint0_linear_91_5263" x1="5.78935" y1="54.8667" x2="90.504" y2="54.8667" gradientUnits="userSpaceOnUse">
<stop offset="0.49037" stop-color="#9722CC"/>
<stop offset="0.528239" stop-color="#7F17B0"/>
</linearGradient>
</defs>
</svg>
