<svg width="97" height="86" viewBox="0 0 97 86" fill="none" xmlns="http://www.w3.org/2000/svg">
<path d="M82.3665 25.1846H13.9258C9.64504 25.1846 6.1748 28.6548 6.1748 32.9356V53.5593C6.1748 56.1823 7.50139 58.6274 9.70035 60.0573L44.8733 82.9293C47.4977 84.6358 50.8909 84.5962 53.4747 82.8288L86.7425 60.0733C88.8546 58.6286 90.1175 56.2346 90.1175 53.6757V32.9356C90.1175 28.6548 86.6473 25.1846 82.3665 25.1846Z" fill="url(#paint0_linear_91_5193)"/>
<path d="M9.45785 25.4999L43.5863 2.83607C46.1758 1.11642 49.5423 1.1102 52.1382 2.82027L86.5425 25.4846C91.1209 28.5006 91.2064 35.1868 86.7065 38.3189L52.3029 62.2656C49.6327 64.1242 46.086 64.1175 43.4229 62.2489L9.29375 38.3017C4.82597 35.1668 4.91119 28.5192 9.45785 25.4999Z" fill="#B64EDF"/>
<path d="M31.3304 30.7285L52.0502 44.1391L48.3404 46.6345L31.2729 35.5878L31.1529 35.6685L29.4589 40.8941L26.0191 38.6678L27.8006 33.1029L31.3304 30.7285ZM64.4137 36.1967C62.9738 37.1653 61.4442 37.8647 59.8252 38.295C58.2128 38.7208 56.6381 38.8631 55.1012 38.7218C53.5642 38.5805 52.1923 38.1458 50.9855 37.4174L54.7453 34.8884C55.3385 35.2283 56.0108 35.4215 56.7623 35.4679C57.507 35.51 58.2707 35.4192 59.0534 35.1954C59.836 34.9716 60.5706 34.6288 61.2573 34.167C61.9906 33.6737 62.5124 33.1536 62.8227 32.6065C63.1263 32.0551 63.2054 31.5212 63.06 31.0047C62.9146 30.4883 62.5351 30.0359 61.9214 29.6475C61.3008 29.237 60.5877 28.9866 59.7822 28.8964C58.9767 28.8062 58.129 28.8823 57.2393 29.1247C56.3562 29.3626 55.4813 29.7731 54.6147 30.356L52.8048 31.5734L49.9113 29.7007L51.7212 28.4832C52.4345 28.0034 52.933 27.5034 53.2168 26.9831C53.5072 26.4584 53.5798 25.9467 53.4346 25.4479C53.2826 24.9448 52.9031 24.5012 52.2961 24.1172C51.716 23.7329 51.0768 23.4908 50.3785 23.3907C49.6801 23.2819 48.9695 23.3103 48.2467 23.476C47.5306 23.6372 46.8525 23.9331 46.2126 24.3635C45.5859 24.785 45.1206 25.2494 44.8166 25.7565C44.5126 26.2637 44.4098 26.7646 44.508 27.2594C44.5995 27.7498 44.9253 28.1894 45.4854 28.5783L41.9155 30.9795C40.7821 30.2107 40.0936 29.3296 39.8501 28.3361C39.6065 27.3337 39.7719 26.3145 40.3461 25.2784C40.9136 24.2379 41.8607 23.2714 43.1873 22.3791C44.5539 21.4598 46.0002 20.8297 47.5262 20.4888C49.0521 20.1389 50.5267 20.0595 51.9501 20.2505C53.3735 20.4414 54.6112 20.8774 55.6634 21.5584C56.8369 22.3091 57.4749 23.1708 57.5774 24.1434C57.6866 25.1116 57.3093 26.0464 56.4455 26.9479L56.6073 27.0527C58.2496 26.2151 59.8925 25.8222 61.5359 25.874C63.1793 25.917 64.6451 26.3598 65.9335 27.2025C67.0936 27.9533 67.8056 28.8453 68.0696 29.8784C68.3335 30.9027 68.1551 31.9663 67.5345 33.0693C66.9206 34.1677 65.8803 35.2102 64.4137 36.1967Z" fill="white"/>
<defs>
<linearGradient id="paint0_linear_91_5193" x1="5.78886" y1="54.8665" x2="90.5035" y2="54.8665" gradientUnits="userSpaceOnUse">
<stop offset="0.49037" stop-color="#9722CC"/>
<stop offset="0.528239" stop-color="#7F17B0"/>
</linearGradient>
</defs>
</svg>
