<svg width="97" height="84" viewBox="0 0 97 84" fill="none" xmlns="http://www.w3.org/2000/svg">
<path d="M82.3666 24.5947H13.9258C9.64504 24.5947 6.1748 28.065 6.1748 32.3457V52.1519C6.1748 54.8046 7.53136 57.273 9.77066 58.6951L44.9454 81.0323C47.5362 82.6776 50.8538 82.6392 53.4059 80.9345L86.6719 58.7132C88.8248 57.2751 90.1176 54.857 90.1176 52.2679V32.3457C90.1176 28.065 86.6473 24.5947 82.3666 24.5947Z" fill="url(#paint0_linear_90_3388)"/>
<path d="M9.75405 24.7104L43.6565 2.72411C46.2133 1.06595 49.5046 1.05993 52.0675 2.70871L86.244 24.6954C90.916 27.7011 91.0022 34.5013 86.4078 37.6243L52.2319 60.8551C49.5933 62.6487 46.1252 62.6422 43.4933 60.8387L9.59018 37.6075C5.0278 34.4812 5.11372 27.7197 9.75405 24.7104Z" fill="#B64EDF"/>
<path d="M51.901 43.9018C50.2424 44.9913 48.3944 45.6581 46.3569 45.9023C44.3193 46.1378 42.1768 45.9564 39.9294 45.3581C37.6818 44.7511 35.4205 43.7286 33.1454 42.2906C30.877 40.8481 29.2605 39.4152 28.2957 37.9918C27.3309 36.5597 27.0183 35.1894 27.3581 33.8808C27.7045 32.5677 28.7036 31.3687 30.3555 30.2836C32.0074 29.1984 33.8487 28.5317 35.8794 28.2832C37.9101 28.0347 40.0424 28.2097 42.2763 28.8081C44.517 29.4021 46.7715 30.416 49.0398 31.8497C51.3217 33.292 52.9518 34.7335 53.9303 36.1742C54.9086 37.6062 55.2279 38.9808 54.8883 40.2981C54.5554 41.611 53.5596 42.8123 51.901 43.9018ZM48.7125 41.8864C50.0018 41.0395 50.3773 39.9656 49.8391 38.6647C49.3008 37.355 47.7787 35.9082 45.2727 34.3243C43.6156 33.2769 42.0522 32.5094 40.5823 32.0218C39.1125 31.5342 37.7801 31.3152 36.5852 31.3648C35.3834 31.4102 34.3561 31.713 33.5033 32.2732C32.2207 33.1157 31.852 34.1895 32.3969 35.4947C32.9351 36.7957 34.4437 38.2339 36.9226 39.8094C38.5798 40.8655 40.1433 41.6417 41.6132 42.138C43.0898 42.6299 44.429 42.8532 45.6307 42.8078C46.8257 42.7581 47.853 42.451 48.7125 41.8864ZM70.1644 31.7603C69.1705 32.4044 68.0337 32.928 66.754 33.3309C65.4676 33.7295 64.0612 33.9311 62.5349 33.9358C61.0018 33.9362 59.3685 33.6742 57.635 33.1497C55.8946 32.6209 54.0703 31.7491 52.1618 30.5342C50.3757 29.4052 48.9712 28.2751 47.9482 27.1438C46.9252 26.0125 46.2841 24.9105 46.0248 23.8378C45.7587 22.7608 45.8679 21.735 46.3524 20.7602C46.8436 19.781 47.7069 18.8856 48.9425 18.074C50.2385 17.2226 51.6448 16.6315 53.1615 16.3005C54.6849 15.965 56.2037 15.8777 57.7179 16.0386C59.2254 16.1951 60.6132 16.5789 61.8815 17.1902L58.2051 19.6052C57.2157 19.2222 56.1912 19.0723 55.1316 19.1556C54.0719 19.2302 53.0989 19.5586 52.2125 20.1408C50.7822 21.0804 50.3091 22.2009 50.7933 23.5023C51.2842 24.7992 52.6231 26.1432 54.81 27.5341L54.951 27.4415C54.6824 26.8476 54.596 26.2434 54.692 25.6289C54.7879 25.0144 55.0494 24.4181 55.4766 23.8398C55.9037 23.2529 56.4865 22.7168 57.2252 22.2316C58.4339 21.4376 59.8104 20.9098 61.3547 20.6482C62.9057 20.3822 64.476 20.388 66.0655 20.6657C67.6483 20.939 69.0951 21.4943 70.4059 22.3315C71.7844 23.1942 72.7082 24.1762 73.1771 25.2775C73.6392 26.3745 73.6253 27.4866 73.1354 28.6138C72.6455 29.7409 71.6552 30.7898 70.1644 31.7603ZM67.0881 29.8419C67.8201 29.3611 68.2948 28.8172 68.5124 28.2104C68.7299 27.6035 68.7009 26.9967 68.4255 26.3898C68.15 25.7829 67.6286 25.2413 66.8613 24.7649C66.1209 24.2883 65.284 23.9671 64.3506 23.8012C63.4238 23.6309 62.4985 23.6216 61.5746 23.7733C60.6506 23.925 59.8227 24.2413 59.0908 24.7221C58.5469 25.0794 58.1451 25.4789 57.8856 25.9208C57.6261 26.3626 57.5085 26.8163 57.5329 27.2817C57.5504 27.7429 57.703 28.1942 57.9905 28.6356C58.2779 29.0683 58.6933 29.4607 59.2367 29.8128C59.9701 30.2677 60.8069 30.5802 61.7472 30.7504C62.6874 30.9206 63.6297 30.9319 64.5739 30.7844C65.5181 30.6369 66.3562 30.3227 67.0881 29.8419Z" fill="white"/>
<defs>
<linearGradient id="paint0_linear_90_3388" x1="5.78886" y1="53.5812" x2="90.5035" y2="53.5812" gradientUnits="userSpaceOnUse">
<stop offset="0.49037" stop-color="#9724CD"/>
<stop offset="0.528239" stop-color="#7E17B0"/>
</linearGradient>
</defs>
</svg>
