<svg width="97" height="86" viewBox="0 0 97 86" fill="none" xmlns="http://www.w3.org/2000/svg">
<path d="M82.3666 25.1848H13.9258C9.64504 25.1848 6.1748 28.6551 6.1748 32.9358V53.5596C6.1748 56.1826 7.50139 58.6276 9.70035 60.0575L44.8733 82.9295C47.4977 84.636 50.891 84.5964 53.4748 82.8291L86.7426 60.0735C88.8546 58.6288 90.1176 56.2348 90.1176 53.676V32.9358C90.1176 28.655 86.6473 25.1848 82.3666 25.1848Z" fill="url(#paint0_linear_91_5008)"/>
<path d="M9.45786 25.4999L43.5863 2.83607C46.1759 1.11641 49.5423 1.11019 52.1382 2.82027L86.5425 25.4846C91.121 28.5006 91.2064 35.1868 86.7066 38.3189L52.3029 62.2656C49.6327 64.1242 46.086 64.1175 43.4229 62.2489L9.29375 38.3017C4.82597 35.1668 4.91119 28.5192 9.45786 25.4999Z" fill="#B64EDF"/>
<path d="M39.5061 47.5024L36.5216 45.5707L31.3204 30.735L33.7803 29.0804L38.0295 31.8306L36.5296 32.8395L40.0584 42.8444L40.2202 42.9492L52.3497 34.7903L55.4355 36.7875L39.5061 47.5024ZM53.1202 43.4191L48.3652 40.3415L47.0697 39.4502L32.4404 29.9817L35.9402 27.6275L56.6601 41.038L53.1202 43.4191ZM69.4085 32.8367C68.0752 33.7335 66.629 34.3725 65.0699 34.7536C63.504 35.1303 61.9659 35.2391 60.4556 35.0799C58.952 34.9162 57.6069 34.4767 56.4203 33.7615L60.0201 31.3401C60.9366 31.8453 61.9947 32.0505 63.1942 31.9558C64.387 31.8568 65.4467 31.4956 66.3734 30.8723C67.1 30.3835 67.578 29.8394 67.8074 29.24C68.0368 28.6406 68.0147 28.0367 67.7411 27.4285C67.4675 26.8202 66.9429 26.2695 66.1673 25.7764C65.3916 25.2655 64.5335 24.9257 63.5932 24.757C62.6528 24.5883 61.7207 24.5877 60.7967 24.7552C59.866 24.9184 59.024 25.2533 58.2707 25.76C57.6507 26.1682 57.162 26.6482 56.8048 27.2001C56.4475 27.7519 56.2878 28.2689 56.3256 28.7509L52.4193 30.644L42.8056 23.0095L54.6851 15.0187L57.8214 17.0487L49.0118 22.9745L53.9154 26.9269L54.0354 26.8462C53.9635 26.2981 54.1258 25.6949 54.5223 25.0365C54.9121 24.3737 55.5203 23.7643 56.347 23.2082C57.5869 22.3742 58.9903 21.8219 60.5571 21.5514C62.1172 21.2765 63.6932 21.2846 65.2851 21.5759C66.8771 21.8671 68.3374 22.4427 69.6661 23.3027C71.0353 24.1889 71.9428 25.1898 72.3885 26.3054C72.8342 27.4122 72.8106 28.5363 72.3178 29.678C71.8249 30.8107 70.8551 31.8637 69.4085 32.8367Z" fill="white"/>
<defs>
<linearGradient id="paint0_linear_91_5008" x1="5.78886" y1="54.8667" x2="90.5035" y2="54.8667" gradientUnits="userSpaceOnUse">
<stop offset="0.49037" stop-color="#9722CC"/>
<stop offset="0.528239" stop-color="#7F17B0"/>
</linearGradient>
</defs>
</svg>
