<svg width="97" height="84" viewBox="0 0 97 84" fill="none" xmlns="http://www.w3.org/2000/svg">
<path d="M82.3666 24.5947H13.9258C9.64504 24.5947 6.1748 28.065 6.1748 32.3457V52.1519C6.1748 54.8046 7.53136 57.273 9.77066 58.6951L44.9454 81.0323C47.5362 82.6776 50.8538 82.6392 53.4059 80.9345L86.6719 58.7132C88.8248 57.2751 90.1176 54.857 90.1176 52.2679V32.3457C90.1176 28.065 86.6473 24.5947 82.3666 24.5947Z" fill="url(#paint0_linear_90_3403)"/>
<path d="M9.75405 24.7104L43.6565 2.72411C46.2133 1.06595 49.5046 1.05993 52.0675 2.70871L86.244 24.6954C90.916 27.7011 91.0022 34.5013 86.4078 37.6243L52.2319 60.8551C49.5933 62.6487 46.1252 62.6422 43.4933 60.8387L9.59018 37.6075C5.0278 34.4812 5.11372 27.7197 9.75405 24.7104Z" fill="#B64EDF"/>
<path d="M51.901 43.9018C50.2424 44.9913 48.3944 45.6581 46.3569 45.9023C44.3193 46.1378 42.1768 45.9564 39.9294 45.3581C37.6818 44.7511 35.4205 43.7286 33.1454 42.2906C30.877 40.8481 29.2605 39.4152 28.2957 37.9918C27.3309 36.5597 27.0183 35.1894 27.3581 33.8808C27.7045 32.5677 28.7036 31.3687 30.3555 30.2836C32.0074 29.1984 33.8487 28.5317 35.8794 28.2832C37.9101 28.0347 40.0424 28.2097 42.2763 28.8081C44.517 29.4021 46.7715 30.416 49.0398 31.8497C51.3217 33.292 52.9518 34.7335 53.9303 36.1742C54.9086 37.6062 55.2279 38.9808 54.8883 40.2981C54.5554 41.611 53.5596 42.8123 51.901 43.9018ZM48.7125 41.8864C50.0018 41.0395 50.3773 39.9656 49.8391 38.6647C49.3008 37.355 47.7787 35.9082 45.2727 34.3243C43.6156 33.2769 42.0522 32.5094 40.5823 32.0218C39.1125 31.5342 37.7801 31.3152 36.5852 31.3648C35.3834 31.4102 34.3561 31.713 33.5033 32.2732C32.2207 33.1157 31.852 34.1895 32.3969 35.4947C32.9351 36.7957 34.4437 38.2339 36.9226 39.8094C38.5798 40.8655 40.1433 41.6417 41.6132 42.138C43.0898 42.6299 44.429 42.8532 45.6307 42.8078C46.8257 42.7581 47.853 42.451 48.7125 41.8864ZM48.3381 18.471C49.332 17.8268 50.4689 17.3077 51.7486 16.9134C53.0283 16.5105 54.4312 16.3067 55.9575 16.3021C57.477 16.2931 59.1035 16.5508 60.8371 17.0753C62.5706 17.5998 64.3882 18.463 66.2898 19.6649C68.0894 20.7937 69.5041 21.9303 70.5339 23.0746C71.5637 24.2101 72.2116 25.3164 72.4777 26.3934C72.7438 27.4704 72.6346 28.4963 72.1501 29.4711C71.6657 30.4459 70.8023 31.3413 69.56 32.1573C68.2573 33.013 66.8443 33.6086 65.3209 33.944C63.8042 34.275 62.2887 34.3601 60.7745 34.1993C59.2603 34.0385 57.8554 33.6396 56.5598 33.0025L60.2363 30.5874C61.2529 30.9876 62.2944 31.1526 63.3608 31.0823C64.4272 31.0033 65.4036 30.6727 66.29 30.0904C67.7203 29.1509 68.1934 28.0304 67.7092 26.729C67.225 25.4276 65.8658 24.0708 63.6314 22.6585L63.4904 22.7512C63.759 23.345 63.8487 23.9514 63.7596 24.5702C63.6637 25.1847 63.3988 25.7832 62.9649 26.3659C62.5378 26.9441 61.9548 27.4758 61.2162 27.961C60.0075 28.755 58.6276 29.285 57.0766 29.551C55.5323 29.8126 53.9688 29.8068 52.386 29.5334C50.81 29.2556 49.3633 28.7047 48.0458 27.8807C46.6876 27.0221 45.7774 26.0487 45.3154 24.9604C44.8532 23.8633 44.8671 22.7513 45.357 21.6241C45.8401 20.4927 46.8338 19.4416 48.3381 18.471ZM51.4043 20.396C50.6791 20.8724 50.2043 21.4162 49.9801 22.0275C49.7557 22.63 49.7813 23.2348 50.0568 23.8417C50.3322 24.4398 50.8434 24.975 51.5904 25.4472C52.3374 25.9107 53.1742 26.2276 54.101 26.3979C55.0345 26.5638 55.9598 26.5731 56.877 26.4258C57.8009 26.274 58.6289 25.9578 59.3608 25.477C59.9047 25.1197 60.3064 24.7201 60.5659 24.2783C60.8255 23.8364 60.9431 23.3828 60.9187 22.9173C60.8943 22.4432 60.7384 21.9897 60.4509 21.557C60.1702 21.1199 59.7582 20.734 59.215 20.3993C58.5019 19.9486 57.6752 19.6425 56.7351 19.481C55.8016 19.3151 54.8628 19.3059 53.9185 19.4535C52.981 19.5966 52.143 19.9108 51.4043 20.396Z" fill="white"/>
<defs>
<linearGradient id="paint0_linear_90_3403" x1="5.78886" y1="53.5812" x2="90.5035" y2="53.5812" gradientUnits="userSpaceOnUse">
<stop offset="0.49037" stop-color="#9724CD"/>
<stop offset="0.528239" stop-color="#7E17B0"/>
</linearGradient>
</defs>
</svg>
