<svg width="97" height="86" viewBox="0 0 97 86" fill="none" xmlns="http://www.w3.org/2000/svg">
<path d="M82.3666 25.1846H13.9258C9.64504 25.1846 6.1748 28.6548 6.1748 32.9356V53.5593C6.1748 56.1823 7.50139 58.6274 9.70035 60.0573L44.8733 82.9293C47.4977 84.6358 50.891 84.5962 53.4748 82.8288L86.7426 60.0733C88.8546 58.6286 90.1176 56.2346 90.1176 53.6757V32.9356C90.1176 28.6548 86.6473 25.1846 82.3666 25.1846Z" fill="url(#paint0_linear_91_4923)"/>
<path d="M9.45786 25.4999L43.5863 2.83607C46.1759 1.11641 49.5423 1.11019 52.1382 2.82027L86.5425 25.4846C91.121 28.5006 91.2064 35.1868 86.7066 38.3189L52.3029 62.2656C49.6327 64.1242 46.086 64.1175 43.4229 62.2489L9.29375 38.3017C4.82597 35.1668 4.91119 28.5192 9.45786 25.4999Z" fill="#B64EDF"/>
<path d="M43.7206 49.742L41.0092 47.9871L41.0673 38.6407C41.0526 37.7337 41.0021 36.9531 40.9158 36.299C40.8295 35.6448 40.6468 35.0778 40.3676 34.5979C40.0884 34.1181 39.6622 33.6926 39.0889 33.3215C38.4346 32.8981 37.7281 32.6344 36.9694 32.5305C36.204 32.4222 35.4364 32.4578 34.6668 32.6372C33.8972 32.8166 33.1858 33.126 32.5325 33.5654C31.8592 34.0183 31.4108 34.5069 31.1874 35.031C30.9573 35.5508 30.9586 36.0707 31.1912 36.5908C31.4305 37.1065 31.9042 37.5934 32.6124 38.0518L29.0826 40.4262C27.7673 39.5749 26.9208 38.6354 26.5428 37.6077C26.1649 36.58 26.2295 35.544 26.7366 34.4996C27.2504 33.4507 28.1839 32.4711 29.5372 31.5608C30.9105 30.6371 32.3768 29.9935 33.9361 29.6301C35.4954 29.2668 37.0136 29.1847 38.4907 29.3841C39.9745 29.5789 41.2964 30.0517 42.4565 30.8026C43.2321 31.3046 43.8476 31.8966 44.303 32.5784C44.7583 33.2603 45.0713 34.1448 45.2418 35.2318C45.4191 36.3144 45.4919 37.721 45.4603 39.4515L45.5624 44.1766L45.7041 44.2683L54.6237 38.2685L57.76 40.2984L43.7206 49.742ZM60.7406 38.2935L58.0292 36.5386L58.0873 27.1923C58.0725 26.2852 58.022 25.5047 57.9358 24.8505C57.8495 24.1963 57.6668 23.6293 57.3876 23.1495C57.1084 22.6696 56.6821 22.2441 56.1088 21.8731C55.4546 21.4496 54.7481 21.186 53.9894 21.082C53.2239 20.9738 52.4564 21.0093 51.6868 21.1887C50.9172 21.3681 50.2057 21.6775 49.5524 22.117C48.8791 22.5699 48.4308 23.0584 48.2074 23.5825C47.9773 24.1023 47.9785 24.6223 48.2112 25.1424C48.4504 25.658 48.9242 26.145 49.6324 26.6033L46.1025 28.9777C44.7873 28.1264 43.9407 27.187 43.5628 26.1593C43.1849 25.1315 43.2494 24.0955 43.7566 23.0511C44.2704 22.0022 45.2039 21.0226 46.5572 20.1124C47.9304 19.1886 49.3967 18.5451 50.956 18.1817C52.5153 17.8183 54.0335 17.7363 55.5106 17.9356C56.9944 18.1304 58.3163 18.6033 59.4764 19.3541C60.2521 19.8562 60.8676 20.4481 61.3229 21.13C61.7783 21.8118 62.0912 22.6963 62.2618 23.7834C62.439 24.8659 62.5118 26.2725 62.4802 28.003L62.5824 32.7281L62.724 32.8198L71.6437 26.82L74.78 28.8499L60.7406 38.2935Z" fill="white"/>
<defs>
<linearGradient id="paint0_linear_91_4923" x1="5.78886" y1="54.8665" x2="90.5035" y2="54.8665" gradientUnits="userSpaceOnUse">
<stop offset="0.49037" stop-color="#9722CC"/>
<stop offset="0.528239" stop-color="#7F17B0"/>
</linearGradient>
</defs>
</svg>
