<svg width="97" height="86" viewBox="0 0 97 86" fill="none" xmlns="http://www.w3.org/2000/svg">
<path d="M82.3665 25.1848H13.9258C9.64504 25.1848 6.1748 28.6551 6.1748 32.9358V53.5596C6.1748 56.1826 7.50139 58.6276 9.70035 60.0575L44.8733 82.9295C47.4977 84.636 50.8909 84.5964 53.4747 82.8291L86.7425 60.0735C88.8546 58.6288 90.1175 56.2348 90.1175 53.676V32.9358C90.1175 28.655 86.6473 25.1848 82.3665 25.1848Z" fill="url(#paint0_linear_91_5158)"/>
<path d="M9.45785 25.4999L43.5863 2.83607C46.1758 1.11642 49.5423 1.1102 52.1382 2.82027L86.5425 25.4846C91.1209 28.5006 91.2064 35.1868 86.7065 38.3189L52.3029 62.2656C49.6327 64.1242 46.086 64.1175 43.4229 62.2489L9.29375 38.3017C4.82597 35.1668 4.91119 28.5192 9.45785 25.4999Z" fill="#B64EDF"/>
<path d="M54.1236 43.0882C52.7903 43.985 51.3441 44.624 49.7849 45.0051C48.2191 45.3818 46.681 45.4906 45.1707 45.3313C43.6671 45.1677 42.322 44.7282 41.1354 44.013L44.7352 41.5915C45.6517 42.0967 46.7097 42.302 47.9093 42.2073C49.1021 42.1082 50.1618 41.7471 51.0884 41.1238C51.8151 40.635 52.2931 40.0909 52.5225 39.4915C52.7519 38.892 52.7298 38.2882 52.4562 37.68C52.1825 37.0717 51.658 36.521 50.8824 36.0278C50.1067 35.517 49.2486 35.1772 48.3083 35.0085C47.3679 34.8398 46.4358 34.8392 45.5118 35.0067C44.5811 35.1698 43.7391 35.5047 42.9858 36.0115C42.3658 36.4196 41.8771 36.8997 41.5199 37.4515C41.1626 38.0034 41.0029 38.5204 41.0407 39.0024L37.1344 40.8955L27.5207 33.261L39.4002 25.2702L42.5365 27.3001L33.7269 33.2259L38.6305 37.1784L38.7505 37.0977C38.6786 36.5496 38.8409 35.9464 39.2374 35.2879C39.6272 34.6252 40.2354 34.0157 41.0621 33.4597C42.302 32.6257 43.7054 32.0734 45.2722 31.8028C46.8323 31.5279 48.4083 31.5361 50.0002 31.8274C51.5922 32.1186 53.0525 32.6942 54.3812 33.5542C55.7504 34.4404 56.6578 35.4413 57.1036 36.5569C57.5493 37.6636 57.5257 38.7878 57.0329 39.9295C56.54 41.0622 55.5702 42.1151 54.1236 43.0882ZM51.6804 17.01L72.4002 30.4205L68.6903 32.916L51.6228 21.8693L51.5028 21.95L49.8088 27.1756L46.369 24.9492L48.1505 19.3843L51.6804 17.01Z" fill="white"/>
<defs>
<linearGradient id="paint0_linear_91_5158" x1="5.78886" y1="54.8667" x2="90.5035" y2="54.8667" gradientUnits="userSpaceOnUse">
<stop offset="0.49037" stop-color="#9722CC"/>
<stop offset="0.528239" stop-color="#7F17B0"/>
</linearGradient>
</defs>
</svg>
