<svg width="97" height="86" viewBox="0 0 97 86" fill="none" xmlns="http://www.w3.org/2000/svg">
<path d="M82.3666 25.1848H13.9258C9.64504 25.1848 6.1748 28.6551 6.1748 32.9358V53.5596C6.1748 56.1826 7.50139 58.6276 9.70035 60.0575L44.8733 82.9295C47.4977 84.636 50.891 84.5964 53.4748 82.8291L86.7426 60.0735C88.8546 58.6288 90.1176 56.2348 90.1176 53.676V32.9358C90.1176 28.655 86.6473 25.1848 82.3666 25.1848Z" fill="url(#paint0_linear_91_4958)"/>
<path d="M9.45786 25.4999L43.5863 2.83607C46.1759 1.11641 49.5423 1.11019 52.1382 2.82027L86.5425 25.4846C91.121 28.5006 91.2064 35.1868 86.7066 38.3189L52.3029 62.2656C49.6327 64.1242 46.086 64.1175 43.4229 62.2489L9.29375 38.3017C4.82597 35.1668 4.91119 28.5192 9.45786 25.4999Z" fill="#B64EDF"/>
<path d="M39.5061 47.5024L36.5216 45.5707L31.3204 30.735L33.7803 29.0804L38.0295 31.8306L36.5296 32.8395L40.0584 42.8444L40.2202 42.9492L52.3497 34.7903L55.4355 36.7875L39.5061 47.5024ZM53.1202 43.4191L48.3652 40.3415L47.0697 39.4502L32.4404 29.9817L35.9402 27.6275L56.6601 41.038L53.1202 43.4191ZM69.6385 32.682C68.1985 33.6506 66.669 34.35 65.05 34.7803C63.4376 35.2061 61.8629 35.3484 60.326 35.2071C58.789 35.0659 57.4171 34.6311 56.2103 33.9027L59.9701 31.3737C60.5633 31.7136 61.2356 31.9068 61.9871 31.9532C62.7318 31.9953 63.4955 31.9045 64.2782 31.6807C65.0608 31.457 65.7954 31.1141 66.4821 30.6523C67.2154 30.159 67.7372 29.6389 68.0475 29.0918C68.3511 28.5404 68.4302 28.0065 68.2848 27.49C68.1394 26.9736 67.7599 26.5212 67.1462 26.1328C66.5256 25.7223 65.8125 25.472 65.007 25.3817C64.2015 25.2915 63.3538 25.3676 62.4641 25.61C61.581 25.8479 60.7061 26.2584 59.8395 26.8413L58.0295 28.0588L55.1361 26.186L56.946 24.9685C57.6593 24.4887 58.1578 23.9887 58.4416 23.4685C58.732 22.9437 58.8046 22.432 58.6593 21.9332C58.5073 21.4301 58.1279 20.9865 57.5209 20.6025C56.9408 20.2182 56.3016 19.9761 55.6033 19.876C54.9049 19.7672 54.1943 19.7956 53.4715 19.9613C52.7554 20.1225 52.0773 20.4184 51.4373 20.8488C50.8107 21.2703 50.3454 21.7347 50.0414 22.2418C49.7374 22.749 49.6345 23.2499 49.7328 23.7447C49.8243 24.2351 50.1501 24.6747 50.7102 25.0636L47.1403 27.4648C46.0069 26.696 45.3184 25.8149 45.0749 24.8214C44.8313 23.8191 44.9966 22.7998 45.5709 21.7637C46.1384 20.7232 47.0855 19.7567 48.4121 18.8644C49.7787 17.9452 51.225 17.315 52.751 16.9741C54.2769 16.6243 55.7515 16.5448 57.1749 16.7358C58.5982 16.9267 59.836 17.3627 60.8882 18.0437C62.0617 18.7945 62.6997 19.6561 62.8022 20.6287C62.9114 21.5969 62.534 22.5317 61.6702 23.4332L61.8321 23.538C63.4744 22.7004 65.1173 22.3075 66.7607 22.3593C68.4041 22.4023 69.8699 22.8451 71.1583 23.6878C72.3183 24.4386 73.0304 25.3306 73.2944 26.3638C73.5583 27.388 73.3799 28.4517 72.7593 29.5546C72.1454 30.653 71.1051 31.6955 69.6385 32.682Z" fill="white"/>
<defs>
<linearGradient id="paint0_linear_91_4958" x1="5.78886" y1="54.8667" x2="90.5035" y2="54.8667" gradientUnits="userSpaceOnUse">
<stop offset="0.49037" stop-color="#9722CC"/>
<stop offset="0.528239" stop-color="#7F17B0"/>
</linearGradient>
</defs>
</svg>
