<svg width="97" height="86" viewBox="0 0 97 86" fill="none" xmlns="http://www.w3.org/2000/svg">
<path d="M82.3665 25.1846H13.9258C9.64504 25.1846 6.1748 28.6548 6.1748 32.9356V53.5593C6.1748 56.1823 7.50139 58.6274 9.70035 60.0573L44.8733 82.9293C47.4977 84.6358 50.8909 84.5962 53.4747 82.8288L86.7425 60.0733C88.8546 58.6286 90.1175 56.2346 90.1175 53.6757V32.9356C90.1175 28.6548 86.6473 25.1846 82.3665 25.1846Z" fill="url(#paint0_linear_91_5268)"/>
<path d="M9.45785 25.4999L43.5863 2.83607C46.1758 1.11642 49.5423 1.1102 52.1382 2.82027L86.5425 25.4846C91.1209 28.5006 91.2064 35.1868 86.7065 38.3189L52.3029 62.2656C49.6327 64.1242 46.086 64.1175 43.4229 62.2489L9.29375 38.3017C4.82597 35.1668 4.91119 28.5192 9.45785 25.4999Z" fill="#B64EDF"/>
<path d="M31.3304 30.7285L52.0502 44.1391L48.3404 46.6345L31.2729 35.5878L31.1529 35.6685L29.4589 40.8941L26.0191 38.6678L27.8006 33.1029L31.3304 30.7285ZM64.5637 36.0958C63.577 36.7506 62.4484 37.2828 61.1778 37.6923C59.9006 38.0974 58.5042 38.3023 56.9886 38.3068C55.4663 38.307 53.8445 38.0404 52.123 37.5069C50.3947 36.9691 48.583 36.0824 46.6876 34.8469C44.9137 33.6988 43.5188 32.5495 42.5027 31.3991C41.4866 30.2487 40.8496 29.1282 40.5918 28.0375C40.3273 26.9424 40.4354 25.8993 40.9162 24.9082C41.4037 23.9127 42.2607 23.0024 43.4873 22.1773C44.7739 21.3119 46.1702 20.711 47.6761 20.3746C49.1886 20.0337 50.6967 19.9452 52.2003 20.1089C53.6972 20.2682 55.0754 20.6587 56.3349 21.2803L52.6851 23.7354C51.7025 23.3458 50.6852 23.1933 49.6331 23.2779C48.5809 23.3535 47.6148 23.6873 46.7349 24.2793C45.3149 25.2344 44.8455 26.3736 45.3267 27.6969C45.8145 29.0156 47.1443 30.3823 49.3162 31.7968L49.4562 31.7027C49.1893 31.0988 49.1034 30.4844 49.1985 29.8597C49.2935 29.2349 49.5531 28.6285 49.977 28.0407C50.401 27.444 50.9796 26.899 51.7129 26.4057C52.9128 25.5986 54.2795 25.0621 55.8128 24.7963C57.3528 24.526 58.912 24.5321 60.4905 24.8146C62.0621 25.0928 63.4989 25.6575 64.8007 26.5089C66.1698 27.3862 67.0873 28.3848 67.5533 29.5047C68.0124 30.6202 67.999 31.7509 67.5129 32.8969C67.0268 34.0429 66.0437 35.1092 64.5637 36.0958ZM61.5086 34.1448C62.2352 33.6561 62.7064 33.1032 62.9223 32.4862C63.1381 31.8692 63.1092 31.2521 62.8355 30.635C62.5618 30.0179 62.0439 29.4672 61.2818 28.9827C60.5465 28.498 59.7154 28.1713 58.7885 28.0025C57.8682 27.8292 56.9494 27.8196 56.0321 27.9738C55.1147 28.1279 54.2927 28.4494 53.566 28.9382C53.0261 29.3014 52.6273 29.7076 52.3697 30.1568C52.1122 30.606 51.9955 31.0673 52.0199 31.5406C52.0374 32.0095 52.189 32.4683 52.4746 32.9172C52.7602 33.3572 53.1728 33.7562 53.7125 34.1143C54.4408 34.5769 55.2718 34.8948 56.2055 35.0679C57.1392 35.2411 58.0748 35.2527 59.0123 35.1028C59.9498 34.9529 60.7819 34.6336 61.5086 34.1448Z" fill="white"/>
<defs>
<linearGradient id="paint0_linear_91_5268" x1="5.78886" y1="54.8665" x2="90.5035" y2="54.8665" gradientUnits="userSpaceOnUse">
<stop offset="0.49037" stop-color="#9722CC"/>
<stop offset="0.528239" stop-color="#7F17B0"/>
</linearGradient>
</defs>
</svg>
