<svg width="97" height="86" viewBox="0 0 97 86" fill="none" xmlns="http://www.w3.org/2000/svg">
<path d="M82.3665 25.1848H13.9258C9.64504 25.1848 6.1748 28.6551 6.1748 32.9358V53.5596C6.1748 56.1826 7.50139 58.6276 9.70035 60.0575L44.8733 82.9295C47.4977 84.636 50.8909 84.5964 53.4747 82.8291L86.7425 60.0735C88.8546 58.6288 90.1175 56.2348 90.1175 53.676V32.9358C90.1175 28.655 86.6473 25.1848 82.3665 25.1848Z" fill="url(#paint0_linear_91_5348)"/>
<path d="M9.45785 25.4999L43.5863 2.83607C46.1758 1.11642 49.5423 1.1102 52.1382 2.82027L86.5425 25.4846C91.1209 28.5006 91.2064 35.1868 86.7065 38.3189L52.3029 62.2656C49.6327 64.1242 46.086 64.1175 43.4229 62.2489L9.29375 38.3017C4.82597 35.1668 4.91119 28.5192 9.45785 25.4999Z" fill="#B64EDF"/>
<path d="M51.3536 44.9816C49.9136 45.9502 48.3841 46.6496 46.7651 47.0799C45.1527 47.5057 43.578 47.648 42.041 47.5067C40.5041 47.3654 39.1322 46.9306 37.9254 46.2023L41.6852 43.6733C42.2784 44.0132 42.9507 44.2064 43.7022 44.2528C44.4469 44.2949 45.2106 44.2041 45.9932 43.9803C46.7759 43.7565 47.5105 43.4137 48.1971 42.9519C48.9305 42.4586 49.4523 41.9384 49.7626 41.3914C50.0662 40.84 50.1453 40.3061 49.9999 39.7896C49.8545 39.2732 49.475 38.8207 48.8613 38.4323C48.2407 38.0219 47.5276 37.7715 46.7221 37.6813C45.9166 37.5911 45.0689 37.6672 44.1792 37.9096C43.2961 38.1475 42.4212 38.5579 41.5546 39.1409L39.7446 40.3583L36.8511 38.4856L38.6611 37.2681C39.3744 36.7883 39.8729 36.2883 40.1567 35.768C40.4471 35.2433 40.5197 34.7316 40.3744 34.2328C40.2224 33.7297 39.843 33.2861 39.236 32.9021C38.6559 32.5178 38.0167 32.2756 37.3184 32.1756C36.62 32.0668 35.9094 32.0952 35.1866 32.2609C34.4705 32.4221 33.7924 32.7179 33.1524 33.1484C32.5258 33.5699 32.0605 34.0343 31.7565 34.5414C31.4525 35.0486 31.3496 35.5495 31.4479 36.0443C31.5394 36.5346 31.8652 36.9743 32.4253 37.3632L28.8554 39.7644C27.722 38.9956 27.0335 38.1145 26.79 37.121C26.5464 36.1186 26.7117 35.0994 27.286 34.0633C27.8535 33.0227 28.8006 32.0563 30.1272 31.164C31.4938 30.2447 32.9401 29.6146 34.4661 29.2737C35.9919 28.9238 37.4666 28.8444 38.89 29.0354C40.3133 29.2263 41.5511 29.6623 42.6033 30.3433C43.7768 31.094 44.4148 31.9557 44.5173 32.9283C44.6265 33.8965 44.2491 34.8313 43.3853 35.7328L43.5472 35.8376C45.1895 35 46.8324 34.6071 48.4758 34.6589C50.1192 34.7019 51.585 35.1447 52.8733 35.9873C54.0334 36.7382 54.7455 37.6302 55.0095 38.6633C55.2734 39.6876 55.095 40.7512 54.4744 41.8542C53.8604 42.9526 52.8202 43.9951 51.3536 44.9816ZM47.6996 19.3439C48.6863 18.6891 49.815 18.1614 51.0856 17.7607C52.3561 17.3512 53.7492 17.1441 55.2647 17.1396C56.7735 17.1306 58.3886 17.3929 60.1101 17.9264C61.8316 18.4599 63.6366 19.3378 65.5251 20.5601C67.3124 21.7081 68.7175 22.8639 69.7404 24.0275C70.7632 25.1822 71.4069 26.3071 71.6715 27.4022C71.936 28.4973 71.8279 29.5404 71.3471 30.5315C70.8663 31.5225 70.0093 32.4328 68.776 33.2624C67.4827 34.1323 66.0798 34.7377 64.5673 35.0786C63.0614 35.4149 61.5566 35.5013 60.053 35.3376C58.5494 35.1739 57.1543 34.768 55.8677 34.1201L59.5175 31.665C60.527 32.072 61.5613 32.2399 62.6202 32.1686C63.679 32.0884 64.6485 31.7524 65.5284 31.1604C66.9484 30.2053 67.4178 29.0661 66.9366 27.7428C66.4555 26.4196 65.1054 25.0398 62.8864 23.6036L62.7464 23.6978C63.0133 24.3016 63.1026 24.9182 63.0142 25.5473C62.9192 26.1721 62.6563 26.7807 62.2257 27.373C61.8017 27.9609 61.223 28.5014 60.4897 28.9947C59.2898 29.8018 57.9198 30.3406 56.3798 30.6109C54.8465 30.8767 53.2939 30.8705 51.7223 30.5923C50.1572 30.3097 48.7205 29.7494 47.4121 28.9113C46.0632 28.0383 45.1592 27.0484 44.7001 25.9418C44.2409 24.8263 44.2543 23.6955 44.7404 22.5495C45.2198 21.3992 46.2062 20.3306 47.6996 19.3439ZM50.7447 21.3016C50.0248 21.7859 49.5535 22.3388 49.331 22.9603C49.1085 23.5729 49.134 24.1878 49.4077 24.8049C49.6813 25.4131 50.1891 25.9573 50.931 26.4375C51.6729 26.9089 52.5039 27.2312 53.4242 27.4045C54.3511 27.5733 55.27 27.5828 56.1807 27.4332C57.098 27.279 57.92 26.9576 58.6467 26.4688C59.1867 26.1056 59.5854 25.6993 59.843 25.2501C60.1005 24.8009 60.2172 24.3397 60.1929 23.8664C60.1685 23.3843 60.0135 22.9232 59.728 22.4832C59.4491 22.0388 59.0399 21.6463 58.5004 21.306C57.7922 20.8476 56.9713 20.5362 56.0377 20.3719C55.1107 20.2031 54.1785 20.1937 53.241 20.3436C52.3101 20.489 51.4781 20.8083 50.7447 21.3016Z" fill="white"/>
<defs>
<linearGradient id="paint0_linear_91_5348" x1="5.78886" y1="54.8667" x2="90.5035" y2="54.8667" gradientUnits="userSpaceOnUse">
<stop offset="0.49037" stop-color="#9722CC"/>
<stop offset="0.528239" stop-color="#7F17B0"/>
</linearGradient>
</defs>
</svg>
