<svg width="97" height="84" viewBox="0 0 97 84" fill="none" xmlns="http://www.w3.org/2000/svg">
<path d="M82.3665 24.5947H13.9258C9.64504 24.5947 6.1748 28.065 6.1748 32.3457V52.1519C6.1748 54.8046 7.53136 57.273 9.77066 58.6951L44.9454 81.0323C47.5362 82.6776 50.8538 82.6392 53.4059 80.9345L86.6719 58.7132C88.8248 57.2751 90.1175 54.857 90.1175 52.2679V32.3457C90.1175 28.065 86.6473 24.5947 82.3665 24.5947Z" fill="url(#paint0_linear_90_3413)"/>
<path d="M9.75405 24.7104L43.6565 2.72411C46.2133 1.06595 49.5046 1.05993 52.0675 2.70871L86.244 24.6954C90.916 27.7011 91.0022 34.5013 86.4078 37.6243L52.2319 60.8551C49.5933 62.6487 46.1252 62.6422 43.4933 60.8387L9.59018 37.6075C5.0278 34.4812 5.11372 27.7197 9.75405 24.7104Z" fill="#B64EDF"/>
<path d="M35.4063 27.961L56.2692 41.1478L52.5323 43.6025L35.3469 32.7401L35.226 32.8195L33.5185 37.9592L30.0549 35.7699L31.8507 30.2966L35.4063 27.961ZM48.5616 19.3194L69.4246 32.5062L65.6877 34.9609L48.5022 24.0985L48.3814 24.1779L46.6739 29.3175L43.2103 27.1283L45.006 21.655L48.5616 19.3194Z" fill="white"/>
<defs>
<linearGradient id="paint0_linear_90_3413" x1="5.78886" y1="53.5812" x2="90.5035" y2="53.5812" gradientUnits="userSpaceOnUse">
<stop offset="0.49037" stop-color="#9724CD"/>
<stop offset="0.528239" stop-color="#7E17B0"/>
</linearGradient>
</defs>
</svg>
