<svg width="97" height="86" viewBox="0 0 97 86" fill="none" xmlns="http://www.w3.org/2000/svg">
<path d="M82.3666 25.1846H13.9258C9.64504 25.1846 6.1748 28.6548 6.1748 32.9356V53.5593C6.1748 56.1823 7.50139 58.6274 9.70035 60.0573L44.8733 82.9293C47.4977 84.6358 50.891 84.5962 53.4748 82.8288L86.7426 60.0733C88.8546 58.6286 90.1176 56.2346 90.1176 53.6757V32.9356C90.1176 28.6548 86.6473 25.1846 82.3666 25.1846Z" fill="url(#paint0_linear_91_5098)"/>
<path d="M9.45786 25.4999L43.5863 2.83607C46.1759 1.11641 49.5423 1.11019 52.1382 2.82027L86.5425 25.4846C91.121 28.5006 91.2064 35.1868 86.7066 38.3189L52.3029 62.2656C49.6327 64.1242 46.086 64.1175 43.4229 62.2489L9.29375 38.3017C4.82597 35.1668 4.91119 28.5192 9.45786 25.4999Z" fill="#B64EDF"/>
<path d="M43.7206 49.742L41.0092 47.9871L41.0673 38.6407C41.0526 37.7337 41.0021 36.9531 40.9158 36.299C40.8295 35.6448 40.6468 35.0778 40.3676 34.5979C40.0884 34.1181 39.6622 33.6926 39.0889 33.3215C38.4346 32.8981 37.7281 32.6344 36.9694 32.5305C36.204 32.4222 35.4364 32.4578 34.6668 32.6372C33.8972 32.8166 33.1858 33.126 32.5325 33.5654C31.8592 34.0183 31.4108 34.5069 31.1874 35.031C30.9573 35.5508 30.9586 36.0707 31.1912 36.5908C31.4305 37.1065 31.9042 37.5934 32.6124 38.0518L29.0826 40.4262C27.7673 39.5749 26.9208 38.6354 26.5428 37.6077C26.1649 36.58 26.2295 35.544 26.7366 34.4996C27.2504 33.4507 28.1839 32.4711 29.5372 31.5608C30.9105 30.6371 32.3768 29.9935 33.9361 29.6301C35.4954 29.2668 37.0136 29.1847 38.4907 29.3841C39.9745 29.5789 41.2964 30.0517 42.4565 30.8026C43.2321 31.3046 43.8476 31.8966 44.303 32.5784C44.7583 33.2603 45.0713 34.1448 45.2418 35.2318C45.4191 36.3144 45.4919 37.721 45.4603 39.4515L45.5624 44.1766L45.7041 44.2683L54.6237 38.2685L57.76 40.2984L43.7206 49.742ZM46.8472 19.9173C47.8339 19.2625 48.9625 18.7348 50.2331 18.3341C51.5037 17.9246 52.8967 17.7176 54.4122 17.713C55.921 17.7041 57.5362 17.9663 59.2576 18.4998C60.9791 19.0333 62.7841 19.9112 64.6726 21.1335C66.4599 22.2815 67.865 23.4373 68.8879 24.6009C69.9108 25.7556 70.5545 26.8805 70.819 27.9756C71.0835 29.0707 70.9754 30.1138 70.4946 31.1049C70.0139 32.0959 69.1568 33.0062 67.9235 33.8358C66.6303 34.7057 65.2273 35.3111 63.7148 35.652C62.2089 35.9883 60.7041 36.0747 59.2005 35.911C57.6969 35.7473 56.3018 35.3415 55.0152 34.6935L58.6651 32.2384C59.6746 32.6455 60.7088 32.8133 61.7677 32.742C62.8266 32.6618 63.796 32.3258 64.676 31.7339C66.0959 30.7787 66.5653 29.6395 66.0842 28.3163C65.603 26.993 64.2529 25.6132 62.0339 24.177L61.8939 24.2712C62.1608 24.875 62.2501 25.4916 62.1618 26.1207C62.0667 26.7455 61.8039 27.3541 61.3732 27.9464C60.9492 28.5343 60.3706 29.0749 59.6373 29.5681C58.4373 30.3753 57.0673 30.914 55.5273 31.1843C53.994 31.4501 52.4415 31.4439 50.8698 31.1658C49.3048 30.8831 47.8681 30.3228 46.5597 29.4848C45.2107 28.6117 44.3067 27.6218 43.8476 26.5152C43.3884 25.3997 43.4019 24.2689 43.888 23.123C44.3673 21.9726 45.3537 20.904 46.8472 19.9173ZM49.8923 21.875C49.1723 22.3593 48.7011 22.9122 48.4786 23.5337C48.256 24.1463 48.2816 24.7612 48.5553 25.3783C48.8289 25.9865 49.3367 26.5307 50.0786 27.0109C50.8204 27.4823 51.6515 27.8046 52.5717 27.9779C53.4987 28.1467 54.4175 28.1562 55.3282 28.0066C56.2456 27.8524 57.0676 27.531 57.7942 27.0422C58.3342 26.679 58.733 26.2728 58.9905 25.8235C59.2481 25.3743 59.3647 24.9131 59.3404 24.4398C59.316 23.9577 59.161 23.4966 58.8755 23.0566C58.5966 22.6122 58.1874 22.2197 57.6479 21.8794C56.9397 21.421 56.1188 21.1097 55.1852 20.9453C54.2583 20.7765 53.3261 20.7671 52.3885 20.917C51.4577 21.0624 50.6256 21.3818 49.8923 21.875Z" fill="white"/>
<defs>
<linearGradient id="paint0_linear_91_5098" x1="5.78886" y1="54.8665" x2="90.5035" y2="54.8665" gradientUnits="userSpaceOnUse">
<stop offset="0.49037" stop-color="#9722CC"/>
<stop offset="0.528239" stop-color="#7F17B0"/>
</linearGradient>
</defs>
</svg>
