<svg width="97" height="86" viewBox="0 0 97 86" fill="none" xmlns="http://www.w3.org/2000/svg">
<path d="M82.3665 25.1848H13.9258C9.64504 25.1848 6.1748 28.6551 6.1748 32.9358V53.5596C6.1748 56.1826 7.50139 58.6276 9.70035 60.0575L44.8733 82.9295C47.4977 84.636 50.8909 84.5964 53.4747 82.8291L86.7425 60.0735C88.8546 58.6288 90.1175 56.2348 90.1175 53.676V32.9358C90.1175 28.655 86.6473 25.1848 82.3665 25.1848Z" fill="url(#paint0_linear_91_5358)"/>
<path d="M9.45785 25.4999L43.5863 2.83607C46.1758 1.11642 49.5423 1.1102 52.1382 2.82027L86.5425 25.4846C91.1209 28.5006 91.2064 35.1868 86.7065 38.3189L52.3029 62.2656C49.6327 64.1242 46.086 64.1175 43.4229 62.2489L9.29375 38.3017C4.82597 35.1668 4.91119 28.5192 9.45785 25.4999Z" fill="#B64EDF"/>
<path d="M51.1236 45.1363C49.7903 46.0331 48.3441 46.6721 46.7849 47.0532C45.2191 47.4299 43.681 47.5387 42.1707 47.3794C40.6671 47.2157 39.322 46.7763 38.1354 46.0611L41.7352 43.6396C42.6517 44.1448 43.7097 44.3501 44.9093 44.2554C46.1021 44.1563 47.1618 43.7952 48.0884 43.1719C48.8151 42.6831 49.2931 42.139 49.5225 41.5396C49.7519 40.9401 49.7298 40.3363 49.4562 39.7281C49.1825 39.1198 48.658 38.5691 47.8824 38.0759C47.1067 37.5651 46.2486 37.2253 45.3083 37.0566C44.3679 36.8879 43.4358 36.8873 42.5118 37.0548C41.5811 37.2179 40.7391 37.5528 39.9858 38.0596C39.3658 38.4677 38.8771 38.9478 38.5199 39.4996C38.1626 40.0515 38.0029 40.5685 38.0407 41.0505L34.1344 42.9436L24.5207 35.3091L36.4002 27.3183L39.5365 29.3482L30.7269 35.274L35.6305 39.2265L35.7505 39.1458C35.6786 38.5977 35.8409 37.9945 36.2374 37.336C36.6272 36.6732 37.2354 36.0638 38.0621 35.5078C39.302 34.6737 40.7054 34.1215 42.2722 33.8509C43.8323 33.576 45.4083 33.5842 47.0002 33.8754C48.5922 34.1667 50.0525 34.7423 51.3812 35.6023C52.7504 36.4885 53.6578 37.4894 54.1036 38.605C54.5493 39.7117 54.5257 40.8359 54.0329 41.9775C53.54 43.1103 52.5702 44.1632 51.1236 45.1363ZM47.1771 19.6953C48.1638 19.0405 49.2925 18.5128 50.5631 18.1121C51.8336 17.7026 53.2267 17.4956 54.7422 17.491C56.251 17.4821 57.8661 17.7444 59.5876 18.2778C61.3091 18.8113 63.1141 19.6892 65.0026 20.9115C66.7899 22.0595 68.195 23.2153 69.2179 24.3789C70.2408 25.5337 70.8844 26.6586 71.149 27.7537C71.4135 28.8488 71.3054 29.8918 70.8246 30.8829C70.3438 31.874 69.4868 32.7843 68.2535 33.6138C66.9603 34.4838 65.5573 35.0891 64.0448 35.43C62.5389 35.7664 61.0341 35.8527 59.5305 35.689C58.0269 35.5253 56.6318 35.1195 55.3452 34.4715L58.995 32.0165C60.0046 32.4235 61.0388 32.5913 62.0977 32.52C63.1566 32.4398 64.126 32.1038 65.0059 31.5119C66.4259 30.5568 66.8953 29.4176 66.4141 28.0943C65.933 26.771 64.5829 25.3913 62.3639 23.955L62.2239 24.0492C62.4908 24.6531 62.5801 25.2696 62.4918 25.8987C62.3967 26.5235 62.1338 27.1321 61.7032 27.7245C61.2792 28.3123 60.7006 28.8529 59.9673 29.3461C58.7673 30.1533 57.3973 30.692 55.8573 30.9623C54.324 31.2281 52.7715 31.2219 51.1998 30.9438C49.6348 30.6612 48.1981 30.1008 46.8897 29.2628C45.5407 28.3897 44.6367 27.3998 44.1776 26.2932C43.7184 25.1777 43.7319 24.047 44.218 22.901C44.6973 21.7506 45.6837 20.6821 47.1771 19.6953ZM50.2223 21.653C49.5023 22.1373 49.0311 22.6902 48.8086 23.3117C48.586 23.9243 48.6115 24.5392 48.8852 25.1563C49.1589 25.7645 49.6666 26.3088 50.4086 26.789C51.1504 27.2603 51.9815 27.5826 52.9017 27.7559C53.8287 27.9247 54.7475 27.9343 55.6582 27.7846C56.5756 27.6305 57.3976 27.309 58.1242 26.8202C58.6642 26.457 59.0629 26.0508 59.3205 25.6016C59.5781 25.1524 59.6947 24.6911 59.6704 24.2178C59.646 23.7357 59.491 23.2747 59.2055 22.8347C58.9266 22.3902 58.5174 21.9978 57.9779 21.6574C57.2697 21.199 56.4488 20.8877 55.5152 20.7234C54.5883 20.5546 53.656 20.5451 52.7185 20.695C51.7877 20.8404 50.9556 21.1598 50.2223 21.653Z" fill="white"/>
<defs>
<linearGradient id="paint0_linear_91_5358" x1="5.78886" y1="54.8667" x2="90.5035" y2="54.8667" gradientUnits="userSpaceOnUse">
<stop offset="0.49037" stop-color="#9722CC"/>
<stop offset="0.528239" stop-color="#7F17B0"/>
</linearGradient>
</defs>
</svg>
