<svg width="97" height="86" viewBox="0 0 97 86" fill="none" xmlns="http://www.w3.org/2000/svg">
<path d="M82.3666 25.1848H13.9258C9.64504 25.1848 6.1748 28.6551 6.1748 32.9358V53.5596C6.1748 56.1826 7.50139 58.6276 9.70035 60.0575L44.8733 82.9295C47.4977 84.636 50.891 84.5964 53.4748 82.8291L86.7426 60.0735C88.8546 58.6288 90.1176 56.2348 90.1176 53.676V32.9358C90.1176 28.655 86.6473 25.1848 82.3666 25.1848Z" fill="url(#paint0_linear_91_5033)"/>
<path d="M9.45786 25.4999L43.5863 2.83607C46.1759 1.11641 49.5423 1.11019 52.1382 2.82027L86.5425 25.4846C91.121 28.5006 91.2064 35.1868 86.7066 38.3189L52.3029 62.2656C49.6327 64.1242 46.086 64.1175 43.4229 62.2489L9.29375 38.3017C4.82597 35.1668 4.91119 28.5192 9.45786 25.4999Z" fill="#B64EDF"/>
<path d="M39.5061 47.5024L36.5216 45.5707L31.3204 30.735L33.7803 29.0804L38.0295 31.8306L36.5296 32.8395L40.0584 42.8444L40.2202 42.9492L52.3497 34.7903L55.4355 36.7875L39.5061 47.5024ZM53.1202 43.4191L48.3652 40.3415L47.0697 39.4502L32.4404 29.9817L35.9402 27.6275L56.6601 41.038L53.1202 43.4191ZM69.7885 32.5811C68.8018 33.2359 67.6731 33.7681 66.4026 34.1776C65.1253 34.5827 63.7289 34.7876 62.2134 34.7922C60.6911 34.7924 59.0692 34.5257 57.3478 33.9922C55.6195 33.4544 53.8077 32.5677 51.9124 31.3322C50.1385 30.1841 48.7435 29.0348 47.7275 27.8844C46.7114 26.7341 46.0744 25.6135 45.8166 24.5228C45.5521 23.4277 45.6602 22.3846 46.141 21.3936C46.6284 20.398 47.4855 19.4877 48.7121 18.6626C49.9987 17.7972 51.3949 17.1963 52.9008 16.8599C54.4134 16.5191 55.9215 16.4305 57.4251 16.5942C58.922 16.7535 60.3002 17.144 61.5597 17.7656L57.9099 20.2207C56.9273 19.8311 55.91 19.6786 54.8579 19.7632C53.8057 19.8389 52.8396 20.1727 51.9597 20.7646C50.5397 21.7197 50.0703 22.8589 50.5515 24.1822C51.0393 25.501 52.3691 26.8676 54.541 28.2821L54.681 28.188C54.4141 27.5841 54.3282 26.9697 54.4233 26.345C54.5183 25.7202 54.7778 25.1139 55.2018 24.526C55.6257 23.9293 56.2043 23.3843 56.9376 22.891C58.1376 22.0839 59.5042 21.5474 61.0376 21.2816C62.5776 21.0113 64.1368 21.0174 65.7152 21.2999C67.2869 21.5781 68.7237 22.1428 70.0255 22.9942C71.3946 23.8715 72.3121 24.8701 72.778 25.99C73.2372 27.1055 73.2238 28.2362 72.7377 29.3822C72.2515 30.5282 71.2685 31.5945 69.7885 32.5811ZM66.7333 30.6301C67.46 30.1414 67.9312 29.5885 68.1471 28.9715C68.3629 28.3545 68.334 27.7374 68.0603 27.1203C67.7865 26.5032 67.2687 25.9525 66.5066 25.468C65.7713 24.9833 64.9402 24.6566 64.0133 24.4878C63.093 24.3145 62.1742 24.305 61.2568 24.4591C60.3395 24.6133 59.5175 24.9347 58.7908 25.4235C58.2509 25.7867 57.8521 26.1929 57.5945 26.6421C57.337 27.0914 57.2203 27.5526 57.2446 28.0259C57.2622 28.4948 57.4138 28.9537 57.6994 29.4025C57.985 29.8425 58.3976 30.2415 58.9372 30.5996C59.6656 31.0622 60.4966 31.3801 61.4303 31.5533C62.364 31.7264 63.2996 31.7381 64.2371 31.5881C65.1746 31.4382 66.0067 31.1189 66.7333 30.6301Z" fill="white"/>
<defs>
<linearGradient id="paint0_linear_91_5033" x1="5.78886" y1="54.8667" x2="90.5035" y2="54.8667" gradientUnits="userSpaceOnUse">
<stop offset="0.49037" stop-color="#9722CC"/>
<stop offset="0.528239" stop-color="#7F17B0"/>
</linearGradient>
</defs>
</svg>
