<svg width="97" height="84" viewBox="0 0 97 84" fill="none" xmlns="http://www.w3.org/2000/svg">
<path d="M82.3665 24.5947H13.9258C9.64504 24.5947 6.1748 28.065 6.1748 32.3457V52.1519C6.1748 54.8046 7.53136 57.273 9.77066 58.6951L44.9454 81.0323C47.5362 82.6776 50.8538 82.6392 53.4059 80.9345L86.6719 58.7132C88.8248 57.2751 90.1175 54.857 90.1175 52.2679V32.3457C90.1175 28.065 86.6473 24.5947 82.3665 24.5947Z" fill="url(#paint0_linear_90_3423)"/>
<path d="M9.75405 24.7104L43.6565 2.72411C46.2133 1.06595 49.5046 1.05993 52.0675 2.70871L86.244 24.6954C90.916 27.7011 91.0022 34.5013 86.4078 37.6243L52.2319 60.8551C49.5933 62.6487 46.1252 62.6422 43.4933 60.8387L9.59018 37.6075C5.0278 34.4812 5.11372 27.7197 9.75405 24.7104Z" fill="#B64EDF"/>
<path d="M31.4063 29.961L52.2692 43.1478L48.5323 45.6025L31.3469 34.7401L31.226 34.8195L29.5185 39.9592L26.0549 37.7699L27.8507 32.2966L31.4063 29.961ZM64.7227 35.3349C63.2723 36.2877 61.7317 36.9758 60.101 37.3992C58.4771 37.8181 56.8912 37.9583 55.3434 37.8195C53.7956 37.6808 52.4141 37.2533 51.1989 36.5372L54.9861 34.0493C55.5834 34.3836 56.2604 34.5735 57.0172 34.6191C57.7672 34.6604 58.5364 34.5709 59.3246 34.3508C60.1129 34.1306 60.8528 33.7933 61.5445 33.339C62.2831 32.8538 62.8088 32.3422 63.1215 31.8041C63.4274 31.2618 63.5072 30.7366 63.361 30.2287C63.2147 29.7208 62.8326 29.2759 62.2146 28.894C61.5898 28.4903 60.8717 28.2442 60.0605 28.1556C59.2493 28.0669 58.3956 28.1419 57.4994 28.3804C56.61 28.6145 55.7288 29.0183 54.8559 29.5917L53.0327 30.7893L50.1193 28.9478L51.9424 27.7502C52.6609 27.2782 53.1631 26.7864 53.449 26.2747C53.7417 25.7586 53.8149 25.2552 53.6688 24.7647C53.5159 24.2699 53.1338 23.8337 52.5227 23.4561C51.9386 23.0782 51.2949 22.8401 50.5916 22.7419C49.8883 22.6349 49.1727 22.6629 48.4447 22.826C47.7235 22.9846 47.0405 23.2757 46.3959 23.6991C45.7647 24.1138 45.2959 24.5705 44.9896 25.0693C44.6833 25.5681 44.5796 26.0608 44.6784 26.5474C44.7704 27.0297 45.0984 27.462 45.6623 27.8444L42.0664 30.2065C40.9252 29.4506 40.2321 28.584 39.9871 27.607C39.7421 26.6212 39.9089 25.6187 40.4875 24.5996C41.0594 23.5762 42.0134 22.6256 43.3497 21.7478C44.7263 20.8435 46.183 20.2236 47.7199 19.8881C49.2568 19.5439 50.7419 19.4656 52.1753 19.6532C53.6087 19.8408 54.8552 20.2694 55.9146 20.9391C57.0962 21.6773 57.7385 22.5247 57.8414 23.4813C57.9511 24.4334 57.5708 25.3529 56.7006 26.2396L56.8636 26.3427C58.5178 25.5186 60.1724 25.132 61.8275 25.1828C63.4825 25.2249 64.9587 25.6602 66.2559 26.4888C67.424 27.2271 68.1408 28.1043 68.4064 29.1204C68.6718 30.1277 68.4919 31.1738 67.8666 32.2586C67.248 33.339 66.2 34.3645 64.7227 35.3349Z" fill="white"/>
<defs>
<linearGradient id="paint0_linear_90_3423" x1="5.78886" y1="53.5812" x2="90.5035" y2="53.5812" gradientUnits="userSpaceOnUse">
<stop offset="0.49037" stop-color="#9724CD"/>
<stop offset="0.528239" stop-color="#7E17B0"/>
</linearGradient>
</defs>
</svg>
