<svg width="97" height="86" viewBox="0 0 97 86" fill="none" xmlns="http://www.w3.org/2000/svg">
<path d="M82.3665 25.1846H13.9258C9.64504 25.1846 6.1748 28.6548 6.1748 32.9356V53.5593C6.1748 56.1823 7.50139 58.6274 9.70035 60.0573L44.8733 82.9293C47.4977 84.6358 50.8909 84.5962 53.4747 82.8288L86.7425 60.0733C88.8546 58.6286 90.1175 56.2346 90.1175 53.6757V32.9356C90.1175 28.6548 86.6473 25.1846 82.3665 25.1846Z" fill="url(#paint0_linear_91_5343)"/>
<path d="M9.45785 25.4999L43.5863 2.83607C46.1758 1.11642 49.5423 1.1102 52.1382 2.82027L86.5425 25.4846C91.1209 28.5006 91.2064 35.1868 86.7065 38.3189L52.3029 62.2656C49.6327 64.1242 46.086 64.1175 43.4229 62.2489L9.29375 38.3017C4.82597 35.1668 4.91119 28.5192 9.45785 25.4999Z" fill="#B64EDF"/>
<path d="M31.3304 30.7285L52.0502 44.1391L48.3404 46.6345L31.2729 35.5878L31.1529 35.6685L29.4589 40.8941L26.0191 38.6678L27.8006 33.1029L31.3304 30.7285ZM42.8873 22.5809C43.874 21.9261 45.0027 21.3983 46.2733 20.9977C47.5438 20.5882 48.9369 20.3811 50.4524 20.3766C51.9612 20.3676 53.5763 20.6299 55.2978 21.1634C57.0193 21.6969 58.8243 22.5748 60.7128 23.7971C62.5001 24.9451 63.9052 26.1009 64.9281 27.2645C65.9509 28.4192 66.5946 29.5441 66.8592 30.6392C67.1237 31.7343 67.0156 32.7774 66.5348 33.7684C66.054 34.7595 65.197 35.6698 63.9637 36.4994C62.6704 37.3693 61.2675 37.9747 59.755 38.3155C58.2491 38.6519 56.7443 38.7382 55.2407 38.5746C53.7371 38.4109 52.342 38.005 51.0554 37.3571L54.7052 34.902C55.7147 35.309 56.749 35.4769 57.8079 35.4056C58.8667 35.3254 59.8362 34.9893 60.7161 34.3974C62.1361 33.4423 62.6055 32.3031 62.1243 30.9798C61.6432 29.6566 60.2931 28.2768 58.0741 26.8406L57.9341 26.9347C58.201 27.5386 58.2903 28.1551 58.2019 28.7843C58.1069 29.4091 57.844 30.0176 57.4134 30.61C56.9894 31.1979 56.4107 31.7384 55.6774 32.2317C54.4775 33.0388 53.1075 33.5776 51.5675 33.8478C50.0342 34.1137 48.4816 34.1075 46.91 33.8293C45.3449 33.5467 43.9082 32.9864 42.5998 32.1483C41.2509 31.2753 40.3469 30.2854 39.8878 29.1787C39.4286 28.0633 39.442 26.9325 39.9281 25.7865C40.4075 24.6362 41.3939 23.5676 42.8873 22.5809ZM45.9324 24.5386C45.2125 25.0229 44.7412 25.5758 44.5187 26.1973C44.2962 26.8099 44.3217 27.4248 44.5954 28.0419C44.869 28.6501 45.3768 29.1943 46.1187 29.6745C46.8606 30.1459 47.6916 30.4682 48.6119 30.6415C49.5388 30.8103 50.4577 30.8198 51.3684 30.6702C52.2857 30.516 53.1077 30.1945 53.8344 29.7058C54.3744 29.3426 54.7731 28.9363 55.0307 28.4871C55.2882 28.0379 55.4049 27.5767 55.3806 27.1034C55.3562 26.6213 55.2012 26.1602 54.9157 25.7202C54.6368 25.2758 54.2276 24.8833 53.6881 24.5429C52.9799 24.0846 52.159 23.7732 51.2254 23.6089C50.2984 23.4401 49.3662 23.4307 48.4287 23.5806C47.4978 23.726 46.6658 24.0453 45.9324 24.5386Z" fill="white"/>
<defs>
<linearGradient id="paint0_linear_91_5343" x1="5.78886" y1="54.8665" x2="90.5035" y2="54.8665" gradientUnits="userSpaceOnUse">
<stop offset="0.49037" stop-color="#9722CC"/>
<stop offset="0.528239" stop-color="#7F17B0"/>
</linearGradient>
</defs>
</svg>
