<svg width="97" height="86" viewBox="0 0 97 86" fill="none" xmlns="http://www.w3.org/2000/svg">
<path d="M82.3666 25.1848H13.9258C9.64504 25.1848 6.1748 28.6551 6.1748 32.9358V53.5596C6.1748 56.1826 7.50139 58.6276 9.70035 60.0575L44.8733 82.9295C47.4977 84.636 50.891 84.5964 53.4748 82.8291L86.7426 60.0735C88.8546 58.6288 90.1176 56.2348 90.1176 53.676V32.9358C90.1176 28.655 86.6473 25.1848 82.3666 25.1848Z" fill="url(#paint0_linear_91_5088)"/>
<path d="M9.45786 25.4999L43.5863 2.83607C46.1759 1.11641 49.5423 1.11019 52.1382 2.82027L86.5425 25.4846C91.121 28.5006 91.2064 35.1868 86.7066 38.3189L52.3029 62.2656C49.6327 64.1242 46.086 64.1175 43.4229 62.2489L9.29375 38.3017C4.82597 35.1668 4.91119 28.5192 9.45786 25.4999Z" fill="#B64EDF"/>
<path d="M51.2836 45.0284C49.797 46.0284 48.2241 46.7526 46.565 47.2009C44.9125 47.6448 43.3212 47.8027 41.7911 47.6746C40.2609 47.5377 38.9393 47.1047 37.8263 46.3755C36.9496 45.8169 36.337 45.174 35.9885 44.447C35.6401 43.7199 35.5464 42.9817 35.7074 42.2325C35.8683 41.4743 36.2813 40.7826 36.9464 40.1572L36.8048 40.0655C35.5154 40.6212 34.1192 40.8438 32.616 40.7332C31.1128 40.6137 29.8047 40.1894 28.6918 39.4603C27.6194 38.775 26.9617 37.9622 26.7187 37.0218C26.4757 36.0814 26.6314 35.1087 27.1858 34.1037C27.7334 33.0944 28.6706 32.1435 29.9972 31.2512C31.3105 30.3678 32.7232 29.738 34.2355 29.3617C35.7476 28.9766 37.2186 28.8552 38.6482 28.9974C40.0845 29.1352 41.3355 29.5489 42.4012 30.2386C43.5208 30.9633 44.1789 31.8248 44.3755 32.8231C44.5721 33.8126 44.2717 34.7313 43.4745 35.5791L43.6161 35.6708C44.551 35.22 45.5846 34.9387 46.7169 34.8269C47.8492 34.7063 48.9695 34.7539 50.078 34.9697C51.193 35.1811 52.1856 35.5684 53.0557 36.1315C54.1753 36.8562 54.8503 37.7242 55.0805 38.7355C55.304 39.7424 55.0954 40.7952 54.4546 41.8939C53.8205 42.9881 52.7635 44.033 51.2836 45.0284ZM48.3901 43.1557C49.1567 42.64 49.6918 42.1065 49.9954 41.555C50.2923 40.9993 50.3546 40.4589 50.1823 39.9338C50.01 39.4087 49.6101 38.9388 48.9828 38.5239C48.3152 38.1006 47.5617 37.8374 46.7226 37.7342C45.8833 37.6221 45.032 37.6651 44.1687 37.863C43.312 38.0564 42.5204 38.3975 41.7937 38.8863C41.0604 39.3795 40.5521 39.9128 40.2688 40.4862C39.9856 41.0595 39.9336 41.6242 40.1128 42.1802C40.292 42.7273 40.7155 43.2125 41.3831 43.6359C42.0105 44.0507 42.7236 44.3099 43.5225 44.4135C44.3147 44.5126 45.129 44.459 45.9655 44.2524C46.8086 44.0414 47.6168 43.6758 48.3901 43.1557ZM38.9508 37.0463C39.5775 36.6248 40.0026 36.1696 40.2263 35.6809C40.4567 35.1877 40.4825 34.6985 40.3038 34.2133C40.1252 33.7281 39.7391 33.289 39.1454 32.896C38.5452 32.5163 37.8859 32.2743 37.1674 32.1701C36.4422 32.0614 35.7149 32.0922 34.9854 32.2624C34.2492 32.4282 33.5645 32.7241 32.9311 33.1501C32.2845 33.5851 31.8393 34.0493 31.5956 34.5426C31.3517 35.0271 31.3191 35.5075 31.4977 35.9838C31.6762 36.4513 32.0655 36.8749 32.6657 37.2546C33.2593 37.6476 33.9221 37.9006 34.6541 38.0136C35.386 38.1177 36.1268 38.0913 36.8764 37.9342C37.6261 37.7682 38.3175 37.4723 38.9508 37.0463ZM68.991 33.1175C67.5044 34.1175 65.9315 34.8417 64.2724 35.29C62.6199 35.7339 61.0286 35.8918 59.4985 35.7637C57.9683 35.6268 56.6467 35.1938 55.5338 34.4646C54.657 33.906 54.0444 33.2631 53.696 32.5361C53.3475 31.809 53.2538 31.0708 53.4148 30.3216C53.5758 29.5634 53.9888 28.8717 54.6539 28.2463L54.5122 28.1546C53.2229 28.7103 51.8266 28.9329 50.3235 28.8223C48.8202 28.7028 47.5122 28.2785 46.3992 27.5494C45.3269 26.8641 44.6692 26.0513 44.4261 25.1109C44.1831 24.1705 44.3388 23.1978 44.8932 22.1928C45.4409 21.1835 46.378 20.2326 47.7046 19.3403C49.0179 18.4569 50.4307 17.8271 51.9429 17.4508C53.4551 17.0657 54.926 16.9443 56.3556 17.0865C57.792 17.2243 59.043 17.638 60.1086 18.3277C61.2282 19.0524 61.8864 19.9139 62.083 20.9122C62.2795 21.9017 61.9792 22.8204 61.1819 23.6682L61.3236 23.7599C62.2584 23.3091 63.292 23.0278 64.4244 22.916C65.5566 22.7954 66.677 22.843 67.7854 23.0588C68.9005 23.2702 69.893 23.6575 70.7631 24.2206C71.8827 24.9453 72.5577 25.8133 72.7879 26.8246C73.0114 27.8315 72.8028 28.8843 72.1621 29.983C71.528 31.0772 70.4709 32.1221 68.991 33.1175ZM66.0975 31.2448C66.8641 30.7291 67.3993 30.1956 67.7029 29.6442C67.9997 29.0884 68.062 28.548 67.8897 28.0229C67.7174 27.4978 67.3176 27.0279 66.6902 26.6131C66.0226 26.1897 65.2692 25.9265 64.43 25.8233C63.5907 25.7112 62.7394 25.7542 61.8761 25.9521C61.0194 26.1455 60.2278 26.4866 59.5012 26.9754C58.7679 27.4687 58.2596 28.002 57.9763 28.5753C57.693 29.1487 57.641 29.7133 57.8203 30.2693C57.9995 30.8164 58.4229 31.3017 59.0905 31.725C59.7179 32.1398 60.431 32.399 61.23 32.5026C62.0222 32.6018 62.8365 32.5481 63.6729 32.3415C64.516 32.1305 65.3242 31.7649 66.0975 31.2448ZM56.6583 25.1354C57.2849 24.7139 57.7101 24.2587 57.9337 23.77C58.1641 23.2768 58.1899 22.7876 58.0113 22.3024C57.8326 21.8172 57.4465 21.3781 56.8529 20.9851C56.2527 20.6054 55.5933 20.3635 54.8749 20.2592C54.1496 20.1505 53.4223 20.1813 52.6928 20.3515C51.9566 20.5173 51.2719 20.8132 50.6386 21.2392C49.9919 21.6742 49.5467 22.1384 49.303 22.6317C49.0591 23.1162 49.0265 23.5966 49.2051 24.0729C49.3836 24.5404 49.7729 24.964 50.3731 25.3437C50.9668 25.7367 51.6295 25.9897 52.3615 26.1027C53.0934 26.2068 53.8342 26.1804 54.5839 26.0233C55.3335 25.8573 56.0249 25.5614 56.6583 25.1354Z" fill="white"/>
<defs>
<linearGradient id="paint0_linear_91_5088" x1="5.78886" y1="54.8667" x2="90.5035" y2="54.8667" gradientUnits="userSpaceOnUse">
<stop offset="0.49037" stop-color="#9722CC"/>
<stop offset="0.528239" stop-color="#7F17B0"/>
</linearGradient>
</defs>
</svg>
