<svg width="97" height="86" viewBox="0 0 97 86" fill="none" xmlns="http://www.w3.org/2000/svg">
<path d="M82.367 25.1848H13.9263C9.64553 25.1848 6.17529 28.6551 6.17529 32.9358V53.5596C6.17529 56.1826 7.50188 58.6276 9.70084 60.0575L44.8738 82.9295C47.4981 84.636 50.8914 84.5964 53.4752 82.8291L86.743 60.0735C88.8551 58.6288 90.118 56.2348 90.118 53.676V32.9358C90.118 28.655 86.6478 25.1848 82.367 25.1848Z" fill="url(#paint0_linear_91_5258)"/>
<path d="M9.45785 25.4999L43.5863 2.83607C46.1758 1.11642 49.5423 1.1102 52.1382 2.82027L86.5425 25.4846C91.1209 28.5006 91.2064 35.1868 86.7065 38.3189L52.3029 62.2656C49.6327 64.1242 46.086 64.1175 43.4229 62.2489L9.29375 38.3017C4.82597 35.1668 4.91119 28.5192 9.45785 25.4999Z" fill="#B64EDF"/>
<path d="M51.1236 45.1363C49.7903 46.0331 48.3441 46.6721 46.7849 47.0532C45.2191 47.4299 43.681 47.5387 42.1707 47.3794C40.6671 47.2157 39.322 46.7763 38.1354 46.0611L41.7352 43.6396C42.6517 44.1448 43.7097 44.3501 44.9093 44.2554C46.1021 44.1563 47.1618 43.7952 48.0884 43.1719C48.8151 42.6831 49.2931 42.139 49.5225 41.5396C49.7519 40.9401 49.7298 40.3363 49.4562 39.7281C49.1825 39.1198 48.658 38.5691 47.8824 38.0759C47.1067 37.5651 46.2486 37.2253 45.3083 37.0566C44.3679 36.8879 43.4358 36.8873 42.5118 37.0548C41.5811 37.2179 40.7391 37.5528 39.9858 38.0596C39.3658 38.4677 38.8771 38.9478 38.5199 39.4996C38.1626 40.0515 38.0029 40.5685 38.0407 41.0505L34.1344 42.9436L24.5207 35.3091L36.4002 27.3183L39.5365 29.3482L30.7269 35.274L35.6305 39.2265L35.7505 39.1458C35.6786 38.5977 35.8409 37.9945 36.2374 37.336C36.6272 36.6732 37.2354 36.0638 38.0621 35.5078C39.302 34.6737 40.7054 34.1215 42.2722 33.8509C43.8323 33.576 45.4083 33.5842 47.0002 33.8754C48.5922 34.1667 50.0525 34.7423 51.3812 35.6023C52.7504 36.4885 53.6578 37.4894 54.1036 38.605C54.5493 39.7117 54.5257 40.8359 54.0329 41.9775C53.54 43.1103 52.5702 44.1632 51.1236 45.1363ZM68.4735 33.4659C67.1402 34.3627 65.694 35.0016 64.1349 35.3827C62.569 35.7595 61.0309 35.8682 59.5206 35.709C58.017 35.5453 56.6719 35.1059 55.4853 34.3906L59.0852 31.9692C60.0017 32.4744 61.0597 32.6797 62.2592 32.585C63.452 32.4859 64.5118 32.1247 65.4384 31.5014C66.165 31.0127 66.643 30.4686 66.8725 29.8691C67.1019 29.2697 67.0798 28.6659 66.8061 28.0576C66.5325 27.4494 66.0079 26.8987 65.2323 26.4055C64.4566 25.8946 63.5986 25.5549 62.6582 25.3862C61.7179 25.2175 60.7857 25.2169 59.8618 25.3844C58.9311 25.5475 58.0891 25.8824 57.3358 26.3891C56.7157 26.7973 56.2271 27.2773 55.8698 27.8292C55.5126 28.3811 55.3529 28.898 55.3907 29.38L51.4844 31.2732L41.8707 23.6386L53.7502 15.6479L56.8865 17.6778L48.0768 23.6036L52.9804 27.5561L53.1004 27.4754C53.0285 26.9273 53.1908 26.324 53.5874 25.6656C53.9772 25.0028 54.5854 24.3934 55.412 23.8374C56.6519 23.0033 58.0553 22.451 59.6222 22.1805C61.1823 21.9056 62.7583 21.9138 64.3502 22.205C65.9421 22.4963 67.4024 23.0719 68.7311 23.9319C70.1003 24.818 71.0078 25.8189 71.4536 26.9345C71.8993 28.0413 71.8757 29.1655 71.3828 30.3071C70.8899 31.4399 69.9201 32.4928 68.4735 33.4659Z" fill="white"/>
<defs>
<linearGradient id="paint0_linear_91_5258" x1="5.78935" y1="54.8667" x2="90.504" y2="54.8667" gradientUnits="userSpaceOnUse">
<stop offset="0.49037" stop-color="#9722CC"/>
<stop offset="0.528239" stop-color="#7F17B0"/>
</linearGradient>
</defs>
</svg>
