<svg width="97" height="86" viewBox="0 0 97 86" fill="none" xmlns="http://www.w3.org/2000/svg">
<path d="M82.3666 25.1848H13.9258C9.64504 25.1848 6.1748 28.6551 6.1748 32.9358V53.5596C6.1748 56.1826 7.50139 58.6276 9.70035 60.0575L44.8733 82.9295C47.4977 84.636 50.891 84.5964 53.4748 82.8291L86.7426 60.0735C88.8546 58.6288 90.1176 56.2348 90.1176 53.676V32.9358C90.1176 28.655 86.6473 25.1848 82.3666 25.1848Z" fill="url(#paint0_linear_91_5078)"/>
<path d="M9.45786 25.4999L43.5863 2.83607C46.1759 1.11641 49.5423 1.11019 52.1382 2.82027L86.5425 25.4846C91.121 28.5006 91.2064 35.1868 86.7066 38.3189L52.3029 62.2656C49.6327 64.1242 46.086 64.1175 43.4229 62.2489L9.29375 38.3017C4.82597 35.1668 4.91119 28.5192 9.45786 25.4999Z" fill="#B64EDF"/>
<path d="M51.5036 44.8805C50.5169 45.5353 49.3882 46.0674 48.1177 46.4769C46.8404 46.8821 45.444 47.0869 43.9285 47.0915C42.4062 47.0917 40.7843 46.8251 39.0629 46.2916C37.3346 45.7537 35.5228 44.8671 33.6275 43.6315C31.8536 42.4834 30.4586 41.3342 29.4425 40.1838C28.4264 39.0334 27.7895 37.9128 27.5317 36.8221C27.2672 35.727 27.3753 34.6839 27.8561 33.6929C28.3435 32.6973 29.2006 31.787 30.4272 30.962C31.7138 30.0965 33.11 29.4956 34.6159 29.1592C36.1285 28.8184 37.6366 28.7298 39.1402 28.8935C40.6371 29.0528 42.0153 29.4433 43.2748 30.065L39.625 32.52C38.6424 32.1305 37.6251 31.978 36.573 32.0625C35.5208 32.1382 34.5547 32.472 33.6748 33.0639C32.2548 34.019 31.7854 35.1582 32.2666 36.4815C32.7544 37.8003 34.0842 39.1669 36.2561 40.5815L36.3961 40.4873C36.1292 39.8834 36.0433 39.2691 36.1384 38.6443C36.2334 38.0195 36.4929 37.4132 36.9169 36.8253C37.3408 36.2286 37.9194 35.6836 38.6527 35.1904C39.8527 34.3832 41.2193 33.8467 42.7527 33.5809C44.2927 33.3106 45.8519 33.3167 47.4303 33.5993C49.002 33.8774 50.4388 34.4422 51.7406 35.2935C53.1097 36.1709 54.0272 37.1695 54.4931 38.2893C54.9523 39.4048 54.9389 40.5355 54.4527 41.6815C53.9666 42.8275 52.9836 43.8938 51.5036 44.8805ZM48.4484 42.9295C49.1751 42.4407 49.6463 41.8878 49.8621 41.2708C50.078 40.6538 50.0491 40.0368 49.7753 39.4197C49.5016 38.8026 48.9837 38.2518 48.2217 37.7674C47.4864 37.2827 46.6553 36.9559 45.7284 36.7871C44.8081 36.6139 43.8893 36.6043 42.9719 36.7584C42.0546 36.9126 41.2326 37.234 40.5059 37.7228C39.9659 38.086 39.5672 38.4923 39.3096 38.9415C39.0521 39.3907 38.9354 39.8519 38.9597 40.3252C38.9773 40.7941 39.1289 41.253 39.4145 41.7018C39.7001 42.1418 40.1127 42.5408 40.6523 42.8989C41.3807 43.3615 42.2117 43.6794 43.1454 43.8526C44.0791 44.0258 45.0147 44.0374 45.9522 43.8875C46.8897 43.7376 47.7218 43.4182 48.4484 42.9295ZM69.0735 33.062C67.5869 34.062 66.014 34.7862 64.3549 35.2345C62.7024 35.6784 61.1111 35.8363 59.581 35.7082C58.0508 35.5713 56.7292 35.1383 55.6162 34.4092C54.7395 33.8505 54.1269 33.2076 53.7785 32.4806C53.43 31.7535 53.3363 31.0154 53.4973 30.2661C53.6583 29.508 54.0713 28.8162 54.7363 28.1908L54.5947 28.0991C53.3054 28.6548 51.9091 28.8774 50.406 28.7668C48.9027 28.6473 47.5947 28.223 46.4817 27.4939C45.4094 26.8086 44.7517 25.9958 44.5086 25.0554C44.2656 24.115 44.4213 23.1423 44.9757 22.1373C45.5234 21.128 46.4605 20.1771 47.7871 19.2848C49.1004 18.4014 50.5132 17.7716 52.0254 17.3954C53.5376 17.0103 55.0085 16.8888 56.4381 17.031C57.8745 17.1688 59.1255 17.5825 60.1911 18.2723C61.3107 18.9969 61.9689 19.8584 62.1655 20.8567C62.362 21.8462 62.0617 22.7649 61.2644 23.6127L61.4061 23.7044C62.3409 23.2536 63.3745 22.9723 64.5069 22.8605C65.6391 22.7399 66.7595 22.7875 67.8679 23.0033C68.983 23.2147 69.9755 23.602 70.8456 24.1651C71.9652 24.8898 72.6402 25.7578 72.8704 26.7691C73.0939 27.776 72.8853 28.8289 72.2446 29.9275C71.6105 31.0217 70.5534 32.0666 69.0735 33.062ZM66.18 31.1893C66.9466 30.6736 67.4818 30.1401 67.7854 29.5887C68.0822 29.0329 68.1445 28.4925 67.9722 27.9674C67.7999 27.4423 67.4001 26.9724 66.7727 26.5576C66.1051 26.1342 65.3517 25.871 64.5125 25.7678C63.6732 25.6557 62.8219 25.6987 61.9586 25.8966C61.1019 26.09 60.3103 26.4311 59.5837 26.9199C58.8504 27.4132 58.3421 27.9465 58.0588 28.5198C57.7755 29.0932 57.7235 29.6578 57.9028 30.2138C58.082 30.7609 58.5054 31.2462 59.173 31.6695C59.8004 32.0843 60.5135 32.3435 61.3125 32.4471C62.1047 32.5463 62.919 32.4926 63.7554 32.2861C64.5985 32.075 65.4067 31.7094 66.18 31.1893ZM56.7408 25.0799C57.3674 24.6584 57.7926 24.2032 58.0162 23.7145C58.2466 23.2213 58.2724 22.7321 58.0938 22.2469C57.9151 21.7617 57.529 21.3226 56.9354 20.9296C56.3352 20.5499 55.6758 20.308 54.9574 20.2037C54.2321 20.0951 53.5048 20.1258 52.7753 20.296C52.0391 20.4618 51.3544 20.7578 50.7211 21.1837C50.0744 21.6187 49.6292 22.0829 49.3855 22.5762C49.1416 23.0607 49.109 23.5411 49.2876 24.0175C49.4661 24.4849 49.8554 24.9085 50.4556 25.2882C51.0493 25.6812 51.712 25.9342 52.444 26.0472C53.1759 26.1513 53.9167 26.1249 54.6664 25.9678C55.416 25.8018 56.1074 25.5059 56.7408 25.0799Z" fill="white"/>
<defs>
<linearGradient id="paint0_linear_91_5078" x1="5.78886" y1="54.8667" x2="90.5035" y2="54.8667" gradientUnits="userSpaceOnUse">
<stop offset="0.49037" stop-color="#9722CC"/>
<stop offset="0.528239" stop-color="#7F17B0"/>
</linearGradient>
</defs>
</svg>
