<svg width="97" height="86" viewBox="0 0 97 86" fill="none" xmlns="http://www.w3.org/2000/svg">
<path d="M82.367 25.1846H13.9263C9.64553 25.1846 6.17529 28.6548 6.17529 32.9356V53.5593C6.17529 56.1823 7.50188 58.6274 9.70084 60.0573L44.8738 82.9293C47.4981 84.6358 50.8914 84.5962 53.4752 82.8288L86.743 60.0733C88.8551 58.6286 90.118 56.2346 90.118 53.6757V32.9356C90.118 28.6548 86.6478 25.1846 82.367 25.1846Z" fill="url(#paint0_linear_91_5123)"/>
<path d="M9.45785 25.4999L43.5863 2.83607C46.1758 1.11642 49.5423 1.1102 52.1382 2.82027L86.5425 25.4846C91.1209 28.5006 91.2064 35.1868 86.7065 38.3189L52.3029 62.2656C49.6327 64.1242 46.086 64.1175 43.4229 62.2489L9.29375 38.3017C4.82597 35.1668 4.91119 28.5192 9.45785 25.4999Z" fill="#B64EDF"/>
<path d="M51.3536 44.9816C49.9136 45.9502 48.3841 46.6496 46.7651 47.0799C45.1527 47.5057 43.578 47.648 42.041 47.5067C40.5041 47.3654 39.1322 46.9306 37.9254 46.2023L41.6852 43.6733C42.2784 44.0132 42.9507 44.2064 43.7022 44.2528C44.4469 44.2949 45.2106 44.2041 45.9932 43.9803C46.7759 43.7565 47.5105 43.4137 48.1971 42.9519C48.9305 42.4586 49.4523 41.9384 49.7626 41.3914C50.0662 40.84 50.1453 40.3061 49.9999 39.7896C49.8545 39.2732 49.475 38.8207 48.8613 38.4323C48.2407 38.0219 47.5276 37.7715 46.7221 37.6813C45.9166 37.5911 45.0689 37.6672 44.1792 37.9096C43.2961 38.1475 42.4212 38.5579 41.5546 39.1409L39.7446 40.3583L36.8511 38.4856L38.6611 37.2681C39.3744 36.7883 39.8729 36.2883 40.1567 35.768C40.4471 35.2433 40.5197 34.7316 40.3744 34.2328C40.2224 33.7297 39.843 33.2861 39.236 32.9021C38.6559 32.5178 38.0167 32.2756 37.3184 32.1756C36.62 32.0668 35.9094 32.0952 35.1866 32.2609C34.4705 32.4221 33.7924 32.7179 33.1524 33.1484C32.5258 33.5699 32.0605 34.0343 31.7565 34.5414C31.4525 35.0486 31.3496 35.5495 31.4479 36.0443C31.5394 36.5346 31.8652 36.9743 32.4253 37.3632L28.8554 39.7644C27.722 38.9956 27.0335 38.1145 26.79 37.121C26.5464 36.1186 26.7117 35.0994 27.286 34.0633C27.8535 33.0227 28.8006 32.0563 30.1272 31.164C31.4938 30.2447 32.9401 29.6146 34.4661 29.2737C35.9919 28.9238 37.4666 28.8444 38.89 29.0354C40.3133 29.2263 41.5511 29.6623 42.6033 30.3433C43.7768 31.094 44.4148 31.9557 44.5173 32.9283C44.6265 33.8965 44.2491 34.8313 43.3853 35.7328L43.5472 35.8376C45.1895 35 46.8324 34.6071 48.4758 34.6589C50.1192 34.7019 51.585 35.1447 52.8733 35.9873C54.0334 36.7382 54.7455 37.6302 55.0095 38.6633C55.2734 39.6876 55.095 40.7512 54.4744 41.8542C53.8604 42.9526 52.8202 43.9951 51.3536 44.9816ZM69.5573 32.8838C67.9107 33.9913 66.0759 34.6691 64.0528 34.9172C62.0297 35.1563 59.9022 34.9716 57.6704 34.363C55.4385 33.7455 53.1928 32.7056 50.9334 31.2432C48.6805 29.7763 47.0749 28.3192 46.1166 26.8718C45.1581 25.4155 44.8474 24.0222 45.1843 22.6916C45.5279 21.3566 46.5197 20.1376 48.1596 19.0345C49.7995 17.9314 51.6276 17.2536 53.6439 17.0013C55.6602 16.7489 57.7776 16.927 59.996 17.5358C62.2211 18.14 64.46 19.1712 66.7127 20.6292C68.9789 22.096 70.598 23.5619 71.57 25.0268C72.5418 26.4829 72.8593 27.8807 72.5225 29.2201C72.1923 30.5549 71.2039 31.7762 69.5573 32.8838ZM66.3906 30.8342C67.6706 29.9732 68.0431 28.8814 67.5084 27.5586C66.9735 26.2269 65.4617 24.7557 62.9729 23.1448C61.3271 22.0797 59.7745 21.2991 58.3149 20.8031C56.8552 20.3072 55.5322 20.0843 54.3456 20.1347C53.1524 20.1806 52.1324 20.4884 51.2858 21.0579C50.0125 21.9143 49.6466 23.0061 50.1882 24.3333C50.7229 25.6561 52.2213 27.1186 54.6832 28.7209C56.329 29.7949 57.8817 30.5843 59.3414 31.0891C60.8078 31.5894 62.1376 31.8166 63.3309 31.7707C64.5174 31.7203 65.5373 31.4082 66.3906 30.8342Z" fill="white"/>
<defs>
<linearGradient id="paint0_linear_91_5123" x1="5.78935" y1="54.8665" x2="90.504" y2="54.8665" gradientUnits="userSpaceOnUse">
<stop offset="0.49037" stop-color="#9722CC"/>
<stop offset="0.528239" stop-color="#7F17B0"/>
</linearGradient>
</defs>
</svg>
