<svg width="97" height="86" viewBox="0 0 97 86" fill="none" xmlns="http://www.w3.org/2000/svg">
<path d="M82.3665 25.1848H13.9258C9.64504 25.1848 6.1748 28.6551 6.1748 32.9358V53.5596C6.1748 56.1826 7.50139 58.6276 9.70035 60.0575L44.8733 82.9295C47.4977 84.636 50.8909 84.5964 53.4747 82.8291L86.7425 60.0735C88.8546 58.6288 90.1175 56.2348 90.1175 53.676V32.9358C90.1175 28.655 86.6473 25.1848 82.3665 25.1848Z" fill="url(#paint0_linear_91_5163)"/>
<path d="M9.45785 25.4999L43.5863 2.83607C46.1758 1.11642 49.5423 1.1102 52.1382 2.82027L86.5425 25.4846C91.1209 28.5006 91.2064 35.1868 86.7065 38.3189L52.3029 62.2656C49.6327 64.1242 46.086 64.1175 43.4229 62.2489L9.29375 38.3017C4.82597 35.1668 4.91119 28.5192 9.45785 25.4999Z" fill="#B64EDF"/>
<path d="M32.8272 29.3177C33.8139 28.6629 34.9426 28.1351 36.2132 27.7345C37.4837 27.325 38.8767 27.1179 40.3923 27.1134C41.9011 27.1044 43.5162 27.3667 45.2377 27.9002C46.9592 28.4337 48.7642 29.3115 50.6527 30.5339C52.44 31.6818 53.8451 32.8376 54.868 34.0012C55.8908 35.156 56.5345 36.2809 56.799 37.376C57.0636 38.4711 56.9554 39.5142 56.4747 40.5052C55.9939 41.4963 55.1369 42.4066 53.9036 43.2362C52.6103 44.1061 51.2074 44.7115 49.6948 45.0523C48.1889 45.3887 46.6842 45.475 45.1806 45.3113C43.677 45.1477 42.2819 44.7418 40.9953 44.0939L44.6451 41.6388C45.6546 42.0458 46.6888 42.2137 47.7478 42.1424C48.8066 42.0622 49.776 41.7261 50.656 41.1342C52.0759 40.1791 52.5453 39.0399 52.0642 37.7166C51.5831 36.3933 50.233 35.0136 48.014 33.5774L47.874 33.6715C48.1408 34.2754 48.2301 34.8919 48.1418 35.5211C48.0468 36.1459 47.7839 36.7544 47.3532 37.3468C46.9293 37.9347 46.3506 38.4752 45.6173 38.9685C44.4174 39.7756 43.0474 40.3143 41.5074 40.5846C39.974 40.8504 38.4215 40.8443 36.8498 40.5661C35.2848 40.2835 33.8481 39.7232 32.5397 38.8851C31.1908 38.012 30.2867 37.0222 29.8276 35.9155C29.3684 34.8 29.3819 33.6693 29.868 32.5233C30.3474 31.373 31.3338 30.3044 32.8272 29.3177ZM35.8723 31.2754C35.1524 31.7597 34.6811 32.3126 34.4586 32.934C34.236 33.5467 34.2616 34.1616 34.5353 34.7786C34.8089 35.3869 35.3167 35.9311 36.0586 36.4113C36.8005 36.8827 37.6315 37.205 38.5518 37.3783C39.4787 37.547 40.3975 37.5566 41.3082 37.4069C42.2256 37.2528 43.0476 36.9313 43.7743 36.4426C44.3142 36.0793 44.713 35.6731 44.9706 35.2239C45.2281 34.7747 45.3447 34.3135 45.3204 33.8402C45.2961 33.3581 45.1411 32.897 44.8555 32.457C44.5766 32.0125 44.1675 31.6201 43.628 31.2797C42.9198 30.8214 42.0989 30.51 41.1653 30.3457C40.2383 30.1769 39.3061 30.1675 38.3686 30.3174C37.4377 30.4628 36.6056 30.7821 35.8723 31.2754ZM52.1204 16.714L72.8402 30.1246L69.1303 32.62L52.0628 21.5733L51.9428 21.654L50.2488 26.8796L46.809 24.6533L48.5905 19.0884L52.1204 16.714Z" fill="white"/>
<defs>
<linearGradient id="paint0_linear_91_5163" x1="5.78886" y1="54.8667" x2="90.5035" y2="54.8667" gradientUnits="userSpaceOnUse">
<stop offset="0.49037" stop-color="#9722CC"/>
<stop offset="0.528239" stop-color="#7F17B0"/>
</linearGradient>
</defs>
</svg>
