<svg width="42" height="42" viewBox="0 0 42 42" fill="none" xmlns="http://www.w3.org/2000/svg">
<g filter="url(#filter0_i_87_3152)">
<path d="M20.8811 6.10695L21.7036 11.3407H23.199L24.0214 7.15372V4.91065C24.1211 3.76421 23.9018 1.48626 22.227 1.54608C20.5522 1.60589 20.6319 4.61158 20.8811 6.10695Z" fill="#7CB64A"/>
</g>
<path d="M20.8811 6.10695L21.7036 11.3407H23.199L24.0214 7.15372V4.91065C24.1211 3.76421 23.9018 1.48626 22.227 1.54608C20.5522 1.60589 20.6319 4.61158 20.8811 6.10695Z" stroke="#441F09" stroke-width="0.598147"/>
<g filter="url(#filter1_i_87_3152)">
<path d="M25.5915 3.56447L22.9746 9.91978L22.3765 11.8638L24.3204 12.3871L28.4327 6.40566C29.2552 4.98507 30.5113 1.94947 28.9561 1.17188C27.4009 0.394288 26.065 2.44294 25.5915 3.56447Z" fill="#7CB64A"/>
</g>
<path d="M25.5915 3.56447L22.9746 9.91978L22.3765 11.8638L24.3204 12.3871L28.4327 6.40566C29.2552 4.98507 30.5113 1.94947 28.9561 1.17188C27.4009 0.394288 26.065 2.44294 25.5915 3.56447Z" stroke="#441F09" stroke-width="0.598147"/>
<g filter="url(#filter2_i_87_3152)">
<path d="M30.4515 9.69538L24.9186 13.4338L23.498 13.0599L24.6196 10.7421L28.8066 7.00372C29.5792 6.4305 31.2889 5.50836 31.9469 6.40558C32.6048 7.3028 31.2241 8.97262 30.4515 9.69538Z" fill="#7CB64A"/>
</g>
<path d="M30.4515 9.69538L24.9186 13.4338L23.498 13.0599L24.6196 10.7421L28.8066 7.00372C29.5792 6.4305 31.2889 5.50836 31.9469 6.40558C32.6048 7.3028 31.2241 8.97262 30.4515 9.69538Z" stroke="#441F09" stroke-width="0.598147"/>
<path d="M15.4232 35.9391L24.1711 25.0977C27.7001 20.3126 27.9344 17.1723 27.6104 16.2003C26.773 12.0731 22.6259 11.141 20.657 11.1908C17.1279 10.9516 15.1491 14.6302 14.6008 16.4994L10.9371 26.9669L8.24543 37.0607C7.22858 41.7262 9.61618 41.2975 10.9371 40.5L15.4232 35.9391Z" fill="#F8892D" stroke="#441F09" stroke-width="0.598147"/>
<path d="M16.9184 17.9203L15.3483 21.6587C14.9994 22.6058 13.9576 25.2326 12.5819 28.1635C11.2061 31.0945 12.0087 28.0888 12.5819 26.2196C13.2299 24.2756 14.7502 19.939 15.6474 18.1446C16.5446 16.3502 16.8686 17.2474 16.9184 17.9203Z" fill="#FECCA5"/>
<path d="M17.2174 14.6303C16.9782 15.707 17.8654 15.5275 18.339 15.3032C18.339 14.9294 18.6081 14.1518 19.6848 14.0322C20.7615 13.9126 20.8811 13.2346 20.8063 12.9106C20.5671 12.3723 19.6599 12.5368 19.2362 12.6863C18.663 12.8857 17.4567 13.5536 17.2174 14.6303Z" fill="#FFCCA5"/>
<path d="M22.0776 3.63914L21.8533 4.6859C21.5542 4.92516 21.5293 4.5862 21.5542 4.38682C21.4794 4.18744 21.4046 3.65409 21.7037 3.11576C22.0028 2.57743 22.0776 3.24037 22.0776 3.63914Z" fill="#C7E0A4"/>
<path d="M25.5481 22.9661C25.7267 22.7923 25.9053 22.6185 26.0839 22.4447C26.0223 22.3903 25.9585 22.3347 25.8943 22.2796C24.7388 21.3422 23.5661 20.3234 22.0996 19.95C22.0185 19.9382 21.9333 19.9327 21.8533 19.939C21.9333 19.9452 22.015 19.963 22.0915 19.9865C23.4392 20.5565 24.4277 21.7191 25.3932 22.7829C25.4462 22.8445 25.4984 22.9062 25.5481 22.9661Z" fill="black"/>
<path d="M18.8935 31.5644C19.0721 31.3906 19.2508 31.2168 19.4294 31.043C19.379 31.0001 19.3277 30.9571 19.2767 30.915C18.3529 30.1633 17.3634 29.4948 16.278 29.0533C16.2174 29.0296 16.1565 29.0069 16.0959 28.9858C16.1512 29.0182 16.2065 29.052 16.2611 29.0867C17.2311 29.7212 18.0497 30.5477 18.775 31.4178C18.8149 31.4663 18.8547 31.5155 18.8935 31.5644Z" fill="black"/>
<path d="M9.68394 31.4604C9.77166 31.2271 9.85938 30.9938 9.9471 30.7605C10.0066 30.7896 10.0665 30.8193 10.1255 30.8492C11.1842 31.3946 12.1931 32.0336 13.0322 32.8514C13.0783 32.8974 13.1235 32.9442 13.167 32.9912C13.1152 32.9535 13.0621 32.9164 13.0084 32.8803C12.0386 32.2455 10.9535 31.8264 9.86564 31.5102C9.80525 31.4932 9.74425 31.4764 9.68394 31.4604Z" fill="black"/>
<path d="M12.525 22.4882C12.6127 22.2549 12.7004 22.0217 12.7882 21.7884C12.8476 21.8174 12.9076 21.8471 12.9666 21.877C14.0253 22.4225 15.0341 23.0614 15.8733 23.8792C15.9193 23.9253 15.9645 23.972 16.0081 24.019C15.9562 23.9813 15.9031 23.9442 15.8495 23.9081C14.8796 23.2733 13.7945 22.8542 12.7067 22.5381C12.6463 22.521 12.5853 22.5042 12.525 22.4882Z" fill="black"/>
<path d="M14.7601 16.5147C14.7534 16.2655 14.7467 16.0164 14.74 15.7673C14.806 15.7717 14.8727 15.7767 14.9387 15.7821C16.1249 15.8882 17.3002 16.0998 18.3857 16.5409C18.4457 16.5662 18.5052 16.5925 18.5632 16.6196C18.501 16.6042 18.4379 16.5899 18.3746 16.5766C17.237 16.3543 16.0739 16.3751 14.9472 16.4924C14.8848 16.4993 14.822 16.5068 14.7601 16.5147Z" fill="#441F09"/>
<defs>
<filter id="filter0_i_87_3152" x="20.4463" y="1.24609" width="3.89429" height="10.3936" filterUnits="userSpaceOnUse" color-interpolation-filters="sRGB">
<feFlood flood-opacity="0" result="BackgroundImageFix"/>
<feBlend mode="normal" in="SourceGraphic" in2="BackgroundImageFix" result="shape"/>
<feColorMatrix in="SourceAlpha" type="matrix" values="0 0 0 0 0 0 0 0 0 0 0 0 0 0 0 0 0 0 127 0" result="hardAlpha"/>
<feOffset dx="-1.34583" dy="0.44861"/>
<feComposite in2="hardAlpha" operator="arithmetic" k2="-1" k3="1"/>
<feColorMatrix type="matrix" values="0 0 0 0 0.321569 0 0 0 0 0.619608 0 0 0 0 0.278431 0 0 0 1 0"/>
<feBlend mode="normal" in2="shape" result="effect1_innerShadow_87_3152"/>
</filter>
<filter id="filter1_i_87_3152" x="21.9995" y="0.700195" width="7.99463" height="12.0308" filterUnits="userSpaceOnUse" color-interpolation-filters="sRGB">
<feFlood flood-opacity="0" result="BackgroundImageFix"/>
<feBlend mode="normal" in="SourceGraphic" in2="BackgroundImageFix" result="shape"/>
<feColorMatrix in="SourceAlpha" type="matrix" values="0 0 0 0 0 0 0 0 0 0 0 0 0 0 0 0 0 0 127 0" result="hardAlpha"/>
<feOffset dx="-1.34583" dy="0.44861"/>
<feComposite in2="hardAlpha" operator="arithmetic" k2="-1" k3="1"/>
<feColorMatrix type="matrix" values="0 0 0 0 0.321569 0 0 0 0 0.619608 0 0 0 0 0.278431 0 0 0 1 0"/>
<feBlend mode="normal" in2="shape" result="effect1_innerShadow_87_3152"/>
</filter>
<filter id="filter2_i_87_3152" x="23.0706" y="5.73242" width="9.3479" height="8.0249" filterUnits="userSpaceOnUse" color-interpolation-filters="sRGB">
<feFlood flood-opacity="0" result="BackgroundImageFix"/>
<feBlend mode="normal" in="SourceGraphic" in2="BackgroundImageFix" result="shape"/>
<feColorMatrix in="SourceAlpha" type="matrix" values="0 0 0 0 0 0 0 0 0 0 0 0 0 0 0 0 0 0 127 0" result="hardAlpha"/>
<feOffset dx="-1.34583" dy="0.44861"/>
<feComposite in2="hardAlpha" operator="arithmetic" k2="-1" k3="1"/>
<feColorMatrix type="matrix" values="0 0 0 0 0.321569 0 0 0 0 0.619608 0 0 0 0 0.278431 0 0 0 1 0"/>
<feBlend mode="normal" in2="shape" result="effect1_innerShadow_87_3152"/>
</filter>
</defs>
</svg>
