<svg width="42" height="42" viewBox="0 0 42 42" fill="none" xmlns="http://www.w3.org/2000/svg">
<path d="M23.0835 4.4101C21.214 4.87901 22.0322 7.02499 22.6833 8.05004C22.5433 8.12005 22.2212 8.54573 22.0532 9.68832C21.8921 10.7838 22.8766 11.5292 23.4517 11.7986C23.4919 11.8174 23.5389 11.7997 23.5587 11.76L24.0247 10.8281C24.0481 10.7814 24.108 10.7671 24.1499 10.7982L25.5267 11.821C25.5353 11.8274 25.5447 11.832 25.5551 11.8347C26.3582 12.0444 27.9342 12.3315 27.9342 11.8307C27.9342 11.368 26.8491 10.1859 26.1727 9.51839C26.1162 9.46266 26.1607 9.36608 26.2398 9.37295L27.9242 9.51943C27.9308 9.52 27.9375 9.5198 27.944 9.51879C29.2468 9.31874 30.3113 8.23679 30.7158 7.67635C30.736 7.64842 30.736 7.61076 30.7162 7.58252C29.7217 6.16049 27.5641 6.13888 26.3373 6.3449C26.2507 6.35946 26.1901 6.24019 26.2517 6.17761C27.0219 5.39625 27.4837 4.35558 27.6531 3.82003C27.669 3.76983 27.6328 3.71894 27.5803 3.71519C25.4898 3.56558 24.1972 4.5539 23.7289 5.16562C23.6907 5.21553 23.6124 5.21269 23.5812 5.15812L23.1761 4.4493C23.1578 4.41728 23.1193 4.40113 23.0835 4.4101Z" fill="#7ECC1E"/>
<path d="M16.2504 2.91368C16.0817 2.75448 15.8158 2.76222 15.6566 2.93098C15.4974 3.09973 15.5051 3.36559 15.6739 3.52479L15.9622 3.21924L16.2504 2.91368ZM22.2549 8.26233L22.3641 8.66794L22.3641 8.66794L22.2549 8.26233ZM22.6833 8.05004L22.8711 8.42577L23.2874 8.21765L23.0379 7.82483L22.6833 8.05004ZM23.0835 4.4101L23.1857 4.81755H23.1857L23.0835 4.4101ZM23.1761 4.4493L23.5409 4.24089L23.5409 4.24089L23.1761 4.4493ZM23.5812 5.15812L23.9459 4.9497L23.9459 4.9497L23.5812 5.15812ZM23.7289 5.16562L23.3953 4.91029L23.3953 4.91029L23.7289 5.16562ZM27.5803 3.71519L27.5503 4.13418H27.5503L27.5803 3.71519ZM27.6531 3.82003L28.0536 3.9467L28.0536 3.94669L27.6531 3.82003ZM26.2517 6.17761L26.5509 6.4725L26.5509 6.47249L26.2517 6.17761ZM26.3373 6.3449L26.2677 5.93063V5.93063L26.3373 6.3449ZM30.7162 7.58252L30.372 7.82327L30.372 7.82327L30.7162 7.58252ZM30.7158 7.67635L31.0564 7.9222L31.0564 7.9222L30.7158 7.67635ZM27.944 9.51879L27.8802 9.10359L27.8802 9.10359L27.944 9.51879ZM27.9242 9.51943L27.8879 9.93792L27.8879 9.93792L27.9242 9.51943ZM26.2398 9.37295L26.2034 9.79144V9.79144L26.2398 9.37295ZM26.1727 9.51839L25.8776 9.81737V9.81737L26.1727 9.51839ZM25.5551 11.8347L25.6612 11.4283L25.6612 11.4283L25.5551 11.8347ZM25.5267 11.821L25.7772 11.4838L25.7772 11.4838L25.5267 11.821ZM24.1499 10.7982L24.4004 10.461L24.4004 10.461L24.1499 10.7982ZM24.0247 10.8281L24.4004 11.016L24.4004 11.016L24.0247 10.8281ZM23.4517 11.7986L23.2735 12.179L23.2735 12.179L23.4517 11.7986ZM22.0532 9.68832L22.4688 9.74943V9.74943L22.0532 9.68832ZM21.003 13.553L21.412 13.4571C21.0085 11.7354 19.9901 8.89547 18.7314 6.4888L18.3591 6.68348L17.9869 6.87816C19.2154 9.22697 20.2077 12.0007 20.594 13.6488L21.003 13.553ZM18.3591 6.68348L18.7314 6.4888C17.9842 5.06012 17.133 3.74632 16.2504 2.91368L15.9622 3.21924L15.6739 3.52479C16.4534 4.2602 17.2527 5.4744 17.9869 6.87816L18.3591 6.68348ZM18.0773 6.15973L17.7048 6.35395C17.8024 6.54101 17.8979 6.71975 17.9928 6.88895L18.3591 6.68348L18.7255 6.47801C18.6363 6.31885 18.5451 6.14823 18.4498 5.96551L18.0773 6.15973ZM18.3591 6.68348L17.9928 6.88895C18.4394 7.68546 18.9063 8.33677 19.6175 8.67053C20.3353 9.00736 21.2079 8.97939 22.3641 8.66794L22.2549 8.26233L22.1456 7.85671C21.056 8.15023 20.4223 8.12015 19.9744 7.90997C19.52 7.69672 19.1619 7.25612 18.7255 6.47801L18.3591 6.68348ZM22.2707 8.25631L22.4586 8.63204L22.8711 8.42577L22.6833 8.05004L22.4954 7.67432L22.0829 7.88059L22.2707 8.25631ZM22.6833 8.05004L23.0379 7.82483C22.7301 7.34029 22.4023 6.61626 22.3572 5.99125C22.335 5.6845 22.3834 5.4378 22.4975 5.2543C22.6058 5.08002 22.8039 4.91333 23.1857 4.81755L23.0835 4.4101L22.9814 4.00265C22.4284 4.14133 22.0277 4.41872 21.784 4.81073C21.546 5.19351 21.4891 5.63529 21.5192 6.05178C21.5786 6.87326 21.9854 7.73475 22.3287 8.27526L22.6833 8.05004ZM23.1761 4.4493L22.8114 4.65771L23.2165 5.36653L23.5812 5.15812L23.9459 4.9497L23.5409 4.24089L23.1761 4.4493ZM23.7289 5.16562L24.0625 5.42095C24.4525 4.91135 25.6131 3.99555 27.5503 4.13418L27.5803 3.71519L27.6103 3.29619C25.3666 3.13561 23.9418 4.19645 23.3953 4.91029L23.7289 5.16562ZM27.6531 3.82003L27.2526 3.69337C27.0956 4.18987 26.6611 5.16393 25.9526 5.88273L26.2517 6.17761L26.5509 6.47249C27.3827 5.62857 27.8719 4.52129 28.0536 3.9467L27.6531 3.82003ZM26.3373 6.3449L26.4069 6.75917C26.9853 6.66203 27.7791 6.62017 28.5344 6.76568C29.291 6.91144 29.9601 7.23437 30.372 7.82327L30.7162 7.58252L31.0605 7.34178C30.4778 6.50865 29.5709 6.10976 28.6934 5.94071C27.8146 5.77141 26.9161 5.82175 26.2677 5.93063L26.3373 6.3449ZM30.7158 7.67635L30.3752 7.43051C30.1956 7.67935 29.8568 8.05964 29.4121 8.39864C28.9664 8.73841 28.4392 9.01776 27.8802 9.10359L27.944 9.51879L28.0078 9.934C28.7516 9.81978 29.4081 9.45813 29.9214 9.0668C30.4358 8.6747 30.8315 8.2338 31.0564 7.9222L30.7158 7.67635ZM27.9242 9.51943L27.9606 9.10094L26.2762 8.95446L26.2398 9.37295L26.2034 9.79144L27.8879 9.93792L27.9242 9.51943ZM26.1727 9.51839L25.8776 9.81737C26.2097 10.1451 26.6386 10.5959 26.9814 11.0167C27.1534 11.2278 27.2964 11.4226 27.3943 11.5849C27.4431 11.666 27.4761 11.7315 27.4959 11.7811C27.5174 11.8352 27.5141 11.8479 27.5141 11.8307H27.9342H28.3542C28.3542 11.6977 28.317 11.5723 28.2765 11.4706C28.2343 11.3645 28.1772 11.2564 28.1138 11.1512C27.9871 10.9409 27.8166 10.7117 27.6328 10.4861C27.2639 10.0333 26.8121 9.5592 26.4678 9.21942L26.1727 9.51839ZM27.9342 11.8307H27.5141C27.5141 11.7664 27.5461 11.7046 27.5859 11.6692C27.6117 11.6462 27.6197 11.653 27.5731 11.6647C27.4793 11.6882 27.3114 11.697 27.0758 11.6802C26.6175 11.6474 26.0504 11.5299 25.6612 11.4283L25.5551 11.8347L25.449 12.2411C25.8628 12.3492 26.4853 12.4802 27.0158 12.5182C27.2746 12.5367 27.5509 12.5365 27.7776 12.4795C27.8913 12.451 28.0287 12.3996 28.1438 12.2973C28.273 12.1826 28.3542 12.0202 28.3542 11.8307H27.9342ZM25.5267 11.821L25.7772 11.4838L24.4004 10.461L24.1499 10.7982L23.8994 11.1355L25.2762 12.1582L25.5267 11.821ZM24.0247 10.8281L23.649 10.6403L23.183 11.5722L23.5587 11.76L23.9345 11.9479L24.4004 11.016L24.0247 10.8281ZM23.4517 11.7986L23.6299 11.4182C23.3843 11.3032 23.0487 11.0835 22.7989 10.7841C22.5537 10.4903 22.4104 10.1464 22.4688 9.74943L22.0532 9.68832L21.6376 9.6272C21.5348 10.3258 21.8032 10.9023 22.1538 11.3224C22.4998 11.737 22.944 12.0247 23.2735 12.179L23.4517 11.7986ZM22.0532 9.68832L22.4688 9.74943C22.5485 9.20701 22.662 8.85569 22.7602 8.64293C22.8093 8.53647 22.8522 8.46982 22.8811 8.43256C22.9159 8.38782 22.9163 8.40319 22.8711 8.42577L22.6833 8.05004L22.4954 7.67432C22.3802 7.73191 22.2879 7.82673 22.2176 7.91721C22.1415 8.01516 22.0672 8.13946 21.9973 8.29099C21.8574 8.59422 21.7258 9.02704 21.6376 9.6272L22.0532 9.68832ZM23.5587 11.76L23.183 11.5722C23.2596 11.4191 23.4529 11.3353 23.6299 11.4182L23.4517 11.7986L23.2735 12.179C23.5309 12.2996 23.8182 12.1804 23.9345 11.9479L23.5587 11.76ZM25.5551 11.8347L25.6612 11.4283C25.7051 11.4397 25.7444 11.4594 25.7772 11.4838L25.5267 11.821L25.2762 12.1582C25.3262 12.1954 25.3843 12.2243 25.449 12.2411L25.5551 11.8347ZM26.2398 9.37295L26.2762 8.95446C25.804 8.9134 25.542 9.48609 25.8776 9.81737L26.1727 9.51839L26.4678 9.21942C26.6905 9.43923 26.5175 9.81876 26.2034 9.79144L26.2398 9.37295ZM27.944 9.51879L27.8802 9.10359C27.9075 9.09941 27.9344 9.09866 27.9606 9.10093L27.9242 9.51943L27.8879 9.93792C27.9272 9.94134 27.9675 9.94018 28.0078 9.934L27.944 9.51879ZM30.7162 7.58252L30.372 7.82327C30.2911 7.70757 30.289 7.54996 30.3752 7.43051L30.7158 7.67635L31.0564 7.9222C31.183 7.74688 31.1809 7.51395 31.0605 7.34178L30.7162 7.58252ZM27.5803 3.71519L27.5503 4.13418C27.3447 4.11947 27.1828 3.91407 27.2526 3.69338L27.6531 3.82003L28.0536 3.94669C28.1552 3.62559 27.9209 3.31842 27.6103 3.29619L27.5803 3.71519ZM23.5812 5.15812L23.2164 5.36653C23.4073 5.70057 23.8549 5.69208 24.0625 5.42095L23.7289 5.16562L23.3953 4.91029C23.5265 4.73897 23.8174 4.72481 23.9459 4.9497L23.5812 5.15812ZM23.0835 4.4101L23.1857 4.81755C23.0412 4.8538 22.8878 4.79131 22.8114 4.65772L23.1761 4.4493L23.5409 4.24089C23.4279 4.04326 23.1974 3.94846 22.9814 4.00265L23.0835 4.4101ZM26.2517 6.17761L25.9526 5.88273C25.7622 6.07585 25.7874 6.32955 25.8647 6.48109C25.9422 6.63299 26.1354 6.80476 26.4069 6.75917L26.3373 6.3449L26.2677 5.93063C26.4526 5.89959 26.5721 6.01901 26.6131 6.09928C26.6538 6.17918 26.6796 6.34195 26.5509 6.4725L26.2517 6.17761ZM24.1499 10.7982L24.4004 10.461C24.1487 10.2741 23.7892 10.3598 23.649 10.6403L24.0247 10.8281L24.4004 11.016C24.3069 11.2029 24.0672 11.2601 23.8994 11.1355L24.1499 10.7982ZM22.2549 8.26233L22.3641 8.66794C22.3958 8.6594 22.4277 8.64749 22.4586 8.63204L22.2707 8.25631L22.0829 7.88059C22.1038 7.87014 22.1247 7.86234 22.1456 7.85672L22.2549 8.26233Z" fill="black"/>
<g filter="url(#filter0_ii_87_3014)">
<ellipse cx="21.003" cy="35.8166" rx="3.5706" ry="3.40257" fill="#B74EDE"/>
</g>
<g filter="url(#filter1_ii_87_3014)">
<ellipse cx="23.4392" cy="30.8596" rx="3.5706" ry="3.40257" fill="#B74EDE"/>
</g>
<g filter="url(#filter2_ii_87_3014)">
<ellipse cx="18.0625" cy="31.448" rx="3.5706" ry="3.40257" fill="#B74EDE"/>
</g>
<g filter="url(#filter3_ii_87_3014)">
<ellipse cx="15.1219" cy="26.407" rx="3.5706" ry="3.40257" fill="#B74EDE"/>
</g>
<g filter="url(#filter4_ii_87_3014)">
<ellipse cx="20.4988" cy="26.407" rx="3.5706" ry="3.40257" fill="#B74EDE"/>
</g>
<g filter="url(#filter5_ii_87_3014)">
<ellipse cx="25.8758" cy="25.4826" rx="3.5706" ry="3.40257" fill="#B74EDE"/>
</g>
<g filter="url(#filter6_ii_87_3014)">
<ellipse cx="28.312" cy="20.1062" rx="3.5706" ry="3.40257" fill="#B74EDE"/>
</g>
<g filter="url(#filter7_ii_87_3014)">
<ellipse cx="24.1114" cy="20.7781" rx="3.5706" ry="3.40257" fill="#B74EDE"/>
</g>
<g filter="url(#filter8_ii_87_3014)">
<ellipse cx="18.7347" cy="21.114" rx="3.5706" ry="3.40257" fill="#B74EDE"/>
</g>
<g filter="url(#filter9_ii_87_3014)">
<ellipse cx="13.6936" cy="20.6101" rx="3.5706" ry="3.40257" fill="#B74EDE"/>
</g>
<g filter="url(#filter10_ii_87_3014)">
<ellipse cx="15.2378" cy="15.7468" rx="3.5706" ry="3.40257" fill="#B74EDE"/>
</g>
<g filter="url(#filter11_ii_87_3014)">
<ellipse cx="25.4556" cy="17.1653" rx="3.5706" ry="3.40257" fill="#B74EDE"/>
</g>
<g filter="url(#filter12_ii_87_3014)">
<ellipse cx="19.9107" cy="16.1574" rx="3.5706" ry="3.40257" fill="#B74EDE"/>
</g>
<path d="M26.7795 4.61996C26.727 4.64344 26.6728 4.66899 26.6198 4.69484C25.6874 5.17959 24.7353 5.76758 24.2083 6.74645C24.1817 6.80157 24.1573 6.85867 24.1363 6.91641C24.1893 6.93442 24.2423 6.95243 24.2954 6.97044C24.3119 6.91746 24.3316 6.86435 24.3536 6.81249C24.7967 5.87666 25.7178 5.22487 26.6237 4.7023C26.6753 4.674 26.7283 4.64596 26.7795 4.61996Z" fill="#579E00"/>
<path d="M29.5335 7.61207C29.4805 7.6344 29.4248 7.65665 29.3698 7.67774C28.3793 8.02889 27.2998 8.32394 26.2246 8.0415C26.1662 8.02335 26.1078 8.00222 26.0512 7.97825C26.0742 7.92718 26.0972 7.87612 26.1202 7.82505C26.1702 7.84913 26.2225 7.87093 26.2755 7.89019C27.262 8.20463 28.3669 7.97575 29.367 7.66983C29.4229 7.6514 29.4795 7.6318 29.5335 7.61207Z" fill="#579E00"/>
<path d="M26.347 11.5784C26.3048 11.5394 26.2615 11.4979 26.2195 11.4565C25.4902 10.6999 24.7752 9.83909 24.5877 8.74332C24.58 8.6826 24.5751 8.6207 24.5735 8.55926C24.6295 8.55909 24.6856 8.55892 24.7416 8.55875C24.7403 8.61423 24.7421 8.67086 24.7465 8.72704C24.8681 9.75527 25.5335 10.6666 26.2256 11.4507C26.2655 11.4939 26.3067 11.5374 26.347 11.5784Z" fill="#579E00"/>
<defs>
<filter id="filter0_ii_87_3014" x="17.4324" y="32.4141" width="7.14111" height="6.80518" filterUnits="userSpaceOnUse" color-interpolation-filters="sRGB">
<feFlood flood-opacity="0" result="BackgroundImageFix"/>
<feBlend mode="normal" in="SourceGraphic" in2="BackgroundImageFix" result="shape"/>
<feColorMatrix in="SourceAlpha" type="matrix" values="0 0 0 0 0 0 0 0 0 0 0 0 0 0 0 0 0 0 127 0" result="hardAlpha"/>
<feOffset dy="-4.03267"/>
<feComposite in2="hardAlpha" operator="arithmetic" k2="-1" k3="1"/>
<feColorMatrix type="matrix" values="0 0 0 0 0.592157 0 0 0 0 0.137255 0 0 0 0 0.8 0 0 0 1 0"/>
<feBlend mode="normal" in2="shape" result="effect1_innerShadow_87_3014"/>
<feColorMatrix in="SourceAlpha" type="matrix" values="0 0 0 0 0 0 0 0 0 0 0 0 0 0 0 0 0 0 127 0" result="hardAlpha"/>
<feOffset dy="-1.68028"/>
<feComposite in2="hardAlpha" operator="arithmetic" k2="-1" k3="1"/>
<feColorMatrix type="matrix" values="0 0 0 0 0.498039 0 0 0 0 0.0862745 0 0 0 0 0.690196 0 0 0 1 0"/>
<feBlend mode="normal" in2="effect1_innerShadow_87_3014" result="effect2_innerShadow_87_3014"/>
</filter>
<filter id="filter1_ii_87_3014" x="19.8687" y="27.457" width="7.14111" height="6.80518" filterUnits="userSpaceOnUse" color-interpolation-filters="sRGB">
<feFlood flood-opacity="0" result="BackgroundImageFix"/>
<feBlend mode="normal" in="SourceGraphic" in2="BackgroundImageFix" result="shape"/>
<feColorMatrix in="SourceAlpha" type="matrix" values="0 0 0 0 0 0 0 0 0 0 0 0 0 0 0 0 0 0 127 0" result="hardAlpha"/>
<feOffset dy="-4.03267"/>
<feComposite in2="hardAlpha" operator="arithmetic" k2="-1" k3="1"/>
<feColorMatrix type="matrix" values="0 0 0 0 0.592157 0 0 0 0 0.137255 0 0 0 0 0.8 0 0 0 1 0"/>
<feBlend mode="normal" in2="shape" result="effect1_innerShadow_87_3014"/>
<feColorMatrix in="SourceAlpha" type="matrix" values="0 0 0 0 0 0 0 0 0 0 0 0 0 0 0 0 0 0 127 0" result="hardAlpha"/>
<feOffset dy="-1.68028"/>
<feComposite in2="hardAlpha" operator="arithmetic" k2="-1" k3="1"/>
<feColorMatrix type="matrix" values="0 0 0 0 0.498039 0 0 0 0 0.0862745 0 0 0 0 0.690196 0 0 0 1 0"/>
<feBlend mode="normal" in2="effect1_innerShadow_87_3014" result="effect2_innerShadow_87_3014"/>
</filter>
<filter id="filter2_ii_87_3014" x="14.4919" y="28.0454" width="7.14111" height="6.80518" filterUnits="userSpaceOnUse" color-interpolation-filters="sRGB">
<feFlood flood-opacity="0" result="BackgroundImageFix"/>
<feBlend mode="normal" in="SourceGraphic" in2="BackgroundImageFix" result="shape"/>
<feColorMatrix in="SourceAlpha" type="matrix" values="0 0 0 0 0 0 0 0 0 0 0 0 0 0 0 0 0 0 127 0" result="hardAlpha"/>
<feOffset dy="-4.03267"/>
<feComposite in2="hardAlpha" operator="arithmetic" k2="-1" k3="1"/>
<feColorMatrix type="matrix" values="0 0 0 0 0.592157 0 0 0 0 0.137255 0 0 0 0 0.8 0 0 0 1 0"/>
<feBlend mode="normal" in2="shape" result="effect1_innerShadow_87_3014"/>
<feColorMatrix in="SourceAlpha" type="matrix" values="0 0 0 0 0 0 0 0 0 0 0 0 0 0 0 0 0 0 127 0" result="hardAlpha"/>
<feOffset dy="-1.68028"/>
<feComposite in2="hardAlpha" operator="arithmetic" k2="-1" k3="1"/>
<feColorMatrix type="matrix" values="0 0 0 0 0.498039 0 0 0 0 0.0862745 0 0 0 0 0.690196 0 0 0 1 0"/>
<feBlend mode="normal" in2="effect1_innerShadow_87_3014" result="effect2_innerShadow_87_3014"/>
</filter>
<filter id="filter3_ii_87_3014" x="11.5513" y="23.0044" width="7.14111" height="6.80518" filterUnits="userSpaceOnUse" color-interpolation-filters="sRGB">
<feFlood flood-opacity="0" result="BackgroundImageFix"/>
<feBlend mode="normal" in="SourceGraphic" in2="BackgroundImageFix" result="shape"/>
<feColorMatrix in="SourceAlpha" type="matrix" values="0 0 0 0 0 0 0 0 0 0 0 0 0 0 0 0 0 0 127 0" result="hardAlpha"/>
<feOffset dy="-4.03267"/>
<feComposite in2="hardAlpha" operator="arithmetic" k2="-1" k3="1"/>
<feColorMatrix type="matrix" values="0 0 0 0 0.592157 0 0 0 0 0.137255 0 0 0 0 0.8 0 0 0 1 0"/>
<feBlend mode="normal" in2="shape" result="effect1_innerShadow_87_3014"/>
<feColorMatrix in="SourceAlpha" type="matrix" values="0 0 0 0 0 0 0 0 0 0 0 0 0 0 0 0 0 0 127 0" result="hardAlpha"/>
<feOffset dy="-1.68028"/>
<feComposite in2="hardAlpha" operator="arithmetic" k2="-1" k3="1"/>
<feColorMatrix type="matrix" values="0 0 0 0 0.498039 0 0 0 0 0.0862745 0 0 0 0 0.690196 0 0 0 1 0"/>
<feBlend mode="normal" in2="effect1_innerShadow_87_3014" result="effect2_innerShadow_87_3014"/>
</filter>
<filter id="filter4_ii_87_3014" x="16.9282" y="23.0044" width="7.14111" height="6.80518" filterUnits="userSpaceOnUse" color-interpolation-filters="sRGB">
<feFlood flood-opacity="0" result="BackgroundImageFix"/>
<feBlend mode="normal" in="SourceGraphic" in2="BackgroundImageFix" result="shape"/>
<feColorMatrix in="SourceAlpha" type="matrix" values="0 0 0 0 0 0 0 0 0 0 0 0 0 0 0 0 0 0 127 0" result="hardAlpha"/>
<feOffset dy="-4.03267"/>
<feComposite in2="hardAlpha" operator="arithmetic" k2="-1" k3="1"/>
<feColorMatrix type="matrix" values="0 0 0 0 0.592157 0 0 0 0 0.137255 0 0 0 0 0.8 0 0 0 1 0"/>
<feBlend mode="normal" in2="shape" result="effect1_innerShadow_87_3014"/>
<feColorMatrix in="SourceAlpha" type="matrix" values="0 0 0 0 0 0 0 0 0 0 0 0 0 0 0 0 0 0 127 0" result="hardAlpha"/>
<feOffset dy="-1.68028"/>
<feComposite in2="hardAlpha" operator="arithmetic" k2="-1" k3="1"/>
<feColorMatrix type="matrix" values="0 0 0 0 0.498039 0 0 0 0 0.0862745 0 0 0 0 0.690196 0 0 0 1 0"/>
<feBlend mode="normal" in2="effect1_innerShadow_87_3014" result="effect2_innerShadow_87_3014"/>
</filter>
<filter id="filter5_ii_87_3014" x="22.3052" y="22.0801" width="7.14111" height="6.80518" filterUnits="userSpaceOnUse" color-interpolation-filters="sRGB">
<feFlood flood-opacity="0" result="BackgroundImageFix"/>
<feBlend mode="normal" in="SourceGraphic" in2="BackgroundImageFix" result="shape"/>
<feColorMatrix in="SourceAlpha" type="matrix" values="0 0 0 0 0 0 0 0 0 0 0 0 0 0 0 0 0 0 127 0" result="hardAlpha"/>
<feOffset dy="-4.03267"/>
<feComposite in2="hardAlpha" operator="arithmetic" k2="-1" k3="1"/>
<feColorMatrix type="matrix" values="0 0 0 0 0.592157 0 0 0 0 0.137255 0 0 0 0 0.8 0 0 0 1 0"/>
<feBlend mode="normal" in2="shape" result="effect1_innerShadow_87_3014"/>
<feColorMatrix in="SourceAlpha" type="matrix" values="0 0 0 0 0 0 0 0 0 0 0 0 0 0 0 0 0 0 127 0" result="hardAlpha"/>
<feOffset dy="-1.68028"/>
<feComposite in2="hardAlpha" operator="arithmetic" k2="-1" k3="1"/>
<feColorMatrix type="matrix" values="0 0 0 0 0.498039 0 0 0 0 0.0862745 0 0 0 0 0.690196 0 0 0 1 0"/>
<feBlend mode="normal" in2="effect1_innerShadow_87_3014" result="effect2_innerShadow_87_3014"/>
</filter>
<filter id="filter6_ii_87_3014" x="24.7415" y="16.7036" width="7.14111" height="6.80518" filterUnits="userSpaceOnUse" color-interpolation-filters="sRGB">
<feFlood flood-opacity="0" result="BackgroundImageFix"/>
<feBlend mode="normal" in="SourceGraphic" in2="BackgroundImageFix" result="shape"/>
<feColorMatrix in="SourceAlpha" type="matrix" values="0 0 0 0 0 0 0 0 0 0 0 0 0 0 0 0 0 0 127 0" result="hardAlpha"/>
<feOffset dy="-4.03267"/>
<feComposite in2="hardAlpha" operator="arithmetic" k2="-1" k3="1"/>
<feColorMatrix type="matrix" values="0 0 0 0 0.592157 0 0 0 0 0.137255 0 0 0 0 0.8 0 0 0 1 0"/>
<feBlend mode="normal" in2="shape" result="effect1_innerShadow_87_3014"/>
<feColorMatrix in="SourceAlpha" type="matrix" values="0 0 0 0 0 0 0 0 0 0 0 0 0 0 0 0 0 0 127 0" result="hardAlpha"/>
<feOffset dy="-1.68028"/>
<feComposite in2="hardAlpha" operator="arithmetic" k2="-1" k3="1"/>
<feColorMatrix type="matrix" values="0 0 0 0 0.498039 0 0 0 0 0.0862745 0 0 0 0 0.690196 0 0 0 1 0"/>
<feBlend mode="normal" in2="effect1_innerShadow_87_3014" result="effect2_innerShadow_87_3014"/>
</filter>
<filter id="filter7_ii_87_3014" x="20.5408" y="17.3755" width="7.14111" height="6.80518" filterUnits="userSpaceOnUse" color-interpolation-filters="sRGB">
<feFlood flood-opacity="0" result="BackgroundImageFix"/>
<feBlend mode="normal" in="SourceGraphic" in2="BackgroundImageFix" result="shape"/>
<feColorMatrix in="SourceAlpha" type="matrix" values="0 0 0 0 0 0 0 0 0 0 0 0 0 0 0 0 0 0 127 0" result="hardAlpha"/>
<feOffset dy="-4.03267"/>
<feComposite in2="hardAlpha" operator="arithmetic" k2="-1" k3="1"/>
<feColorMatrix type="matrix" values="0 0 0 0 0.592157 0 0 0 0 0.137255 0 0 0 0 0.8 0 0 0 1 0"/>
<feBlend mode="normal" in2="shape" result="effect1_innerShadow_87_3014"/>
<feColorMatrix in="SourceAlpha" type="matrix" values="0 0 0 0 0 0 0 0 0 0 0 0 0 0 0 0 0 0 127 0" result="hardAlpha"/>
<feOffset dy="-1.68028"/>
<feComposite in2="hardAlpha" operator="arithmetic" k2="-1" k3="1"/>
<feColorMatrix type="matrix" values="0 0 0 0 0.498039 0 0 0 0 0.0862745 0 0 0 0 0.690196 0 0 0 1 0"/>
<feBlend mode="normal" in2="effect1_innerShadow_87_3014" result="effect2_innerShadow_87_3014"/>
</filter>
<filter id="filter8_ii_87_3014" x="15.1641" y="17.7114" width="7.14111" height="6.80518" filterUnits="userSpaceOnUse" color-interpolation-filters="sRGB">
<feFlood flood-opacity="0" result="BackgroundImageFix"/>
<feBlend mode="normal" in="SourceGraphic" in2="BackgroundImageFix" result="shape"/>
<feColorMatrix in="SourceAlpha" type="matrix" values="0 0 0 0 0 0 0 0 0 0 0 0 0 0 0 0 0 0 127 0" result="hardAlpha"/>
<feOffset dy="-4.03267"/>
<feComposite in2="hardAlpha" operator="arithmetic" k2="-1" k3="1"/>
<feColorMatrix type="matrix" values="0 0 0 0 0.592157 0 0 0 0 0.137255 0 0 0 0 0.8 0 0 0 1 0"/>
<feBlend mode="normal" in2="shape" result="effect1_innerShadow_87_3014"/>
<feColorMatrix in="SourceAlpha" type="matrix" values="0 0 0 0 0 0 0 0 0 0 0 0 0 0 0 0 0 0 127 0" result="hardAlpha"/>
<feOffset dy="-1.68028"/>
<feComposite in2="hardAlpha" operator="arithmetic" k2="-1" k3="1"/>
<feColorMatrix type="matrix" values="0 0 0 0 0.498039 0 0 0 0 0.0862745 0 0 0 0 0.690196 0 0 0 1 0"/>
<feBlend mode="normal" in2="effect1_innerShadow_87_3014" result="effect2_innerShadow_87_3014"/>
</filter>
<filter id="filter9_ii_87_3014" x="10.123" y="17.2075" width="7.14111" height="6.80518" filterUnits="userSpaceOnUse" color-interpolation-filters="sRGB">
<feFlood flood-opacity="0" result="BackgroundImageFix"/>
<feBlend mode="normal" in="SourceGraphic" in2="BackgroundImageFix" result="shape"/>
<feColorMatrix in="SourceAlpha" type="matrix" values="0 0 0 0 0 0 0 0 0 0 0 0 0 0 0 0 0 0 127 0" result="hardAlpha"/>
<feOffset dy="-4.03267"/>
<feComposite in2="hardAlpha" operator="arithmetic" k2="-1" k3="1"/>
<feColorMatrix type="matrix" values="0 0 0 0 0.592157 0 0 0 0 0.137255 0 0 0 0 0.8 0 0 0 1 0"/>
<feBlend mode="normal" in2="shape" result="effect1_innerShadow_87_3014"/>
<feColorMatrix in="SourceAlpha" type="matrix" values="0 0 0 0 0 0 0 0 0 0 0 0 0 0 0 0 0 0 127 0" result="hardAlpha"/>
<feOffset dy="-1.68028"/>
<feComposite in2="hardAlpha" operator="arithmetic" k2="-1" k3="1"/>
<feColorMatrix type="matrix" values="0 0 0 0 0.498039 0 0 0 0 0.0862745 0 0 0 0 0.690196 0 0 0 1 0"/>
<feBlend mode="normal" in2="effect1_innerShadow_87_3014" result="effect2_innerShadow_87_3014"/>
</filter>
<filter id="filter10_ii_87_3014" x="11.6672" y="12.3442" width="7.14111" height="6.80518" filterUnits="userSpaceOnUse" color-interpolation-filters="sRGB">
<feFlood flood-opacity="0" result="BackgroundImageFix"/>
<feBlend mode="normal" in="SourceGraphic" in2="BackgroundImageFix" result="shape"/>
<feColorMatrix in="SourceAlpha" type="matrix" values="0 0 0 0 0 0 0 0 0 0 0 0 0 0 0 0 0 0 127 0" result="hardAlpha"/>
<feOffset dy="-4.03267"/>
<feComposite in2="hardAlpha" operator="arithmetic" k2="-1" k3="1"/>
<feColorMatrix type="matrix" values="0 0 0 0 0.592157 0 0 0 0 0.137255 0 0 0 0 0.8 0 0 0 1 0"/>
<feBlend mode="normal" in2="shape" result="effect1_innerShadow_87_3014"/>
<feColorMatrix in="SourceAlpha" type="matrix" values="0 0 0 0 0 0 0 0 0 0 0 0 0 0 0 0 0 0 127 0" result="hardAlpha"/>
<feOffset dy="-1.68028"/>
<feComposite in2="hardAlpha" operator="arithmetic" k2="-1" k3="1"/>
<feColorMatrix type="matrix" values="0 0 0 0 0.498039 0 0 0 0 0.0862745 0 0 0 0 0.690196 0 0 0 1 0"/>
<feBlend mode="normal" in2="effect1_innerShadow_87_3014" result="effect2_innerShadow_87_3014"/>
</filter>
<filter id="filter11_ii_87_3014" x="21.885" y="13.7627" width="7.14111" height="6.80518" filterUnits="userSpaceOnUse" color-interpolation-filters="sRGB">
<feFlood flood-opacity="0" result="BackgroundImageFix"/>
<feBlend mode="normal" in="SourceGraphic" in2="BackgroundImageFix" result="shape"/>
<feColorMatrix in="SourceAlpha" type="matrix" values="0 0 0 0 0 0 0 0 0 0 0 0 0 0 0 0 0 0 127 0" result="hardAlpha"/>
<feOffset dy="-4.03267"/>
<feComposite in2="hardAlpha" operator="arithmetic" k2="-1" k3="1"/>
<feColorMatrix type="matrix" values="0 0 0 0 0.592157 0 0 0 0 0.137255 0 0 0 0 0.8 0 0 0 1 0"/>
<feBlend mode="normal" in2="shape" result="effect1_innerShadow_87_3014"/>
<feColorMatrix in="SourceAlpha" type="matrix" values="0 0 0 0 0 0 0 0 0 0 0 0 0 0 0 0 0 0 127 0" result="hardAlpha"/>
<feOffset dy="-1.68028"/>
<feComposite in2="hardAlpha" operator="arithmetic" k2="-1" k3="1"/>
<feColorMatrix type="matrix" values="0 0 0 0 0.498039 0 0 0 0 0.0862745 0 0 0 0 0.690196 0 0 0 1 0"/>
<feBlend mode="normal" in2="effect1_innerShadow_87_3014" result="effect2_innerShadow_87_3014"/>
</filter>
<filter id="filter12_ii_87_3014" x="16.3401" y="12.7549" width="7.14111" height="6.80518" filterUnits="userSpaceOnUse" color-interpolation-filters="sRGB">
<feFlood flood-opacity="0" result="BackgroundImageFix"/>
<feBlend mode="normal" in="SourceGraphic" in2="BackgroundImageFix" result="shape"/>
<feColorMatrix in="SourceAlpha" type="matrix" values="0 0 0 0 0 0 0 0 0 0 0 0 0 0 0 0 0 0 127 0" result="hardAlpha"/>
<feOffset dy="-4.03267"/>
<feComposite in2="hardAlpha" operator="arithmetic" k2="-1" k3="1"/>
<feColorMatrix type="matrix" values="0 0 0 0 0.592157 0 0 0 0 0.137255 0 0 0 0 0.8 0 0 0 1 0"/>
<feBlend mode="normal" in2="shape" result="effect1_innerShadow_87_3014"/>
<feColorMatrix in="SourceAlpha" type="matrix" values="0 0 0 0 0 0 0 0 0 0 0 0 0 0 0 0 0 0 127 0" result="hardAlpha"/>
<feOffset dy="-1.68028"/>
<feComposite in2="hardAlpha" operator="arithmetic" k2="-1" k3="1"/>
<feColorMatrix type="matrix" values="0 0 0 0 0.498039 0 0 0 0 0.0862745 0 0 0 0 0.690196 0 0 0 1 0"/>
<feBlend mode="normal" in2="effect1_innerShadow_87_3014" result="effect2_innerShadow_87_3014"/>
</filter>
</defs>
</svg>
