<svg width="42" height="42" viewBox="0 0 42 42" fill="none" xmlns="http://www.w3.org/2000/svg">
<g filter="url(#filter0_i_87_3033)">
<path d="M28.0842 2.35551C23.7617 1.55677 21.7413 4.56769 21.2715 6.173C22.9665 7.95718 24.8838 6.83013 26.5309 5.90736C26.7041 5.81033 26.863 5.69021 27.0051 5.55159C28.1805 4.40525 29.4418 3.4076 30.1985 3.00155L28.0842 2.35551Z" fill="#C3D831"/>
</g>
<path d="M28.0842 2.35551C23.7617 1.55677 21.7413 4.56769 21.2715 6.173C22.9665 7.95718 24.8838 6.83013 26.5309 5.90736C26.7041 5.81033 26.863 5.69021 27.0051 5.55159C28.1805 4.40525 29.4418 3.4076 30.1985 3.00155L28.0842 2.35551Z" stroke="#5A740F" stroke-width="0.234922"/>
<path d="M25.0108 3.89336C23.954 4.5772 22.5189 5.11087 21.7342 5.39076C21.7012 5.40253 21.6757 5.42816 21.6638 5.46109L21.4859 5.9501C21.4646 6.00894 21.4927 6.07481 21.5532 6.09087C22.3339 6.29809 23.8448 5.56275 24.8681 4.9499C25.2519 4.72005 25.5828 4.39358 25.9711 4.17151C26.6102 3.80601 27.6631 3.39487 28.419 3.12825C28.5289 3.08948 28.5172 2.96004 28.4007 2.95996C27.7284 2.9595 26.6915 3.21115 25.9448 3.43114C25.6097 3.52986 25.3041 3.7036 25.0108 3.89336Z" fill="#89A53F"/>
<g filter="url(#filter1_i_87_3033)">
<path d="M33.2384 27.3879C34.5356 37.9614 25.4162 41.0002 20.3318 41.0002C17.5519 40.824 11.4048 39.203 9.05555 34.1287C6.70632 29.0544 8.82062 23.6355 10.1714 21.5603L12.2857 18.2127L13.8127 15.2762L15.2223 11.5761C15.6138 10.519 17.2426 8.39295 20.6255 8.34596C24.0084 8.29898 25.7546 10.4798 26.2049 11.5761C27.1446 14.8181 28.9456 18.0561 29.7287 19.2699L31.3732 21.854C32.2325 23.6118 33.0001 25.4458 33.2384 27.3879Z" fill="#C2D82E"/>
</g>
<path d="M11.5224 21.854C7.48839 28.7381 11.1543 33.8046 13.9372 35.8507C14.044 35.9292 14.1699 35.7913 14.0944 35.6824C11.0082 31.2288 12.8136 24.8698 14.1653 22.1476C14.87 20.2095 16.5536 16.7444 16.8669 14.865C17.1219 13.3348 17.5126 11.669 18.0388 10.5774C18.083 10.4857 18.0045 10.392 17.9166 10.4431C17.0025 10.9744 16.0699 13.1628 15.6923 14.2777C15.0815 16.8149 12.6579 20.3857 11.5224 21.854Z" fill="#EAEE97"/>
<g filter="url(#filter2_i_87_3033)">
<path d="M20.2959 10.4601H21.0954C21.1603 10.4601 21.2128 10.4075 21.2128 10.3426V6.40769C20.9779 3.6356 19.7054 1.88542 19.0985 1.35684C18.276 0.488606 18.0164 1.40182 17.9848 2.01087C17.9831 2.04329 17.9959 2.07474 18.0187 2.09789C20.4108 4.52891 20.4661 8.49996 20.1787 10.3228C20.1673 10.395 20.2228 10.4601 20.2959 10.4601Z" fill="#936C27"/>
</g>
<path d="M18.9812 10.2251C19.3923 10.5971 20.6257 11.1178 22.2701 10.2251" stroke="#89A53F" stroke-width="0.469845" stroke-linecap="round"/>
<defs>
<filter id="filter0_i_87_3033" x="21.1396" y="2.10547" width="9.36304" height="5.12891" filterUnits="userSpaceOnUse" color-interpolation-filters="sRGB">
<feFlood flood-opacity="0" result="BackgroundImageFix"/>
<feBlend mode="normal" in="SourceGraphic" in2="BackgroundImageFix" result="shape"/>
<feColorMatrix in="SourceAlpha" type="matrix" values="0 0 0 0 0 0 0 0 0 0 0 0 0 0 0 0 0 0 127 0" result="hardAlpha"/>
<feOffset dy="-1.29207"/>
<feComposite in2="hardAlpha" operator="arithmetic" k2="-1" k3="1"/>
<feColorMatrix type="matrix" values="0 0 0 0 0 0 0 0 0 0 0 0 0 0 0 0 0 0 0.16 0"/>
<feBlend mode="normal" in2="shape" result="effect1_innerShadow_87_3033"/>
</filter>
<filter id="filter1_i_87_3033" x="8" y="8.34521" width="25.3633" height="32.6548" filterUnits="userSpaceOnUse" color-interpolation-filters="sRGB">
<feFlood flood-opacity="0" result="BackgroundImageFix"/>
<feBlend mode="normal" in="SourceGraphic" in2="BackgroundImageFix" result="shape"/>
<feColorMatrix in="SourceAlpha" type="matrix" values="0 0 0 0 0 0 0 0 0 0 0 0 0 0 0 0 0 0 127 0" result="hardAlpha"/>
<feOffset dx="-3.05399" dy="-1.87938"/>
<feComposite in2="hardAlpha" operator="arithmetic" k2="-1" k3="1"/>
<feColorMatrix type="matrix" values="0 0 0 0 0 0 0 0 0 0 0 0 0 0 0 0 0 0 0.25 0"/>
<feBlend mode="normal" in2="shape" result="effect1_innerShadow_87_3033"/>
</filter>
<filter id="filter2_i_87_3033" x="17.9846" y="1" width="3.22827" height="9.45996" filterUnits="userSpaceOnUse" color-interpolation-filters="sRGB">
<feFlood flood-opacity="0" result="BackgroundImageFix"/>
<feBlend mode="normal" in="SourceGraphic" in2="BackgroundImageFix" result="shape"/>
<feColorMatrix in="SourceAlpha" type="matrix" values="0 0 0 0 0 0 0 0 0 0 0 0 0 0 0 0 0 0 127 0" result="hardAlpha"/>
<feOffset dx="-0.587306"/>
<feComposite in2="hardAlpha" operator="arithmetic" k2="-1" k3="1"/>
<feColorMatrix type="matrix" values="0 0 0 0 0 0 0 0 0 0 0 0 0 0 0 0 0 0 0.39 0"/>
<feBlend mode="normal" in2="shape" result="effect1_innerShadow_87_3033"/>
</filter>
</defs>
</svg>
