<svg width="42" height="42" viewBox="0 0 42 42" fill="none" xmlns="http://www.w3.org/2000/svg">
  <defs>
    <linearGradient id="rainbowGrad" x1="6" y1="6" x2="36" y2="36" gradientUnits="userSpaceOnUse">
      <stop offset="0%" stop-color="#FF4D6D"/>
      <stop offset="18%" stop-color="#FF9F1C"/>
      <stop offset="36%" stop-color="#FFE94E"/>
      <stop offset="54%" stop-color="#4ADE80"/>
      <stop offset="72%" stop-color="#38BDF8"/>
      <stop offset="90%" stop-color="#A78BFA"/>
      <stop offset="100%" stop-color="#F472B6"/>
    </linearGradient>
    <radialGradient id="rainbowGlow" cx="0.35" cy="0.3" r="0.75">
      <stop offset="0%" stop-color="#FFFFFF" stop-opacity="0.95"/>
      <stop offset="45%" stop-color="#FFFFFF" stop-opacity="0.15"/>
      <stop offset="100%" stop-color="#FFFFFF" stop-opacity="0"/>
    </radialGradient>
    <filter id="rainbowShadow" x="-20%" y="-20%" width="140%" height="140%">
      <feDropShadow dx="0" dy="2" stdDeviation="2" flood-color="#FF6B9D" flood-opacity="0.45"/>
    </filter>
  </defs>
  <circle cx="21" cy="21" r="17" fill="url(#rainbowGrad)" filter="url(#rainbowShadow)"/>
  <circle cx="21" cy="21" r="17" fill="url(#rainbowGlow)"/>
  <path d="M21 8.5L24.2 16.8L33 17.8L26.5 23.8L28.4 32.5L21 28.2L13.6 32.5L15.5 23.8L9 17.8L17.8 16.8L21 8.5Z" fill="#FFFFFF" fill-opacity="0.92"/>
  <path d="M21 12.2L23.4 18.1L29.6 18.9L24.8 23.2L26.2 29.3L21 26.1L15.8 29.3L17.2 23.2L12.4 18.9L18.6 18.1L21 12.2Z" fill="url(#rainbowGrad)" fill-opacity="0.85"/>
  <ellipse cx="16.5" cy="15.5" rx="3.2" ry="2" fill="#FFFFFF" fill-opacity="0.55" transform="rotate(-25 16.5 15.5)"/>
</svg>
