<svg width="97" height="86" viewBox="0 0 97 86" fill="none" xmlns="http://www.w3.org/2000/svg">
<path d="M82.3668 25.1846H13.926C9.64528 25.1846 6.17505 28.6548 6.17505 32.9356V53.5593C6.17505 56.1823 7.50163 58.6274 9.70059 60.0573L44.8736 82.9293C47.4979 84.6358 50.8912 84.5962 53.475 82.8288L86.7428 60.0733C88.8548 58.6286 90.1178 56.2346 90.1178 53.6757V32.9356C90.1178 28.6548 86.6475 25.1846 82.3668 25.1846Z" fill="url(#paint0_linear_91_2037)"/>
<path d="M9.45785 25.4999L43.5863 2.83607C46.1758 1.11642 49.5423 1.1102 52.1382 2.82027L86.5425 25.4846C91.1209 28.5006 91.2064 35.1868 86.7065 38.3189L52.3029 62.2656C49.6327 64.1242 46.086 64.1175 43.4229 62.2489L9.29375 38.3017C4.82597 35.1668 4.91119 28.5192 9.45785 25.4999Z" fill="#BFBFBF"/>
<path d="M54.3536 42.9333C52.9136 43.9018 51.3841 44.6013 49.7651 45.0316C48.1527 45.4574 46.578 45.5996 45.041 45.4584C43.5041 45.3171 42.1322 44.8823 40.9254 44.154L44.6852 41.6249C45.2784 41.9648 45.9507 42.158 46.7022 42.2045C47.4469 42.2466 48.2106 42.1557 48.9932 41.932C49.7759 41.7082 50.5105 41.3654 51.1971 40.9035C51.9305 40.4103 52.4523 39.8901 52.7626 39.3431C53.0662 38.7917 53.1453 38.2577 52.9999 37.7413C52.8545 37.2248 52.475 36.7724 51.8613 36.384C51.2407 35.9735 50.5276 35.7232 49.7221 35.633C48.9166 35.5427 48.0689 35.6188 47.1792 35.8612C46.2961 36.0992 45.4212 36.5096 44.5546 37.0925L42.7446 38.31L39.8511 36.4372L41.6611 35.2198C42.3744 34.74 42.8729 34.2399 43.1567 33.7197C43.4471 33.195 43.5197 32.6832 43.3744 32.1845C43.2224 31.6813 42.843 31.2378 42.236 30.8537C41.6559 30.4695 41.0167 30.2273 40.3184 30.1273C39.62 30.0184 38.9094 30.0468 38.1866 30.2125C37.4705 30.3738 36.7924 30.6696 36.1524 31.1001C35.5258 31.5216 35.0605 31.9859 34.7565 32.4931C34.4525 33.0002 34.3496 33.5012 34.4479 33.9959C34.5394 34.4863 34.8652 34.9259 35.4253 35.3148L31.8554 37.7161C30.722 36.9473 30.0335 36.0661 29.79 35.0726C29.5464 34.0703 29.7117 33.0511 30.286 32.0149C30.8535 30.9744 31.8006 30.008 33.1272 29.1156C34.4938 28.1964 35.9401 27.5663 37.4661 27.2253C38.9919 26.8755 40.4666 26.7961 41.89 26.987C43.3133 27.178 44.5511 27.614 45.6033 28.295C46.7768 29.0457 47.4148 29.9074 47.5173 30.88C47.6265 31.8481 47.2491 32.783 46.3853 33.6845L46.5472 33.7892C48.1895 32.9516 49.8324 32.5587 51.4758 32.6106C53.1192 32.6535 54.585 33.0964 55.8733 33.939C57.0334 34.6899 57.7455 35.5819 58.0095 36.615C58.2734 37.6393 58.095 38.7029 57.4744 39.8058C56.8604 40.9043 55.8202 41.9467 54.3536 42.9333ZM52.2028 16.6583L72.9227 30.0689L69.2128 32.5643L52.1453 21.5176L52.0253 21.5983L50.3313 26.8239L46.8915 24.5975L48.673 19.0326L52.2028 16.6583Z" fill="#9A9A9A"/>
<defs>
<linearGradient id="paint0_linear_91_2037" x1="5.78911" y1="54.8665" x2="90.5037" y2="54.8665" gradientUnits="userSpaceOnUse">
<stop offset="0.49037" stop-color="#848484"/>
<stop offset="0.528239" stop-color="#686868"/>
</linearGradient>
</defs>
</svg>
