<svg width="97" height="86" viewBox="0 0 97 86" fill="none" xmlns="http://www.w3.org/2000/svg">
<path d="M82.3668 25.1848H13.926C9.64528 25.1848 6.17505 28.6551 6.17505 32.9358V53.5596C6.17505 56.1826 7.50163 58.6276 9.70059 60.0575L44.8736 82.9295C47.4979 84.636 50.8912 84.5964 53.475 82.8291L86.7428 60.0735C88.8548 58.6288 90.1178 56.2348 90.1178 53.676V32.9358C90.1178 28.655 86.6475 25.1848 82.3668 25.1848Z" fill="url(#paint0_linear_91_2287)"/>
<path d="M9.45785 25.4999L43.5863 2.83607C46.1758 1.11642 49.5423 1.1102 52.1382 2.82027L86.5425 25.4846C91.1209 28.5006 91.2064 35.1868 86.7065 38.3189L52.3029 62.2656C49.6327 64.1242 46.086 64.1175 43.4229 62.2489L9.29375 38.3017C4.82597 35.1668 4.91119 28.5192 9.45785 25.4999Z" fill="#BFBFBF"/>
<path d="M47.4706 47.1895L38.7383 30.0419L38.5967 29.9503L28.4871 36.7505L25.3508 34.7206L39.3002 25.3375L42.5073 27.4132L51.3204 44.5999L47.4706 47.1895ZM50.3879 17.8793L71.1077 31.2899L67.3979 33.7853L50.3303 22.7386L50.2104 22.8194L48.5164 28.0449L45.0766 25.8186L46.8581 20.2537L50.3879 17.8793Z" fill="#9A9A9A"/>
<defs>
<linearGradient id="paint0_linear_91_2287" x1="5.78911" y1="54.8667" x2="90.5037" y2="54.8667" gradientUnits="userSpaceOnUse">
<stop offset="0.49037" stop-color="#848484"/>
<stop offset="0.528239" stop-color="#686868"/>
</linearGradient>
</defs>
</svg>
