<svg width="97" height="86" viewBox="0 0 97 86" fill="none" xmlns="http://www.w3.org/2000/svg">
<path d="M82.367 25.1848H13.9263C9.64553 25.1848 6.17529 28.6551 6.17529 32.9358V53.5596C6.17529 56.1826 7.50188 58.6276 9.70084 60.0575L44.8738 82.9295C47.4981 84.636 50.8914 84.5964 53.4752 82.8291L86.743 60.0735C88.8551 58.6288 90.118 56.2348 90.118 53.676V32.9358C90.118 28.655 86.6478 25.1848 82.367 25.1848Z" fill="url(#paint0_linear_91_2382)"/>
<path d="M9.45785 25.4999L43.5863 2.83607C46.1758 1.11642 49.5423 1.1102 52.1382 2.82027L86.5425 25.4846C91.1209 28.5006 91.2064 35.1868 86.7065 38.3189L52.3029 62.2656C49.6327 64.1242 46.086 64.1175 43.4229 62.2489L9.29375 38.3017C4.82597 35.1668 4.91119 28.5192 9.45785 25.4999Z" fill="#BFBFBF"/>
<path d="M31.0849 34.1387L46.2847 43.9765L43.5632 45.8071L31.0427 37.7034L30.9546 37.7626L29.712 41.596L27.1886 39.9628L28.4955 35.8805L31.0849 34.1387ZM55.5973 38.0943C54.3894 38.9068 53.0434 39.4041 51.5593 39.586C50.0752 39.7615 48.5145 39.6259 46.8773 39.1795C45.24 38.7265 43.5926 37.9636 41.9351 36.8908C40.2825 35.8147 39.1046 34.7458 38.4016 33.684C37.6985 32.6157 37.4705 31.5936 37.7177 30.6175C37.9697 29.6382 38.6973 28.7439 39.9003 27.9347C41.1033 27.1255 42.4444 26.6283 43.9236 26.4431C45.4027 26.258 46.9559 26.3887 48.5833 26.8353C50.2156 27.2785 51.858 28.035 53.5106 29.1046C55.1731 30.1806 56.3608 31.2559 57.0738 32.3306C57.7868 33.3988 58.0197 34.4241 57.7726 35.4067C57.5303 36.3859 56.8053 37.2818 55.5973 38.0943ZM53.2743 36.5908C54.2133 35.9592 54.4866 35.1582 54.0943 34.1878C53.7019 33.211 52.5929 32.1317 50.7671 30.95C49.5598 30.1686 48.4208 29.596 47.3501 29.2321C46.2793 28.8683 45.3087 28.7049 44.4383 28.7418C43.5629 28.7755 42.8147 29.0012 42.1936 29.419C41.2596 30.0473 40.9912 30.8482 41.3884 31.8218C41.7807 32.7922 42.8799 33.8651 44.6859 35.0405C45.8933 35.8284 47.0323 36.4075 48.1031 36.7778C49.1788 37.1448 50.1544 37.3115 51.0297 37.2778C51.9002 37.2408 52.6484 37.0119 53.2743 36.5908ZM69.0311 29.0581C67.8231 29.8706 66.4771 30.3679 64.9931 30.5498C63.5089 30.7253 61.9483 30.5898 60.311 30.1433C58.6738 29.6903 57.0263 28.9274 55.3688 27.8546C53.7162 26.7785 52.5383 25.7096 51.8353 24.6478C51.1322 23.5796 50.9042 22.5574 51.1514 21.5813C51.4035 20.602 52.131 19.7077 53.334 18.8985C54.5371 18.0893 55.8781 17.5921 57.3573 17.407C58.8364 17.2218 60.3897 17.3525 62.017 17.7991C63.6493 18.2423 65.2917 18.9988 66.9443 20.0684C68.6068 21.1444 69.7945 22.2197 70.5075 23.2944C71.2205 24.3626 71.4534 25.388 71.2063 26.3705C70.9641 27.3498 70.239 28.2456 69.0311 29.0581ZM66.708 27.5546C67.647 26.923 67.9203 26.122 67.528 25.1516C67.1356 24.1748 66.0266 23.0955 64.2008 21.9138C62.9936 21.1324 61.8545 20.5598 60.7838 20.196C59.713 19.8321 58.7425 19.6687 57.872 19.7056C56.9967 19.7393 56.2484 19.9651 55.6274 20.3828C54.6933 21.0111 54.4249 21.8121 54.8222 22.7857C55.2145 23.756 56.3136 24.8289 58.1197 26.0043C59.327 26.7922 60.4661 27.3713 61.5369 27.7416C62.6126 28.1086 63.5881 28.2753 64.4635 28.2416C65.3339 28.2047 66.0821 27.9757 66.708 27.5546Z" fill="#9A9A9A"/>
<defs>
<linearGradient id="paint0_linear_91_2382" x1="5.78935" y1="54.8667" x2="90.504" y2="54.8667" gradientUnits="userSpaceOnUse">
<stop offset="0.49037" stop-color="#848484"/>
<stop offset="0.528239" stop-color="#686868"/>
</linearGradient>
</defs>
</svg>
