<svg width="97" height="86" viewBox="0 0 97 86" fill="none" xmlns="http://www.w3.org/2000/svg">
<path d="M82.3666 25.1848H13.9258C9.64504 25.1848 6.1748 28.6551 6.1748 32.9358V53.5596C6.1748 56.1826 7.50139 58.6276 9.70035 60.0575L44.8733 82.9295C47.4977 84.636 50.891 84.5964 53.4748 82.8291L86.7426 60.0735C88.8546 58.6288 90.1176 56.2348 90.1176 53.676V32.9358C90.1176 28.655 86.6473 25.1848 82.3666 25.1848Z" fill="url(#paint0_linear_91_2232)"/>
<path d="M9.45786 25.4999L43.5863 2.83607C46.1759 1.11641 49.5423 1.11019 52.1382 2.82027L86.5425 25.4846C91.121 28.5006 91.2064 35.1868 86.7066 38.3189L52.3029 62.2656C49.6327 64.1242 46.086 64.1175 43.4229 62.2489L9.29375 38.3017C4.82597 35.1668 4.91119 28.5192 9.45786 25.4999Z" fill="#BFBFBF"/>
<path d="M51.2836 45.0284C49.797 46.0284 48.2241 46.7526 46.565 47.2009C44.9125 47.6448 43.3212 47.8027 41.7911 47.6746C40.2609 47.5377 38.9393 47.1047 37.8263 46.3755C36.9496 45.8169 36.337 45.174 35.9885 44.447C35.6401 43.7199 35.5464 42.9817 35.7074 42.2325C35.8683 41.4743 36.2813 40.7826 36.9464 40.1572L36.8048 40.0655C35.5154 40.6212 34.1192 40.8438 32.616 40.7332C31.1128 40.6137 29.8047 40.1894 28.6918 39.4603C27.6194 38.775 26.9617 37.9622 26.7187 37.0218C26.4757 36.0814 26.6314 35.1087 27.1858 34.1037C27.7334 33.0944 28.6706 32.1435 29.9972 31.2512C31.3105 30.3678 32.7232 29.738 34.2355 29.3617C35.7476 28.9766 37.2186 28.8552 38.6482 28.9974C40.0845 29.1352 41.3355 29.5489 42.4012 30.2386C43.5208 30.9633 44.1789 31.8248 44.3755 32.8231C44.5721 33.8126 44.2717 34.7313 43.4745 35.5791L43.6161 35.6708C44.551 35.22 45.5846 34.9387 46.7169 34.8269C47.8492 34.7063 48.9695 34.7539 50.078 34.9697C51.193 35.1811 52.1856 35.5684 53.0557 36.1315C54.1753 36.8562 54.8503 37.7242 55.0805 38.7355C55.304 39.7424 55.0954 40.7952 54.4546 41.8939C53.8205 42.9881 52.7635 44.033 51.2836 45.0284ZM48.3901 43.1557C49.1567 42.64 49.6918 42.1065 49.9954 41.555C50.2923 40.9993 50.3546 40.4589 50.1823 39.9338C50.01 39.4087 49.6101 38.9388 48.9828 38.5239C48.3152 38.1006 47.5617 37.8374 46.7226 37.7342C45.8833 37.6221 45.032 37.6651 44.1687 37.863C43.312 38.0564 42.5204 38.3975 41.7937 38.8863C41.0604 39.3795 40.5521 39.9128 40.2688 40.4862C39.9856 41.0595 39.9336 41.6242 40.1128 42.1802C40.292 42.7273 40.7155 43.2125 41.3831 43.6359C42.0105 44.0507 42.7236 44.3099 43.5225 44.4135C44.3147 44.5126 45.129 44.459 45.9655 44.2524C46.8086 44.0414 47.6168 43.6758 48.3901 43.1557ZM38.9508 37.0463C39.5775 36.6248 40.0026 36.1696 40.2263 35.6809C40.4567 35.1877 40.4825 34.6985 40.3038 34.2133C40.1252 33.7281 39.7391 33.289 39.1454 32.896C38.5452 32.5163 37.8859 32.2743 37.1674 32.1701C36.4422 32.0614 35.7149 32.0922 34.9854 32.2624C34.2492 32.4282 33.5645 32.7241 32.9311 33.1501C32.2845 33.5851 31.8393 34.0493 31.5956 34.5426C31.3517 35.0271 31.3191 35.5075 31.4977 35.9838C31.6762 36.4513 32.0655 36.8749 32.6657 37.2546C33.2593 37.6476 33.9221 37.9006 34.6541 38.0136C35.386 38.1177 36.1268 38.0913 36.8764 37.9342C37.6261 37.7682 38.3175 37.4723 38.9508 37.0463ZM68.831 33.2252C67.4977 34.122 66.0515 34.7609 64.4924 35.142C62.9265 35.5188 61.3884 35.6275 59.8781 35.4683C58.3745 35.3046 57.0294 34.8652 55.8428 34.1499L59.4426 31.7285C60.3591 32.2337 61.4172 32.439 62.6167 32.3443C63.8095 32.2452 64.8693 31.884 65.7959 31.2607C66.5225 30.7719 67.0005 30.2278 67.2299 29.6284C67.4594 29.029 67.4372 28.4252 67.1636 27.8169C66.89 27.2087 66.3654 26.658 65.5898 26.1648C64.8141 25.6539 63.9561 25.3141 63.0157 25.1455C62.0754 24.9768 61.1432 24.9762 60.2193 25.1437C59.2886 25.3068 58.4466 25.6417 57.6933 26.1484C57.0732 26.5566 56.5846 27.0366 56.2273 27.5885C55.8701 28.1404 55.7103 28.6573 55.7481 29.1393L51.8418 31.0325L42.2281 23.3979L54.1076 15.4072L57.2439 17.4371L48.4343 23.3629L53.3379 27.3154L53.4579 27.2347C53.386 26.6866 53.5483 26.0833 53.9449 25.4249C54.3346 24.7621 54.9429 24.1527 55.7695 23.5967C57.0094 22.7626 58.4128 22.2103 59.9797 21.9398C61.5397 21.6649 63.1157 21.6731 64.7077 21.9643C66.2996 22.2556 67.7599 22.8312 69.0886 23.6912C70.4578 24.5773 71.3653 25.5782 71.811 26.6938C72.2567 27.8006 72.2332 28.9248 71.7403 30.0664C71.2474 31.1992 70.2776 32.2521 68.831 33.2252Z" fill="#9A9A9A"/>
<defs>
<linearGradient id="paint0_linear_91_2232" x1="5.78886" y1="54.8667" x2="90.5035" y2="54.8667" gradientUnits="userSpaceOnUse">
<stop offset="0.49037" stop-color="#848484"/>
<stop offset="0.528239" stop-color="#686868"/>
</linearGradient>
</defs>
</svg>
