<svg width="97" height="86" viewBox="0 0 97 86" fill="none" xmlns="http://www.w3.org/2000/svg">
<path d="M82.3668 25.1846H13.926C9.64528 25.1846 6.17505 28.6548 6.17505 32.9356V53.5593C6.17505 56.1823 7.50163 58.6274 9.70059 60.0573L44.8736 82.9293C47.4979 84.6358 50.8912 84.5962 53.475 82.8288L86.7428 60.0733C88.8548 58.6286 90.1178 56.2346 90.1178 53.6757V32.9356C90.1178 28.6548 86.6475 25.1846 82.3668 25.1846Z" fill="url(#paint0_linear_56_1848)"/>
<path d="M9.45785 25.4999L43.5863 2.83607C46.1758 1.11642 49.5423 1.1102 52.1382 2.82027L86.5425 25.4846C91.1209 28.5006 91.2064 35.1868 86.7065 38.3189L52.3029 62.2656C49.6327 64.1242 46.086 64.1175 43.4229 62.2489L9.29375 38.3017C4.82597 35.1668 4.91119 28.5192 9.45785 25.4999Z" fill="#BFBFBF"/>
<path d="M31.3304 30.7285L52.0502 44.1391L48.3404 46.6345L31.2729 35.5878L31.1529 35.6685L29.4589 40.8941L26.0191 38.6678L27.8006 33.1029L31.3304 30.7285ZM56.7807 40.9571L54.0693 39.2022L54.1274 29.8558C54.1127 28.9488 54.0622 28.1682 53.9759 27.5141C53.8897 26.8599 53.7069 26.2929 53.4277 25.813C53.1485 25.3332 52.7223 24.9077 52.149 24.5367C51.4947 24.1132 50.7883 23.8495 50.0296 23.7456C49.2641 23.6373 48.4966 23.6729 47.727 23.8523C46.9573 24.0317 46.2459 24.3411 45.5926 24.7806C44.9193 25.2335 44.4709 25.722 44.2476 26.2461C44.0175 26.7659 44.0187 27.2858 44.2513 27.8059C44.4906 28.3216 44.9643 28.8086 45.6725 29.2669L42.1427 31.6413C40.8275 30.79 39.9809 29.8505 39.6029 28.8228C39.225 27.7951 39.2896 26.7591 39.7967 25.7147C40.3105 24.6658 41.2441 23.6862 42.5973 22.7759C43.9706 21.8522 45.4369 21.2086 46.9962 20.8453C48.5555 20.4819 50.0737 20.3998 51.5508 20.5992C53.0346 20.794 54.3565 21.2669 55.5166 22.0177C56.2922 22.5197 56.9077 23.1117 57.3631 23.7935C57.8184 24.4754 58.1314 25.3599 58.302 26.4469C58.4792 27.5295 58.552 28.9361 58.5204 30.6666L58.6226 35.3917L58.7642 35.4834L67.6838 29.4836L70.8201 31.5135L56.7807 40.9571Z" fill="#9A9A9A"/>
<defs>
<linearGradient id="paint0_linear_56_1848" x1="5.78911" y1="54.8665" x2="90.5037" y2="54.8665" gradientUnits="userSpaceOnUse">
<stop offset="0.49037" stop-color="#848484"/>
<stop offset="0.528239" stop-color="#686868"/>
</linearGradient>
</defs>
</svg>
