<svg width="97" height="86" viewBox="0 0 97 86" fill="none" xmlns="http://www.w3.org/2000/svg">
<path d="M82.3665 25.1848H13.9258C9.64504 25.1848 6.1748 28.6551 6.1748 32.9358V53.5596C6.1748 56.1826 7.50139 58.6276 9.70035 60.0575L44.8733 82.9295C47.4977 84.636 50.8909 84.5964 53.4747 82.8291L86.7425 60.0735C88.8546 58.6288 90.1175 56.2348 90.1175 53.676V32.9358C90.1175 28.655 86.6473 25.1848 82.3665 25.1848Z" fill="url(#paint0_linear_91_2367)"/>
<path d="M9.45785 25.4999L43.5863 2.83607C46.1758 1.11642 49.5423 1.1102 52.1382 2.82027L86.5425 25.4846C91.1209 28.5006 91.2064 35.1868 86.7065 38.3189L52.3029 62.2656C49.6327 64.1242 46.086 64.1175 43.4229 62.2489L9.29375 38.3017C4.82597 35.1668 4.91119 28.5192 9.45785 25.4999Z" fill="#BFBFBF"/>
<path d="M44.4706 49.2375L35.7383 32.09L35.5967 31.9984L25.4871 38.7986L22.3508 36.7687L36.3002 27.3856L39.5073 29.4613L48.3204 46.648L44.4706 49.2375ZM45.6097 20.7497C46.5964 20.0949 47.7251 19.5671 48.9957 19.1665C50.2662 18.757 51.6592 18.5499 53.1748 18.5454C54.6836 18.5364 56.2987 18.7987 58.0202 19.3322C59.7417 19.8656 61.5467 20.7435 63.4352 21.9659C65.2225 23.1138 66.6276 24.2696 67.6505 25.4332C68.6733 26.588 69.317 27.7129 69.5815 28.808C69.8461 29.9031 69.7379 30.9462 69.2572 31.9372C68.7764 32.9283 67.9194 33.8386 66.6861 34.6682C65.3928 35.5381 63.9899 36.1435 62.4773 36.4843C60.9714 36.8207 59.4667 36.907 57.9631 36.7433C56.4595 36.5796 55.0644 36.1738 53.7778 35.5259L57.4276 33.0708C58.4371 33.4778 59.4714 33.6457 60.5303 33.5743C61.5891 33.4942 62.5585 33.1581 63.4385 32.5662C64.8584 31.6111 65.3278 30.4719 64.8467 29.1486C64.3656 27.8253 63.0155 26.4456 60.7965 25.0094L60.6565 25.1035C60.9234 25.7074 61.0126 26.3239 60.9243 26.9531C60.8293 27.5779 60.5664 28.1864 60.1358 28.7788C59.7118 29.3667 59.1331 29.9072 58.3998 30.4005C57.1999 31.2076 55.8299 31.7463 54.2899 32.0166C52.7565 32.2824 51.204 32.2763 49.6323 31.9981C48.0673 31.7155 46.6306 31.1552 45.3222 30.3171C43.9733 29.444 43.0692 28.4542 42.6101 27.3475C42.151 26.232 42.1644 25.1013 42.6505 23.9553C43.1299 22.805 44.1163 21.7364 45.6097 20.7497ZM48.6548 22.7074C47.9349 23.1917 47.4636 23.7446 47.2411 24.366C47.0185 24.9787 47.0441 25.5935 47.3178 26.2106C47.5914 26.8189 48.0992 27.3631 48.8411 27.8433C49.583 28.3146 50.414 28.637 51.3343 28.8102C52.2612 28.979 53.1801 28.9886 54.0908 28.8389C55.0081 28.6848 55.8301 28.3633 56.5568 27.8746C57.0967 27.5113 57.4955 27.1051 57.7531 26.6559C58.0106 26.2067 58.1273 25.7454 58.1029 25.2722C58.0786 24.79 57.9236 24.329 57.638 23.889C57.3592 23.4445 56.95 23.0521 56.4105 22.7117C55.7023 22.2534 54.8814 21.942 53.9478 21.7777C53.0208 21.6089 52.0886 21.5995 51.1511 21.7494C50.2202 21.8948 49.3881 22.2141 48.6548 22.7074Z" fill="#9A9A9A"/>
<defs>
<linearGradient id="paint0_linear_91_2367" x1="5.78886" y1="54.8667" x2="90.5035" y2="54.8667" gradientUnits="userSpaceOnUse">
<stop offset="0.49037" stop-color="#848484"/>
<stop offset="0.528239" stop-color="#686868"/>
</linearGradient>
</defs>
</svg>
