<svg width="97" height="86" viewBox="0 0 97 86" fill="none" xmlns="http://www.w3.org/2000/svg">
<path d="M82.3668 25.1848H13.926C9.64528 25.1848 6.17505 28.6551 6.17505 32.9358V53.5596C6.17505 56.1826 7.50164 58.6276 9.7006 60.0575L44.8736 82.9295C47.4979 84.636 50.8912 84.5964 53.475 82.8291L86.7428 60.0735C88.8549 58.6288 90.1178 56.2348 90.1178 53.676V32.9358C90.1178 28.655 86.6476 25.1848 82.3668 25.1848Z" fill="url(#paint0_linear_91_2092)"/>
<path d="M9.45786 25.4999L43.5863 2.83607C46.1759 1.11641 49.5423 1.11019 52.1382 2.82027L86.5425 25.4846C91.121 28.5006 91.2064 35.1868 86.7066 38.3189L52.3029 62.2656C49.6327 64.1242 46.086 64.1175 43.4229 62.2489L9.29375 38.3017C4.82597 35.1668 4.91119 28.5192 9.45786 25.4999Z" fill="#BFBFBF"/>
<path d="M39.5061 47.5024L36.5216 45.5707L31.3204 30.735L33.7803 29.0804L38.0295 31.8306L36.5296 32.8395L40.0584 42.8444L40.2202 42.9492L52.3497 34.7903L55.4355 36.7875L39.5061 47.5024ZM53.1202 43.4191L48.3652 40.3415L47.0697 39.4502L32.4404 29.9817L35.9402 27.6275L56.6601 41.038L53.1202 43.4191ZM62.0055 37.4424L59.2941 35.6875L59.3522 26.3412C59.3375 25.4341 59.287 24.6535 59.2007 23.9994C59.1144 23.3452 58.9317 22.7782 58.6525 22.2984C58.3733 21.8185 57.9471 21.393 57.3738 21.022C56.7195 20.5985 56.013 20.3348 55.2543 20.2309C54.4889 20.1227 53.7214 20.1582 52.9517 20.3376C52.1821 20.517 51.4707 20.8264 50.8174 21.2659C50.1441 21.7188 49.6957 22.2073 49.4724 22.7314C49.2422 23.2512 49.2435 23.7711 49.4761 24.2913C49.7154 24.8069 50.1891 25.2939 50.8973 25.7522L47.3675 28.1266C46.0522 27.2753 45.2057 26.3359 44.8277 25.3081C44.4498 24.2804 44.5144 23.2444 45.0215 22.2C45.5353 21.1511 46.4688 20.1715 47.8221 19.2612C49.1954 18.3375 50.6617 17.694 52.221 17.3306C53.7803 16.9672 55.2985 16.8851 56.7756 17.0845C58.2594 17.2793 59.5813 17.7522 60.7414 18.503C61.517 19.005 62.1325 19.597 62.5879 20.2788C63.0432 20.9607 63.3562 21.8452 63.5267 22.9323C63.704 24.0148 63.7768 25.4214 63.7452 27.1519L63.8473 31.877L63.989 31.9687L72.9086 25.9689L76.0449 27.9988L62.0055 37.4424Z" fill="#9A9A9A"/>
<defs>
<linearGradient id="paint0_linear_91_2092" x1="5.78911" y1="54.8667" x2="90.5037" y2="54.8667" gradientUnits="userSpaceOnUse">
<stop offset="0.49037" stop-color="#848484"/>
<stop offset="0.528239" stop-color="#686868"/>
</linearGradient>
</defs>
</svg>
