<svg width="97" height="86" viewBox="0 0 97 86" fill="none" xmlns="http://www.w3.org/2000/svg">
<path d="M82.3668 25.1848H13.926C9.64528 25.1848 6.17505 28.6551 6.17505 32.9358V53.5596C6.17505 56.1826 7.50164 58.6276 9.7006 60.0575L44.8736 82.9295C47.4979 84.636 50.8912 84.5964 53.475 82.8291L86.7428 60.0735C88.8549 58.6288 90.1178 56.2348 90.1178 53.676V32.9358C90.1178 28.655 86.6476 25.1848 82.3668 25.1848Z" fill="url(#paint0_linear_91_2127)"/>
<path d="M9.45786 25.4999L43.5863 2.83607C46.1759 1.11641 49.5423 1.11019 52.1382 2.82027L86.5425 25.4846C91.121 28.5006 91.2064 35.1868 86.7066 38.3189L52.3029 62.2656C49.6327 64.1242 46.086 64.1175 43.4229 62.2489L9.29375 38.3017C4.82597 35.1668 4.91119 28.5192 9.45786 25.4999Z" fill="#BFBFBF"/>
<path d="M39.5061 47.5024L36.5216 45.5707L31.3204 30.735L33.7803 29.0804L38.0295 31.8306L36.5296 32.8395L40.0584 42.8444L40.2202 42.9492L52.3497 34.7903L55.4355 36.7875L39.5061 47.5024ZM53.1202 43.4191L48.3652 40.3415L47.0697 39.4502L32.4404 29.9817L35.9402 27.6275L56.6601 41.038L53.1202 43.4191ZM48.1121 19.0662C49.0988 18.4114 50.2275 17.8837 51.4981 17.483C52.7686 17.0735 54.1616 16.8664 55.6772 16.8619C57.186 16.8529 58.8011 17.1152 60.5226 17.6487C62.2441 18.1822 64.0491 19.0601 65.9376 20.2824C67.7249 21.4304 69.13 22.5862 70.1529 23.7498C71.1757 24.9045 71.8194 26.0294 72.0839 27.1245C72.3485 28.2196 72.2403 29.2627 71.7596 30.2538C71.2788 31.2448 70.4218 32.1551 69.1885 32.9847C67.8952 33.8546 66.4923 34.46 64.9797 34.8009C63.4738 35.1372 61.9691 35.2236 60.4655 35.0599C58.9619 34.8962 57.5668 34.4903 56.2802 33.8424L59.93 31.3873C60.9395 31.7943 61.9738 31.9622 63.0327 31.8909C64.0915 31.8107 65.0609 31.4747 65.9409 30.8827C67.3608 29.9276 67.8302 28.7884 67.3491 27.4651C66.868 26.1419 65.5179 24.7621 63.2989 23.3259L63.1589 23.4201C63.4258 24.0239 63.515 24.6405 63.4267 25.2696C63.3317 25.8944 63.0688 26.503 62.6382 27.0953C62.2142 27.6832 61.6355 28.2237 60.9022 28.717C59.7023 29.5241 58.3323 30.0629 56.7923 30.3332C55.2589 30.599 53.7064 30.5928 52.1347 30.3147C50.5697 30.032 49.133 29.4717 47.8246 28.6336C46.4757 27.7606 45.5716 26.7707 45.1125 25.6641C44.6534 24.5486 44.6668 23.4178 45.1529 22.2718C45.6323 21.1215 46.6187 20.0529 48.1121 19.0662ZM51.1572 21.0239C50.4373 21.5082 49.966 22.0611 49.7435 22.6826C49.5209 23.2952 49.5465 23.9101 49.8202 24.5272C50.0938 25.1354 50.6016 25.6796 51.3435 26.1598C52.0854 26.6312 52.9164 26.9535 53.8367 27.1268C54.7636 27.2956 55.6824 27.3051 56.5932 27.1555C57.5105 27.0013 58.3325 26.6799 59.0592 26.1911C59.5991 25.8279 59.9979 25.4216 60.2555 24.9724C60.513 24.5232 60.6297 24.062 60.6053 23.5887C60.581 23.1066 60.426 22.6455 60.1404 22.2055C59.8616 21.7611 59.4524 21.3686 58.9129 21.0283C58.2047 20.5699 57.3838 20.2585 56.4502 20.0942C55.5232 19.9254 54.591 19.916 53.6535 20.0659C52.7226 20.2113 51.8905 20.5306 51.1572 21.0239Z" fill="#9A9A9A"/>
<defs>
<linearGradient id="paint0_linear_91_2127" x1="5.78911" y1="54.8667" x2="90.5037" y2="54.8667" gradientUnits="userSpaceOnUse">
<stop offset="0.49037" stop-color="#848484"/>
<stop offset="0.528239" stop-color="#686868"/>
</linearGradient>
</defs>
</svg>
