<svg width="97" height="86" viewBox="0 0 97 86" fill="none" xmlns="http://www.w3.org/2000/svg">
<path d="M82.3668 25.1846H13.926C9.64528 25.1846 6.17505 28.6548 6.17505 32.9356V53.5593C6.17505 56.1823 7.50164 58.6274 9.7006 60.0573L44.8736 82.9293C47.4979 84.6358 50.8912 84.5962 53.475 82.8288L86.7428 60.0733C88.8549 58.6286 90.1178 56.2346 90.1178 53.6757V32.9356C90.1178 28.6548 86.6476 25.1846 82.3668 25.1846Z" fill="url(#paint0_linear_56_1622)"/>
<path d="M9.45786 25.4999L43.5863 2.83607C46.1759 1.11641 49.5423 1.11019 52.1382 2.82027L86.5425 25.4846C91.121 28.5006 91.2064 35.1868 86.7066 38.3189L52.3029 62.2656C49.6327 64.1242 46.086 64.1175 43.4229 62.2489L9.29375 38.3017C4.82597 35.1668 4.91119 28.5192 9.45786 25.4999Z" fill="#BFBFBF"/>
<path d="M51.6848 44.9056C50.0383 46.0132 48.2034 46.691 46.1804 46.939C44.1573 47.1782 42.0298 46.9935 39.798 46.3849C37.5661 45.7674 35.3204 44.7275 33.0609 43.2651C30.8081 41.7982 29.2025 40.341 28.2441 38.8936C27.2857 37.4374 26.9749 36.044 27.3119 34.7135C27.6555 33.3785 28.6472 32.1595 30.2872 31.0564C31.9271 29.9533 33.7552 29.2755 35.7715 29.0231C37.7878 28.7708 39.9052 28.9489 42.1236 29.5577C44.3486 30.1619 46.5875 31.1931 48.8403 32.6511C51.1065 34.1179 52.7256 35.5838 53.6975 37.0487C54.6694 38.5048 54.9869 39.9026 54.65 41.2419C54.3198 42.5768 53.3314 43.7981 51.6848 44.9056ZM48.5182 42.8561C49.7981 41.9951 50.1707 40.9032 49.6359 39.5804C49.1011 38.2488 47.5892 36.7775 45.1004 35.1667C43.4547 34.1015 41.9021 33.321 40.4424 32.825C38.9828 32.329 37.6598 32.1062 36.4732 32.1566C35.2799 32.2025 34.26 32.5102 33.4134 33.0797C32.1401 33.9362 31.7742 35.028 32.3157 36.3552C32.8505 37.678 34.3489 39.1405 36.8108 40.7427C38.4566 41.8167 40.0093 42.6062 41.469 43.111C42.9354 43.6113 44.2652 43.8385 45.4585 43.7925C46.645 43.7422 47.6649 43.4301 48.5182 42.8561ZM49.6428 18.4107L70.3627 31.8212L66.6528 34.3167L49.5853 23.27L49.4653 23.3507L47.7713 28.5763L44.3315 26.3499L46.113 20.785L49.6428 18.4107Z" fill="#9A9A9A"/>
<defs>
<linearGradient id="paint0_linear_56_1622" x1="5.78911" y1="54.8665" x2="90.5037" y2="54.8665" gradientUnits="userSpaceOnUse">
<stop offset="0.49037" stop-color="#848484"/>
<stop offset="0.528239" stop-color="#686868"/>
</linearGradient>
</defs>
</svg>
