<svg width="97" height="86" viewBox="0 0 97 86" fill="none" xmlns="http://www.w3.org/2000/svg">
<path d="M82.367 25.1846H13.9263C9.64553 25.1846 6.17529 28.6548 6.17529 32.9356V53.5593C6.17529 56.1823 7.50188 58.6274 9.70084 60.0573L44.8738 82.9293C47.4981 84.6358 50.8914 84.5962 53.4752 82.8288L86.743 60.0733C88.8551 58.6286 90.118 56.2346 90.118 53.6757V32.9356C90.118 28.6548 86.6478 25.1846 82.367 25.1846Z" fill="url(#paint0_linear_91_2057)"/>
<path d="M9.45785 25.4999L43.5863 2.83607C46.1758 1.11642 49.5423 1.1102 52.1382 2.82027L86.5425 25.4846C91.1209 28.5006 91.2064 35.1868 86.7065 38.3189L52.3029 62.2656C49.6327 64.1242 46.086 64.1175 43.4229 62.2489L9.29375 38.3017C4.82597 35.1668 4.91119 28.5192 9.45785 25.4999Z" fill="#BFBFBF"/>
<path d="M51.3536 44.9816C49.9136 45.9502 48.3841 46.6496 46.7651 47.0799C45.1527 47.5057 43.578 47.648 42.041 47.5067C40.5041 47.3654 39.1322 46.9306 37.9254 46.2023L41.6852 43.6733C42.2784 44.0132 42.9507 44.2064 43.7022 44.2528C44.4469 44.2949 45.2106 44.2041 45.9932 43.9803C46.7759 43.7565 47.5105 43.4137 48.1971 42.9519C48.9305 42.4586 49.4523 41.9384 49.7626 41.3914C50.0662 40.84 50.1453 40.3061 49.9999 39.7896C49.8545 39.2732 49.475 38.8207 48.8613 38.4323C48.2407 38.0219 47.5276 37.7715 46.7221 37.6813C45.9166 37.5911 45.0689 37.6672 44.1792 37.9096C43.2961 38.1475 42.4212 38.5579 41.5546 39.1409L39.7446 40.3583L36.8511 38.4856L38.6611 37.2681C39.3744 36.7883 39.8729 36.2883 40.1567 35.768C40.4471 35.2433 40.5197 34.7316 40.3744 34.2328C40.2224 33.7297 39.843 33.2861 39.236 32.9021C38.6559 32.5178 38.0167 32.2756 37.3184 32.1756C36.62 32.0668 35.9094 32.0952 35.1866 32.2609C34.4705 32.4221 33.7924 32.7179 33.1524 33.1484C32.5258 33.5699 32.0605 34.0343 31.7565 34.5414C31.4525 35.0486 31.3496 35.5495 31.4479 36.0443C31.5394 36.5346 31.8652 36.9743 32.4253 37.3632L28.8554 39.7644C27.722 38.9956 27.0335 38.1145 26.79 37.121C26.5464 36.1186 26.7117 35.0994 27.286 34.0633C27.8535 33.0227 28.8006 32.0563 30.1272 31.164C31.4938 30.2447 32.9401 29.6146 34.4661 29.2737C35.9919 28.9238 37.4666 28.8444 38.89 29.0354C40.3133 29.2263 41.5511 29.6623 42.6033 30.3433C43.7768 31.094 44.4148 31.9557 44.5173 32.9283C44.6265 33.8965 44.2491 34.8313 43.3853 35.7328L43.5472 35.8376C45.1895 35 46.8324 34.6071 48.4758 34.6589C50.1192 34.7019 51.585 35.1447 52.8733 35.9873C54.0334 36.7382 54.7455 37.6302 55.0095 38.6633C55.2734 39.6876 55.095 40.7512 54.4744 41.8542C53.8604 42.9526 52.8202 43.9951 51.3536 44.9816ZM68.996 33.1144C67.6627 34.0112 66.2165 34.6502 64.6574 35.0313C63.0915 35.408 61.5534 35.5168 60.0431 35.3576C58.5395 35.1939 57.1944 34.7544 56.0078 34.0392L59.6076 31.6178C60.5241 32.123 61.5822 32.3282 62.7817 32.2335C63.9745 32.1345 65.0342 31.7733 65.9609 31.15C66.6875 30.6612 67.1655 30.1171 67.3949 29.5177C67.6243 28.9183 67.6022 28.3144 67.3286 27.7062C67.055 27.0979 66.5304 26.5472 65.7548 26.0541C64.9791 25.5432 64.1211 25.2034 63.1807 25.0347C62.2404 24.866 61.3082 24.8654 60.3843 25.0329C59.4536 25.1961 58.6115 25.531 57.8582 26.0377C57.2382 26.4458 56.7495 26.9259 56.3923 27.4778C56.0351 28.0296 55.8753 28.5466 55.9131 29.0286L52.0068 30.9217L42.3931 23.2872L54.2726 15.2964L57.4089 17.3264L48.5993 23.2522L53.5029 27.2046L53.6229 27.1239C53.551 26.5758 53.7133 25.9726 54.1098 25.3142C54.4996 24.6514 55.1078 24.042 55.9345 23.4859C57.1744 22.6519 58.5778 22.0996 60.1446 21.829C61.7047 21.5542 63.2807 21.5623 64.8727 21.8536C66.4646 22.1448 67.9249 22.7204 69.2536 23.5804C70.6228 24.4666 71.5303 25.4675 71.976 26.5831C72.4217 27.6899 72.3982 28.814 71.9053 29.9557C71.4124 31.0884 70.4426 32.1414 68.996 33.1144Z" fill="#9A9A9A"/>
<defs>
<linearGradient id="paint0_linear_91_2057" x1="5.78935" y1="54.8665" x2="90.504" y2="54.8665" gradientUnits="userSpaceOnUse">
<stop offset="0.49037" stop-color="#848484"/>
<stop offset="0.528239" stop-color="#686868"/>
</linearGradient>
</defs>
</svg>
