<svg width="97" height="86" viewBox="0 0 97 86" fill="none" xmlns="http://www.w3.org/2000/svg">
<path d="M82.367 25.1848H13.9263C9.64553 25.1848 6.17529 28.6551 6.17529 32.9358V53.5596C6.17529 56.1826 7.50188 58.6276 9.70084 60.0575L44.8738 82.9295C47.4981 84.636 50.8914 84.5964 53.4752 82.8291L86.743 60.0735C88.8551 58.6288 90.118 56.2348 90.118 53.676V32.9358C90.118 28.655 86.6478 25.1848 82.367 25.1848Z" fill="url(#paint0_linear_91_2277)"/>
<path d="M9.45785 25.4999L43.5863 2.83607C46.1758 1.11642 49.5423 1.1102 52.1382 2.82027L86.5425 25.4846C91.1209 28.5006 91.2064 35.1868 86.7065 38.3189L52.3029 62.2656C49.6327 64.1242 46.086 64.1175 43.4229 62.2489L9.29375 38.3017C4.82597 35.1668 4.91119 28.5192 9.45785 25.4999Z" fill="#BFBFBF"/>
<path d="M44.4706 49.2375L35.7383 32.09L35.5967 31.9984L25.4871 38.7986L22.3508 36.7687L36.3002 27.3856L39.5073 29.4613L48.3204 46.648L44.4706 49.2375ZM67.3024 34.4005C65.6558 35.5081 63.8209 36.1859 61.7979 36.4339C59.7748 36.6731 57.6473 36.4884 55.4155 35.8798C53.1836 35.2623 50.9379 34.2224 48.6784 32.76C46.4256 31.2931 44.82 29.8359 43.8617 28.3885C42.9032 26.9323 42.5925 25.5389 42.9294 24.2084C43.273 22.8734 44.2648 21.6543 45.9047 20.5512C47.5446 19.4481 49.3727 18.7704 51.389 18.518C53.4053 18.2656 55.5227 18.4438 57.7411 19.0525C59.9661 19.6568 62.205 20.6879 64.4578 22.146C66.724 23.6128 68.3431 25.0786 69.315 26.5436C70.2869 27.9997 70.6044 29.3974 70.2676 30.7368C69.9374 32.0717 68.949 33.2929 67.3024 34.4005ZM64.1357 32.351C65.4157 31.49 65.7882 30.3981 65.2535 29.0753C64.7186 27.7437 63.2068 26.2724 60.7179 24.6616C59.0722 23.5964 57.5196 22.8159 56.06 22.3199C54.6003 21.8239 53.2773 21.6011 52.0907 21.6514C50.8975 21.6974 49.8775 22.0051 49.0309 22.5746C47.7576 23.4311 47.3917 24.5229 47.9333 25.8501C48.468 27.1729 49.9664 28.6354 52.4283 30.2376C54.0741 31.3116 55.6268 32.101 57.0865 32.6059C58.5529 33.1062 59.8827 33.3334 61.076 33.2874C62.2625 33.2371 63.2824 32.9249 64.1357 32.351Z" fill="#9A9A9A"/>
<defs>
<linearGradient id="paint0_linear_91_2277" x1="5.78935" y1="54.8667" x2="90.504" y2="54.8667" gradientUnits="userSpaceOnUse">
<stop offset="0.49037" stop-color="#848484"/>
<stop offset="0.528239" stop-color="#686868"/>
</linearGradient>
</defs>
</svg>
