<svg width="97" height="86" viewBox="0 0 97 86" fill="none" xmlns="http://www.w3.org/2000/svg">
<path d="M82.367 25.1848H13.9263C9.64553 25.1848 6.17529 28.6551 6.17529 32.9358V53.5596C6.17529 56.1826 7.50188 58.6276 9.70084 60.0575L44.8738 82.9295C47.4981 84.636 50.8914 84.5964 53.4752 82.8291L86.743 60.0735C88.8551 58.6288 90.118 56.2348 90.118 53.676V32.9358C90.118 28.655 86.6478 25.1848 82.367 25.1848Z" fill="url(#paint0_linear_91_2327)"/>
<path d="M9.45785 25.4999L43.5863 2.83607C46.1758 1.11642 49.5423 1.1102 52.1382 2.82027L86.5425 25.4846C91.1209 28.5006 91.2064 35.1868 86.7065 38.3189L52.3029 62.2656C49.6327 64.1242 46.086 64.1175 43.4229 62.2489L9.29375 38.3017C4.82597 35.1668 4.91119 28.5192 9.45785 25.4999Z" fill="#BFBFBF"/>
<path d="M44.4706 49.2375L35.7383 32.09L35.5967 31.9984L25.4871 38.7986L22.3508 36.7687L36.3002 27.3856L39.5073 29.4613L48.3204 46.648L44.4706 49.2375ZM66.9061 34.5202C65.5728 35.417 64.1266 36.056 62.5675 36.4371C61.0016 36.8138 59.4635 36.9226 57.9532 36.7633C56.4496 36.5996 55.1045 36.1602 53.9179 35.445L57.5177 33.0235C58.4342 33.5287 59.4923 33.734 60.6918 33.6393C61.8846 33.5402 62.9443 33.1791 63.871 32.5558C64.5976 32.067 65.0756 31.5229 65.305 30.9235C65.5344 30.324 65.5123 29.7202 65.2387 29.112C64.9651 28.5037 64.4405 27.953 63.6649 27.4598C62.8892 26.949 62.0311 26.6092 61.0908 26.4405C60.1504 26.2718 59.2183 26.2712 58.2943 26.4387C57.3636 26.6018 56.5216 26.9367 55.7683 27.4435C55.1483 27.8516 54.6596 28.3317 54.3024 28.8835C53.9451 29.4354 53.7854 29.9524 53.8232 30.4344L49.9169 32.3275L40.3032 24.693L52.1827 16.7022L55.319 18.7321L46.5094 24.6579L51.413 28.6104L51.533 28.5297C51.4611 27.9816 51.6234 27.3784 52.0199 26.7199C52.4097 26.0571 53.0179 25.4477 53.8446 24.8917C55.0845 24.0576 56.4879 23.5054 58.0547 23.2348C59.6148 22.9599 61.1908 22.9681 62.7827 23.2593C64.3747 23.5506 65.835 24.1262 67.1637 24.9862C68.5329 25.8724 69.4404 26.8733 69.8861 27.9889C70.3318 29.0956 70.3082 30.2198 69.8154 31.3614C69.3225 32.4942 68.3527 33.5471 66.9061 34.5202Z" fill="#9A9A9A"/>
<defs>
<linearGradient id="paint0_linear_91_2327" x1="5.78935" y1="54.8667" x2="90.504" y2="54.8667" gradientUnits="userSpaceOnUse">
<stop offset="0.49037" stop-color="#848484"/>
<stop offset="0.528239" stop-color="#686868"/>
</linearGradient>
</defs>
</svg>
