<svg width="97" height="86" viewBox="0 0 97 86" fill="none" xmlns="http://www.w3.org/2000/svg">
<path d="M82.3668 25.1848H13.926C9.64528 25.1848 6.17505 28.6551 6.17505 32.9358V53.5596C6.17505 56.1826 7.50163 58.6276 9.70059 60.0575L44.8736 82.9295C47.4979 84.636 50.8912 84.5964 53.475 82.8291L86.7428 60.0735C88.8548 58.6288 90.1178 56.2348 90.1178 53.676V32.9358C90.1178 28.655 86.6475 25.1848 82.3668 25.1848Z" fill="url(#paint0_linear_91_2072)"/>
<path d="M9.45785 25.4999L43.5863 2.83607C46.1758 1.11642 49.5423 1.1102 52.1382 2.82027L86.5425 25.4846C91.1209 28.5006 91.2064 35.1868 86.7065 38.3189L52.3029 62.2656C49.6327 64.1242 46.086 64.1175 43.4229 62.2489L9.29375 38.3017C4.82597 35.1668 4.91119 28.5192 9.45785 25.4999Z" fill="#BFBFBF"/>
<path d="M51.3536 44.9816C49.9136 45.9502 48.3841 46.6496 46.7651 47.0799C45.1527 47.5057 43.578 47.648 42.041 47.5067C40.5041 47.3654 39.1322 46.9306 37.9254 46.2023L41.6852 43.6733C42.2784 44.0132 42.9507 44.2064 43.7022 44.2528C44.4469 44.2949 45.2106 44.2041 45.9932 43.9803C46.7759 43.7565 47.5105 43.4137 48.1971 42.9519C48.9305 42.4586 49.4523 41.9384 49.7626 41.3914C50.0662 40.84 50.1453 40.3061 49.9999 39.7896C49.8545 39.2732 49.475 38.8207 48.8613 38.4323C48.2407 38.0219 47.5276 37.7715 46.7221 37.6813C45.9166 37.5911 45.0689 37.6672 44.1792 37.9096C43.2961 38.1475 42.4212 38.5579 41.5546 39.1409L39.7446 40.3583L36.8511 38.4856L38.6611 37.2681C39.3744 36.7883 39.8729 36.2883 40.1567 35.768C40.4471 35.2433 40.5197 34.7316 40.3744 34.2328C40.2224 33.7297 39.843 33.2861 39.236 32.9021C38.6559 32.5178 38.0167 32.2756 37.3184 32.1756C36.62 32.0668 35.9094 32.0952 35.1866 32.2609C34.4705 32.4221 33.7924 32.7179 33.1524 33.1484C32.5258 33.5699 32.0605 34.0343 31.7565 34.5414C31.4525 35.0486 31.3496 35.5495 31.4479 36.0443C31.5394 36.5346 31.8652 36.9743 32.4253 37.3632L28.8554 39.7644C27.722 38.9956 27.0335 38.1145 26.79 37.121C26.5464 36.1186 26.7117 35.0994 27.286 34.0633C27.8535 33.0227 28.8006 32.0563 30.1272 31.164C31.4938 30.2447 32.9401 29.6146 34.4661 29.2737C35.9919 28.9238 37.4666 28.8444 38.89 29.0354C40.3133 29.2263 41.5511 29.6623 42.6033 30.3433C43.7768 31.094 44.4148 31.9557 44.5173 32.9283C44.6265 33.8965 44.2491 34.8313 43.3853 35.7328L43.5472 35.8376C45.1895 35 46.8324 34.6071 48.4758 34.6589C50.1192 34.7019 51.585 35.1447 52.8733 35.9873C54.0334 36.7382 54.7455 37.6302 55.0095 38.6633C55.2734 39.6876 55.095 40.7512 54.4744 41.8542C53.8604 42.9526 52.8202 43.9951 51.3536 44.9816ZM69.156 33.0068C67.6694 34.0068 66.0965 34.7309 64.4374 35.1793C62.7849 35.6231 61.1936 35.781 59.6635 35.653C58.1333 35.5161 56.8117 35.083 55.6987 34.3539C54.822 33.7953 54.2094 33.1524 53.861 32.4253C53.5125 31.6983 53.4188 30.9601 53.5798 30.2108C53.7408 29.4527 54.1538 28.7609 54.8188 28.1355L54.6772 28.0439C53.3878 28.5996 51.9916 28.8221 50.4885 28.7115C48.9852 28.5921 47.6771 28.1678 46.5642 27.4386C45.4919 26.7534 44.8342 25.9406 44.5911 25.0002C44.3481 24.0598 44.5038 23.0871 45.0582 22.0821C45.6059 21.0727 46.543 20.1219 47.8696 19.2295C49.1829 18.3462 50.5957 17.7164 52.1079 17.3401C53.6201 16.955 55.091 16.8336 56.5206 16.9758C57.957 17.1135 59.2079 17.5273 60.2736 18.217C61.3932 18.9417 62.0514 19.8032 62.248 20.8015C62.4445 21.791 62.1442 22.7096 61.3469 23.5575L61.4886 23.6492C62.4234 23.1984 63.457 22.9171 64.5894 22.8053C65.7216 22.6846 66.842 22.7322 67.9504 22.9481C69.0655 23.1595 70.058 23.5467 70.9281 24.1099C72.0477 24.8345 72.7227 25.7025 72.9529 26.7138C73.1764 27.7208 72.9678 28.7736 72.327 29.8723C71.693 30.9665 70.6359 32.0113 69.156 33.0068ZM66.2625 31.134C67.0291 30.6184 67.5643 30.0848 67.8679 29.5334C68.1647 28.9776 68.227 28.4372 68.0547 27.9122C67.8824 27.3871 67.4826 26.9171 66.8552 26.5023C66.1876 26.079 65.4342 25.8157 64.595 25.7125C63.7557 25.6005 62.9044 25.6434 62.0411 25.8413C61.1844 26.0348 60.3928 26.3759 59.6662 26.8647C58.9328 27.3579 58.4246 27.8912 58.1413 28.4646C57.858 29.0379 57.806 29.6026 57.9853 30.1586C58.1645 30.7057 58.5879 31.1909 59.2555 31.6142C59.8829 32.0291 60.596 32.2883 61.395 32.3918C62.1872 32.491 63.0015 32.4373 63.8379 32.2308C64.681 32.0198 65.4892 31.6542 66.2625 31.134ZM56.8232 25.0246C57.4499 24.6031 57.875 24.148 58.0987 23.6592C58.3291 23.166 58.3549 22.6768 58.1763 22.1916C57.9976 21.7065 57.6115 21.2674 57.0179 20.8744C56.4177 20.4947 55.7583 20.2527 55.0398 20.1484C54.3146 20.0398 53.5873 20.0706 52.8578 20.2408C52.1216 20.4066 51.4369 20.7025 50.8036 21.1285C50.1569 21.5635 49.7117 22.0276 49.468 22.521C49.2241 23.0055 49.1915 23.4859 49.3701 23.9622C49.5486 24.4297 49.9379 24.8533 50.5381 25.2329C51.1317 25.6259 51.7945 25.8789 52.5265 25.9919C53.2584 26.0961 53.9992 26.0696 54.7489 25.9125C55.4985 25.7466 56.1899 25.4506 56.8232 25.0246Z" fill="#9A9A9A"/>
<defs>
<linearGradient id="paint0_linear_91_2072" x1="5.78911" y1="54.8667" x2="90.5037" y2="54.8667" gradientUnits="userSpaceOnUse">
<stop offset="0.49037" stop-color="#848484"/>
<stop offset="0.528239" stop-color="#686868"/>
</linearGradient>
</defs>
</svg>
