<svg width="97" height="86" viewBox="0 0 97 86" fill="none" xmlns="http://www.w3.org/2000/svg">
<path d="M82.3668 25.1848H13.926C9.64528 25.1848 6.17505 28.6551 6.17505 32.9358V53.5596C6.17505 56.1826 7.50164 58.6276 9.7006 60.0575L44.8736 82.9295C47.4979 84.636 50.8912 84.5964 53.475 82.8291L86.7428 60.0735C88.8549 58.6288 90.1178 56.2348 90.1178 53.676V32.9358C90.1178 28.655 86.6476 25.1848 82.3668 25.1848Z" fill="url(#paint0_linear_91_2207)"/>
<path d="M9.45786 25.4999L43.5863 2.83607C46.1759 1.11641 49.5423 1.11019 52.1382 2.82027L86.5425 25.4846C91.121 28.5006 91.2064 35.1868 86.7066 38.3189L52.3029 62.2656C49.6327 64.1242 46.086 64.1175 43.4229 62.2489L9.29375 38.3017C4.82597 35.1668 4.91119 28.5192 9.45786 25.4999Z" fill="#BFBFBF"/>
<path d="M51.5036 44.8805C50.5169 45.5353 49.3882 46.0674 48.1177 46.4769C46.8404 46.8821 45.444 47.0869 43.9285 47.0915C42.4062 47.0917 40.7843 46.8251 39.0629 46.2916C37.3346 45.7537 35.5228 44.8671 33.6275 43.6315C31.8536 42.4834 30.4586 41.3342 29.4425 40.1838C28.4264 39.0334 27.7895 37.9128 27.5317 36.8221C27.2672 35.727 27.3753 34.6839 27.8561 33.6929C28.3435 32.6973 29.2006 31.787 30.4272 30.962C31.7138 30.0965 33.11 29.4956 34.6159 29.1592C36.1285 28.8184 37.6366 28.7298 39.1402 28.8935C40.6371 29.0528 42.0153 29.4433 43.2748 30.065L39.625 32.52C38.6424 32.1305 37.6251 31.978 36.573 32.0625C35.5208 32.1382 34.5547 32.472 33.6748 33.0639C32.2548 34.019 31.7854 35.1582 32.2666 36.4815C32.7544 37.8003 34.0842 39.1669 36.2561 40.5815L36.3961 40.4873C36.1292 39.8834 36.0433 39.2691 36.1384 38.6443C36.2334 38.0195 36.4929 37.4132 36.9169 36.8253C37.3408 36.2286 37.9194 35.6836 38.6527 35.1904C39.8527 34.3832 41.2193 33.8467 42.7527 33.5809C44.2927 33.3106 45.8519 33.3167 47.4303 33.5993C49.002 33.8774 50.4388 34.4422 51.7406 35.2935C53.1097 36.1709 54.0272 37.1695 54.4931 38.2893C54.9523 39.4048 54.9389 40.5355 54.4527 41.6815C53.9666 42.8275 52.9836 43.8938 51.5036 44.8805ZM48.4484 42.9295C49.1751 42.4407 49.6463 41.8878 49.8621 41.2708C50.078 40.6538 50.0491 40.0368 49.7753 39.4197C49.5016 38.8026 48.9837 38.2518 48.2217 37.7674C47.4864 37.2827 46.6553 36.9559 45.7284 36.7871C44.8081 36.6139 43.8893 36.6043 42.9719 36.7584C42.0546 36.9126 41.2326 37.234 40.5059 37.7228C39.9659 38.086 39.5672 38.4923 39.3096 38.9415C39.0521 39.3907 38.9354 39.8519 38.9597 40.3252C38.9773 40.7941 39.1289 41.253 39.4145 41.7018C39.7001 42.1418 40.1127 42.5408 40.6523 42.8989C41.3807 43.3615 42.2117 43.6794 43.1454 43.8526C44.0791 44.0258 45.0147 44.0374 45.9522 43.8875C46.8897 43.7376 47.7218 43.4182 48.4484 42.9295ZM69.1435 33.015C67.7036 33.9835 66.1741 34.683 64.555 35.1133C62.9426 35.5391 61.3679 35.6813 59.831 35.5401C58.294 35.3988 56.9221 34.964 55.7153 34.2357L59.4751 31.7066C60.0683 32.0465 60.7406 32.2397 61.4921 32.2862C62.2369 32.3283 63.0005 32.2374 63.7832 32.0137C64.5658 31.7899 65.3004 31.4471 65.9871 30.9852C66.7204 30.492 67.2422 29.9718 67.5525 29.4248C67.8561 28.8734 67.9352 28.3394 67.7898 27.823C67.6444 27.3065 67.2649 26.8541 66.6512 26.4657C66.0306 26.0552 65.3176 25.8049 64.512 25.7147C63.7065 25.6245 62.8588 25.7005 61.9691 25.943C61.086 26.1809 60.2111 26.5913 59.3445 27.1743L57.5346 28.3917L54.6411 26.5189L56.451 25.3015C57.1643 24.8217 57.6628 24.3217 57.9466 23.8014C58.237 23.2767 58.3096 22.7649 58.1644 22.2662C58.0124 21.7631 57.6329 21.3195 57.026 20.9354C56.4458 20.5512 55.8066 20.309 55.1083 20.209C54.4099 20.1001 53.6993 20.1285 52.9765 20.2942C52.2604 20.4555 51.5823 20.7513 50.9424 21.1818C50.3157 21.6033 49.8504 22.0676 49.5464 22.5748C49.2424 23.0819 49.1396 23.5829 49.2378 24.0776C49.3293 24.568 49.6551 25.0076 50.2152 25.3965L46.6453 27.7978C45.5119 27.029 44.8234 26.1478 44.5799 25.1544C44.3363 24.152 44.5017 23.1328 45.0759 22.0966C45.6434 21.0561 46.5905 20.0897 47.9171 19.1973C49.2837 18.2781 50.73 17.648 52.256 17.307C53.7819 16.9572 55.2565 16.8778 56.6799 17.0687C58.1033 17.2597 59.3411 17.6957 60.3932 18.3767C61.5667 19.1274 62.2047 19.9891 62.3072 20.9617C62.4164 21.9298 62.0391 22.8647 61.1753 23.7662L61.3371 23.871C62.9794 23.0333 64.6223 22.6404 66.2657 22.6923C67.9091 22.7353 69.375 23.1781 70.6633 24.0207C71.8234 24.7716 72.5354 25.6636 72.7994 26.6967C73.0633 27.721 72.8849 28.7846 72.2643 29.8875C71.6504 30.986 70.6101 32.0284 69.1435 33.015Z" fill="#9A9A9A"/>
<defs>
<linearGradient id="paint0_linear_91_2207" x1="5.78911" y1="54.8667" x2="90.5037" y2="54.8667" gradientUnits="userSpaceOnUse">
<stop offset="0.49037" stop-color="#848484"/>
<stop offset="0.528239" stop-color="#686868"/>
</linearGradient>
</defs>
</svg>
