<svg width="97" height="86" viewBox="0 0 97 86" fill="none" xmlns="http://www.w3.org/2000/svg">
<path d="M82.3668 25.1846H13.926C9.64528 25.1846 6.17505 28.6548 6.17505 32.9356V53.5593C6.17505 56.1823 7.50164 58.6274 9.7006 60.0573L44.8736 82.9293C47.4979 84.6358 50.8912 84.5962 53.475 82.8288L86.7428 60.0733C88.8549 58.6286 90.1178 56.2346 90.1178 53.6757V32.9356C90.1178 28.6548 86.6476 25.1846 82.3668 25.1846Z" fill="url(#paint0_linear_91_2012)"/>
<path d="M9.45786 25.4999L43.5863 2.83607C46.1759 1.11641 49.5423 1.11019 52.1382 2.82027L86.5425 25.4846C91.121 28.5006 91.2064 35.1868 86.7066 38.3189L52.3029 62.2656C49.6327 64.1242 46.086 64.1175 43.4229 62.2489L9.29375 38.3017C4.82597 35.1668 4.91119 28.5192 9.45786 25.4999Z" fill="#BFBFBF"/>
<path d="M43.7206 49.742L41.0092 47.9871L41.0673 38.6407C41.0526 37.7337 41.0021 36.9531 40.9158 36.299C40.8295 35.6448 40.6468 35.0778 40.3676 34.5979C40.0884 34.1181 39.6622 33.6926 39.0889 33.3215C38.4346 32.8981 37.7281 32.6344 36.9694 32.5305C36.204 32.4222 35.4364 32.4578 34.6668 32.6372C33.8972 32.8166 33.1858 33.126 32.5325 33.5654C31.8592 34.0183 31.4108 34.5069 31.1874 35.031C30.9573 35.5508 30.9586 36.0707 31.1912 36.5908C31.4305 37.1065 31.9042 37.5934 32.6124 38.0518L29.0826 40.4262C27.7673 39.5749 26.9208 38.6354 26.5428 37.6077C26.1649 36.58 26.2295 35.544 26.7366 34.4996C27.2504 33.4507 28.1839 32.4711 29.5372 31.5608C30.9105 30.6371 32.3768 29.9935 33.9361 29.6301C35.4954 29.2668 37.0136 29.1847 38.4907 29.3841C39.9745 29.5789 41.2964 30.0517 42.4565 30.8026C43.2321 31.3046 43.8476 31.8966 44.303 32.5784C44.7583 33.2603 45.0713 34.1448 45.2418 35.2318C45.4191 36.3144 45.4919 37.721 45.4603 39.4515L45.5624 44.1766L45.7041 44.2683L54.6237 38.2685L57.76 40.2984L43.7206 49.742ZM68.5235 33.4322C67.5368 34.087 66.4082 34.6192 65.1377 35.0287C63.8604 35.4338 62.464 35.6387 60.9485 35.6433C59.4262 35.6435 57.8043 35.3768 56.0828 34.8434C54.3546 34.3055 52.5428 33.4188 50.6474 32.1833C48.8736 31.0352 47.4786 29.8859 46.4625 28.7356C45.4464 27.5852 44.8095 26.4646 44.5517 25.3739C44.2872 24.2788 44.3953 23.2357 44.8761 22.2447C45.3635 21.2491 46.2205 20.3388 47.4471 19.5137C48.7337 18.6483 50.13 18.0474 51.6359 17.711C53.1484 17.3702 54.6565 17.2816 56.1601 17.4453C57.657 17.6046 59.0352 17.9951 60.2948 18.6167L56.6449 21.0718C55.6624 20.6822 54.6451 20.5297 53.5929 20.6143C52.5408 20.69 51.5747 21.0238 50.6947 21.6157C49.2748 22.5708 48.8054 23.71 49.2865 25.0333C49.7743 26.3521 51.1042 27.7187 53.2761 29.1332L53.4161 29.0391C53.1492 28.4352 53.0633 27.8209 53.1583 27.1961C53.2534 26.5713 53.5129 25.965 53.9369 25.3771C54.3608 24.7804 54.9394 24.2354 55.6727 23.7421C56.8726 22.935 58.2393 22.3985 59.7726 22.1327C61.3126 21.8624 62.8719 21.8685 64.4503 22.151C66.022 22.4292 67.4587 22.9939 68.7605 23.8453C70.1296 24.7226 71.0472 25.7212 71.5131 26.8411C71.9723 27.9566 71.9588 29.0873 71.4727 30.2333C70.9866 31.3793 70.0035 32.4456 68.5235 33.4322ZM65.4684 31.4812C66.195 30.9925 66.6663 30.4396 66.8821 29.8226C67.0979 29.2056 67.069 28.5885 66.7953 27.9714C66.5216 27.3543 66.0037 26.8036 65.2416 26.3191C64.5064 25.8344 63.6753 25.5077 62.7483 25.3389C61.8281 25.1656 60.9093 25.1561 59.9919 25.3102C59.0745 25.4644 58.2525 25.7858 57.5259 26.2746C56.9859 26.6378 56.5871 27.044 56.3296 27.4932C56.072 27.9425 55.9554 28.4037 55.9797 28.877C55.9973 29.3459 56.1489 29.8048 56.4345 30.2536C56.72 30.6936 57.1326 31.0926 57.6723 31.4507C58.4006 31.9133 59.2317 32.2312 60.1653 32.4044C61.099 32.5775 62.0346 32.5892 62.9722 32.4393C63.9097 32.2894 64.7418 31.97 65.4684 31.4812Z" fill="#9A9A9A"/>
<defs>
<linearGradient id="paint0_linear_91_2012" x1="5.78911" y1="54.8665" x2="90.5037" y2="54.8665" gradientUnits="userSpaceOnUse">
<stop offset="0.49037" stop-color="#848484"/>
<stop offset="0.528239" stop-color="#686868"/>
</linearGradient>
</defs>
</svg>
