<svg width="97" height="86" viewBox="0 0 97 86" fill="none" xmlns="http://www.w3.org/2000/svg">
<path d="M82.3666 25.1848H13.9258C9.64504 25.1848 6.1748 28.6551 6.1748 32.9358V53.5596C6.1748 56.1826 7.50139 58.6276 9.70035 60.0575L44.8733 82.9295C47.4977 84.636 50.891 84.5964 53.4748 82.8291L86.7426 60.0735C88.8546 58.6288 90.1176 56.2348 90.1176 53.676V32.9358C90.1176 28.655 86.6473 25.1848 82.3666 25.1848Z" fill="url(#paint0_linear_91_2227)"/>
<path d="M9.45786 25.4999L43.5863 2.83607C46.1759 1.11641 49.5423 1.11019 52.1382 2.82027L86.5425 25.4846C91.121 28.5006 91.2064 35.1868 86.7066 38.3189L52.3029 62.2656C49.6327 64.1242 46.086 64.1175 43.4229 62.2489L9.29375 38.3017C4.82597 35.1668 4.91119 28.5192 9.45786 25.4999Z" fill="#BFBFBF"/>
<path d="M51.5036 44.8805C50.5169 45.5353 49.3882 46.0674 48.1177 46.4769C46.8404 46.8821 45.444 47.0869 43.9285 47.0915C42.4062 47.0917 40.7843 46.8251 39.0629 46.2916C37.3346 45.7537 35.5228 44.8671 33.6275 43.6315C31.8536 42.4834 30.4586 41.3342 29.4425 40.1838C28.4264 39.0334 27.7895 37.9128 27.5317 36.8221C27.2672 35.727 27.3753 34.6839 27.8561 33.6929C28.3435 32.6973 29.2006 31.787 30.4272 30.962C31.7138 30.0965 33.11 29.4956 34.6159 29.1592C36.1285 28.8184 37.6366 28.7298 39.1402 28.8935C40.6371 29.0528 42.0153 29.4433 43.2748 30.065L39.625 32.52C38.6424 32.1305 37.6251 31.978 36.573 32.0625C35.5208 32.1382 34.5547 32.472 33.6748 33.0639C32.2548 34.019 31.7854 35.1582 32.2666 36.4815C32.7544 37.8003 34.0842 39.1669 36.2561 40.5815L36.3961 40.4873C36.1292 39.8834 36.0433 39.2691 36.1384 38.6443C36.2334 38.0195 36.4929 37.4132 36.9169 36.8253C37.3408 36.2286 37.9194 35.6836 38.6527 35.1904C39.8527 34.3832 41.2193 33.8467 42.7527 33.5809C44.2927 33.3106 45.8519 33.3167 47.4303 33.5993C49.002 33.8774 50.4388 34.4422 51.7406 35.2935C53.1097 36.1709 54.0272 37.1695 54.4931 38.2893C54.9523 39.4048 54.9389 40.5355 54.4527 41.6815C53.9666 42.8275 52.9836 43.8938 51.5036 44.8805ZM48.4484 42.9295C49.1751 42.4407 49.6463 41.8878 49.8621 41.2708C50.078 40.6538 50.0491 40.0368 49.7753 39.4197C49.5016 38.8026 48.9837 38.2518 48.2217 37.7674C47.4864 37.2827 46.6553 36.9559 45.7284 36.7871C44.8081 36.6139 43.8893 36.6043 42.9719 36.7584C42.0546 36.9126 41.2326 37.234 40.5059 37.7228C39.9659 38.086 39.5672 38.4923 39.3096 38.9415C39.0521 39.3907 38.9354 39.8519 38.9597 40.3252C38.9773 40.7941 39.1289 41.253 39.4145 41.7018C39.7001 42.1418 40.1127 42.5408 40.6523 42.8989C41.3807 43.3615 42.2117 43.6794 43.1454 43.8526C44.0791 44.0258 45.0147 44.0374 45.9522 43.8875C46.8897 43.7376 47.7218 43.4182 48.4484 42.9295ZM68.9135 33.1697C67.5802 34.0665 66.134 34.7054 64.5749 35.0865C63.009 35.4633 61.4709 35.572 59.9606 35.4128C58.457 35.2491 57.1119 34.8097 55.9253 34.0944L59.5251 31.673C60.4416 32.1782 61.4997 32.3835 62.6992 32.2888C63.892 32.1897 64.9517 31.8285 65.8784 31.2052C66.605 30.7165 67.083 30.1724 67.3124 29.5729C67.5418 28.9735 67.5197 28.3697 67.2461 27.7614C66.9725 27.1532 66.4479 26.6025 65.6723 26.1093C64.8966 25.5984 64.0386 25.2587 63.0982 25.09C62.1579 24.9213 61.2257 24.9207 60.3018 25.0882C59.3711 25.2513 58.5291 25.5862 57.7758 26.0929C57.1557 26.5011 56.6671 26.9811 56.3098 27.533C55.9526 28.0849 55.7928 28.6018 55.8306 29.0838L51.9243 30.977L42.3106 23.3424L54.1901 15.3517L57.3264 17.3816L48.5168 23.3074L53.4204 27.2599L53.5404 27.1792C53.4685 26.6311 53.6308 26.0278 54.0274 25.3694C54.4171 24.7066 55.0254 24.0972 55.852 23.5412C57.0919 22.7071 58.4953 22.1548 60.0622 21.8843C61.6222 21.6094 63.1982 21.6176 64.7902 21.9088C66.3821 22.2001 67.8424 22.7757 69.1711 23.6357C70.5403 24.5218 71.4478 25.5227 71.8935 26.6383C72.3392 27.7451 72.3157 28.8693 71.8228 30.0109C71.3299 31.1437 70.3601 32.1966 68.9135 33.1697Z" fill="#9A9A9A"/>
<defs>
<linearGradient id="paint0_linear_91_2227" x1="5.78886" y1="54.8667" x2="90.5035" y2="54.8667" gradientUnits="userSpaceOnUse">
<stop offset="0.49037" stop-color="#848484"/>
<stop offset="0.528239" stop-color="#686868"/>
</linearGradient>
</defs>
</svg>
