<svg width="97" height="84" viewBox="0 0 97 84" fill="none" xmlns="http://www.w3.org/2000/svg">
<path d="M82.3668 24.5947H13.926C9.64528 24.5947 6.17505 28.065 6.17505 32.3457V52.1519C6.17505 54.8046 7.53161 57.273 9.7709 58.6951L44.9457 81.0323C47.5365 82.6776 50.8541 82.6392 53.4061 80.9345L86.6722 58.7132C88.8251 57.2751 90.1178 54.857 90.1178 52.2679V32.3457C90.1178 28.065 86.6476 24.5947 82.3668 24.5947Z" fill="url(#paint0_linear_56_1723)"/>
<path d="M9.75405 24.7104L43.6565 2.72411C46.2133 1.06595 49.5046 1.05993 52.0675 2.70871L86.244 24.6954C90.916 27.7011 91.0022 34.5013 86.4078 37.6243L52.2319 60.8551C49.5933 62.6487 46.1252 62.6422 43.4933 60.8387L9.59018 37.6075C5.0278 34.4812 5.11372 27.7197 9.75405 24.7104Z" fill="#BFBFBF"/>
<path d="M51.901 43.9018C50.2424 44.9913 48.3944 45.6581 46.3569 45.9023C44.3193 46.1378 42.1768 45.9564 39.9294 45.3581C37.6818 44.7511 35.4205 43.7286 33.1454 42.2906C30.877 40.8481 29.2605 39.4152 28.2957 37.9918C27.3309 36.5597 27.0183 35.1894 27.3581 33.8808C27.7045 32.5677 28.7036 31.3687 30.3555 30.2836C32.0074 29.1984 33.8487 28.5317 35.8794 28.2832C37.9101 28.0347 40.0424 28.2097 42.2763 28.8081C44.517 29.4021 46.7715 30.416 49.0398 31.8497C51.3217 33.292 52.9518 34.7335 53.9303 36.1742C54.9086 37.6062 55.2279 38.9808 54.8883 40.2981C54.5554 41.611 53.5596 42.8123 51.901 43.9018ZM48.7125 41.8864C50.0018 41.0395 50.3773 39.9656 49.8391 38.6647C49.3008 37.355 47.7787 35.9082 45.2727 34.3243C43.6156 33.2769 42.0522 32.5094 40.5823 32.0218C39.1125 31.5342 37.7801 31.3152 36.5852 31.3648C35.3834 31.4102 34.3561 31.713 33.5033 32.2732C32.2207 33.1157 31.852 34.1895 32.3969 35.4947C32.9351 36.7957 34.4437 38.2339 36.9226 39.8094C38.5798 40.8655 40.1433 41.6417 41.6132 42.138C43.0898 42.6299 44.429 42.8532 45.6307 42.8078C46.8257 42.7581 47.853 42.451 48.7125 41.8864ZM70.0133 31.8596C68.5628 32.8123 67.0223 33.5004 65.3916 33.9238C63.7676 34.3428 62.1818 34.4829 60.6339 34.3442C59.0861 34.2054 57.7046 33.778 56.4895 33.0618L60.2767 30.574C60.874 30.9082 61.551 31.0981 62.3078 31.1437C63.0578 31.185 63.827 31.0956 64.6152 30.8754C65.4035 30.6553 66.1434 30.318 66.8351 29.8637C67.5737 29.3785 68.0994 28.8668 68.4121 28.3288C68.718 27.7864 68.7978 27.2613 68.6515 26.7534C68.5053 26.2455 68.1232 25.8005 67.5052 25.4186C66.8803 25.015 66.1623 24.7689 65.3511 24.6802C64.5399 24.5916 63.6862 24.6666 62.79 24.9051C61.9006 25.1392 61.0194 25.543 60.1464 26.1164L58.3233 27.314L55.4098 25.4725L57.233 24.2749C57.9515 23.8029 58.4537 23.311 58.7396 22.7993C59.0322 22.2832 59.1055 21.7799 58.9594 21.2894C58.8065 20.7946 58.4244 20.3584 57.8133 19.9808C57.2291 19.6029 56.5855 19.3648 55.8822 19.2665C55.1789 19.1595 54.4633 19.1876 53.7353 19.3506C53.014 19.5093 52.3311 19.8003 51.6864 20.2238C51.0552 20.6384 50.5865 21.0952 50.2802 21.594C49.9739 22.0928 49.8702 22.5855 49.969 23.0721C50.061 23.5544 50.389 23.9867 50.9529 24.3691L47.357 26.7312C46.2157 25.9752 45.5227 25.1087 45.2777 24.1316C45.0327 23.1458 45.1995 22.1434 45.7781 21.1243C46.35 20.1009 47.304 19.1503 48.6403 18.2725C50.0169 17.3682 51.4736 16.7483 53.0105 16.4128C54.5473 16.0685 56.0325 15.9902 57.4659 16.1779C58.8993 16.3655 60.1457 16.7941 61.2052 17.4638C62.3868 18.202 63.0291 19.0494 63.132 20.0059C63.2417 20.9581 62.8614 21.8775 61.9912 22.7643L62.1542 22.8673C63.8084 22.0433 65.463 21.6567 67.1181 21.7075C68.7731 21.7495 70.2492 22.1849 71.5465 23.0135C72.7146 23.7518 73.4314 24.629 73.6969 25.645C73.9624 26.6524 73.7825 27.6985 73.1572 28.7833C72.5385 29.8637 71.4906 30.8891 70.0133 31.8596Z" fill="#9A9A9A"/>
<defs>
<linearGradient id="paint0_linear_56_1723" x1="5.78911" y1="53.5812" x2="90.5037" y2="53.5812" gradientUnits="userSpaceOnUse">
<stop offset="0.49037" stop-color="#848484"/>
<stop offset="0.528239" stop-color="#686868"/>
</linearGradient>
</defs>
</svg>
