<svg width="97" height="86" viewBox="0 0 97 86" fill="none" xmlns="http://www.w3.org/2000/svg">
<path d="M82.3668 25.1848H13.926C9.64528 25.1848 6.17505 28.6551 6.17505 32.9358V53.5596C6.17505 56.1826 7.50164 58.6276 9.7006 60.0575L44.8736 82.9295C47.4979 84.636 50.8912 84.5964 53.475 82.8291L86.7428 60.0735C88.8549 58.6288 90.1178 56.2348 90.1178 53.676V32.9358C90.1178 28.655 86.6476 25.1848 82.3668 25.1848Z" fill="url(#paint0_linear_91_2117)"/>
<path d="M9.45786 25.4999L43.5863 2.83607C46.1759 1.11641 49.5423 1.11019 52.1382 2.82027L86.5425 25.4846C91.121 28.5006 91.2064 35.1868 86.7066 38.3189L52.3029 62.2656C49.6327 64.1242 46.086 64.1175 43.4229 62.2489L9.29375 38.3017C4.82597 35.1668 4.91119 28.5192 9.45786 25.4999Z" fill="#BFBFBF"/>
<path d="M39.5061 47.5024L36.5216 45.5707L31.3204 30.735L33.7803 29.0804L38.0295 31.8306L36.5296 32.8395L40.0584 42.8444L40.2202 42.9492L52.3497 34.7903L55.4355 36.7875L39.5061 47.5024ZM53.1202 43.4191L48.3652 40.3415L47.0697 39.4502L32.4404 29.9817L35.9402 27.6275L56.6601 41.038L53.1202 43.4191ZM62.7555 36.938L54.0232 19.7905L53.8816 19.6988L43.772 26.499L40.6357 24.4691L54.5851 15.086L57.7922 17.1618L66.6053 34.3484L62.7555 36.938Z" fill="#9A9A9A"/>
<defs>
<linearGradient id="paint0_linear_91_2117" x1="5.78911" y1="54.8667" x2="90.5037" y2="54.8667" gradientUnits="userSpaceOnUse">
<stop offset="0.49037" stop-color="#848484"/>
<stop offset="0.528239" stop-color="#686868"/>
</linearGradient>
</defs>
</svg>
