<svg width="97" height="86" viewBox="0 0 97 86" fill="none" xmlns="http://www.w3.org/2000/svg">
<path d="M82.367 25.1846H13.9263C9.64553 25.1846 6.17529 28.6548 6.17529 32.9356V53.5593C6.17529 56.1823 7.50188 58.6274 9.70084 60.0573L44.8738 82.9293C47.4981 84.6358 50.8914 84.5962 53.4752 82.8288L86.743 60.0733C88.8551 58.6286 90.118 56.2346 90.118 53.6757V32.9356C90.118 28.6548 86.6478 25.1846 82.367 25.1846Z" fill="url(#paint0_linear_56_1843)"/>
<path d="M9.45785 25.4999L43.5863 2.83607C46.1758 1.11642 49.5423 1.1102 52.1382 2.82027L86.5425 25.4846C91.1209 28.5006 91.2064 35.1868 86.7065 38.3189L52.3029 62.2656C49.6327 64.1242 46.086 64.1175 43.4229 62.2489L9.29375 38.3017C4.82597 35.1668 4.91119 28.5192 9.45785 25.4999Z" fill="#BFBFBF"/>
<path d="M31.3304 30.7285L52.0502 44.1391L48.3404 46.6345L31.2729 35.5878L31.1529 35.6685L29.4589 40.8941L26.0191 38.6678L27.8006 33.1029L31.3304 30.7285ZM64.745 36.1208C63.0984 37.2283 61.2636 37.9061 59.2405 38.1542C57.2174 38.3933 55.0899 38.2086 52.8581 37.6C50.6262 36.9825 48.3805 35.9426 46.1211 34.4802C43.8682 33.0133 42.2626 31.5561 41.3043 30.1088C40.3458 28.6525 40.0351 27.2592 40.372 25.9286C40.7156 24.5936 41.7074 23.3746 43.3473 22.2715C44.9872 21.1684 46.8153 20.4906 48.8316 20.2382C50.8479 19.9859 52.9653 20.164 55.1837 20.7728C57.4088 21.377 59.6477 22.4082 61.9004 23.8662C64.1666 25.333 65.7857 26.7989 66.7577 28.2638C67.7295 29.7199 68.047 31.1177 67.7102 32.4571C67.38 33.7919 66.3916 35.0132 64.745 36.1208ZM61.5783 34.0712C62.8583 33.2102 63.2308 32.1184 62.6961 30.7956C62.1612 29.4639 60.6494 27.9927 58.1606 26.3818C56.5148 25.3167 54.9622 24.5361 53.5026 24.0401C52.043 23.5442 50.7199 23.3213 49.5333 23.3717C48.3401 23.4176 47.3201 23.7254 46.4735 24.2948C45.2002 25.1513 44.8343 26.2431 45.3759 27.5703C45.9106 28.8931 47.409 30.3556 49.8709 31.9578C51.5167 33.0319 53.0694 33.8213 54.5291 34.3261C55.9955 34.8264 57.3253 35.0536 58.5186 35.0076C59.7051 34.9573 60.725 34.6452 61.5783 34.0712Z" fill="#9A9A9A"/>
<defs>
<linearGradient id="paint0_linear_56_1843" x1="5.78935" y1="54.8665" x2="90.504" y2="54.8665" gradientUnits="userSpaceOnUse">
<stop offset="0.49037" stop-color="#848484"/>
<stop offset="0.528239" stop-color="#686868"/>
</linearGradient>
</defs>
</svg>
