<svg width="97" height="84" viewBox="0 0 97 84" fill="none" xmlns="http://www.w3.org/2000/svg">
<path d="M82.3668 24.5947H13.926C9.64528 24.5947 6.17505 28.065 6.17505 32.3457V52.1519C6.17505 54.8046 7.5316 57.273 9.7709 58.6951L44.9456 81.0323C47.5365 82.6776 50.854 82.6392 53.4061 80.9345L86.6721 58.7132C88.8251 57.2751 90.1178 54.857 90.1178 52.2679V32.3457C90.1178 28.065 86.6475 24.5947 82.3668 24.5947Z" fill="url(#paint0_linear_56_1863)"/>
<path d="M9.75405 24.7104L43.6565 2.72411C46.2133 1.06595 49.5046 1.05993 52.0675 2.70871L86.244 24.6954C90.916 27.7011 91.0022 34.5013 86.4078 37.6243L52.2319 60.8551C49.5933 62.6487 46.1252 62.6422 43.4933 60.8387L9.59018 37.6075C5.0278 34.4812 5.11372 27.7197 9.75405 24.7104Z" fill="#BFBFBF"/>
<path d="M31.4063 29.961L52.2692 43.1478L48.5323 45.6025L31.3469 34.7401L31.226 34.8195L29.5185 39.9592L26.0549 37.7699L27.8507 32.2966L31.4063 29.961ZM57.7896 39.5215L49.0004 22.6579L48.8578 22.5677L38.6745 29.257L35.5165 27.261L49.5677 18.0309L52.7969 20.0721L61.6675 36.9741L57.7896 39.5215Z" fill="#9A9A9A"/>
<defs>
<linearGradient id="paint0_linear_56_1863" x1="5.78911" y1="53.5812" x2="90.5037" y2="53.5812" gradientUnits="userSpaceOnUse">
<stop offset="0.49037" stop-color="#848484"/>
<stop offset="0.528239" stop-color="#686868"/>
</linearGradient>
</defs>
</svg>
