<svg width="97" height="86" viewBox="0 0 97 86" fill="none" xmlns="http://www.w3.org/2000/svg">
<path d="M82.3668 25.1848H13.926C9.64528 25.1848 6.17505 28.6551 6.17505 32.9358V53.5596C6.17505 56.1826 7.50163 58.6276 9.70059 60.0575L44.8736 82.9295C47.4979 84.636 50.8912 84.5964 53.475 82.8291L86.7428 60.0735C88.8548 58.6288 90.1178 56.2348 90.1178 53.676V32.9358C90.1178 28.655 86.6475 25.1848 82.3668 25.1848Z" fill="url(#paint0_linear_91_2297)"/>
<path d="M9.45785 25.4999L43.5863 2.83607C46.1758 1.11642 49.5423 1.1102 52.1382 2.82027L86.5425 25.4846C91.1209 28.5006 91.2064 35.1868 86.7065 38.3189L52.3029 62.2656C49.6327 64.1242 46.086 64.1175 43.4229 62.2489L9.29375 38.3017C4.82597 35.1668 4.91119 28.5192 9.45785 25.4999Z" fill="#BFBFBF"/>
<path d="M44.4706 49.2375L35.7383 32.09L35.5967 31.9984L25.4871 38.7986L22.3508 36.7687L36.3002 27.3856L39.5073 29.4613L48.3204 46.648L44.4706 49.2375ZM59.7781 38.9409L57.0667 37.186L57.1248 27.8397C57.1101 26.9326 57.0596 26.1521 56.9733 25.4979C56.887 24.8437 56.7043 24.2767 56.4251 23.7969C56.1459 23.317 55.7197 22.8915 55.1464 22.5205C54.4921 22.097 53.7856 21.8333 53.0269 21.7294C52.2615 21.6212 51.4939 21.6567 50.7243 21.8361C49.9547 22.0155 49.2433 22.3249 48.59 22.7644C47.9167 23.2173 47.4683 23.7058 47.2449 24.2299C47.0148 24.7497 47.0161 25.2697 47.2487 25.7898C47.488 26.3054 47.9617 26.7924 48.6699 27.2507L45.1401 29.6251C43.8248 28.7738 42.9783 27.8344 42.6003 26.8066C42.2224 25.7789 42.287 24.7429 42.7941 23.6985C43.3079 22.6496 44.2414 21.67 45.5947 20.7598C46.968 19.836 48.4343 19.1925 49.9936 18.8291C51.5529 18.4657 53.0711 18.3836 54.5482 18.583C56.032 18.7778 57.3539 19.2507 58.514 20.0015C59.2896 20.5035 59.9051 21.0955 60.3605 21.7774C60.8158 22.4592 61.1288 23.3437 61.2993 24.4308C61.4766 25.5133 61.5494 26.9199 61.5178 28.6504L61.6199 33.3755L61.7616 33.4672L70.6812 27.4674L73.8175 29.4973L59.7781 38.9409Z" fill="#9A9A9A"/>
<defs>
<linearGradient id="paint0_linear_91_2297" x1="5.78911" y1="54.8667" x2="90.5037" y2="54.8667" gradientUnits="userSpaceOnUse">
<stop offset="0.49037" stop-color="#848484"/>
<stop offset="0.528239" stop-color="#686868"/>
</linearGradient>
</defs>
</svg>
