<svg width="97" height="86" viewBox="0 0 97 86" fill="none" xmlns="http://www.w3.org/2000/svg">
<path d="M82.3668 25.1846H13.926C9.64528 25.1846 6.17505 28.6548 6.17505 32.9356V53.5593C6.17505 56.1823 7.50164 58.6274 9.7006 60.0573L44.8736 82.9293C47.4979 84.6358 50.8912 84.5962 53.475 82.8288L86.7428 60.0733C88.8549 58.6286 90.1178 56.2346 90.1178 53.6757V32.9356C90.1178 28.6548 86.6476 25.1846 82.3668 25.1846Z" fill="url(#paint0_linear_56_1753)"/>
<path d="M9.45786 25.4999L43.5863 2.83607C46.1759 1.11641 49.5423 1.11019 52.1382 2.82027L86.5425 25.4846C91.121 28.5006 91.2064 35.1868 86.7066 38.3189L52.3029 62.2656C49.6327 64.1242 46.086 64.1175 43.4229 62.2489L9.29375 38.3017C4.82597 35.1668 4.91119 28.5192 9.45786 25.4999Z" fill="#BFBFBF"/>
<path d="M51.6848 44.9056C50.0383 46.0132 48.2034 46.691 46.1804 46.939C44.1573 47.1782 42.0298 46.9935 39.798 46.3849C37.5661 45.7674 35.3204 44.7275 33.0609 43.2651C30.8081 41.7982 29.2025 40.341 28.2441 38.8936C27.2857 37.4374 26.9749 36.044 27.3119 34.7135C27.6555 33.3785 28.6472 32.1595 30.2872 31.0564C31.9271 29.9533 33.7552 29.2755 35.7715 29.0231C37.7878 28.7708 39.9052 28.9489 42.1236 29.5577C44.3486 30.1619 46.5875 31.1931 48.8403 32.6511C51.1065 34.1179 52.7256 35.5838 53.6975 37.0487C54.6694 38.5048 54.9869 39.9026 54.65 41.2419C54.3198 42.5768 53.3314 43.7981 51.6848 44.9056ZM48.5182 42.8561C49.7981 41.9951 50.1707 40.9032 49.6359 39.5804C49.1011 38.2488 47.5892 36.7775 45.1004 35.1667C43.4547 34.1015 41.9021 33.321 40.4424 32.825C38.9828 32.329 37.6598 32.1062 36.4732 32.1566C35.2799 32.2025 34.26 32.5102 33.4134 33.0797C32.1401 33.9362 31.7742 35.028 32.3157 36.3552C32.8505 37.678 34.3489 39.1405 36.8108 40.7427C38.4566 41.8167 40.0093 42.6062 41.469 43.111C42.9354 43.6113 44.2652 43.8385 45.4585 43.7925C46.645 43.7422 47.6649 43.4301 48.5182 42.8561ZM69.596 32.7108C68.1094 33.7108 66.5365 34.435 64.8774 34.8833C63.2249 35.3272 61.6336 35.4851 60.1035 35.357C58.5733 35.2201 57.2517 34.7871 56.1387 34.058C55.262 33.4993 54.6494 32.8564 54.301 32.1294C53.9525 31.4023 53.8588 30.6642 54.0198 29.9149C54.1807 29.1568 54.5938 28.465 55.2588 27.8396L55.1172 27.7479C53.8278 28.3036 52.4316 28.5262 50.9284 28.4156C49.4252 28.2961 48.1171 27.8718 47.0042 27.1427C45.9318 26.4574 45.2741 25.6446 45.0311 24.7042C44.7881 23.7638 44.9438 22.7911 45.4982 21.7861C46.0458 20.7768 46.983 19.8259 48.3096 18.9336C49.6229 18.0502 51.0356 17.4204 52.5479 17.0442C54.06 16.6591 55.531 16.5376 56.9606 16.6798C58.3969 16.8176 59.6479 17.2313 60.7136 17.9211C61.8332 18.6457 62.4913 19.5072 62.688 20.5055C62.8845 21.495 62.5841 22.4137 61.7869 23.2615L61.9285 23.3532C62.8634 22.9024 63.897 22.6211 65.0294 22.5093C66.1616 22.3887 67.2819 22.4363 68.3904 22.6521C69.5054 22.8635 70.498 23.2508 71.3681 23.8139C72.4877 24.5386 73.1627 25.4066 73.3929 26.4179C73.6164 27.4248 73.4078 28.4777 72.767 29.5763C72.1329 30.6705 71.0759 31.7154 69.596 32.7108ZM66.7025 30.8381C67.4691 30.3224 68.0042 29.7889 68.3078 29.2375C68.6047 28.6817 68.667 28.1413 68.4947 27.6162C68.3224 27.0911 67.9225 26.6212 67.2952 26.2064C66.6276 25.783 65.8741 25.5198 65.035 25.4166C64.1957 25.3045 63.3444 25.3475 62.4811 25.5454C61.6244 25.7388 60.8328 26.0799 60.1061 26.5687C59.3728 27.062 58.8645 27.5953 58.5813 28.1686C58.298 28.742 58.246 29.3066 58.4252 29.8626C58.6044 30.4097 59.0279 30.895 59.6955 31.3183C60.3229 31.7331 61.036 31.9923 61.8349 32.0959C62.6271 32.1951 63.4415 32.1414 64.2779 31.9349C65.121 31.7238 65.9292 31.3582 66.7025 30.8381ZM57.2632 24.7287C57.8899 24.3072 58.315 23.852 58.5387 23.3633C58.7691 22.8701 58.7949 22.3809 58.6163 21.8957C58.4376 21.4105 58.0515 20.9714 57.4578 20.5784C56.8576 20.1987 56.1983 19.9568 55.4798 19.8525C54.7546 19.7439 54.0273 19.7746 53.2978 19.9448C52.5616 20.1106 51.8769 20.4066 51.2436 20.8325C50.5969 21.2675 50.1517 21.7317 49.908 22.225C49.6641 22.7095 49.6315 23.1899 49.8101 23.6663C49.9886 24.1337 50.3779 24.5573 50.9781 24.937C51.5717 25.33 52.2345 25.583 52.9665 25.696C53.6984 25.8001 54.4392 25.7737 55.1889 25.6166C55.9385 25.4506 56.6299 25.1547 57.2632 24.7287Z" fill="#9A9A9A"/>
<defs>
<linearGradient id="paint0_linear_56_1753" x1="5.78911" y1="54.8665" x2="90.5037" y2="54.8665" gradientUnits="userSpaceOnUse">
<stop offset="0.49037" stop-color="#848484"/>
<stop offset="0.528239" stop-color="#686868"/>
</linearGradient>
</defs>
</svg>
