<svg width="97" height="84" viewBox="0 0 97 84" fill="none" xmlns="http://www.w3.org/2000/svg">
<path d="M82.3668 24.5947H13.926C9.64528 24.5947 6.17505 28.065 6.17505 32.3457V52.1519C6.17505 54.8046 7.5316 57.273 9.7709 58.6951L44.9456 81.0323C47.5365 82.6776 50.854 82.6392 53.4061 80.9345L86.6721 58.7132C88.8251 57.2751 90.1178 54.857 90.1178 52.2679V32.3457C90.1178 28.065 86.6475 24.5947 82.3668 24.5947Z" fill="url(#paint0_linear_56_1838)"/>
<path d="M9.75405 24.7104L43.6565 2.72411C46.2133 1.06595 49.5046 1.05993 52.0675 2.70871L86.244 24.6954C90.916 27.7011 91.0022 34.5013 86.4078 37.6243L52.2319 60.8551C49.5933 62.6487 46.1252 62.6422 43.4933 60.8387L9.59018 37.6075C5.0278 34.4812 5.11372 27.7197 9.75405 24.7104Z" fill="#BFBFBF"/>
<path d="M34.4063 27.961L55.2692 41.1478L51.5323 43.6025L34.3469 32.7401L34.226 32.8195L32.5185 37.9592L29.0549 35.7699L30.8507 30.2966L34.4063 27.961ZM47.5616 19.3194L68.4246 32.5062L64.6877 34.9609L47.5022 24.0985L47.3814 24.1779L45.6739 29.3175L42.2103 27.1283L44.006 21.655L47.5616 19.3194Z" fill="#9A9A9A"/>
<defs>
<linearGradient id="paint0_linear_56_1838" x1="5.78911" y1="53.5812" x2="90.5037" y2="53.5812" gradientUnits="userSpaceOnUse">
<stop offset="0.49037" stop-color="#848484"/>
<stop offset="0.528239" stop-color="#686868"/>
</linearGradient>
</defs>
</svg>
