<svg width="97" height="86" viewBox="0 0 97 86" fill="none" xmlns="http://www.w3.org/2000/svg">
<path d="M82.3665 25.1848H13.9258C9.64504 25.1848 6.1748 28.6551 6.1748 32.9358V53.5596C6.1748 56.1826 7.50139 58.6276 9.70035 60.0575L44.8733 82.9295C47.4977 84.636 50.8909 84.5964 53.4747 82.8291L86.7425 60.0735C88.8546 58.6288 90.1175 56.2348 90.1175 53.676V32.9358C90.1175 28.655 86.6473 25.1848 82.3665 25.1848Z" fill="url(#paint0_linear_91_4707)"/>
<path d="M9.45785 25.4999L43.5863 2.83607C46.1758 1.11642 49.5423 1.1102 52.1382 2.82027L86.5425 25.4846C91.1209 28.5006 91.2064 35.1868 86.7065 38.3189L52.3029 62.2656C49.6327 64.1242 46.086 64.1175 43.4229 62.2489L9.29375 38.3017C4.82597 35.1668 4.91119 28.5192 9.45785 25.4999Z" fill="#2A6AFF"/>
<path d="M51.1236 45.1363C49.7903 46.0331 48.3441 46.6721 46.7849 47.0532C45.2191 47.4299 43.681 47.5387 42.1707 47.3794C40.6671 47.2157 39.322 46.7763 38.1354 46.0611L41.7352 43.6396C42.6517 44.1448 43.7097 44.3501 44.9093 44.2554C46.1021 44.1563 47.1618 43.7952 48.0884 43.1719C48.8151 42.6831 49.2931 42.139 49.5225 41.5396C49.7519 40.9401 49.7298 40.3363 49.4562 39.7281C49.1825 39.1198 48.658 38.5691 47.8824 38.0759C47.1067 37.5651 46.2486 37.2253 45.3083 37.0566C44.3679 36.8879 43.4358 36.8873 42.5118 37.0548C41.5811 37.2179 40.7391 37.5528 39.9858 38.0596C39.3658 38.4677 38.8771 38.9478 38.5199 39.4996C38.1626 40.0515 38.0029 40.5685 38.0407 41.0505L34.1344 42.9436L24.5207 35.3091L36.4002 27.3183L39.5365 29.3482L30.7269 35.274L35.6305 39.2265L35.7505 39.1458C35.6786 38.5977 35.8409 37.9945 36.2374 37.336C36.6272 36.6732 37.2354 36.0638 38.0621 35.5078C39.302 34.6737 40.7054 34.1215 42.2722 33.8509C43.8323 33.576 45.4083 33.5842 47.0002 33.8754C48.5922 34.1667 50.0525 34.7423 51.3812 35.6023C52.7504 36.4885 53.6578 37.4894 54.1036 38.605C54.5493 39.7117 54.5257 40.8359 54.0329 41.9775C53.54 43.1103 52.5702 44.1632 51.1236 45.1363ZM68.7035 33.3112C67.2636 34.2797 65.7341 34.9792 64.115 35.4095C62.5026 35.8353 60.9279 35.9775 59.391 35.8363C57.854 35.695 56.4822 35.2602 55.2753 34.5319L59.0352 32.0028C59.6283 32.3427 60.3006 32.5359 61.0521 32.5824C61.7969 32.6245 62.5606 32.5336 63.3432 32.3099C64.1258 32.0861 64.8605 31.7433 65.5471 31.2814C66.2804 30.7882 66.8022 30.268 67.1126 29.721C67.4162 29.1696 67.4953 28.6356 67.3499 28.1192C67.2045 27.6027 66.8249 27.1503 66.2112 26.7619C65.5906 26.3514 64.8776 26.1011 64.072 26.0109C63.2665 25.9207 62.4189 25.9967 61.5291 26.2392C60.646 26.4771 59.7711 26.8875 58.9045 27.4704L57.0946 28.6879L54.2011 26.8151L56.011 25.5977C56.7243 25.1179 57.2228 24.6179 57.5066 24.0976C57.797 23.5729 57.8696 23.0611 57.7244 22.5624C57.5724 22.0592 57.1929 21.6157 56.586 21.2316C56.0058 20.8474 55.3666 20.6052 54.6683 20.5052C53.9699 20.3963 53.2593 20.4247 52.5365 20.5904C51.8204 20.7517 51.1423 21.0475 50.5024 21.478C49.8757 21.8995 49.4104 22.3638 49.1064 22.871C48.8024 23.3781 48.6996 23.8791 48.7978 24.3738C48.8894 24.8642 49.2151 25.3038 49.7752 25.6927L46.2053 28.094C45.0719 27.3252 44.3834 26.444 44.1399 25.4505C43.8963 24.4482 44.0617 23.429 44.6359 22.3928C45.2035 21.3523 46.1505 20.3859 47.4771 19.4935C48.8437 18.5743 50.29 17.9442 51.816 17.6032C53.3419 17.2534 54.8165 17.174 56.2399 17.3649C57.6633 17.5559 58.9011 17.9919 59.9532 18.6729C61.1267 19.4236 61.7647 20.2853 61.8672 21.2579C61.9764 22.226 61.5991 23.1609 60.7353 24.0624L60.8971 24.1672C62.5394 23.3295 64.1823 22.9366 65.8257 22.9885C67.4691 23.0315 68.935 23.4743 70.2233 24.3169C71.3834 25.0678 72.0954 25.9598 72.3594 26.9929C72.6233 28.0172 72.4449 29.0808 71.8243 30.1837C71.2104 31.2822 70.1701 32.3246 68.7035 33.3112Z" fill="white"/>
<defs>
<linearGradient id="paint0_linear_91_4707" x1="5.78886" y1="54.8667" x2="90.5035" y2="54.8667" gradientUnits="userSpaceOnUse">
<stop offset="0.49037" stop-color="#012C95"/>
<stop offset="0.528239" stop-color="#032062"/>
</linearGradient>
</defs>
</svg>
