<svg width="97" height="86" viewBox="0 0 97 86" fill="none" xmlns="http://www.w3.org/2000/svg">
<path d="M82.3666 25.1848H13.9258C9.64504 25.1848 6.1748 28.6551 6.1748 32.9358V53.5596C6.1748 56.1826 7.50139 58.6276 9.70035 60.0575L44.8733 82.9295C47.4977 84.636 50.891 84.5964 53.4748 82.8291L86.7426 60.0735C88.8546 58.6288 90.1176 56.2348 90.1176 53.676V32.9358C90.1176 28.655 86.6473 25.1848 82.3666 25.1848Z" fill="url(#paint0_linear_91_4462)"/>
<path d="M9.45786 25.4999L43.5863 2.83607C46.1759 1.11641 49.5423 1.11019 52.1382 2.82027L86.5425 25.4846C91.121 28.5006 91.2064 35.1868 86.7066 38.3189L52.3029 62.2656C49.6327 64.1242 46.086 64.1175 43.4229 62.2489L9.29375 38.3017C4.82597 35.1668 4.91119 28.5192 9.45786 25.4999Z" fill="#2A6AFF"/>
<path d="M51.2836 45.0284C49.797 46.0284 48.2241 46.7526 46.565 47.2009C44.9125 47.6448 43.3212 47.8027 41.7911 47.6746C40.2609 47.5377 38.9393 47.1047 37.8263 46.3755C36.9496 45.8169 36.337 45.174 35.9885 44.447C35.6401 43.7199 35.5464 42.9817 35.7074 42.2325C35.8683 41.4743 36.2813 40.7826 36.9464 40.1572L36.8048 40.0655C35.5154 40.6212 34.1192 40.8438 32.616 40.7332C31.1128 40.6137 29.8047 40.1894 28.6918 39.4603C27.6194 38.775 26.9617 37.9622 26.7187 37.0218C26.4757 36.0814 26.6314 35.1087 27.1858 34.1037C27.7334 33.0944 28.6706 32.1435 29.9972 31.2512C31.3105 30.3678 32.7232 29.738 34.2355 29.3617C35.7476 28.9766 37.2186 28.8552 38.6482 28.9974C40.0845 29.1352 41.3355 29.5489 42.4012 30.2386C43.5208 30.9633 44.1789 31.8248 44.3755 32.8231C44.5721 33.8126 44.2717 34.7313 43.4745 35.5791L43.6161 35.6708C44.551 35.22 45.5846 34.9387 46.7169 34.8269C47.8492 34.7063 48.9695 34.7539 50.078 34.9697C51.193 35.1811 52.1856 35.5684 53.0557 36.1315C54.1753 36.8562 54.8503 37.7242 55.0805 38.7355C55.304 39.7424 55.0954 40.7952 54.4546 41.8939C53.8205 42.9881 52.7635 44.033 51.2836 45.0284ZM48.3901 43.1557C49.1567 42.64 49.6918 42.1065 49.9954 41.555C50.2923 40.9993 50.3546 40.4589 50.1823 39.9338C50.01 39.4087 49.6101 38.9388 48.9828 38.5239C48.3152 38.1006 47.5617 37.8374 46.7226 37.7342C45.8833 37.6221 45.032 37.6651 44.1687 37.863C43.312 38.0564 42.5204 38.3975 41.7937 38.8863C41.0604 39.3795 40.5521 39.9128 40.2688 40.4862C39.9856 41.0595 39.9336 41.6242 40.1128 42.1802C40.292 42.7273 40.7155 43.2125 41.3831 43.6359C42.0105 44.0507 42.7236 44.3099 43.5225 44.4135C44.3147 44.5126 45.129 44.459 45.9655 44.2524C46.8086 44.0414 47.6168 43.6758 48.3901 43.1557ZM38.9508 37.0463C39.5775 36.6248 40.0026 36.1696 40.2263 35.6809C40.4567 35.1877 40.4825 34.6985 40.3038 34.2133C40.1252 33.7281 39.7391 33.289 39.1454 32.896C38.5452 32.5163 37.8859 32.2743 37.1674 32.1701C36.4422 32.0614 35.7149 32.0922 34.9854 32.2624C34.2492 32.4282 33.5645 32.7241 32.9311 33.1501C32.2845 33.5851 31.8393 34.0493 31.5956 34.5426C31.3517 35.0271 31.3191 35.5075 31.4977 35.9838C31.6762 36.4513 32.0655 36.8749 32.6657 37.2546C33.2593 37.6476 33.9221 37.9006 34.6541 38.0136C35.386 38.1177 36.1268 38.0913 36.8764 37.9342C37.6261 37.7682 38.3175 37.4723 38.9508 37.0463ZM69.061 33.0705C67.6211 34.039 66.0916 34.7385 64.4725 35.1688C62.8601 35.5946 61.2854 35.7368 59.7485 35.5956C58.2115 35.4543 56.8396 35.0195 55.6328 34.2912L59.3927 31.7621C59.9858 32.102 60.6581 32.2952 61.4096 32.3417C62.1544 32.3837 62.918 32.2929 63.7007 32.0692C64.4833 31.8454 65.2179 31.5026 65.9046 31.0407C66.6379 30.5475 67.1597 30.0273 67.4701 29.4803C67.7736 28.9289 67.8527 28.3949 67.7073 27.8785C67.5619 27.362 67.1824 26.9096 66.5687 26.5212C65.9481 26.1107 65.2351 25.8604 64.4295 25.7702C63.624 25.6799 62.7763 25.756 61.8866 25.9984C61.0035 26.2364 60.1286 26.6468 59.262 27.2297L57.4521 28.4472L54.5586 26.5744L56.3685 25.357C57.0818 24.8772 57.5803 24.3771 57.8641 23.8569C58.1545 23.3322 58.2271 22.8204 58.0819 22.3217C57.9299 21.8185 57.5504 21.375 56.9435 20.9909C56.3633 20.6067 55.7241 20.3645 55.0258 20.2645C54.3274 20.1556 53.6168 20.184 52.894 20.3497C52.1779 20.511 51.4998 20.8068 50.8599 21.2373C50.2332 21.6588 49.7679 22.1231 49.4639 22.6303C49.1599 23.1374 49.0571 23.6384 49.1553 24.1331C49.2468 24.6235 49.5726 25.0631 50.1327 25.452L46.5628 27.8533C45.4294 27.0845 44.7409 26.2033 44.4974 25.2098C44.2538 24.2075 44.4192 23.1883 44.9934 22.1521C45.5609 21.1116 46.508 20.1452 47.8346 19.2528C49.2012 18.3336 50.6475 17.7035 52.1735 17.3625C53.6994 17.0127 55.174 16.9333 56.5974 17.1242C58.0208 17.3152 59.2586 17.7512 60.3107 18.4322C61.4842 19.1829 62.1222 20.0446 62.2247 21.0172C62.3339 21.9853 61.9566 22.9202 61.0928 23.8217L61.2546 23.9264C62.8969 23.0888 64.5398 22.6959 66.1832 22.7478C67.8266 22.7907 69.2925 23.2336 70.5808 24.0762C71.7409 24.8271 72.4529 25.7191 72.7169 26.7522C72.9808 27.7765 72.8024 28.8401 72.1818 29.943C71.5679 31.0415 70.5276 32.0839 69.061 33.0705Z" fill="white"/>
<defs>
<linearGradient id="paint0_linear_91_4462" x1="5.78886" y1="54.8667" x2="90.5035" y2="54.8667" gradientUnits="userSpaceOnUse">
<stop offset="0.49037" stop-color="#012C95"/>
<stop offset="0.528239" stop-color="#032062"/>
</linearGradient>
</defs>
</svg>
