<svg width="97" height="86" viewBox="0 0 97 86" fill="none" xmlns="http://www.w3.org/2000/svg">
<path d="M82.3665 25.1848H13.9258C9.64504 25.1848 6.1748 28.6551 6.1748 32.9358V53.5596C6.1748 56.1826 7.50139 58.6276 9.70035 60.0575L44.8733 82.9295C47.4977 84.636 50.8909 84.5964 53.4747 82.8291L86.7425 60.0735C88.8546 58.6288 90.1175 56.2348 90.1175 53.676V32.9358C90.1175 28.655 86.6473 25.1848 82.3665 25.1848Z" fill="url(#paint0_linear_91_4782)"/>
<path d="M9.45785 25.4999L43.5863 2.83607C46.1758 1.11642 49.5423 1.1102 52.1382 2.82027L86.5425 25.4846C91.1209 28.5006 91.2064 35.1868 86.7065 38.3189L52.3029 62.2656C49.6327 64.1242 46.086 64.1175 43.4229 62.2489L9.29375 38.3017C4.82597 35.1668 4.91119 28.5192 9.45785 25.4999Z" fill="#2A6AFF"/>
<path d="M51.1236 45.1363C49.7903 46.0331 48.3441 46.6721 46.7849 47.0532C45.2191 47.4299 43.681 47.5387 42.1707 47.3794C40.6671 47.2157 39.322 46.7763 38.1354 46.0611L41.7352 43.6396C42.6517 44.1448 43.7097 44.3501 44.9093 44.2554C46.1021 44.1563 47.1618 43.7952 48.0884 43.1719C48.8151 42.6831 49.2931 42.139 49.5225 41.5396C49.7519 40.9401 49.7298 40.3363 49.4562 39.7281C49.1825 39.1198 48.658 38.5691 47.8824 38.0759C47.1067 37.5651 46.2486 37.2253 45.3083 37.0566C44.3679 36.8879 43.4358 36.8873 42.5118 37.0548C41.5811 37.2179 40.7391 37.5528 39.9858 38.0596C39.3658 38.4677 38.8771 38.9478 38.5199 39.4996C38.1626 40.0515 38.0029 40.5685 38.0407 41.0505L34.1344 42.9436L24.5207 35.3091L36.4002 27.3183L39.5365 29.3482L30.7269 35.274L35.6305 39.2265L35.7505 39.1458C35.6786 38.5977 35.8409 37.9945 36.2374 37.336C36.6272 36.6732 37.2354 36.0638 38.0621 35.5078C39.302 34.6737 40.7054 34.1215 42.2722 33.8509C43.8323 33.576 45.4083 33.5842 47.0002 33.8754C48.5922 34.1667 50.0525 34.7423 51.3812 35.6023C52.7504 36.4885 53.6578 37.4894 54.1036 38.605C54.5493 39.7117 54.5257 40.8359 54.0329 41.9775C53.54 43.1103 52.5702 44.1632 51.1236 45.1363ZM68.8535 33.2103C67.8668 33.8651 66.7382 34.3972 65.4677 34.8067C64.1904 35.2119 62.794 35.4167 61.2784 35.4213C59.7562 35.4215 58.1343 35.1549 56.4128 34.6214C54.6846 34.0835 52.8728 33.1969 50.9774 31.9613C49.2036 30.8132 47.8086 29.664 46.7925 28.5136C45.7764 27.3632 45.1395 26.2426 44.8817 25.1519C44.6171 24.0568 44.7253 23.0138 45.206 22.0227C45.6935 21.0272 46.5505 20.1168 47.7771 19.2918C49.0637 18.4263 50.46 17.8254 51.9659 17.489C53.4784 17.1482 54.9865 17.0596 56.4901 17.2233C57.987 17.3826 59.3652 17.7731 60.6247 18.3948L56.9749 20.8498C55.9924 20.4603 54.975 20.3078 53.9229 20.3923C52.8707 20.468 51.9047 20.8018 51.0247 21.3937C49.6048 22.3488 49.1354 23.488 49.6165 24.8113C50.1043 26.1301 51.4342 27.4968 53.606 28.9113L53.746 28.8171C53.4792 28.2132 53.3932 27.5989 53.4883 26.9741C53.5834 26.3493 53.8429 25.743 54.2669 25.1551C54.6908 24.5584 55.2694 24.0134 56.0027 23.5202C57.2026 22.713 58.5693 22.1765 60.1026 21.9107C61.6426 21.6404 63.2018 21.6465 64.7803 21.9291C66.352 22.2072 67.7887 22.772 69.0905 23.6233C70.4596 24.5007 71.3771 25.4993 71.8431 26.6191C72.3023 27.7346 72.2888 28.8654 71.8027 30.0113C71.3166 31.1573 70.3335 32.2236 68.8535 33.2103ZM65.7984 31.2593C66.525 30.7705 66.9962 30.2176 67.2121 29.6006C67.4279 28.9836 67.399 28.3666 67.1253 27.7495C66.8516 27.1324 66.3337 26.5816 65.5716 26.0972C64.8364 25.6125 64.0053 25.2857 63.0783 25.1169C62.1581 24.9437 61.2392 24.9341 60.3219 25.0882C59.4045 25.2424 58.5825 25.5639 57.8559 26.0526C57.3159 26.4158 56.9171 26.8221 56.6596 27.2713C56.402 27.7205 56.2854 28.1817 56.3097 28.655C56.3272 29.1239 56.4788 29.5828 56.7645 30.0316C57.05 30.4716 57.4626 30.8706 58.0023 31.2287C58.7306 31.6913 59.5616 32.0092 60.4953 32.1824C61.429 32.3556 62.3646 32.3672 63.3021 32.2173C64.2397 32.0674 65.0717 31.7481 65.7984 31.2593Z" fill="white"/>
<defs>
<linearGradient id="paint0_linear_91_4782" x1="5.78886" y1="54.8667" x2="90.5035" y2="54.8667" gradientUnits="userSpaceOnUse">
<stop offset="0.49037" stop-color="#012C95"/>
<stop offset="0.528239" stop-color="#032062"/>
</linearGradient>
</defs>
</svg>
