<svg width="97" height="84" viewBox="0 0 97 84" fill="none" xmlns="http://www.w3.org/2000/svg">
<path d="M82.3665 24.5947H13.9258C9.64504 24.5947 6.1748 28.065 6.1748 32.3457V52.1519C6.1748 54.8046 7.53136 57.273 9.77066 58.6951L44.9454 81.0323C47.5362 82.6776 50.8538 82.6392 53.4059 80.9345L86.6719 58.7132C88.8248 57.2751 90.1175 54.857 90.1175 52.2679V32.3457C90.1175 28.065 86.6473 24.5947 82.3665 24.5947Z" fill="url(#paint0_linear_56_1981)"/>
<path d="M9.75405 24.7104L43.6565 2.72411C46.2133 1.06595 49.5046 1.05993 52.0675 2.70871L86.244 24.6954C90.916 27.7011 91.0022 34.5013 86.4078 37.6243L52.2319 60.8551C49.5933 62.6487 46.1252 62.6422 43.4933 60.8387L9.59018 37.6075C5.0278 34.4812 5.11372 27.7197 9.75405 24.7104Z" fill="#2A6AFF"/>
<path d="M31.4063 29.961L52.2692 43.1478L48.5323 45.6025L31.3469 34.7401L31.226 34.8195L29.5185 39.9592L26.0549 37.7699L27.8507 32.2966L31.4063 29.961ZM64.6522 35.3812C63.1547 36.3649 61.5705 37.0773 59.8995 37.5184C58.2351 37.9552 56.6325 38.1107 55.0916 37.9849C53.5505 37.8505 52.2197 37.4247 51.0991 36.7078C50.2163 36.1584 49.5995 35.5263 49.2488 34.8112C48.8981 34.0962 48.8039 33.3702 48.9663 32.6333C49.1286 31.8876 49.5448 31.2072 50.2147 30.5921L50.0721 30.5019C48.7734 31.0486 47.3672 31.2677 45.8534 31.1591C44.3396 31.0418 43.0223 30.6247 41.9017 29.9077C40.822 29.2339 40.1598 28.4345 39.9154 27.5097C39.6709 26.5848 39.8279 25.6281 40.3866 24.6397C40.9384 23.6469 41.8825 22.7116 43.2188 21.8338C44.5416 20.9648 45.9646 20.3452 47.4877 19.975C49.0107 19.5961 50.4921 19.4764 51.9318 19.6161C53.3783 19.7514 54.6381 20.1582 55.7111 20.8364C56.8385 21.549 57.501 22.3962 57.6987 23.3781C57.8963 24.3512 57.5936 25.2547 56.7905 26.0887L56.9331 26.1788C57.8747 25.7354 58.9157 25.4586 60.0561 25.3485C61.1965 25.2297 62.3247 25.2764 63.441 25.4885C64.5639 25.6963 65.5634 26.077 66.4395 26.6308C67.5668 27.3434 68.2463 28.1969 68.4779 29.1916C68.7027 30.1819 68.4923 31.2174 67.8467 32.298C67.2077 33.3742 66.1429 34.402 64.6522 35.3812ZM61.7387 33.5397C62.5109 33.0324 63.05 32.5076 63.3559 31.9653C63.655 31.4186 63.7179 30.8871 63.5446 30.3707C63.3712 29.8543 62.9687 29.3922 62.337 28.9843C61.6647 28.568 60.906 28.3092 60.0609 28.2078C59.2158 28.0977 58.3584 28.14 57.4889 28.3348C56.6261 28.5252 55.8287 28.8607 55.0968 29.3415C54.3582 29.8267 53.8461 30.3513 53.5606 30.9152C53.2752 31.4792 53.2226 32.0345 53.403 32.5813C53.5833 33.1194 54.0096 33.5966 54.6819 34.0128C55.3136 34.4208 56.0317 34.6756 56.8363 34.7773C57.6341 34.8748 58.4542 34.8219 59.2966 34.6187C60.1457 34.411 60.9598 34.0514 61.7387 33.5397ZM52.2343 27.5322C52.8655 27.1176 53.2938 26.6699 53.5192 26.1892C53.7513 25.7041 53.7775 25.2229 53.5977 24.7458C53.4179 24.2686 53.0292 23.8368 52.4315 23.4503C51.8271 23.077 51.1632 22.8391 50.4396 22.7367C49.7093 22.6299 48.9768 22.6603 48.2421 22.8277C47.5006 22.9909 46.8109 23.282 46.173 23.7011C45.5217 24.1289 45.0732 24.5855 44.8275 25.0707C44.5818 25.5473 44.5488 26.0198 44.7285 26.4882C44.9082 26.948 45.3001 27.3645 45.9045 27.7379C46.5022 28.1243 47.1696 28.3731 47.9067 28.4841C48.6438 28.5864 49.3899 28.5603 50.1449 28.4057C50.8999 28.2424 51.5963 27.9513 52.2343 27.5322Z" fill="white"/>
<defs>
<linearGradient id="paint0_linear_56_1981" x1="5.78886" y1="53.5812" x2="90.5035" y2="53.5812" gradientUnits="userSpaceOnUse">
<stop offset="0.49037" stop-color="#002D95"/>
<stop offset="0.528239" stop-color="#032063"/>
</linearGradient>
</defs>
</svg>
