<svg width="97" height="86" viewBox="0 0 97 86" fill="none" xmlns="http://www.w3.org/2000/svg">
<path d="M82.3665 25.1848H13.9258C9.64504 25.1848 6.1748 28.6551 6.1748 32.9358V53.5596C6.1748 56.1826 7.50139 58.6276 9.70035 60.0575L44.8733 82.9295C47.4977 84.636 50.8909 84.5964 53.4747 82.8291L86.7425 60.0735C88.8546 58.6288 90.1175 56.2348 90.1175 53.676V32.9358C90.1175 28.655 86.6473 25.1848 82.3665 25.1848Z" fill="url(#paint0_linear_91_4727)"/>
<path d="M9.45785 25.4999L43.5863 2.83607C46.1758 1.11642 49.5423 1.1102 52.1382 2.82027L86.5425 25.4846C91.1209 28.5006 91.2064 35.1868 86.7065 38.3189L52.3029 62.2656C49.6327 64.1242 46.086 64.1175 43.4229 62.2489L9.29375 38.3017C4.82597 35.1668 4.91119 28.5192 9.45785 25.4999Z" fill="#2A6AFF"/>
<path d="M44.4706 49.2375L35.7383 32.09L35.5967 31.9984L25.4871 38.7986L22.3508 36.7687L36.3002 27.3856L39.5073 29.4613L48.3204 46.648L44.4706 49.2375ZM53.9137 37.8114L50.9291 35.8797L45.728 21.044L48.1879 19.3893L52.4371 22.1396L50.9371 23.1485L54.4659 33.1534L54.6278 33.2582L66.7573 25.0993L69.843 27.0965L53.9137 37.8114ZM67.5278 33.7281L62.7727 30.6505L61.4773 29.7592L46.8479 20.2907L50.3478 17.9365L71.0676 31.347L67.5278 33.7281Z" fill="white"/>
<defs>
<linearGradient id="paint0_linear_91_4727" x1="5.78886" y1="54.8667" x2="90.5035" y2="54.8667" gradientUnits="userSpaceOnUse">
<stop offset="0.49037" stop-color="#012C95"/>
<stop offset="0.528239" stop-color="#032062"/>
</linearGradient>
</defs>
</svg>
