<svg width="97" height="86" viewBox="0 0 97 86" fill="none" xmlns="http://www.w3.org/2000/svg">
<path d="M82.367 25.1846H13.9263C9.64553 25.1846 6.17529 28.6548 6.17529 32.9356V53.5593C6.17529 56.1823 7.50188 58.6274 9.70084 60.0573L44.8738 82.9293C47.4981 84.6358 50.8914 84.5962 53.4752 82.8288L86.743 60.0733C88.8551 58.6286 90.118 56.2346 90.118 53.6757V32.9356C90.118 28.6548 86.6478 25.1846 82.367 25.1846Z" fill="url(#paint0_linear_91_4792)"/>
<path d="M9.45785 25.4999L43.5863 2.83607C46.1758 1.11642 49.5423 1.1102 52.1382 2.82027L86.5425 25.4846C91.1209 28.5006 91.2064 35.1868 86.7065 38.3189L52.3029 62.2656C49.6327 64.1242 46.086 64.1175 43.4229 62.2489L9.29375 38.3017C4.82597 35.1668 4.91119 28.5192 9.45785 25.4999Z" fill="#2A6AFF"/>
<path d="M31.3304 30.7285L52.0502 44.1391L48.3404 46.6345L31.2729 35.5878L31.1529 35.6685L29.4589 40.8941L26.0191 38.6678L27.8006 33.1029L31.3304 30.7285ZM57.5307 40.4527L48.7984 23.3052L48.6568 23.2135L38.5472 30.0137L35.4109 27.9838L49.3603 18.6007L52.5675 20.6765L61.3805 37.8631L57.5307 40.4527Z" fill="white"/>
<defs>
<linearGradient id="paint0_linear_91_4792" x1="5.78935" y1="54.8665" x2="90.504" y2="54.8665" gradientUnits="userSpaceOnUse">
<stop offset="0.49037" stop-color="#012C95"/>
<stop offset="0.528239" stop-color="#032062"/>
</linearGradient>
</defs>
</svg>
