<svg width="97" height="86" viewBox="0 0 97 86" fill="none" xmlns="http://www.w3.org/2000/svg">
<path d="M82.3666 25.1846H13.9258C9.64504 25.1846 6.1748 28.6548 6.1748 32.9356V53.5593C6.1748 56.1823 7.50139 58.6274 9.70035 60.0573L44.8733 82.9293C47.4977 84.6358 50.891 84.5962 53.4748 82.8288L86.7426 60.0733C88.8546 58.6286 90.1176 56.2346 90.1176 53.6757V32.9356C90.1176 28.6548 86.6473 25.1846 82.3666 25.1846Z" fill="url(#paint0_linear_91_4517)"/>
<path d="M9.45786 25.4999L43.5863 2.83607C46.1759 1.11641 49.5423 1.11019 52.1382 2.82027L86.5425 25.4846C91.121 28.5006 91.2064 35.1868 86.7066 38.3189L52.3029 62.2656C49.6327 64.1242 46.086 64.1175 43.4229 62.2489L9.29375 38.3017C4.82597 35.1668 4.91119 28.5192 9.45786 25.4999Z" fill="#2A6AFF"/>
<path d="M51.6848 44.9056C50.0383 46.0132 48.2034 46.691 46.1804 46.939C44.1573 47.1782 42.0298 46.9935 39.798 46.3849C37.5661 45.7674 35.3204 44.7275 33.0609 43.2651C30.8081 41.7982 29.2025 40.341 28.2441 38.8936C27.2857 37.4374 26.9749 36.044 27.3119 34.7135C27.6555 33.3785 28.6472 32.1595 30.2872 31.0564C31.9271 29.9533 33.7552 29.2755 35.7715 29.0231C37.7878 28.7708 39.9052 28.9489 42.1236 29.5577C44.3486 30.1619 46.5875 31.1931 48.8403 32.6511C51.1065 34.1179 52.7256 35.5838 53.6975 37.0487C54.6694 38.5048 54.9869 39.9026 54.65 41.2419C54.3198 42.5768 53.3314 43.7981 51.6848 44.9056ZM48.5182 42.8561C49.7981 41.9951 50.1707 40.9032 49.6359 39.5804C49.1011 38.2488 47.5892 36.7775 45.1004 35.1667C43.4547 34.1015 41.9021 33.321 40.4424 32.825C38.9828 32.329 37.6598 32.1062 36.4732 32.1566C35.2799 32.2025 34.26 32.5102 33.4134 33.0797C32.1401 33.9362 31.7742 35.028 32.3157 36.3552C32.8505 37.678 34.3489 39.1405 36.8108 40.7427C38.4566 41.8167 40.0093 42.6062 41.469 43.111C42.9354 43.6113 44.2652 43.8385 45.4585 43.7925C46.645 43.7422 47.6649 43.4301 48.5182 42.8561ZM69.816 32.5629C68.8293 33.2177 67.7006 33.7498 66.4301 34.1593C65.1528 34.5645 63.7564 34.7693 62.2409 34.7739C60.7186 34.7741 59.0967 34.5075 57.3753 33.974C55.647 33.4362 53.8352 32.5495 51.9399 31.3139C50.166 30.1658 48.771 29.0166 47.7549 27.8662C46.7389 26.7158 46.1019 25.5953 45.8441 24.5045C45.5796 23.4094 45.6877 22.3664 46.1685 21.3753C46.6559 20.3798 47.513 19.4694 48.7396 18.6444C50.0262 17.7789 51.4224 17.178 52.9283 16.8417C54.4409 16.5008 55.949 16.4122 57.4526 16.5759C58.9495 16.7352 60.3277 17.1257 61.5872 17.7474L57.9374 20.2024C56.9548 19.8129 55.9375 19.6604 54.8854 19.7449C53.8332 19.8206 52.8671 20.1544 51.9872 20.7463C50.5672 21.7014 50.0978 22.8406 50.579 24.1639C51.0668 25.4827 52.3966 26.8494 54.5685 28.2639L54.7085 28.1697C54.4416 27.5658 54.3557 26.9515 54.4508 26.3267C54.5458 25.7019 54.8053 25.0956 55.2293 24.5077C55.6532 23.911 56.2318 23.366 56.9651 22.8728C58.1651 22.0656 59.5317 21.5291 61.0651 21.2633C62.6051 20.993 64.1643 20.9992 65.7427 21.2817C67.3144 21.5598 68.7512 22.1246 70.053 22.9759C71.4221 23.8533 72.3396 24.8519 72.8055 25.9717C73.2647 27.0872 73.2513 28.218 72.7652 29.3639C72.279 30.5099 71.296 31.5762 69.816 32.5629ZM66.7608 30.6119C67.4875 30.1231 67.9587 29.5702 68.1746 28.9532C68.3904 28.3362 68.3615 27.7192 68.0877 27.1021C67.814 26.485 67.2962 25.9342 66.5341 25.4498C65.7988 24.9651 64.9677 24.6383 64.0408 24.4695C63.1205 24.2963 62.2017 24.2867 61.2843 24.4408C60.367 24.595 59.545 24.9165 58.8183 25.4052C58.2783 25.7684 57.8796 26.1747 57.622 26.6239C57.3645 27.0731 57.2478 27.5343 57.2721 28.0076C57.2897 28.4765 57.4413 28.9354 57.7269 29.3842C58.0125 29.8242 58.4251 30.2233 58.9647 30.5813C59.6931 31.044 60.5241 31.3618 61.4578 31.535C62.3915 31.7082 63.3271 31.7198 64.2646 31.5699C65.2021 31.42 66.0342 31.1007 66.7608 30.6119Z" fill="white"/>
<defs>
<linearGradient id="paint0_linear_91_4517" x1="5.78886" y1="54.8665" x2="90.5035" y2="54.8665" gradientUnits="userSpaceOnUse">
<stop offset="0.49037" stop-color="#012C95"/>
<stop offset="0.528239" stop-color="#032062"/>
</linearGradient>
</defs>
</svg>
