<svg width="97" height="86" viewBox="0 0 97 86" fill="none" xmlns="http://www.w3.org/2000/svg">
<path d="M82.367 25.1846H13.9263C9.64553 25.1846 6.17529 28.6548 6.17529 32.9356V53.5593C6.17529 56.1823 7.50188 58.6274 9.70084 60.0573L44.8738 82.9293C47.4981 84.6358 50.8914 84.5962 53.4752 82.8288L86.743 60.0733C88.8551 58.6286 90.118 56.2346 90.118 53.6757V32.9356C90.118 28.6548 86.6478 25.1846 82.367 25.1846Z" fill="url(#paint0_linear_91_4742)"/>
<path d="M9.45785 25.4999L43.5863 2.83607C46.1758 1.11642 49.5423 1.1102 52.1382 2.82027L86.5425 25.4846C91.1209 28.5006 91.2064 35.1868 86.7065 38.3189L52.3029 62.2656C49.6327 64.1242 46.086 64.1175 43.4229 62.2489L9.29375 38.3017C4.82597 35.1668 4.91119 28.5192 9.45785 25.4999Z" fill="#2A6AFF"/>
<path d="M31.3304 30.7285L52.0502 44.1391L48.3404 46.6345L31.2729 35.5878L31.1529 35.6685L29.4589 40.8941L26.0191 38.6678L27.8006 33.1029L31.3304 30.7285ZM64.1837 36.3514C62.8504 37.2482 61.4042 37.8872 59.8451 38.2683C58.2792 38.645 56.7411 38.7538 55.2308 38.5946C53.7272 38.4309 52.3821 37.9914 51.1955 37.2762L54.7953 34.8548C55.7118 35.36 56.7699 35.5652 57.9694 35.4705C59.1622 35.3714 60.2219 35.0103 61.1486 34.387C61.8752 33.8982 62.3532 33.3541 62.5826 32.7547C62.812 32.1553 62.7899 31.5514 62.5163 30.9432C62.2427 30.3349 61.7181 29.7842 60.9425 29.291C60.1668 28.7802 59.3088 28.4404 58.3684 28.2717C57.4281 28.103 56.4959 28.1024 55.572 28.2699C54.6413 28.433 53.7992 28.768 53.0459 29.2747C52.4259 29.6828 51.9372 30.1629 51.58 30.7147C51.2228 31.2666 51.063 31.7836 51.1008 32.2656L47.1945 34.1587L37.5808 26.5242L49.4603 18.5334L52.5966 20.5634L43.787 26.4892L48.6906 30.4416L48.8106 30.3609C48.7387 29.8128 48.901 29.2096 49.2975 28.5512C49.6873 27.8884 50.2955 27.2789 51.1222 26.7229C52.3621 25.8889 53.7655 25.3366 55.3323 25.066C56.8924 24.7911 58.4684 24.7993 60.0604 25.0906C61.6523 25.3818 63.1126 25.9574 64.4413 26.8174C65.8105 27.7036 66.718 28.7045 67.1637 29.8201C67.6094 30.9268 67.5859 32.051 67.093 33.1927C66.6001 34.3254 65.6303 35.3783 64.1837 36.3514Z" fill="white"/>
<defs>
<linearGradient id="paint0_linear_91_4742" x1="5.78935" y1="54.8665" x2="90.504" y2="54.8665" gradientUnits="userSpaceOnUse">
<stop offset="0.49037" stop-color="#012C95"/>
<stop offset="0.528239" stop-color="#032062"/>
</linearGradient>
</defs>
</svg>
