<svg width="97" height="86" viewBox="0 0 97 86" fill="none" xmlns="http://www.w3.org/2000/svg">
<path d="M82.367 25.1848H13.9263C9.64553 25.1848 6.17529 28.6551 6.17529 32.9358V53.5596C6.17529 56.1826 7.50188 58.6276 9.70084 60.0575L44.8738 82.9295C47.4981 84.636 50.8914 84.5964 53.4752 82.8291L86.743 60.0735C88.8551 58.6288 90.118 56.2348 90.118 53.676V32.9358C90.118 28.655 86.6478 25.1848 82.367 25.1848Z" fill="url(#paint0_linear_91_4882)"/>
<path d="M9.45785 25.4999L43.5863 2.83607C46.1758 1.11642 49.5423 1.1102 52.1382 2.82027L86.5425 25.4846C91.1209 28.5006 91.2064 35.1868 86.7065 38.3189L52.3029 62.2656C49.6327 64.1242 46.086 64.1175 43.4229 62.2489L9.29375 38.3017C4.82597 35.1668 4.91119 28.5192 9.45785 25.4999Z" fill="#2A6AFF"/>
<path d="M51.5036 44.8807C50.5169 45.5355 49.3882 46.0677 48.1177 46.4772C46.8404 46.8823 45.444 47.0872 43.9285 47.0917C42.4062 47.0919 40.7843 46.8253 39.0628 46.2918C37.3346 45.754 35.5228 44.8673 33.6275 43.6318C31.8536 42.4837 30.4586 41.3344 29.4425 40.184C28.4264 39.0336 27.7895 37.9131 27.5317 36.8224C27.2672 35.7273 27.3753 34.6842 27.8561 33.6931C28.3435 32.6976 29.2006 31.7873 30.4272 30.9622C31.7138 30.0968 33.11 29.4959 34.6159 29.1595C36.1285 28.8186 37.6366 28.7301 39.1402 28.8938C40.6371 29.0531 42.0153 29.4436 43.2748 30.0652L39.625 32.5203C38.6424 32.1307 37.6251 31.9782 36.573 32.0627C35.5208 32.1384 34.5547 32.4722 33.6748 33.0641C32.2548 34.0193 31.7854 35.1585 32.2666 36.4817C32.7544 37.8005 34.0842 39.1672 36.2561 40.5817L36.3961 40.4875C36.1292 39.8837 36.0433 39.2693 36.1384 38.6445C36.2334 38.0198 36.4929 37.4134 36.9169 36.8256C37.3408 36.2288 37.9194 35.6839 38.6527 35.1906C39.8527 34.3835 41.2193 33.847 42.7527 33.5812C44.2927 33.3109 45.8519 33.317 47.4303 33.5995C49.002 33.8776 50.4388 34.4424 51.7406 35.2938C53.1097 36.1711 54.0272 37.1697 54.4931 38.2896C54.9523 39.405 54.9388 40.5358 54.4527 41.6818C53.9666 42.8278 52.9836 43.8941 51.5036 44.8807ZM48.4484 42.9297C49.1751 42.4409 49.6463 41.8881 49.8621 41.2711C50.078 40.654 50.049 40.037 49.7753 39.4199C49.5016 38.8028 48.9837 38.252 48.2217 37.7676C47.4864 37.2829 46.6553 36.9562 45.7284 36.7874C44.8081 36.6141 43.8893 36.6045 42.9719 36.7587C42.0546 36.9128 41.2326 37.2343 40.5059 37.7231C39.9659 38.0863 39.5672 38.4925 39.3096 38.9417C39.0521 39.3909 38.9354 39.8522 38.9597 40.3255C38.9773 40.7944 39.1289 41.2532 39.4145 41.7021C39.7001 42.1421 40.1127 42.5411 40.6523 42.8992C41.3807 43.3618 42.2117 43.6797 43.1454 43.8528C44.0791 44.026 45.0147 44.0376 45.9522 43.8877C46.8897 43.7378 47.7218 43.4185 48.4484 42.9297ZM69.4748 32.9393C67.8282 34.0468 65.9934 34.7246 63.9703 34.9727C61.9472 35.2118 59.8197 35.0271 57.5879 34.4185C55.356 33.801 53.1103 32.7611 50.8509 31.2987C48.598 29.8318 46.9924 28.3746 46.0341 26.9273C45.0756 25.471 44.7649 24.0776 45.1018 22.7471C45.4454 21.4121 46.4372 20.1931 48.0771 19.09C49.717 17.9869 51.5452 17.3091 53.5614 17.0567C55.5777 16.8044 57.6951 16.9825 59.9135 17.5913C62.1386 18.1955 64.3775 19.2267 66.6302 20.6847C68.8964 22.1515 70.5155 23.6174 71.4875 25.0823C72.4593 26.5384 72.7768 27.9362 72.44 29.2755C72.1098 30.6104 71.1214 31.8317 69.4748 32.9393ZM66.3081 30.8897C67.5881 30.0287 67.9606 28.9369 67.4259 27.6141C66.891 26.2824 65.3792 24.8112 62.8904 23.2003C61.2446 22.1352 59.692 21.3546 58.2324 20.8586C56.7728 20.3627 55.4497 20.1398 54.2632 20.1902C53.0699 20.2361 52.0499 20.5439 51.2033 21.1133C49.93 21.9698 49.5641 23.0616 50.1057 24.3888C50.6404 25.7116 52.1388 27.1741 54.6007 28.7763C56.2465 29.8504 57.7992 30.6398 59.2589 31.1446C60.7253 31.6449 62.0551 31.8721 63.2484 31.8261C64.4349 31.7758 65.4548 31.4637 66.3081 30.8897Z" fill="white"/>
<defs>
<linearGradient id="paint0_linear_91_4882" x1="5.78935" y1="54.8667" x2="90.504" y2="54.8667" gradientUnits="userSpaceOnUse">
<stop offset="0.49037" stop-color="#012C95"/>
<stop offset="0.528239" stop-color="#032062"/>
</linearGradient>
</defs>
</svg>
