<svg width="97" height="86" viewBox="0 0 97 86" fill="none" xmlns="http://www.w3.org/2000/svg">
<path d="M82.3666 25.1846H13.9258C9.64504 25.1846 6.1748 28.6548 6.1748 32.9356V53.5593C6.1748 56.1823 7.50139 58.6274 9.70035 60.0573L44.8733 82.9293C47.4977 84.6358 50.891 84.5962 53.4748 82.8288L86.7426 60.0733C88.8546 58.6286 90.1176 56.2346 90.1176 53.6757V32.9356C90.1176 28.6548 86.6473 25.1846 82.3666 25.1846Z" fill="url(#paint0_linear_91_4492)"/>
<path d="M9.45786 25.4999L43.5863 2.83607C46.1759 1.11641 49.5423 1.11019 52.1382 2.82027L86.5425 25.4846C91.121 28.5006 91.2064 35.1868 86.7066 38.3189L52.3029 62.2656C49.6327 64.1242 46.086 64.1175 43.4229 62.2489L9.29375 38.3017C4.82597 35.1668 4.91119 28.5192 9.45786 25.4999Z" fill="#2A6AFF"/>
<path d="M51.6848 44.9056C50.0383 46.0132 48.2034 46.691 46.1804 46.939C44.1573 47.1782 42.0298 46.9935 39.798 46.3849C37.5661 45.7674 35.3204 44.7275 33.0609 43.2651C30.8081 41.7982 29.2025 40.341 28.2441 38.8936C27.2857 37.4374 26.9749 36.044 27.3119 34.7135C27.6555 33.3785 28.6472 32.1595 30.2872 31.0564C31.9271 29.9533 33.7552 29.2755 35.7715 29.0231C37.7878 28.7708 39.9052 28.9489 42.1236 29.5577C44.3486 30.1619 46.5875 31.1931 48.8403 32.6511C51.1065 34.1179 52.7256 35.5838 53.6975 37.0487C54.6694 38.5048 54.9869 39.9026 54.65 41.2419C54.3198 42.5768 53.3314 43.7981 51.6848 44.9056ZM48.5182 42.8561C49.7981 41.9951 50.1707 40.9032 49.6359 39.5804C49.1011 38.2488 47.5892 36.7775 45.1004 35.1667C43.4547 34.1015 41.9021 33.321 40.4424 32.825C38.9828 32.329 37.6598 32.1062 36.4732 32.1566C35.2799 32.2025 34.26 32.5102 33.4134 33.0797C32.1401 33.9362 31.7742 35.028 32.3157 36.3552C32.8505 37.678 34.3489 39.1405 36.8108 40.7427C38.4566 41.8167 40.0093 42.6062 41.469 43.111C42.9354 43.6113 44.2652 43.8385 45.4585 43.7925C46.645 43.7422 47.6649 43.4301 48.5182 42.8561ZM69.436 32.8185C68.1027 33.7153 66.6565 34.3542 65.0974 34.7353C63.5315 35.1121 61.9934 35.2208 60.4831 35.0616C58.9795 34.8979 57.6344 34.4585 56.4478 33.7432L60.0476 31.3218C60.9641 31.827 62.0222 32.0323 63.2217 31.9376C64.4145 31.8385 65.4742 31.4773 66.4009 30.854C67.1275 30.3653 67.6055 29.8212 67.8349 29.2217C68.0643 28.6223 68.0422 28.0185 67.7686 27.4102C67.495 26.802 66.9704 26.2513 66.1948 25.7581C65.4191 25.2472 64.561 24.9075 63.6207 24.7388C62.6803 24.5701 61.7482 24.5695 60.8242 24.737C59.8935 24.9001 59.0515 25.235 58.2982 25.7417C57.6782 26.1499 57.1895 26.6299 56.8323 27.1818C56.475 27.7337 56.3153 28.2506 56.3531 28.7326L52.4468 30.6258L42.8331 22.9912L54.7126 15.0005L57.8489 17.0304L49.0393 22.9562L53.9429 26.9087L54.0629 26.828C53.991 26.2799 54.1533 25.6766 54.5498 25.0182C54.9396 24.3554 55.5478 23.746 56.3745 23.19C57.6144 22.3559 59.0178 21.8036 60.5846 21.5331C62.1447 21.2582 63.7207 21.2664 65.3126 21.5576C66.9046 21.8489 68.3649 22.4245 69.6936 23.2845C71.0628 24.1706 71.9702 25.1715 72.416 26.2871C72.8617 27.3939 72.8381 28.5181 72.3453 29.6597C71.8524 30.7925 70.8826 31.8454 69.436 32.8185Z" fill="white"/>
<defs>
<linearGradient id="paint0_linear_91_4492" x1="5.78886" y1="54.8665" x2="90.5035" y2="54.8665" gradientUnits="userSpaceOnUse">
<stop offset="0.49037" stop-color="#012C95"/>
<stop offset="0.528239" stop-color="#032062"/>
</linearGradient>
</defs>
</svg>
