<svg width="97" height="84" viewBox="0 0 97 84" fill="none" xmlns="http://www.w3.org/2000/svg">
<path d="M82.3666 24.5947H13.9258C9.64504 24.5947 6.1748 28.065 6.1748 32.3457V52.1519C6.1748 54.8046 7.53136 57.273 9.77066 58.6951L44.9454 81.0323C47.5362 82.6776 50.8538 82.6392 53.4059 80.9345L86.6719 58.7132C88.8248 57.2751 90.1176 54.857 90.1176 52.2679V32.3457C90.1176 28.065 86.6473 24.5947 82.3666 24.5947Z" fill="url(#paint0_linear_56_1931)"/>
<path d="M9.75405 24.7104L43.6565 2.72411C46.2133 1.06595 49.5046 1.05993 52.0675 2.70871L86.244 24.6954C90.916 27.7011 91.0022 34.5013 86.4078 37.6243L52.2319 60.8551C49.5933 62.6487 46.1252 62.6422 43.4933 60.8387L9.59018 37.6075C5.0278 34.4812 5.11372 27.7197 9.75405 24.7104Z" fill="#2A6AFF"/>
<path d="M51.901 43.9018C50.2424 44.9913 48.3944 45.6581 46.3569 45.9023C44.3193 46.1378 42.1768 45.9564 39.9294 45.3581C37.6818 44.7511 35.4205 43.7286 33.1454 42.2906C30.877 40.8481 29.2605 39.4152 28.2957 37.9918C27.3309 36.5597 27.0183 35.1894 27.3581 33.8808C27.7045 32.5677 28.7036 31.3687 30.3555 30.2836C32.0074 29.1984 33.8487 28.5317 35.8794 28.2832C37.9101 28.0347 40.0424 28.2097 42.2763 28.8081C44.517 29.4021 46.7715 30.416 49.0398 31.8497C51.3217 33.292 52.9518 34.7335 53.9303 36.1742C54.9086 37.6062 55.2279 38.9808 54.8883 40.2981C54.5554 41.611 53.5596 42.8123 51.901 43.9018ZM48.7125 41.8864C50.0018 41.0395 50.3773 39.9656 49.8391 38.6647C49.3008 37.355 47.7787 35.9082 45.2727 34.3243C43.6156 33.2769 42.0522 32.5094 40.5823 32.0218C39.1125 31.5342 37.7801 31.3152 36.5852 31.3648C35.3834 31.4102 34.3561 31.713 33.5033 32.2732C32.2207 33.1157 31.852 34.1895 32.3969 35.4947C32.9351 36.7957 34.4437 38.2339 36.9226 39.8094C38.5798 40.8655 40.1433 41.6417 41.6132 42.138C43.0898 42.6299 44.429 42.8532 45.6307 42.8078C46.8257 42.7581 47.853 42.451 48.7125 41.8864ZM69.9428 31.9059C68.4453 32.8895 66.8611 33.6019 65.19 34.0431C63.5257 34.4799 61.9231 34.6353 60.3821 34.5096C58.8411 34.3751 57.5103 33.9494 56.3896 33.2324C55.5068 32.6831 54.8901 32.0509 54.5394 31.3359C54.1887 30.6209 54.0945 29.8949 54.2569 29.158C54.4192 28.4123 54.8353 27.7319 55.5053 27.1167L55.3627 27.0266C54.064 27.5733 52.6578 27.7923 51.144 27.6838C49.6302 27.5665 48.3129 27.1493 47.1923 26.4324C46.1125 25.7585 45.4504 24.9592 45.2059 24.0343C44.9614 23.1095 45.1185 22.1528 45.6772 21.1643C46.229 20.1715 47.1731 19.2363 48.5094 18.3585C49.8322 17.4895 51.2552 16.8699 52.7783 16.4997C54.3013 16.1207 55.7827 16.0011 57.2224 16.1408C58.6689 16.2761 59.9287 16.6829 61.0017 17.3611C62.129 18.0737 62.7916 18.9209 62.9893 19.9027C63.1869 20.8759 62.8842 21.7794 62.0811 22.6134L62.2237 22.7035C63.1653 22.26 64.2063 21.9833 65.3467 21.8732C66.487 21.7544 67.6153 21.801 68.7315 22.0132C69.8545 22.221 70.854 22.6017 71.7301 23.1555C72.8574 23.868 73.5369 24.7216 73.7685 25.7162C73.9933 26.7065 73.7829 27.742 73.1372 28.8227C72.4983 29.8989 71.4335 30.9266 69.9428 31.9059ZM67.0293 30.0644C67.8015 29.5571 68.3406 29.0323 68.6465 28.4899C68.9456 27.9433 69.0085 27.4118 68.8351 26.8954C68.6618 26.379 68.2592 25.9169 67.6276 25.5089C66.9553 25.0927 66.1966 24.8339 65.3515 24.7325C64.5064 24.6224 63.649 24.6647 62.7795 24.8595C61.9167 25.0498 61.1193 25.3854 60.3874 25.8662C59.6487 26.3514 59.1367 26.876 58.8512 27.4399C58.5658 28.0038 58.5132 28.5592 58.6936 29.106C58.8739 29.6441 59.3002 30.1212 59.9725 30.5375C60.6041 30.9454 61.3223 31.2003 62.1268 31.302C62.9246 31.3995 63.7447 31.3466 64.5872 31.1433C65.4363 30.9357 66.2504 30.576 67.0293 30.0644ZM57.5248 24.0569C58.1561 23.6422 58.5844 23.1946 58.8098 22.7139C59.0419 22.2287 59.0681 21.7476 58.8883 21.2704C58.7085 20.7933 58.3198 20.3615 57.7221 19.975C57.1177 19.6017 56.4538 19.3638 55.7302 19.2613C54.9999 19.1546 54.2674 19.1849 53.5327 19.3524C52.7912 19.5156 52.1015 19.8067 51.4636 20.2257C50.8122 20.6536 50.3637 21.1102 50.1181 21.5954C49.8724 22.0719 49.8394 22.5444 50.0191 23.0129C50.1987 23.4727 50.5907 23.8892 51.1951 24.2625C51.7928 24.649 52.4602 24.8977 53.1973 25.0088C53.9344 25.1111 54.6804 25.085 55.4355 24.9304C56.1905 24.7671 56.8869 24.4759 57.5248 24.0569Z" fill="white"/>
<defs>
<linearGradient id="paint0_linear_56_1931" x1="5.78886" y1="53.5812" x2="90.5035" y2="53.5812" gradientUnits="userSpaceOnUse">
<stop offset="0.49037" stop-color="#002D95"/>
<stop offset="0.528239" stop-color="#032063"/>
</linearGradient>
</defs>
</svg>
