<svg width="97" height="84" viewBox="0 0 97 84" fill="none" xmlns="http://www.w3.org/2000/svg">
<path d="M82.3665 24.5947H13.9258C9.64504 24.5947 6.1748 28.065 6.1748 32.3457V52.1519C6.1748 54.8046 7.53136 57.273 9.77066 58.6951L44.9454 81.0323C47.5362 82.6776 50.8538 82.6392 53.4059 80.9345L86.6719 58.7132C88.8248 57.2751 90.1175 54.857 90.1175 52.2679V32.3457C90.1175 28.065 86.6473 24.5947 82.3665 24.5947Z" fill="url(#paint0_linear_56_1961)"/>
<path d="M9.75405 24.7104L43.6565 2.72411C46.2133 1.06595 49.5046 1.05993 52.0675 2.70871L86.244 24.6954C90.916 27.7011 91.0022 34.5013 86.4078 37.6243L52.2319 60.8551C49.5933 62.6487 46.1252 62.6422 43.4933 60.8387L9.59018 37.6075C5.0278 34.4812 5.11372 27.7197 9.75405 24.7104Z" fill="#2A6AFF"/>
<path d="M31.4063 29.961L52.2692 43.1478L48.5323 45.6025L31.3469 34.7401L31.226 34.8195L29.5185 39.9592L26.0549 37.7699L27.8507 32.2966L31.4063 29.961ZM52.7904 37.8158L49.7853 35.9163L44.5516 21.326L47.0294 19.6983L51.3079 22.4026L49.7971 23.3951L53.348 33.2346L53.511 33.3376L65.7289 25.3118L68.8359 27.2757L52.7904 37.8158ZM66.5023 33.7982L61.7144 30.7719L60.4101 29.8955L45.6797 20.5849L49.2051 18.2691L70.068 31.456L66.5023 33.7982Z" fill="white"/>
<defs>
<linearGradient id="paint0_linear_56_1961" x1="5.78886" y1="53.5812" x2="90.5035" y2="53.5812" gradientUnits="userSpaceOnUse">
<stop offset="0.49037" stop-color="#002D95"/>
<stop offset="0.528239" stop-color="#032063"/>
</linearGradient>
</defs>
</svg>
