<svg width="97" height="86" viewBox="0 0 97 86" fill="none" xmlns="http://www.w3.org/2000/svg">
<path d="M82.3666 25.1848H13.9258C9.64504 25.1848 6.1748 28.6551 6.1748 32.9358V53.5596C6.1748 56.1826 7.50139 58.6276 9.70035 60.0575L44.8733 82.9295C47.4977 84.636 50.891 84.5964 53.4748 82.8291L86.7426 60.0735C88.8546 58.6288 90.1176 56.2348 90.1176 53.676V32.9358C90.1176 28.655 86.6473 25.1848 82.3666 25.1848Z" fill="url(#paint0_linear_91_4527)"/>
<path d="M9.45786 25.4999L43.5863 2.83607C46.1759 1.11641 49.5423 1.11019 52.1382 2.82027L86.5425 25.4846C91.121 28.5006 91.2064 35.1868 86.7066 38.3189L52.3029 62.2656C49.6327 64.1242 46.086 64.1175 43.4229 62.2489L9.29375 38.3017C4.82597 35.1668 4.91119 28.5192 9.45786 25.4999Z" fill="#2A6AFF"/>
<path d="M51.5036 44.8805C50.5169 45.5353 49.3882 46.0674 48.1177 46.4769C46.8404 46.8821 45.444 47.0869 43.9285 47.0915C42.4062 47.0917 40.7843 46.8251 39.0629 46.2916C37.3346 45.7537 35.5228 44.8671 33.6275 43.6315C31.8536 42.4834 30.4586 41.3342 29.4425 40.1838C28.4264 39.0334 27.7895 37.9128 27.5317 36.8221C27.2672 35.727 27.3753 34.6839 27.8561 33.6929C28.3435 32.6973 29.2006 31.787 30.4272 30.962C31.7138 30.0965 33.11 29.4956 34.6159 29.1592C36.1285 28.8184 37.6366 28.7298 39.1402 28.8935C40.6371 29.0528 42.0153 29.4433 43.2748 30.065L39.625 32.52C38.6424 32.1305 37.6251 31.978 36.573 32.0625C35.5208 32.1382 34.5547 32.472 33.6748 33.0639C32.2548 34.019 31.7854 35.1582 32.2666 36.4815C32.7544 37.8003 34.0842 39.1669 36.2561 40.5815L36.3961 40.4873C36.1292 39.8834 36.0433 39.2691 36.1384 38.6443C36.2334 38.0195 36.4929 37.4132 36.9169 36.8253C37.3408 36.2286 37.9194 35.6836 38.6527 35.1904C39.8527 34.3832 41.2193 33.8467 42.7527 33.5809C44.2927 33.3106 45.8519 33.3167 47.4303 33.5993C49.002 33.8774 50.4388 34.4422 51.7406 35.2935C53.1097 36.1709 54.0272 37.1695 54.4931 38.2893C54.9523 39.4048 54.9389 40.5355 54.4527 41.6815C53.9666 42.8275 52.9836 43.8938 51.5036 44.8805ZM48.4484 42.9295C49.1751 42.4407 49.6463 41.8878 49.8621 41.2708C50.078 40.6538 50.0491 40.0368 49.7753 39.4197C49.5016 38.8026 48.9837 38.2518 48.2217 37.7674C47.4864 37.2827 46.6553 36.9559 45.7284 36.7871C44.8081 36.6139 43.8893 36.6043 42.9719 36.7584C42.0546 36.9126 41.2326 37.234 40.5059 37.7228C39.9659 38.086 39.5672 38.4923 39.3096 38.9415C39.0521 39.3907 38.9354 39.8519 38.9597 40.3252C38.9773 40.7941 39.1289 41.253 39.4145 41.7018C39.7001 42.1418 40.1127 42.5408 40.6523 42.8989C41.3807 43.3615 42.2117 43.6794 43.1454 43.8526C44.0791 44.0258 45.0147 44.0374 45.9522 43.8875C46.8897 43.7376 47.7218 43.4182 48.4484 42.9295ZM69.2935 32.9141C68.3068 33.5689 67.1782 34.101 65.9076 34.5105C64.6304 34.9157 63.234 35.1205 61.7184 35.1251C60.1961 35.1253 58.5743 34.8587 56.8528 34.3252C55.1246 33.7874 53.3128 32.9007 51.4174 31.6651C49.6436 30.517 48.2486 29.3678 47.2325 28.2174C46.2164 27.067 45.5794 25.9465 45.3217 24.8557C45.0571 23.7606 45.1652 22.7176 45.646 21.7265C46.1335 20.731 46.9905 19.8206 48.2171 18.9956C49.5037 18.1301 50.9 17.5292 52.4059 17.1929C53.9184 16.852 55.4265 16.7634 56.9301 16.9271C58.427 17.0864 59.8052 17.4769 61.0647 18.0986L57.4149 20.5536C56.4323 20.1641 55.415 20.0116 54.3629 20.0961C53.3107 20.1718 52.3447 20.5056 51.4647 21.0975C50.0447 22.0526 49.5753 23.1918 50.0565 24.5151C50.5443 25.8339 51.8741 27.2006 54.046 28.6151L54.186 28.5209C53.9191 27.917 53.8332 27.3027 53.9283 26.6779C54.0233 26.0531 54.2829 25.4468 54.7069 24.8589C55.1308 24.2622 55.7094 23.7172 56.4427 23.224C57.6426 22.4168 59.0093 21.8803 60.5426 21.6145C62.0826 21.3442 63.6418 21.3504 65.2203 21.6329C66.7919 21.911 68.2287 22.4758 69.5305 23.3271C70.8996 24.2045 71.8171 25.2031 72.2831 26.3229C72.7422 27.4384 72.7288 28.5692 72.2427 29.7151C71.7566 30.8611 70.7735 31.9274 69.2935 32.9141ZM66.2384 30.9631C66.965 30.4743 67.4362 29.9214 67.6521 29.3044C67.8679 28.6874 67.839 28.0704 67.5653 27.4533C67.2916 26.8362 66.7737 26.2854 66.0116 25.801C65.2763 25.3163 64.4452 24.9895 63.5183 24.8207C62.598 24.6475 61.6792 24.6379 60.7619 24.792C59.8445 24.9462 59.0225 25.2677 58.2958 25.7564C57.7559 26.1196 57.3571 26.5259 57.0995 26.9751C56.842 27.4243 56.7254 27.8855 56.7497 28.3588C56.7672 28.8277 56.9188 29.2866 57.2045 29.7354C57.49 30.1754 57.9026 30.5745 58.4423 30.9325C59.1706 31.3952 60.0016 31.713 60.9353 31.8862C61.869 32.0594 62.8046 32.071 63.7421 31.9211C64.6796 31.7712 65.5117 31.4519 66.2384 30.9631Z" fill="white"/>
<defs>
<linearGradient id="paint0_linear_91_4527" x1="5.78886" y1="54.8667" x2="90.5035" y2="54.8667" gradientUnits="userSpaceOnUse">
<stop offset="0.49037" stop-color="#012C95"/>
<stop offset="0.528239" stop-color="#032062"/>
</linearGradient>
</defs>
</svg>
