<svg width="97" height="86" viewBox="0 0 97 86" fill="none" xmlns="http://www.w3.org/2000/svg">
<path d="M82.3666 25.1846H13.9258C9.64504 25.1846 6.1748 28.6548 6.1748 32.9356V53.5593C6.1748 56.1823 7.50139 58.6274 9.70035 60.0573L44.8733 82.9293C47.4977 84.6358 50.891 84.5962 53.4748 82.8288L86.7426 60.0733C88.8546 58.6286 90.1176 56.2346 90.1176 53.6757V32.9356C90.1176 28.6548 86.6473 25.1846 82.3666 25.1846Z" fill="url(#paint0_linear_91_4572)"/>
<path d="M9.45786 25.4999L43.5863 2.83607C46.1759 1.11641 49.5423 1.11019 52.1382 2.82027L86.5425 25.4846C91.121 28.5006 91.2064 35.1868 86.7066 38.3189L52.3029 62.2656C49.6327 64.1242 46.086 64.1175 43.4229 62.2489L9.29375 38.3017C4.82597 35.1668 4.91119 28.5192 9.45786 25.4999Z" fill="#2A6AFF"/>
<path d="M43.7206 49.742L41.0092 47.9871L41.0673 38.6407C41.0526 37.7337 41.0021 36.9531 40.9158 36.299C40.8295 35.6448 40.6468 35.0778 40.3676 34.5979C40.0884 34.1181 39.6622 33.6926 39.0889 33.3215C38.4346 32.8981 37.7281 32.6344 36.9694 32.5305C36.204 32.4222 35.4364 32.4578 34.6668 32.6372C33.8972 32.8166 33.1858 33.126 32.5325 33.5654C31.8592 34.0183 31.4108 34.5069 31.1874 35.031C30.9573 35.5508 30.9586 36.0707 31.1912 36.5908C31.4305 37.1065 31.9042 37.5934 32.6124 38.0518L29.0826 40.4262C27.7673 39.5749 26.9208 38.6354 26.5428 37.6077C26.1649 36.58 26.2295 35.544 26.7366 34.4996C27.2504 33.4507 28.1839 32.4711 29.5372 31.5608C30.9105 30.6371 32.3768 29.9935 33.9361 29.6301C35.4954 29.2668 37.0136 29.1847 38.4907 29.3841C39.9745 29.5789 41.2964 30.0517 42.4565 30.8026C43.2321 31.3046 43.8476 31.8966 44.303 32.5784C44.7583 33.2603 45.0713 34.1448 45.2418 35.2318C45.4191 36.3144 45.4919 37.721 45.4603 39.4515L45.5624 44.1766L45.7041 44.2683L54.6237 38.2685L57.76 40.2984L43.7206 49.742ZM68.3035 33.5802C66.8169 34.5802 65.2441 35.3043 63.5849 35.7527C61.9324 36.1965 60.3411 36.3544 58.811 36.2264C57.2808 36.0895 55.9592 35.6565 54.8463 34.9273C53.9695 34.3687 53.357 33.7258 53.0085 32.9987C52.6601 32.2717 52.5663 31.5335 52.7274 30.7842C52.8883 30.0261 53.3013 29.3344 53.9664 28.709L53.8247 28.6173C52.5354 29.173 51.1391 29.3955 49.636 29.2849C48.1328 29.1655 46.8247 28.7412 45.7117 28.0121C44.6394 27.3268 43.9817 26.514 43.7387 25.5736C43.4956 24.6332 43.6513 23.6605 44.2057 22.6555C44.7534 21.6461 45.6905 20.6953 47.0171 19.803C48.3304 18.9196 49.7432 18.2898 51.2554 17.9135C52.7676 17.5284 54.2385 17.407 55.6682 17.5492C57.1045 17.6869 58.3555 18.1007 59.4212 18.7904C60.5408 19.5151 61.1989 20.3766 61.3955 21.3749C61.592 22.3644 61.2917 23.2831 60.4945 24.1309L60.6361 24.2226C61.571 23.7718 62.6046 23.4905 63.7369 23.3787C64.8692 23.258 65.9895 23.3056 67.0979 23.5215C68.213 23.7329 69.2056 24.1201 70.0756 24.6833C71.1953 25.4079 71.8702 26.2759 72.1005 27.2873C72.324 28.2942 72.1154 29.347 71.4746 30.4457C70.8405 31.5399 69.7835 32.5847 68.3035 33.5802ZM65.41 31.7074C66.1767 31.1918 66.7118 30.6582 67.0154 30.1068C67.3122 29.5511 67.3745 29.0106 67.2022 28.4856C67.0299 27.9605 66.6301 27.4906 66.0028 27.0757C65.3351 26.6524 64.5817 26.3891 63.7425 26.2859C62.9033 26.1739 62.052 26.2168 61.1886 26.4147C60.332 26.6082 59.5403 26.9493 58.8137 27.4381C58.0804 27.9313 57.5721 28.4646 57.2888 29.038C57.0055 29.6113 56.9535 30.176 57.1328 30.732C57.312 31.2791 57.7354 31.7643 58.4031 32.1876C59.0304 32.6025 59.7436 32.8617 60.5425 32.9652C61.3347 33.0644 62.149 33.0107 62.9854 32.8042C63.8285 32.5932 64.6367 32.2276 65.41 31.7074ZM55.9708 25.598C56.5974 25.1765 57.0226 24.7214 57.2463 24.2327C57.4766 23.7394 57.5025 23.2502 57.3238 22.765C57.1452 22.2799 56.759 21.8408 56.1654 21.4478C55.5652 21.0681 54.9059 20.8261 54.1874 20.7219C53.4622 20.6132 52.7348 20.644 52.0054 20.8142C51.2692 20.98 50.5844 21.2759 49.9511 21.7019C49.3045 22.1369 48.8593 22.601 48.6155 23.0944C48.3717 23.5789 48.339 24.0593 48.5176 24.5356C48.6961 25.0031 49.0855 25.4267 49.6857 25.8064C50.2793 26.1994 50.9421 26.4524 51.674 26.5654C52.4059 26.6695 53.1467 26.643 53.8964 26.4859C54.646 26.32 55.3375 26.024 55.9708 25.598Z" fill="white"/>
<defs>
<linearGradient id="paint0_linear_91_4572" x1="5.78886" y1="54.8665" x2="90.5035" y2="54.8665" gradientUnits="userSpaceOnUse">
<stop offset="0.49037" stop-color="#012C95"/>
<stop offset="0.528239" stop-color="#032062"/>
</linearGradient>
</defs>
</svg>
