<svg width="97" height="86" viewBox="0 0 97 86" fill="none" xmlns="http://www.w3.org/2000/svg">
<path d="M82.3665 25.1848H13.9258C9.64504 25.1848 6.1748 28.6551 6.1748 32.9358V53.5596C6.1748 56.1826 7.50139 58.6276 9.70035 60.0575L44.8733 82.9295C47.4977 84.636 50.8909 84.5964 53.4747 82.8291L86.7425 60.0735C88.8546 58.6288 90.1175 56.2348 90.1175 53.676V32.9358C90.1175 28.655 86.6473 25.1848 82.3665 25.1848Z" fill="url(#paint0_linear_91_4712)"/>
<path d="M9.45785 25.4999L43.5863 2.83607C46.1758 1.11642 49.5423 1.1102 52.1382 2.82027L86.5425 25.4846C91.1209 28.5006 91.2064 35.1868 86.7065 38.3189L52.3029 62.2656C49.6327 64.1242 46.086 64.1175 43.4229 62.2489L9.29375 38.3017C4.82597 35.1668 4.91119 28.5192 9.45785 25.4999Z" fill="#2A6AFF"/>
<path d="M29.8272 31.3658C30.8139 30.711 31.9426 30.1832 33.2132 29.7826C34.4837 29.3731 35.8767 29.166 37.3923 29.1615C38.9011 29.1525 40.5162 29.4148 42.2377 29.9483C43.9592 30.4817 45.7642 31.3596 47.6527 32.582C49.44 33.7299 50.8451 34.8857 51.868 36.0493C52.8908 37.2041 53.5345 38.329 53.799 39.4241C54.0636 40.5192 53.9554 41.5623 53.4747 42.5533C52.9939 43.5444 52.1369 44.4547 50.9036 45.2843C49.6103 46.1542 48.2074 46.7596 46.6948 47.1004C45.1889 47.4368 43.6842 47.5231 42.1806 47.3594C40.677 47.1957 39.2819 46.7899 37.9953 46.142L41.6451 43.6869C42.6546 44.0939 43.6888 44.2618 44.7478 44.1904C45.8066 44.1103 46.776 43.7742 47.656 43.1823C49.0759 42.2272 49.5453 41.088 49.0642 39.7647C48.5831 38.4414 47.233 37.0617 45.014 35.6255L44.874 35.7196C45.1408 36.3235 45.2301 36.94 45.1418 37.5692C45.0468 38.194 44.7839 38.8025 44.3532 39.3949C43.9293 39.9828 43.3506 40.5233 42.6173 41.0166C41.4174 41.8237 40.0474 42.3624 38.5074 42.6327C36.974 42.8985 35.4215 42.8924 33.8498 42.6142C32.2848 42.3316 30.8481 41.7713 29.5397 40.9332C28.1908 40.0601 27.2867 39.0703 26.8276 37.9636C26.3684 36.8481 26.3819 35.7174 26.868 34.5714C27.3474 33.4211 28.3338 32.3525 29.8272 31.3658ZM32.8723 33.3235C32.1524 33.8078 31.6811 34.3607 31.4586 34.9821C31.236 35.5948 31.2616 36.2096 31.5353 36.8267C31.8089 37.435 32.3167 37.9792 33.0586 38.4594C33.8005 38.9307 34.6315 39.2531 35.5518 39.4263C36.4787 39.5951 37.3975 39.6047 38.3082 39.455C39.2256 39.3009 40.0476 38.9794 40.7743 38.4907C41.3142 38.1274 41.713 37.7212 41.9706 37.272C42.2281 36.8228 42.3447 36.3615 42.3204 35.8883C42.2961 35.4062 42.1411 34.9451 41.8555 34.5051C41.5766 34.0606 41.1675 33.6682 40.628 33.3278C39.9198 32.8695 39.0989 32.5581 38.1653 32.3938C37.2383 32.225 36.3061 32.2156 35.3686 32.3655C34.4377 32.5109 33.6056 32.8302 32.8723 33.3235ZM69.1435 33.0152C67.7036 33.9838 66.1741 34.6832 64.555 35.1135C62.9426 35.5393 61.3679 35.6816 59.831 35.5403C58.294 35.399 56.9221 34.9643 55.7153 34.2359L59.4751 31.7069C60.0683 32.0468 60.7406 32.24 61.4921 32.2864C62.2369 32.3285 63.0005 32.2377 63.7832 32.0139C64.5658 31.7901 65.3004 31.4473 65.9871 30.9855C66.7204 30.4922 67.2422 29.9721 67.5525 29.425C67.8561 28.8736 67.9352 28.3397 67.7898 27.8232C67.6444 27.3068 67.2649 26.8544 66.6512 26.466C66.0306 26.0555 65.3175 25.8051 64.512 25.7149C63.7065 25.6247 62.8588 25.7008 61.9691 25.9432C61.086 26.1811 60.2111 26.5916 59.3445 27.1745L57.5346 28.3919L54.6411 26.5192L56.451 25.3017C57.1643 24.8219 57.6628 24.3219 57.9466 23.8016C58.237 23.2769 58.3096 22.7652 58.1644 22.2664C58.0124 21.7633 57.6329 21.3197 57.026 20.9357C56.4458 20.5514 55.8066 20.3093 55.1083 20.2092C54.4099 20.1004 53.6993 20.1288 52.9765 20.2945C52.2604 20.4557 51.5823 20.7515 50.9424 21.182C50.3157 21.6035 49.8504 22.0679 49.5464 22.575C49.2424 23.0822 49.1396 23.5831 49.2378 24.0779C49.3293 24.5683 49.6551 25.0079 50.2152 25.3968L46.6453 27.798C45.5119 27.0292 44.8234 26.1481 44.5799 25.1546C44.3363 24.1522 44.5017 23.133 45.0759 22.0969C45.6434 21.0564 46.5905 20.0899 47.9171 19.1976C49.2837 18.2783 50.73 17.6482 52.256 17.3073C53.7819 16.9574 55.2565 16.878 56.6799 17.069C58.1033 17.2599 59.341 17.6959 60.3932 18.3769C61.5667 19.1276 62.2047 19.9893 62.3072 20.9619C62.4164 21.9301 62.0391 22.8649 61.1753 23.7664L61.3371 23.8712C62.9794 23.0336 64.6223 22.6407 66.2657 22.6925C67.9091 22.7355 69.3749 23.1783 70.6633 24.021C71.8234 24.7718 72.5354 25.6638 72.7994 26.6969C73.0633 27.7212 72.8849 28.7848 72.2643 29.8878C71.6504 30.9862 70.6101 32.0287 69.1435 33.0152Z" fill="white"/>
<defs>
<linearGradient id="paint0_linear_91_4712" x1="5.78886" y1="54.8667" x2="90.5035" y2="54.8667" gradientUnits="userSpaceOnUse">
<stop offset="0.49037" stop-color="#012C95"/>
<stop offset="0.528239" stop-color="#032062"/>
</linearGradient>
</defs>
</svg>
