<svg width="97" height="84" viewBox="0 0 97 84" fill="none" xmlns="http://www.w3.org/2000/svg">
<path d="M82.3666 24.5947H13.9258C9.64504 24.5947 6.1748 28.065 6.1748 32.3457V52.1519C6.1748 54.8046 7.53136 57.273 9.77066 58.6951L44.9454 81.0323C47.5362 82.6776 50.8538 82.6392 53.4059 80.9345L86.6719 58.7132C88.8248 57.2751 90.1176 54.857 90.1176 52.2679V32.3457C90.1176 28.065 86.6473 24.5947 82.3666 24.5947Z" fill="url(#paint0_linear_56_1896)"/>
<path d="M9.75405 24.7104L43.6565 2.72411C46.2133 1.06595 49.5046 1.05993 52.0675 2.70871L86.244 24.6954C90.916 27.7011 91.0022 34.5013 86.4078 37.6243L52.2319 60.8551C49.5933 62.6487 46.1252 62.6422 43.4933 60.8387L9.59018 37.6075C5.0278 34.4812 5.11372 27.7197 9.75405 24.7104Z" fill="#2A6AFF"/>
<path d="M51.901 43.9018C50.2424 44.9913 48.3944 45.6581 46.3569 45.9023C44.3193 46.1378 42.1768 45.9564 39.9294 45.3581C37.6818 44.7511 35.4205 43.7286 33.1454 42.2906C30.877 40.8481 29.2605 39.4152 28.2957 37.9918C27.3309 36.5597 27.0183 35.1894 27.3581 33.8808C27.7045 32.5677 28.7036 31.3687 30.3555 30.2836C32.0074 29.1984 33.8487 28.5317 35.8794 28.2832C37.9101 28.0347 40.0424 28.2097 42.2763 28.8081C44.517 29.4021 46.7715 30.416 49.0398 31.8497C51.3217 33.292 52.9518 34.7335 53.9303 36.1742C54.9086 37.6062 55.2279 38.9808 54.8883 40.2981C54.5554 41.611 53.5596 42.8123 51.901 43.9018ZM48.7125 41.8864C50.0018 41.0395 50.3773 39.9656 49.8391 38.6647C49.3008 37.355 47.7787 35.9082 45.2727 34.3243C43.6156 33.2769 42.0522 32.5094 40.5823 32.0218C39.1125 31.5342 37.7801 31.3152 36.5852 31.3648C35.3834 31.4102 34.3561 31.713 33.5033 32.2732C32.2207 33.1157 31.852 34.1895 32.3969 35.4947C32.9351 36.7957 34.4437 38.2339 36.9226 39.8094C38.5798 40.8655 40.1433 41.6417 41.6132 42.138C43.0898 42.6299 44.429 42.8532 45.6307 42.8078C46.8257 42.7581 47.853 42.451 48.7125 41.8864ZM49.8522 17.844L70.7152 31.0308L66.9783 33.4856L49.7928 22.6232L49.6719 22.7026L47.9644 27.8422L44.5009 25.653L46.2966 20.1797L49.8522 17.844Z" fill="white"/>
<defs>
<linearGradient id="paint0_linear_56_1896" x1="5.78886" y1="53.5812" x2="90.5035" y2="53.5812" gradientUnits="userSpaceOnUse">
<stop offset="0.49037" stop-color="#002D95"/>
<stop offset="0.528239" stop-color="#032063"/>
</linearGradient>
</defs>
</svg>
