<svg width="97" height="86" viewBox="0 0 97 86" fill="none" xmlns="http://www.w3.org/2000/svg">
<path d="M82.367 25.1848H13.9263C9.64553 25.1848 6.17529 28.6551 6.17529 32.9358V53.5596C6.17529 56.1826 7.50188 58.6276 9.70084 60.0575L44.8738 82.9295C47.4981 84.636 50.8914 84.5964 53.4752 82.8291L86.743 60.0735C88.8551 58.6288 90.118 56.2348 90.118 53.676V32.9358C90.118 28.655 86.6478 25.1848 82.367 25.1848Z" fill="url(#paint0_linear_91_4632)"/>
<path d="M9.45785 25.4999L43.5863 2.83607C46.1758 1.11642 49.5423 1.1102 52.1382 2.82027L86.5425 25.4846C91.1209 28.5006 91.2064 35.1868 86.7065 38.3189L52.3029 62.2656C49.6327 64.1242 46.086 64.1175 43.4229 62.2489L9.29375 38.3017C4.82597 35.1668 4.91119 28.5192 9.45785 25.4999Z" fill="#2A6AFF"/>
<path d="M51.1236 45.1363C49.7903 46.0331 48.3441 46.6721 46.7849 47.0532C45.2191 47.4299 43.681 47.5387 42.1707 47.3794C40.6671 47.2157 39.322 46.7763 38.1354 46.0611L41.7352 43.6396C42.6517 44.1448 43.7097 44.3501 44.9093 44.2554C46.1021 44.1563 47.1618 43.7952 48.0884 43.1719C48.8151 42.6831 49.2931 42.139 49.5225 41.5396C49.7519 40.9401 49.7298 40.3363 49.4562 39.7281C49.1825 39.1198 48.658 38.5691 47.8824 38.0759C47.1067 37.5651 46.2486 37.2253 45.3083 37.0566C44.3679 36.8879 43.4358 36.8873 42.5118 37.0548C41.5811 37.2179 40.7391 37.5528 39.9858 38.0596C39.3658 38.4677 38.8771 38.9478 38.5199 39.4996C38.1626 40.0515 38.0029 40.5685 38.0407 41.0505L34.1344 42.9436L24.5207 35.3091L36.4002 27.3183L39.5365 29.3482L30.7269 35.274L35.6305 39.2265L35.7505 39.1458C35.6786 38.5977 35.8409 37.9945 36.2374 37.336C36.6272 36.6732 37.2354 36.0638 38.0621 35.5078C39.302 34.6737 40.7054 34.1215 42.2722 33.8509C43.8323 33.576 45.4083 33.5842 47.0002 33.8754C48.5922 34.1667 50.0525 34.7423 51.3812 35.6023C52.7504 36.4885 53.6578 37.4894 54.1036 38.605C54.5493 39.7117 54.5257 40.8359 54.0329 41.9775C53.54 43.1103 52.5702 44.1632 51.1236 45.1363ZM69.0348 33.2352C67.3882 34.3428 65.5534 35.0206 63.5303 35.2686C61.5072 35.5078 59.3797 35.3231 57.1479 34.7144C54.916 34.097 52.6704 33.057 50.4109 31.5946C48.1581 30.1277 46.5525 28.6706 45.5941 27.2232C44.6356 25.767 44.3249 24.3736 44.6618 23.0431C45.0054 21.7081 45.9972 20.489 47.6371 19.3859C49.2771 18.2828 51.1052 17.6051 53.1215 17.3527C55.1378 17.1003 57.2551 17.2785 59.4735 17.8872C61.6986 18.4915 63.9375 19.5226 66.1902 20.9807C68.4564 22.4474 70.0755 23.9133 71.0475 25.3783C72.0193 26.8344 72.3368 28.2321 72 29.5715C71.6698 30.9064 70.6814 32.1276 69.0348 33.2352ZM65.8681 31.1856C67.1481 30.3247 67.5207 29.2328 66.9859 27.91C66.451 26.5784 64.9392 25.1071 62.4504 23.4963C60.8047 22.4311 59.252 21.6505 57.7924 21.1546C56.3328 20.6586 55.0097 20.4358 53.8232 20.4861C52.6299 20.5321 51.6099 20.8398 50.7633 21.4093C49.49 22.2658 49.1241 23.3576 49.6657 24.6848C50.2005 26.0076 51.6988 27.4701 54.1607 29.0723C55.8065 30.1463 57.3593 30.9357 58.8189 31.4405C60.2853 31.9409 61.6151 32.1681 62.8084 32.1221C63.9949 32.0718 65.0148 31.7596 65.8681 31.1856Z" fill="white"/>
<defs>
<linearGradient id="paint0_linear_91_4632" x1="5.78935" y1="54.8667" x2="90.504" y2="54.8667" gradientUnits="userSpaceOnUse">
<stop offset="0.49037" stop-color="#012C95"/>
<stop offset="0.528239" stop-color="#032062"/>
</linearGradient>
</defs>
</svg>
