<svg width="97" height="86" viewBox="0 0 97 86" fill="none" xmlns="http://www.w3.org/2000/svg">
<path d="M82.3665 25.1848H13.9258C9.64504 25.1848 6.1748 28.6551 6.1748 32.9358V53.5596C6.1748 56.1826 7.50139 58.6276 9.70035 60.0575L44.8733 82.9295C47.4977 84.636 50.8909 84.5964 53.4747 82.8291L86.7425 60.0735C88.8546 58.6288 90.1175 56.2348 90.1175 53.676V32.9358C90.1175 28.655 86.6473 25.1848 82.3665 25.1848Z" fill="url(#paint0_linear_91_4827)"/>
<path d="M9.45785 25.4999L43.5863 2.83607C46.1758 1.11642 49.5423 1.1102 52.1382 2.82027L86.5425 25.4846C91.1209 28.5006 91.2064 35.1868 86.7065 38.3189L52.3029 62.2656C49.6327 64.1242 46.086 64.1175 43.4229 62.2489L9.29375 38.3017C4.82597 35.1668 4.91119 28.5192 9.45785 25.4999Z" fill="#2A6AFF"/>
<path d="M44.4706 49.2375L35.7383 32.09L35.5967 31.9984L25.4871 38.7986L22.3508 36.7687L36.3002 27.3856L39.5073 29.4613L48.3204 46.648L44.4706 49.2375ZM66.9286 34.5051C65.442 35.505 63.8691 36.2292 62.21 36.6775C60.5575 37.1214 58.9662 37.2793 57.4361 37.1512C55.9059 37.0143 54.5843 36.5813 53.4713 35.8522C52.5946 35.2935 51.982 34.6507 51.6336 33.9236C51.2851 33.1965 51.1914 32.4584 51.3524 31.7091C51.5134 30.951 51.9264 30.2592 52.5914 29.6338L52.4498 29.5421C51.1604 30.0978 49.7642 30.3204 48.261 30.2098C46.7578 30.0903 45.4497 29.6661 44.3368 28.9369C43.2644 28.2517 42.6068 27.4388 42.3637 26.4984C42.1207 25.558 42.2764 24.5853 42.8308 23.5804C43.3785 22.571 44.3156 21.6201 45.6422 20.7278C46.9555 19.8444 48.3682 19.2146 49.8805 18.8384C51.3927 18.4533 52.8636 18.3318 54.2932 18.4741C55.7295 18.6118 56.9805 19.0255 58.0462 19.7153C59.1658 20.4399 59.824 21.3014 60.0206 22.2998C60.2171 23.2893 59.9167 24.2079 59.1195 25.0557L59.2612 25.1474C60.196 24.6966 61.2296 24.4153 62.362 24.3035C63.4942 24.1829 64.6146 24.2305 65.723 24.4464C66.8381 24.6577 67.8306 25.045 68.7007 25.6081C69.8203 26.3328 70.4953 27.2008 70.7255 28.2121C70.949 29.2191 70.7404 30.2719 70.0996 31.3705C69.4655 32.4647 68.4085 33.5096 66.9286 34.5051ZM64.0351 32.6323C64.8017 32.1166 65.3368 31.5831 65.6404 31.0317C65.9373 30.4759 65.9996 29.9355 65.8273 29.4104C65.655 28.8854 65.2552 28.4154 64.6278 28.0006C63.9602 27.5773 63.2068 27.314 62.3676 27.2108C61.5283 27.0987 60.677 27.1417 59.8137 27.3396C58.957 27.533 58.1654 27.8741 57.4387 28.3629C56.7054 28.8562 56.1971 29.3895 55.9139 29.9628C55.6306 30.5362 55.5786 31.1008 55.7579 31.6568C55.9371 32.2039 56.3605 32.6892 57.0281 33.1125C57.6555 33.5273 58.3686 33.7865 59.1676 33.8901C59.9597 33.9893 60.7741 33.9356 61.6105 33.7291C62.4536 33.518 63.2618 33.1525 64.0351 32.6323ZM54.5958 26.5229C55.2225 26.1014 55.6476 25.6463 55.8713 25.1575C56.1017 24.6643 56.1275 24.1751 55.9489 23.6899C55.7702 23.2047 55.3841 22.7656 54.7905 22.3726C54.1903 21.9929 53.5309 21.751 52.8124 21.6467C52.0872 21.5381 51.3599 21.5688 50.6304 21.739C49.8942 21.9049 49.2095 22.2008 48.5762 22.6268C47.9295 23.0617 47.4843 23.5259 47.2406 24.0192C46.9967 24.5037 46.9641 24.9841 47.1427 25.4605C47.3212 25.928 47.7105 26.3515 48.3107 26.7312C48.9043 27.1242 49.5671 27.3772 50.2991 27.4902C51.031 27.5944 51.7718 27.5679 52.5215 27.4108C53.2711 27.2449 53.9625 26.9489 54.5958 26.5229Z" fill="white"/>
<defs>
<linearGradient id="paint0_linear_91_4827" x1="5.78886" y1="54.8667" x2="90.5035" y2="54.8667" gradientUnits="userSpaceOnUse">
<stop offset="0.49037" stop-color="#012C95"/>
<stop offset="0.528239" stop-color="#032062"/>
</linearGradient>
</defs>
</svg>
