<svg width="97" height="84" viewBox="0 0 97 84" fill="none" xmlns="http://www.w3.org/2000/svg">
<path d="M82.367 24.5947H13.9263C9.64553 24.5947 6.17529 28.065 6.17529 32.3457V52.1519C6.17529 54.8046 7.53185 57.273 9.77115 58.6951L44.9459 81.0323C47.5367 82.6776 50.8543 82.6392 53.4064 80.9345L86.6724 58.7132C88.8253 57.2751 90.118 54.857 90.118 52.2679V32.3457C90.118 28.065 86.6478 24.5947 82.367 24.5947Z" fill="url(#paint0_linear_56_1991)"/>
<path d="M9.75405 24.7104L43.6565 2.72411C46.2133 1.06595 49.5046 1.05993 52.0675 2.70871L86.244 24.6954C90.916 27.7011 91.0022 34.5013 86.4078 37.6243L52.2319 60.8551C49.5933 62.6487 46.1252 62.6422 43.4933 60.8387L9.59018 37.6075C5.0278 34.4812 5.11372 27.7197 9.75405 24.7104Z" fill="#2A6AFF"/>
<path d="M43.8788 48.6594L41.1487 46.9338L41.2099 37.7415C41.1954 36.8494 41.1447 36.0817 41.058 35.4384C40.9714 34.795 40.7875 34.2374 40.5065 33.7655C40.2254 33.2935 39.7963 32.8752 39.219 32.5103C38.5602 32.0939 37.8488 31.8347 37.0848 31.7326C36.3139 31.6262 35.5409 31.6612 34.7658 31.8378C33.9907 32.0143 33.2741 32.3187 32.616 32.751C31.9378 33.1965 31.4861 33.677 31.261 34.1925C31.0291 34.7038 31.0302 35.2151 31.2644 35.7266C31.5052 36.2337 31.9821 36.7126 32.6952 37.1633L29.1396 39.499C27.8153 38.6619 26.963 37.738 26.5827 36.7273C26.2024 35.7166 26.2677 34.6976 26.7788 33.6704C27.2965 32.6388 28.237 31.6752 29.6001 30.7798C30.9834 29.8711 32.4603 29.238 34.0307 28.8804C35.6012 28.5228 37.1302 28.4419 38.6177 28.6378C40.112 28.8292 41.4432 29.2941 42.6113 30.0325C43.3923 30.5261 44.012 31.1082 44.4703 31.7788C44.9287 32.4493 45.2436 33.3192 45.4151 34.3883C45.5933 35.453 45.6662 36.8364 45.6338 38.5383L45.7354 43.1855L45.878 43.2757L54.8626 37.3737L58.0206 39.3698L43.8788 48.6594ZM69.0451 32.64C67.3865 33.7295 65.5384 34.3964 63.5009 34.6406C61.4634 34.876 59.3209 34.6946 57.0734 34.0963C54.8259 33.4893 52.5646 32.4668 50.2895 31.0288C48.0211 29.5864 46.4045 28.1535 45.4398 26.7301C44.475 25.298 44.1624 23.9276 44.5021 22.619C44.8485 21.306 45.8477 20.1069 47.4996 19.0218C49.1515 17.9367 50.9928 17.2699 53.0235 17.0214C55.0541 16.7729 57.1864 16.9479 59.4204 17.5463C61.6611 18.1403 63.9156 19.1542 66.1839 20.5879C68.4658 22.0302 70.0959 23.4717 71.0743 24.9124C72.0526 26.3444 72.372 27.719 72.0324 29.0364C71.6994 30.3493 70.7037 31.5505 69.0451 32.64ZM65.8565 30.6246C67.1458 29.7777 67.5214 28.7038 66.9832 27.4029C66.4449 26.0933 64.9228 24.6465 62.4168 23.0625C60.7597 22.0151 59.1962 21.2476 57.7264 20.76C56.2566 20.2724 54.9242 20.0534 53.7292 20.1031C52.5275 20.1484 51.5002 20.4512 50.6474 21.0114C49.3648 21.8539 48.996 22.9278 49.541 24.233C50.0792 25.5339 51.5878 26.9721 54.0667 28.5476C55.7238 29.6037 57.2873 30.3799 58.7572 30.8762C60.2339 31.3681 61.573 31.5914 62.7748 31.546C63.9698 31.4964 64.997 31.1892 65.8565 30.6246Z" fill="white"/>
<defs>
<linearGradient id="paint0_linear_56_1991" x1="5.78935" y1="53.5812" x2="90.504" y2="53.5812" gradientUnits="userSpaceOnUse">
<stop offset="0.49037" stop-color="#002D95"/>
<stop offset="0.528239" stop-color="#032063"/>
</linearGradient>
</defs>
</svg>
