<svg width="97" height="86" viewBox="0 0 97 86" fill="none" xmlns="http://www.w3.org/2000/svg">
<path d="M82.367 25.1848H13.9263C9.64553 25.1848 6.17529 28.6551 6.17529 32.9358V53.5596C6.17529 56.1826 7.50188 58.6276 9.70084 60.0575L44.8738 82.9295C47.4981 84.636 50.8914 84.5964 53.4752 82.8291L86.743 60.0735C88.8551 58.6288 90.118 56.2348 90.118 53.676V32.9358C90.118 28.655 86.6478 25.1848 82.367 25.1848Z" fill="url(#paint0_linear_91_4682)"/>
<path d="M9.45785 25.4999L43.5863 2.83607C46.1758 1.11642 49.5423 1.1102 52.1382 2.82027L86.5425 25.4846C91.1209 28.5006 91.2064 35.1868 86.7065 38.3189L52.3029 62.2656C49.6327 64.1242 46.086 64.1175 43.4229 62.2489L9.29375 38.3017C4.82597 35.1668 4.91119 28.5192 9.45785 25.4999Z" fill="#2A6AFF"/>
<path d="M51.1236 45.1363C49.7903 46.0331 48.3441 46.6721 46.7849 47.0532C45.2191 47.4299 43.681 47.5387 42.1707 47.3794C40.6671 47.2157 39.322 46.7763 38.1354 46.0611L41.7352 43.6396C42.6517 44.1448 43.7097 44.3501 44.9093 44.2554C46.1021 44.1563 47.1618 43.7952 48.0884 43.1719C48.8151 42.6831 49.2931 42.139 49.5225 41.5396C49.7519 40.9401 49.7298 40.3363 49.4562 39.7281C49.1825 39.1198 48.658 38.5691 47.8824 38.0759C47.1067 37.5651 46.2486 37.2253 45.3083 37.0566C44.3679 36.8879 43.4358 36.8873 42.5118 37.0548C41.5811 37.2179 40.7391 37.5528 39.9858 38.0596C39.3658 38.4677 38.8771 38.9478 38.5199 39.4996C38.1626 40.0515 38.0029 40.5685 38.0407 41.0505L34.1344 42.9436L24.5207 35.3091L36.4002 27.3183L39.5365 29.3482L30.7269 35.274L35.6305 39.2265L35.7505 39.1458C35.6786 38.5977 35.8409 37.9945 36.2374 37.336C36.6272 36.6732 37.2354 36.0638 38.0621 35.5078C39.302 34.6737 40.7054 34.1215 42.2722 33.8509C43.8323 33.576 45.4083 33.5842 47.0002 33.8754C48.5922 34.1667 50.0525 34.7423 51.3812 35.6023C52.7504 36.4885 53.6578 37.4894 54.1036 38.605C54.5493 39.7117 54.5257 40.8359 54.0329 41.9775C53.54 43.1103 52.5702 44.1632 51.1236 45.1363ZM61.0705 38.0716L58.3592 36.3167L58.4172 26.9703C58.4025 26.0633 58.352 25.2827 58.2657 24.6285C58.1795 23.9744 57.9967 23.4074 57.7175 22.9275C57.4383 22.4476 57.0121 22.0222 56.4388 21.6511C55.7846 21.2277 55.0781 20.964 54.3194 20.8601C53.5539 20.7518 52.7864 20.7874 52.0168 20.9667C51.2472 21.1461 50.5357 21.4556 49.8824 21.895C49.2091 22.3479 48.7608 22.8364 48.5374 23.3606C48.3073 23.8803 48.3085 24.4003 48.5411 24.9204C48.7804 25.436 49.2542 25.923 49.9624 26.3814L46.4325 28.7557C45.1173 27.9045 44.2707 26.965 43.8928 25.9373C43.5148 24.9096 43.5794 23.8735 44.0866 22.8291C44.6003 21.7803 45.5339 20.8007 46.8872 19.8904C48.2604 18.9667 49.7267 18.3231 51.286 17.9597C52.8453 17.5963 54.3635 17.5143 55.8406 17.7136C57.3244 17.9085 58.6463 18.3813 59.8064 19.1322C60.5821 19.6342 61.1976 20.2261 61.6529 20.908C62.1083 21.5899 62.4212 22.4743 62.5918 23.5614C62.769 24.644 62.8418 26.0505 62.8102 27.781L62.9124 32.5062L63.054 32.5978L71.9737 26.5981L75.11 28.628L61.0705 38.0716Z" fill="white"/>
<defs>
<linearGradient id="paint0_linear_91_4682" x1="5.78935" y1="54.8667" x2="90.504" y2="54.8667" gradientUnits="userSpaceOnUse">
<stop offset="0.49037" stop-color="#012C95"/>
<stop offset="0.528239" stop-color="#032062"/>
</linearGradient>
</defs>
</svg>
