<svg width="97" height="84" viewBox="0 0 97 84" fill="none" xmlns="http://www.w3.org/2000/svg">
<path d="M82.367 24.5947H13.9263C9.64553 24.5947 6.17529 28.065 6.17529 32.3457V52.1519C6.17529 54.8046 7.53185 57.273 9.77115 58.6951L44.9459 81.0323C47.5367 82.6776 50.8543 82.6392 53.4064 80.9345L86.6724 58.7132C88.8253 57.2751 90.118 54.857 90.118 52.2679V32.3457C90.118 28.065 86.6478 24.5947 82.367 24.5947Z" fill="url(#paint0_linear_56_1951)"/>
<path d="M9.75405 24.7104L43.6565 2.72411C46.2133 1.06595 49.5046 1.05993 52.0675 2.70871L86.244 24.6954C90.916 27.7011 91.0022 34.5013 86.4078 37.6243L52.2319 60.8551C49.5933 62.6487 46.1252 62.6422 43.4933 60.8387L9.59018 37.6075C5.0278 34.4812 5.11372 27.7197 9.75405 24.7104Z" fill="#2A6AFF"/>
<path d="M31.4063 29.961L52.2692 43.1478L48.5323 45.6025L31.3469 34.7401L31.226 34.8195L29.5185 39.9592L26.0549 37.7699L27.8507 32.2966L31.4063 29.961ZM57.0342 40.0177L54.3041 38.2921L54.3653 29.0999C54.3507 28.2078 54.3001 27.4401 54.2134 26.7968C54.1267 26.1534 53.9428 25.5958 53.6618 25.1238C53.3808 24.6519 52.9516 24.2335 52.3744 23.8687C51.7156 23.4523 51.0042 23.193 50.2401 23.0909C49.4693 22.9845 48.6963 23.0196 47.9212 23.1961C47.146 23.3727 46.4294 23.6771 45.7714 24.1093C45.0932 24.5549 44.6415 25.0354 44.4164 25.5509C44.1845 26.0621 44.1856 26.5735 44.4197 27.085C44.6605 27.5921 45.1375 28.071 45.8506 28.5217L42.295 30.8574C40.9707 30.0203 40.1184 29.0964 39.7381 28.0857C39.3577 27.075 39.4231 26.056 39.9341 25.0288C40.4519 23.9971 41.3923 23.0336 42.7555 22.1382C44.1387 21.2295 45.6156 20.5964 47.1861 20.2388C48.7566 19.8812 50.2856 19.8003 51.7731 19.9962C53.2673 20.1876 54.5985 20.6525 55.7666 21.3908C56.5476 21.8845 57.1673 22.4666 57.6257 23.1371C58.0841 23.8077 58.399 24.6776 58.5704 25.7467C58.7486 26.8114 58.8215 28.1947 58.7892 29.8967L58.8907 34.5439L59.0333 34.634L68.018 28.7321L71.176 30.7281L57.0342 40.0177Z" fill="white"/>
<defs>
<linearGradient id="paint0_linear_56_1951" x1="5.78935" y1="53.5812" x2="90.504" y2="53.5812" gradientUnits="userSpaceOnUse">
<stop offset="0.49037" stop-color="#002D95"/>
<stop offset="0.528239" stop-color="#032063"/>
</linearGradient>
</defs>
</svg>
