<svg width="97" height="84" viewBox="0 0 97 84" fill="none" xmlns="http://www.w3.org/2000/svg">
<path d="M82.367 24.5947H13.9263C9.64553 24.5947 6.17529 28.065 6.17529 32.3457V52.1519C6.17529 54.8046 7.53185 57.273 9.77115 58.6951L44.9459 81.0323C47.5367 82.6776 50.8543 82.6392 53.4064 80.9345L86.6724 58.7132C88.8253 57.2751 90.118 54.857 90.118 52.2679V32.3457C90.118 28.065 86.6478 24.5947 82.367 24.5947Z" fill="url(#paint0_linear_56_1941)"/>
<path d="M9.75405 24.7104L43.6565 2.72411C46.2133 1.06595 49.5046 1.05993 52.0675 2.70871L86.244 24.6954C90.916 27.7011 91.0022 34.5013 86.4078 37.6243L52.2319 60.8551C49.5933 62.6487 46.1252 62.6422 43.4933 60.8387L9.59018 37.6075C5.0278 34.4812 5.11372 27.7197 9.75405 24.7104Z" fill="#2A6AFF"/>
<path d="M31.4063 29.961L52.2692 43.1478L48.5323 45.6025L31.3469 34.7401L31.226 34.8195L29.5185 39.9592L26.0549 37.7699L27.8507 32.2966L31.4063 29.961ZM65.0564 35.2601C63.3977 36.3497 61.5497 37.0165 59.5122 37.2607C57.4747 37.4962 55.3322 37.3148 53.0847 36.7165C50.8372 36.1095 48.5759 35.087 46.3008 33.6489C44.0324 32.2065 42.4158 30.7736 41.4511 29.3502C40.4862 27.9181 40.1737 26.5478 40.5134 25.2391C40.8598 23.9261 41.859 22.727 43.5109 21.6419C45.1628 20.5568 47.0041 19.89 49.0347 19.6416C51.0654 19.3931 53.1977 19.5681 55.4317 20.1665C57.6724 20.7605 59.9269 21.7743 62.1952 23.2081C64.4771 24.6504 66.1072 26.0919 67.0856 27.5325C68.0639 28.9645 68.3833 30.3392 68.0436 31.6565C67.7107 32.9694 66.715 34.1706 65.0564 35.2601ZM61.8678 33.2448C63.1571 32.3979 63.5326 31.3239 62.9945 30.023C62.4562 28.7134 60.934 27.2666 58.4281 25.6826C56.771 24.6352 55.2075 23.8677 53.7377 23.3801C52.2679 22.8925 50.9355 22.6736 49.7405 22.7232C48.5388 22.7686 47.5115 23.0713 46.6587 23.6315C45.3761 24.474 45.0073 25.5479 45.5523 26.8531C46.0905 28.154 47.599 29.5922 50.078 31.1677C51.7351 32.2238 53.2986 33 54.7685 33.4964C56.2452 33.9883 57.5843 34.2115 58.7861 34.1662C59.9811 34.1165 61.0083 33.8094 61.8678 33.2448Z" fill="white"/>
<defs>
<linearGradient id="paint0_linear_56_1941" x1="5.78935" y1="53.5812" x2="90.504" y2="53.5812" gradientUnits="userSpaceOnUse">
<stop offset="0.49037" stop-color="#002D95"/>
<stop offset="0.528239" stop-color="#032063"/>
</linearGradient>
</defs>
</svg>
