<svg width="18" height="18" viewBox="0 0 18 18" fill="none" xmlns="http://www.w3.org/2000/svg">
<path d="M9.5625 10.8902H9.73501C9.98251 10.8902 10.1925 10.6652 10.1925 10.3877C10.1925 10.0352 10.11 9.99023 9.87 9.90773L9.5625 9.80273V10.8902Z" fill="#8DFFB2"/>
<path d="M9 1.5C4.86 1.5 1.5 4.86 1.5 9C1.5 13.14 4.86 16.5 9 16.5C13.14 16.5 16.5 13.14 16.5 9C16.5 4.86 13.14 1.5 9 1.5ZM5.68499 12.315C5.90249 12.5325 5.90249 12.8925 5.68499 13.11C5.57249 13.2225 5.42999 13.275 5.28749 13.275C5.14499 13.275 5.00249 13.2225 4.88999 13.11C3.79499 12.015 3.1875 10.5525 3.1875 9C3.1875 7.4475 3.79499 5.985 4.88999 4.89C5.10749 4.6725 5.46749 4.6725 5.68499 4.89C5.90249 5.1075 5.90249 5.4675 5.68499 5.685C4.79999 6.57 4.3125 7.7475 4.3125 9C4.3125 10.2525 4.79999 11.43 5.68499 12.315ZM10.2375 8.835C10.9575 9.09 11.31 9.5925 11.31 10.38C11.31 11.28 10.605 12.0075 9.7275 12.0075H9.55499V12.1425C9.55499 12.45 9.29999 12.705 8.99249 12.705C8.68499 12.705 8.42999 12.45 8.42999 12.1425V12.0075H8.40749C7.45499 12.0075 6.675 11.205 6.675 10.2225C6.675 9.915 6.93 9.66 7.2375 9.66C7.545 9.66 7.8 9.915 7.8 10.2225C7.8 10.59 8.06999 10.8825 8.40749 10.8825H8.42999V9.3975L7.755 9.1575C7.035 8.9025 6.6825 8.4 6.6825 7.6125C6.6825 6.7125 7.38749 5.985 8.26499 5.985H8.4375V5.85C8.4375 5.5425 8.6925 5.2875 9 5.2875C9.3075 5.2875 9.5625 5.5425 9.5625 5.85V5.985H9.585C10.5375 5.985 11.3175 6.7875 11.3175 7.77C11.3175 8.0775 11.0625 8.3325 10.755 8.3325C10.4475 8.3325 10.1925 8.0775 10.1925 7.77C10.1925 7.4025 9.9225 7.11 9.585 7.11H9.5625V8.595L10.2375 8.835ZM13.11 13.11C12.9975 13.2225 12.855 13.275 12.7125 13.275C12.57 13.275 12.4275 13.2225 12.315 13.11C12.0975 12.8925 12.0975 12.5325 12.315 12.315C13.2 11.43 13.6875 10.2525 13.6875 9C13.6875 7.7475 13.2 6.57 12.315 5.685C12.0975 5.4675 12.0975 5.1075 12.315 4.89C12.5325 4.6725 12.8925 4.6725 13.11 4.89C14.205 5.985 14.8125 7.4475 14.8125 9C14.8125 10.5525 14.205 12.015 13.11 13.11Z" fill="#8DFFB2"/>
<path d="M7.81506 7.61986C7.81506 7.97236 7.89756 8.01736 8.13756 8.09986L8.44506 8.20486V7.10986H8.27255C8.01755 7.10986 7.81506 7.34236 7.81506 7.61986Z" fill="#8DFFB2"/>
</svg>
