<svg width="21" height="15" viewBox="0 0 21 15" fill="none" xmlns="http://www.w3.org/2000/svg">
<path d="M19.3054 8.09977C22.7552 8.31098 14.0545 12.2946 9.27298 14.26L8.56895 13.204C7.86492 12.1479 10.417 11.6199 11.7371 9.59583C13.0571 7.57175 14.9932 7.83576 19.3054 8.09977Z" fill="black" fill-opacity="0.31"/>
<path d="M14.497 4.32861H2.4509C1.69746 4.32861 1.08667 4.9394 1.08667 5.69284V9.17889C1.08667 9.64578 1.32543 10.0802 1.71957 10.3305L7.91059 14.2621C8.36659 14.5516 8.95051 14.5449 9.3997 14.2448L15.2548 10.3337C15.6337 10.0806 15.8612 9.655 15.8612 9.19931V5.69284C15.8612 4.9394 15.2504 4.32861 14.497 4.32861Z" fill="url(#paint0_linear_89_3347)"/>
<path d="M1.71678 4.34922L7.68387 0.479463C8.1339 0.187615 8.71318 0.186554 9.16427 0.476753L15.1796 4.34658C16.0019 4.8756 16.0171 6.07248 15.2084 6.62216L9.19321 10.711C8.72879 11.0266 8.11838 11.0255 7.65515 10.7081L1.68794 6.6192C0.884931 6.06896 0.90005 4.87888 1.71678 4.34922Z" fill="#2A6AFF"/>
<path d="M8.79661 7.51313C8.50469 7.70489 8.17942 7.82226 7.82081 7.86524C7.46218 7.90668 7.08509 7.87475 6.68951 7.76945C6.29393 7.66261 5.89592 7.48264 5.49549 7.22954C5.09624 6.97567 4.81171 6.72346 4.64191 6.47293C4.47209 6.22087 4.41708 5.97968 4.47687 5.74935C4.53784 5.51825 4.7137 5.30721 5.00445 5.11622C5.29519 4.92523 5.61927 4.80787 5.97669 4.76414C6.3341 4.72041 6.70941 4.7512 7.1026 4.85653C7.49698 4.96108 7.89378 5.13952 8.29302 5.39187C8.69465 5.64573 8.98157 5.89944 9.15378 6.15301C9.32597 6.40505 9.38218 6.647 9.3224 6.87886C9.2638 7.10994 9.08854 7.32136 8.79661 7.51313ZM8.23541 7.15841C8.46233 7.00934 8.52843 6.82033 8.4337 6.59135C8.33896 6.36085 8.07106 6.1062 7.62998 5.82741C7.33832 5.64307 7.06314 5.50798 6.80444 5.42216C6.54574 5.33634 6.31123 5.29779 6.10091 5.30653C5.88939 5.31451 5.70858 5.36781 5.55848 5.4664C5.33274 5.61469 5.26783 5.8037 5.36375 6.03343C5.45848 6.2624 5.72399 6.51553 6.1603 6.79283C6.45197 6.97871 6.72717 7.11533 6.98588 7.20269C7.24578 7.28926 7.48148 7.32856 7.693 7.32058C7.90332 7.31184 8.08413 7.25778 8.23541 7.15841ZM10.6667 6.19453L9.11976 3.22641L9.09466 3.21054L7.30232 4.38791L6.7465 4.03659L9.2196 2.41203L9.78798 2.77129L11.3493 5.74618L10.6667 6.19453Z" fill="white"/>
<defs>
<linearGradient id="paint0_linear_89_3347" x1="1.01874" y1="9.43046" x2="15.9292" y2="9.43046" gradientUnits="userSpaceOnUse">
<stop offset="0.49037" stop-color="#012C95"/>
<stop offset="0.528239" stop-color="#032062"/>
</linearGradient>
</defs>
</svg>
