<svg width="18" height="18" viewBox="0 0 18 18" fill="none" xmlns="http://www.w3.org/2000/svg">
<path d="M4.05949 11.0454H1.73854C0.782343 11.0454 0 11.8278 0 12.7839V17.1303C0 17.6084 0.391171 17.9996 0.86927 17.9996H4.05949C4.53759 17.9996 4.92876 17.6084 4.92876 17.1303V11.9147C4.92876 11.4366 4.53759 11.0454 4.05949 11.0454Z" fill="#FFC900"/>
<path d="M9.84904 7.56885H7.52809C6.57189 7.56885 5.78955 8.35119 5.78955 9.30739V17.1308C5.78955 17.6089 6.18072 18.0001 6.65882 18.0001H10.7183C11.1964 18.0001 11.5876 17.6089 11.5876 17.1308V9.30739C11.5876 8.35119 10.8139 7.56885 9.84904 7.56885Z" fill="#FFC900"/>
<path d="M15.647 13.6528H13.3261C12.848 13.6528 12.4568 14.044 12.4568 14.5221V17.1299C12.4568 17.608 12.848 17.9992 13.3261 17.9992H16.5163C16.9944 17.9992 17.3855 17.608 17.3855 17.1299V15.3914C17.3855 14.4352 16.6032 13.6528 15.647 13.6528Z" fill="#FFC900"/>
<path d="M11.3096 3.09243C11.5791 2.82295 11.6834 2.50132 11.5964 2.22316C11.5095 1.94499 11.24 1.74506 10.8576 1.68421L10.0231 1.54513C9.98829 1.54513 9.91005 1.48428 9.89267 1.44951L9.43195 0.528081C9.08425 -0.176027 8.29321 -0.176027 7.9455 0.528081L7.48479 1.44951C7.4761 1.48428 7.39786 1.54513 7.36309 1.54513L6.52859 1.68421C6.14611 1.74506 5.88533 1.94499 5.78971 2.22316C5.70279 2.50132 5.8071 2.82295 6.07657 3.09243L6.71983 3.74438C6.7546 3.77046 6.78068 3.87477 6.77199 3.90954L6.58944 4.70927C6.45036 5.30907 6.67637 5.57854 6.82415 5.68285C6.97192 5.78716 7.29355 5.92625 7.82381 5.61331L8.60615 5.1526C8.64092 5.12652 8.75392 5.12652 8.78869 5.1526L9.56234 5.61331C9.80574 5.76109 10.0057 5.80455 10.1621 5.80455C10.3447 5.80455 10.4751 5.73501 10.5533 5.68285C10.7011 5.57854 10.9271 5.30907 10.788 4.70927L10.6055 3.90954C10.5968 3.86608 10.6229 3.77046 10.6576 3.74438L11.3096 3.09243Z" fill="#FFC900"/>
</svg>
