<svg width="151" height="144" viewBox="0 0 151 144" fill="none" xmlns="http://www.w3.org/2000/svg">
<g filter="url(#filter0_i_58_2040)">
<path d="M73.7236 0.902989C74.3178 -0.301069 76.0347 -0.301069 76.629 0.902989L98.6046 45.4305C98.8406 45.9087 99.2968 46.2401 99.8244 46.3168L148.963 53.4571C150.292 53.6502 150.823 55.2831 149.861 56.2203L114.304 90.8802C113.922 91.2524 113.748 91.7886 113.838 92.3141L122.232 141.255C122.459 142.578 121.07 143.587 119.881 142.962L75.9301 119.856C75.4582 119.608 74.8944 119.608 74.4224 119.856L30.4711 142.962C29.2826 143.587 27.8936 142.578 28.1205 141.255L36.5145 92.3141C36.6046 91.7886 36.4304 91.2524 36.0486 90.8802L0.491231 56.2203C-0.470266 55.2831 0.0603002 53.6502 1.38906 53.4571L50.5281 46.3168C51.0558 46.2401 51.5119 45.9087 51.7479 45.4305L73.7236 0.902989Z" fill="url(#paint0_linear_58_2040)"/>
</g>
<defs>
<filter id="filter0_i_58_2040" x="0" y="0" width="161.693" height="143.152" filterUnits="userSpaceOnUse" color-interpolation-filters="sRGB">
<feFlood flood-opacity="0" result="BackgroundImageFix"/>
<feBlend mode="normal" in="SourceGraphic" in2="BackgroundImageFix" result="shape"/>
<feColorMatrix in="SourceAlpha" type="matrix" values="0 0 0 0 0 0 0 0 0 0 0 0 0 0 0 0 0 0 127 0" result="hardAlpha"/>
<feOffset dx="11.34"/>
<feGaussianBlur stdDeviation="6.804"/>
<feComposite in2="hardAlpha" operator="arithmetic" k2="-1" k3="1"/>
<feColorMatrix type="matrix" values="0 0 0 0 1 0 0 0 0 0.552941 0 0 0 0 0.156863 0 0 0 1 0"/>
<feBlend mode="normal" in2="shape" result="effect1_innerShadow_58_2040"/>
</filter>
<linearGradient id="paint0_linear_58_2040" x1="75.1763" y1="-2.04053" x2="99.2027" y2="177.148" gradientUnits="userSpaceOnUse">
<stop offset="0.108405" stop-color="#FFCC00"/>
<stop offset="1" stop-color="#FF8D28"/>
</linearGradient>
</defs>
</svg>
